<svg width="54" height="55" viewBox="0 0 54 55" fill="none" xmlns="http://www.w3.org/2000/svg">
<circle cx="26.719" cy="27.5288" r="26.719" fill="#261229"/>
<path d="M25.8648 22.2578C26.1816 21.9768 26.3065 21.5351 26.1414 21.1425C26.0388 20.906 25.9273 20.674 25.8023 20.4509L25.664 20.21C25.5302 19.9869 25.383 19.7683 25.2268 19.5586C24.9725 19.2196 24.5264 19.108 24.1248 19.2419L22.8667 19.6568C22.3893 19.2642 21.8405 18.943 21.2516 18.7243L20.9795 17.4305C20.8947 17.0156 20.5735 16.6854 20.1541 16.6364C19.8507 16.5962 19.5473 16.5784 19.2395 16.5784C18.9316 16.5784 18.6283 16.5962 18.3293 16.6319C17.91 16.681 17.5887 17.0156 17.504 17.4261L17.2318 18.7243C16.6384 18.9474 16.0941 19.2642 15.6168 19.6568L14.3542 19.2463C13.9526 19.1125 13.5065 19.224 13.2522 19.5631C13.096 19.7728 12.9488 19.9914 12.8105 20.2145L12.6766 20.4509C12.5517 20.674 12.4402 20.906 12.3376 21.1469C12.1725 21.5351 12.2974 21.9768 12.6142 22.2623L13.6046 23.1457C13.5556 23.4446 13.5288 23.7569 13.5288 24.0737C13.5288 24.3904 13.5556 24.7027 13.6046 25.0061L12.6142 25.8895C12.2974 26.1706 12.1725 26.6123 12.3376 27.0049C12.4402 27.2413 12.5517 27.4733 12.6766 27.7009L12.8105 27.9329C12.9443 28.1604 13.0916 28.3745 13.2522 28.5842C13.5065 28.9233 13.9526 29.0348 14.3542 28.901L15.6123 28.4861C16.0897 28.8787 16.6384 29.1999 17.2274 29.4185L17.4995 30.7168C17.5843 31.1317 17.9055 31.4619 18.3249 31.511C18.6238 31.5467 18.9272 31.5645 19.235 31.5645C19.5429 31.5645 19.8462 31.5467 20.1452 31.511C20.5645 31.4619 20.8858 31.1273 20.9705 30.7168L21.2427 29.4185C21.8361 29.1955 22.3804 28.8787 22.8578 28.4861L24.1159 28.901C24.5174 29.0348 24.9636 28.9233 25.2179 28.5842C25.374 28.3745 25.5213 28.1604 25.6551 27.9329L25.7934 27.6919C25.9183 27.4689 26.0299 27.2369 26.1325 27.0004C26.2976 26.6123 26.1726 26.1706 25.8559 25.885L24.8654 25.0017C24.9145 24.6983 24.9413 24.386 24.9413 24.0692C24.9413 23.7524 24.9145 23.4401 24.8654 23.1368L25.8559 22.2534L25.8648 22.2578ZM21.381 24.0737C21.381 25.256 20.4218 26.2152 19.2395 26.2152C18.0572 26.2152 17.098 25.256 17.098 24.0737C17.098 22.8914 18.0572 21.9322 19.2395 21.9322C20.4218 21.9322 21.381 22.8914 21.381 24.0737ZM34.6182 38.5512C34.8993 38.868 35.341 38.9929 35.7336 38.8278C35.9701 38.7252 36.2021 38.6137 36.4251 38.4887L36.6661 38.3504C36.8891 38.2166 37.1077 38.0694 37.3174 37.9132C37.6565 37.6589 37.768 37.2127 37.6342 36.8112L37.2193 35.5531C37.6119 35.0757 37.9331 34.5269 38.1517 33.938L39.45 33.6659C39.8649 33.5811 40.1951 33.2599 40.2442 32.8405C40.2799 32.5416 40.2977 32.2382 40.2977 31.9303C40.2977 31.6225 40.2799 31.3191 40.2442 31.0202C40.1951 30.6008 39.8605 30.2796 39.45 30.1948L38.1517 29.9182C37.9287 29.3248 37.6119 28.7805 37.2193 28.3032L37.6342 27.045C37.768 26.6435 37.6565 26.1973 37.3174 25.943C37.1077 25.7869 36.8891 25.6396 36.6661 25.5013L36.4296 25.3675C36.2065 25.2426 35.9745 25.131 35.7336 25.0284C35.3455 24.8633 34.9038 24.9883 34.6182 25.305L33.7349 26.2955C33.4315 26.2464 33.1192 26.2196 32.8024 26.2196C32.4856 26.2196 32.1733 26.2464 31.87 26.2955L30.9866 25.305C30.7055 24.9883 30.2638 24.8633 29.8712 25.0284C29.6348 25.131 29.4028 25.2426 29.1752 25.3675L28.9432 25.5013C28.7157 25.6352 28.5015 25.7824 28.2918 25.943C27.9528 26.1973 27.8412 26.6435 27.9751 27.045L28.39 28.3032C27.9974 28.7805 27.6762 29.3293 27.4575 29.9182L26.1593 30.1859C25.7443 30.2707 25.4142 30.5919 25.3651 31.0113C25.3294 31.3102 25.3116 31.6136 25.3116 31.9214C25.3116 32.2293 25.3294 32.5326 25.3651 32.8316C25.4142 33.2509 25.7488 33.5722 26.1593 33.6569L27.4575 33.9291C27.6806 34.5225 27.9974 35.0668 28.39 35.5441L27.9751 36.8023C27.8412 37.2038 27.9528 37.65 28.2918 37.9043C28.5015 38.0604 28.7157 38.2077 28.9432 38.3415L29.1841 38.4798C29.4072 38.6047 29.6392 38.7163 29.8757 38.8189C30.2638 38.984 30.7055 38.859 30.991 38.5423L31.8744 37.5518C32.1778 37.6009 32.4901 37.6277 32.8069 37.6277C33.1236 37.6277 33.4359 37.6009 33.7393 37.5518L34.6227 38.5423L34.6182 38.5512ZM32.8024 34.0674C31.6201 34.0674 30.6609 33.1082 30.6609 31.9259C30.6609 30.7436 31.6201 29.7844 32.8024 29.7844C33.9847 29.7844 34.9439 30.7436 34.9439 31.9259C34.9439 33.1082 33.9847 34.0674 32.8024 34.0674Z" fill="#C99A40"/>
</svg>
