<svg width="54" height="54" viewBox="0 0 54 54" fill="none" xmlns="http://www.w3.org/2000/svg">
<circle cx="26.719" cy="26.9834" r="26.719" fill="#261229"/>
<path d="M25.333 16.8728H27.9431V18.1779H25.333V16.8728Z" fill="#C99A40"/>
<path d="M22.723 18.1778C23.4438 18.1778 24.0281 17.5936 24.0281 16.8728C24.0281 16.152 23.4438 15.5677 22.723 15.5677C22.0023 15.5677 21.418 16.152 21.418 16.8728C21.418 17.5936 22.0023 18.1778 22.723 18.1778Z" fill="#C99A40"/>
<path d="M30.5531 18.1778C31.2739 18.1778 31.8581 17.5936 31.8581 16.8728C31.8581 16.152 31.2739 15.5677 30.5531 15.5677C29.8323 15.5677 29.248 16.152 29.248 16.8728C29.248 17.5936 29.8323 18.1778 30.5531 18.1778Z" fill="#C99A40"/>
<path d="M34.4683 24.7032H27.9431V22.0931L31.8582 22.0801C32.8943 22.0801 33.8882 21.6694 34.622 20.9379C35.3559 20.2065 35.7699 19.2141 35.7734 18.178V15.5679C35.7703 14.5304 35.3568 13.5364 34.6232 12.8029C33.8897 12.0693 32.8956 11.6558 31.8582 11.6527H21.4178C20.3804 11.6558 19.3864 12.0693 18.6528 12.8029C17.9193 13.5364 17.5058 14.5304 17.5027 15.5679V18.178C17.5058 19.2154 17.9193 20.2094 18.6528 20.943C19.3864 21.6765 20.3804 22.09 21.4178 22.0931H25.333V24.7032H18.8077C17.7703 24.7063 16.7763 25.1198 16.0427 25.8533C15.3092 26.5869 14.8957 27.5809 14.8926 28.6183V39.0587C14.8957 40.0961 15.3092 41.0902 16.0427 41.8237C16.7763 42.5573 17.7703 42.9708 18.8077 42.9739H34.4683C35.5057 42.9708 36.4998 42.5573 37.2333 41.8237C37.9669 41.0902 38.3804 40.0961 38.3835 39.0587V28.6183C38.3804 27.5809 37.9669 26.5869 37.2333 25.8533C36.4998 25.1198 35.5057 24.7063 34.4683 24.7032ZM21.4178 19.483C21.072 19.482 20.7407 19.3441 20.4962 19.0996C20.2516 18.8551 20.1138 18.5238 20.1128 18.178V15.5679C20.1138 15.2221 20.2516 14.8907 20.4962 14.6462C20.7407 14.4017 21.072 14.2638 21.4178 14.2628H31.8452C32.1923 14.2635 32.5252 14.4008 32.7719 14.645C33.0185 14.8892 33.1591 15.2208 33.1633 15.5679V18.178C33.1591 18.5251 33.0185 18.8566 32.7719 19.1008C32.5252 19.345 32.1923 19.4823 31.8452 19.483H21.4178ZM27.2057 37.8477L26.638 38.4062L26.0703 37.8424C26.0685 37.8406 26.0667 37.8388 26.0649 37.837C24.0516 35.8473 22.7229 34.534 22.7229 32.9224C22.7078 32.6264 22.7518 32.3303 22.8523 32.0515C22.9527 31.7726 23.1077 31.5165 23.3081 31.2982C23.5085 31.0798 23.7503 30.9035 24.0196 30.7795C24.2888 30.6555 24.58 30.5863 24.8762 30.5759C25.218 30.5823 25.554 30.6657 25.8591 30.8201C26.1641 30.9744 26.4304 31.1957 26.638 31.4673C26.8456 31.1957 27.1119 30.9744 27.417 30.8201C27.722 30.6657 28.058 30.5823 28.3998 30.5759C28.6961 30.5863 28.9873 30.6555 29.2565 30.7795C29.5257 30.9035 29.7676 31.0798 29.968 31.2982C30.1684 31.5165 30.3233 31.7726 30.4238 32.0515C30.5243 32.3303 30.5682 32.6264 30.5532 32.9224C30.5532 34.5306 29.2301 35.8417 27.224 37.8295C27.2179 37.8356 27.2118 37.8416 27.2057 37.8477Z" fill="#C99A40"/>
<path d="M27.2057 37.8477L26.638 38.4062L26.0703 37.8424L26.0649 37.837C24.0516 35.8473 22.7229 34.534 22.7229 32.9224C22.7078 32.6264 22.7518 32.3303 22.8523 32.0515C22.9527 31.7726 23.1077 31.5165 23.3081 31.2982C23.5085 31.0798 23.7503 30.9035 24.0196 30.7795C24.2888 30.6555 24.58 30.5863 24.8762 30.5759C25.218 30.5823 25.554 30.6657 25.8591 30.8201C26.1641 30.9744 26.4304 31.1957 26.638 31.4673C26.8456 31.1957 27.1119 30.9744 27.417 30.8201C27.722 30.6657 28.058 30.5823 28.3998 30.5759C28.6961 30.5863 28.9873 30.6555 29.2565 30.7795C29.5257 30.9035 29.7676 31.0798 29.968 31.2982C30.1684 31.5165 30.3233 31.7726 30.4238 32.0515C30.5243 32.3303 30.5682 32.6264 30.5532 32.9224C30.5532 34.5306 29.2301 35.8417 27.224 37.8295L27.2057 37.8477Z" fill="#C99A40"/>
</svg>
