<svg width="40" height="39" viewBox="0 0 40 39" fill="none" xmlns="http://www.w3.org/2000/svg">
<path d="M0.666992 0.294922V38.7671H39.1392V0.294922H0.666992ZM26.3151 11.516H23.2326C22.2451 11.516 21.5061 11.9199 21.5061 12.9411V14.722H26.3151L25.932 19.531H21.5061V32.3551H16.6971V19.531H13.4911V14.722H16.6971V11.6394C16.6971 8.39813 18.4027 6.70696 22.2451 6.70696H26.3151V11.516Z" fill="#0F0F0F"/>
<path d="M26.3151 11.516H23.2326C22.2451 11.516 21.5061 11.9199 21.5061 12.9411V14.722H26.3151L25.932 19.531H21.5061V32.3551H16.6971V19.531H13.4911V14.722H16.6971V11.6394C16.6971 8.39813 18.4027 6.70696 22.2451 6.70696H26.3151V11.516Z" fill="white"/>
</svg>
