<svg width="31" height="32" viewBox="0 0 31 32" fill="none" xmlns="http://www.w3.org/2000/svg">
<g clip-path="url(#clip0_824_71595)">
<path d="M30.4857 16.2873C30.4857 15.0294 30.3836 14.1115 30.1627 13.1595H15.7988V18.837H24.2301C24.0602 20.248 23.1423 22.3728 21.1024 23.8006L21.0738 23.9907L25.6154 27.509L25.93 27.5404C28.8198 24.8716 30.4857 20.9449 30.4857 16.2873Z" fill="#4285F4"/>
<path d="M15.7988 31.2461C19.9295 31.2461 23.3971 29.8861 25.93 27.5404L21.1024 23.8006C19.8105 24.7015 18.0766 25.3304 15.7988 25.3304C11.7532 25.3304 8.31945 22.6617 7.09543 18.973L6.91602 18.9883L2.19359 22.643L2.13184 22.8147C4.64762 27.8122 9.81523 31.2461 15.7988 31.2461Z" fill="#34A853"/>
<path d="M7.09543 18.9731C6.77246 18.0212 6.58555 17.0012 6.58555 15.9473C6.58555 14.8933 6.77246 13.8735 7.07844 12.9215L7.06988 12.7188L2.28828 9.00537L2.13184 9.07979C1.09496 11.1537 0.5 13.4825 0.5 15.9473C0.5 18.4121 1.09496 20.7409 2.13184 22.8147L7.09543 18.9731Z" fill="#FBBC05"/>
<path d="M15.7988 6.56395C18.6716 6.56395 20.6094 7.80484 21.7143 8.84184L26.032 4.62613C23.3803 2.16133 19.9295 0.648438 15.7988 0.648438C9.81523 0.648438 4.64762 4.08215 2.13184 9.07973L7.07844 12.9215C8.31945 9.23277 11.7532 6.56395 15.7988 6.56395Z" fill="#EB4335"/>
</g>
<defs>
<clipPath id="clip0_824_71595">
<rect width="30" height="30.7031" fill="white" transform="translate(0.5 0.648438)"/>
</clipPath>
</defs>
</svg>
