<svg width="40" height="39" viewBox="0 0 40 39" fill="none" xmlns="http://www.w3.org/2000/svg">
<g clip-path="url(#clip0_31_45)">
<path d="M24.317 19.531C24.317 21.8923 22.403 23.8063 20.0418 23.8063C17.6805 23.8063 15.7665 21.8939 15.7665 19.531C15.7665 17.1698 17.6805 15.2558 20.0418 15.2558C22.403 15.2558 24.317 17.1698 24.317 19.531ZM30.4822 14.3501C30.5431 15.7014 30.5559 16.107 30.5559 19.531C30.5559 22.9551 30.5431 23.3606 30.4822 24.7136C30.3219 28.16 28.7044 29.8127 25.2259 29.9698C23.873 30.0307 23.4674 30.0452 20.0418 30.0452C16.6177 30.0452 16.2106 30.0323 14.8608 29.9714C11.3759 29.8127 9.76168 28.1568 9.60458 24.7152C9.54206 23.3606 9.52764 22.9551 9.52764 19.531C9.52764 16.107 9.54206 15.7014 9.60298 14.3501C9.76168 10.9004 11.3807 9.25093 14.8592 9.09384C16.2122 9.03132 16.6177 9.0185 20.0418 9.0185C23.4658 9.0185 23.873 9.03132 25.2243 9.09224C28.6996 9.25093 30.3219 10.9004 30.4822 14.3501ZM26.6269 19.531C26.6269 15.8938 23.6774 12.9459 20.0418 12.9459C16.4045 12.9459 13.4566 15.8938 13.4566 19.531C13.4566 23.1683 16.4061 26.1162 20.0418 26.1162C23.679 26.1162 26.6269 23.1683 26.6269 19.531ZM28.4255 12.6862C28.4255 11.8366 27.7362 11.1473 26.8866 11.1473C26.037 11.1473 25.3477 11.8366 25.3477 12.6862C25.3477 13.5358 26.037 14.2251 26.8866 14.2251C27.7378 14.2251 28.4255 13.5358 28.4255 12.6862ZM39.2779 0.294922V38.7671H0.805664V0.294922H39.2779ZM32.8658 19.531C32.8658 16.0493 32.8514 15.6117 32.7889 14.2443C32.5789 9.59237 29.9917 6.99871 25.3301 6.78551C23.9611 6.72139 23.5251 6.70696 20.0418 6.70696C16.5584 6.70696 16.124 6.72139 14.755 6.7839C10.0967 6.9971 7.50945 9.58115 7.29465 14.2427C7.23213 15.6117 7.2177 16.0493 7.2177 19.531C7.2177 23.0144 7.23213 23.4504 7.29465 24.8178C7.50945 29.4761 10.0935 32.065 14.755 32.2782C16.124 32.3407 16.5584 32.3551 20.0418 32.3551C23.5251 32.3551 23.9611 32.3407 25.3301 32.2782C29.982 32.065 32.5789 29.4809 32.7889 24.8178C32.8514 23.4504 32.8658 23.0144 32.8658 19.531Z" fill="#0F0F0F"/>
<path fill-rule="evenodd" clip-rule="evenodd" d="M26.6269 19.531C26.6269 15.8938 23.6774 12.9459 20.0418 12.9459C16.4045 12.9459 13.4566 15.8938 13.4566 19.531C13.4566 23.1683 16.4061 26.1162 20.0418 26.1162C23.679 26.1162 26.6269 23.1683 26.6269 19.531ZM20.0418 23.8063C22.403 23.8063 24.317 21.8923 24.317 19.531C24.317 17.1698 22.403 15.2558 20.0418 15.2558C17.6805 15.2558 15.7665 17.1698 15.7665 19.531C15.7665 21.8939 17.6805 23.8063 20.0418 23.8063Z" fill="white"/>
<path d="M28.4255 12.6862C28.4255 11.8366 27.7362 11.1473 26.8866 11.1473C26.037 11.1473 25.3477 11.8366 25.3477 12.6862C25.3477 13.5358 26.037 14.2251 26.8866 14.2251C27.7378 14.2251 28.4255 13.5358 28.4255 12.6862Z" fill="white"/>
<path fill-rule="evenodd" clip-rule="evenodd" d="M32.8658 19.531C32.8658 16.0493 32.8514 15.6117 32.7889 14.2443C32.5789 9.59237 29.9917 6.99871 25.3301 6.78551C23.9611 6.72139 23.5251 6.70696 20.0418 6.70696C16.5584 6.70696 16.124 6.72139 14.755 6.7839C10.0967 6.9971 7.50945 9.58115 7.29465 14.2427C7.23213 15.6117 7.2177 16.0493 7.2177 19.531C7.2177 23.0144 7.23213 23.4504 7.29465 24.8178C7.50945 29.4761 10.0935 32.065 14.755 32.2782C16.124 32.3407 16.5584 32.3551 20.0418 32.3551C23.5251 32.3551 23.9611 32.3407 25.3301 32.2782C29.982 32.065 32.5789 29.4809 32.7889 24.8178C32.8514 23.4504 32.8658 23.0144 32.8658 19.531ZM30.5559 19.531C30.5559 16.107 30.5431 15.7014 30.4822 14.3501C30.3219 10.9004 28.6996 9.25093 25.2243 9.09224C23.873 9.03132 23.4658 9.0185 20.0418 9.0185C16.6177 9.0185 16.2122 9.03132 14.8592 9.09384C11.3807 9.25093 9.76168 10.9004 9.60298 14.3501C9.54206 15.7014 9.52764 16.107 9.52764 19.531C9.52764 22.9551 9.54206 23.3606 9.60458 24.7152C9.76168 28.1568 11.3759 29.8127 14.8608 29.9714C16.2106 30.0323 16.6177 30.0452 20.0418 30.0452C23.4674 30.0452 23.873 30.0307 25.2259 29.9698C28.7044 29.8127 30.3219 28.16 30.4822 24.7136C30.5431 23.3606 30.5559 22.9551 30.5559 19.531Z" fill="white"/>
</g>
<defs>
<clipPath id="clip0_31_45">
<rect width="38.4722" height="38.4722" fill="white" transform="translate(0.805664 0.294922)"/>
</clipPath>
</defs>
</svg>
