<svg width="380" height="219" viewBox="0 0 380 219" fill="none" xmlns="http://www.w3.org/2000/svg">
<mask id="mask0_563_7604" style="mask-type:alpha" maskUnits="userSpaceOnUse" x="-184" y="82" width="459" height="536">
<path fill-rule="evenodd" clip-rule="evenodd" d="M-44.8932 307.14C-40.2019 320.958 -33.849 333.741 -26.1329 345.344C-65.199 343.667 -101.523 320.276 -117.493 282.232C-139.642 229.469 -114.252 168.501 -60.7844 146.056C-42.7572 138.489 -23.8397 136.267 -5.83259 138.668C-48.3603 181.439 -65.599 246.152 -44.8932 307.14ZM11.8899 290.053C18.0085 304.629 27.115 317.054 38.2187 326.931C78.5242 299.485 95.4969 247.083 76.1323 200.953C70.0136 186.377 60.9072 173.952 49.8035 164.075C9.49797 191.521 -7.47471 243.923 11.8899 290.053ZM136.312 193.872C155.598 250.676 141.966 310.711 105.643 353.24C120 353.529 134.677 350.881 148.807 344.95C202.275 322.505 227.664 261.537 205.515 208.774C189.016 169.469 150.791 145.804 110.262 145.567C121.315 159.707 130.216 175.917 136.312 193.872ZM231.68 364.857C270.497 322.154 285.562 260.209 265.695 201.693C236.577 115.926 143.444 70.0039 57.6774 99.1223C56.7128 99.4498 55.7532 99.7854 54.7987 100.129C16.8969 81.0391 -28.3454 76.5807 -71.7051 91.3016C-157.472 120.42 -203.394 213.553 -174.276 299.319C-166.963 320.857 -155.614 339.882 -141.358 355.837L-140.105 359.53L14.7773 489.117L140.083 617.129L231.68 364.857Z" fill="#C99A40"/>
</mask>
<g mask="url(#mask0_563_7604)">
<mask id="mask1_563_7604" style="mask-type:luminance" maskUnits="userSpaceOnUse" x="-293" y="-78" width="921" height="1373">
<path d="M627.076 1119.93L220.506 -77.6064L-292.722 96.6381L113.849 1294.17L627.076 1119.93Z" fill="white"/>
</mask>
<g mask="url(#mask1_563_7604)">
<path d="M298.167 205.778L284.376 221.511L277.648 201.694L298.167 205.778ZM302.919 204.165L273.932 198.398L283.451 226.436L302.919 204.165Z" fill="#162633" fill-opacity="0.19"/>
<path d="M298.167 205.778L284.376 221.511L277.648 201.694L298.167 205.778ZM302.919 204.165L273.932 198.398L283.451 226.436L302.919 204.165Z" fill="#1A2E3E" fill-opacity="0.13"/>
<path d="M269.716 226.487L249.197 222.403L262.988 206.671L269.716 226.487ZM273.495 229.815L263.977 201.777L244.413 224.08L273.512 229.862L273.495 229.815Z" fill="#162633" fill-opacity="0.19"/>
<path d="M269.716 226.487L249.197 222.403L262.988 206.671L269.716 226.487ZM273.495 229.815L263.977 201.777L244.413 224.08L273.512 229.862L273.495 229.815Z" fill="#1A2E3E" fill-opacity="0.13"/>
<path d="M219.757 232.398L205.966 248.131L199.238 228.315L219.757 232.398ZM224.509 230.785L195.451 225.042L204.97 253.08L224.509 230.785Z" fill="#162633" fill-opacity="0.19"/>
<path d="M219.757 232.398L205.966 248.131L199.238 228.315L219.757 232.398ZM224.509 230.785L195.451 225.042L204.97 253.08L224.509 230.785Z" fill="#1A2E3E" fill-opacity="0.13"/>
<path d="M301.272 190.492L280.753 186.408L294.552 170.699L301.272 190.492ZM305.06 193.843L295.517 165.734L275.953 188.037L305.06 193.843Z" fill="#162633" fill-opacity="0.19"/>
<path d="M301.272 190.492L280.753 186.408L294.552 170.699L301.272 190.492ZM305.06 193.843L295.517 165.734L275.953 188.037L305.06 193.843Z" fill="#1A2E3E" fill-opacity="0.13"/>
<path d="M251.29 196.412L237.499 212.144L230.779 192.352L251.29 196.412ZM256.042 194.798L226.92 189.024L236.463 217.133L256.042 194.798Z" fill="#162633" fill-opacity="0.19"/>
<path d="M251.29 196.412L237.499 212.144L230.779 192.352L251.29 196.412ZM256.042 194.798L226.92 189.024L236.463 217.133L256.042 194.798Z" fill="#1A2E3E" fill-opacity="0.13"/>
<path d="M222.767 217.145L202.248 213.061L216.047 197.352L222.767 217.145ZM226.555 220.496L217.012 192.388L197.448 214.691L226.555 220.496Z" fill="#162633" fill-opacity="0.19"/>
<path d="M222.767 217.145L202.248 213.061L216.047 197.352L222.767 217.145ZM226.555 220.496L217.012 192.388L197.448 214.691L226.555 220.496Z" fill="#1A2E3E" fill-opacity="0.13"/>
<path d="M172.785 223.064L158.994 238.796L152.274 219.004L172.785 223.064ZM177.537 221.451L148.439 215.669L157.982 243.777L177.537 221.451Z" fill="#162633" fill-opacity="0.19"/>
<path d="M172.785 223.064L158.994 238.796L152.274 219.004L172.785 223.064ZM177.537 221.451L148.439 215.669L157.982 243.777L177.537 221.451Z" fill="#1A2E3E" fill-opacity="0.13"/>
<path d="M282.784 160.468L269.072 176.2L262.337 156.36L282.784 160.468ZM287.536 158.854L258.525 153.016L268.068 181.125L287.536 158.854Z" fill="#162633" fill-opacity="0.19"/>
<path d="M282.784 160.468L269.072 176.2L262.337 156.36L282.784 160.468ZM287.536 158.854L258.525 153.016L268.068 181.125L287.536 158.854Z" fill="#1A2E3E" fill-opacity="0.13"/>
<path d="M254.341 181.201L233.83 177.141L247.621 161.409L254.341 181.201ZM258.129 184.553L248.569 156.396L229.014 178.723L258.112 184.505L258.129 184.553Z" fill="#162633" fill-opacity="0.19"/>
<path d="M254.341 181.201L233.83 177.141L247.621 161.409L254.341 181.201ZM258.129 184.553L248.569 156.396L229.014 178.723L258.112 184.505L258.129 184.553Z" fill="#1A2E3E" fill-opacity="0.13"/>
<path d="M204.374 187.088L190.567 202.852L183.831 183.012L204.374 187.088ZM209.126 185.474L180.044 179.661L189.587 207.769L209.126 185.474Z" fill="#162633" fill-opacity="0.19"/>
<path d="M204.374 187.088L190.567 202.852L183.831 183.012L204.374 187.088ZM209.126 185.474L180.044 179.661L189.587 207.769L209.126 185.474Z" fill="#1A2E3E" fill-opacity="0.13"/>
<path d="M175.836 207.854L155.325 203.794L169.116 188.061L175.836 207.854ZM179.624 211.205L170.064 183.049L150.509 205.376L179.608 211.158L179.624 211.205Z" fill="#162633" fill-opacity="0.19"/>
<path d="M175.836 207.854L155.325 203.794L169.116 188.061L175.836 207.854ZM179.624 211.205L170.064 183.049L150.509 205.376L179.608 211.158L179.624 211.205Z" fill="#1A2E3E" fill-opacity="0.13"/>
<path d="M125.845 213.749L112.086 229.497L105.35 209.657L125.845 213.749ZM130.597 212.136L101.538 206.314L111.081 234.423L130.716 212.096L130.597 212.136Z" fill="#162633" fill-opacity="0.19"/>
<path d="M125.845 213.749L112.086 229.497L105.35 209.657L125.845 213.749ZM130.597 212.136L101.538 206.314L111.081 234.423L130.716 212.096L130.597 212.136Z" fill="#1A2E3E" fill-opacity="0.13"/>
<path d="M97.3307 234.507L76.8436 230.439L90.611 214.715L97.3307 234.507ZM101.118 237.859L91.5592 209.702L72.0278 232.021L101.126 237.803L101.118 237.859Z" fill="#162633" fill-opacity="0.19"/>
<path d="M97.3307 234.507L76.8436 230.439L90.611 214.715L97.3307 234.507ZM101.118 237.859L91.5592 209.702L72.0278 232.021L101.126 237.803L101.118 237.859Z" fill="#1A2E3E" fill-opacity="0.13"/>
<path d="M285.888 145.18L265.369 141.097L279.16 125.364L285.888 145.18ZM289.668 148.508L280.132 120.423L260.593 142.718L289.691 148.5L289.668 148.508Z" fill="#162633" fill-opacity="0.19"/>
<path d="M285.888 145.18L265.369 141.097L279.16 125.364L285.888 145.18ZM289.668 148.508L280.132 120.423L260.593 142.718L289.691 148.5L289.668 148.508Z" fill="#1A2E3E" fill-opacity="0.13"/>
<path d="M235.906 151.099L222.115 166.831L215.387 147.015L235.906 151.099ZM240.658 149.485L211.584 143.695L221.119 171.78L240.706 149.469L240.658 149.485Z" fill="#162633" fill-opacity="0.19"/>
<path d="M235.906 151.099L222.115 166.831L215.387 147.015L235.906 151.099ZM240.658 149.485L211.584 143.695L221.119 171.78L240.706 149.469L240.658 149.485Z" fill="#1A2E3E" fill-opacity="0.13"/>
<path d="M207.383 171.833L186.864 167.749L200.655 152.016L207.383 171.833ZM211.163 175.16L201.628 147.075L182.064 169.378L211.186 175.152L211.163 175.16Z" fill="#162633" fill-opacity="0.19"/>
<path d="M207.383 171.833L186.864 167.749L200.655 152.016L207.383 171.833ZM211.163 175.16L201.628 147.075L182.064 169.378L211.186 175.152L211.163 175.16Z" fill="#1A2E3E" fill-opacity="0.13"/>
<path d="M157.401 177.752L143.61 193.484L136.882 173.668L157.401 177.752ZM162.154 176.139L133.103 170.341L142.638 198.426L162.201 176.123L162.154 176.139Z" fill="#162633" fill-opacity="0.19"/>
<path d="M157.401 177.752L143.61 193.484L136.882 173.668L157.401 177.752ZM162.154 176.139L133.103 170.341L142.638 198.426L162.201 176.123L162.154 176.139Z" fill="#1A2E3E" fill-opacity="0.13"/>
<path d="M128.759 198.527L108.264 194.435L122.031 178.711L128.759 198.527ZM132.539 201.854L123.004 173.77L103.441 196.072L132.539 201.854Z" fill="#162633" fill-opacity="0.19"/>
<path d="M128.759 198.527L108.264 194.435L122.031 178.711L128.759 198.527ZM132.539 201.854L123.004 173.77L103.441 196.072L132.539 201.854Z" fill="#1A2E3E" fill-opacity="0.13"/>
<path d="M78.8966 204.405L65.1291 220.13L58.4014 200.313L78.8966 204.405ZM83.6487 202.792L54.5979 196.994L64.133 225.079L83.6962 202.776L83.6487 202.792Z" fill="#162633" fill-opacity="0.19"/>
<path d="M78.8966 204.405L65.1291 220.13L58.4014 200.313L78.8966 204.405ZM83.6487 202.792L54.5979 196.994L64.133 225.079L83.6962 202.776L83.6487 202.792Z" fill="#1A2E3E" fill-opacity="0.13"/>
<path d="M50.3501 225.147L29.8548 221.055L43.6223 205.331L50.3501 225.147ZM54.1298 228.475L44.5947 200.39L25.0315 222.693L54.1298 228.475Z" fill="#162633" fill-opacity="0.19"/>
<path d="M50.3501 225.147L29.8548 221.055L43.6223 205.331L50.3501 225.147ZM54.1298 228.475L44.5947 200.39L25.0315 222.693L54.1298 228.475Z" fill="#1A2E3E" fill-opacity="0.13"/>
<path d="M0.391388 231.058L-13.3761 246.783L-20.1039 226.966L0.391388 231.058ZM5.1435 229.445L-23.9548 223.663L-14.4198 251.748L5.1435 229.445Z" fill="#162633" fill-opacity="0.19"/>
<path d="M0.391388 231.058L-13.3761 246.783L-20.1039 226.966L0.391388 231.058ZM5.1435 229.445L-23.9548 223.663L-14.4198 251.748L5.1435 229.445Z" fill="#1A2E3E" fill-opacity="0.13"/>
<path d="M267.392 115.131L253.601 130.864L246.873 111.048L267.392 115.131ZM272.144 113.518L243.141 107.704L252.684 135.813L272.144 113.518Z" fill="#162633" fill-opacity="0.19"/>
<path d="M267.392 115.131L253.601 130.864L246.873 111.048L267.392 115.131ZM272.144 113.518L243.141 107.704L252.684 135.813L272.144 113.518Z" fill="#1A2E3E" fill-opacity="0.13"/>
<path d="M238.941 135.841L218.422 131.757L232.213 116.025L238.941 135.841ZM242.729 139.193L233.186 111.084L213.622 133.387L242.729 139.193Z" fill="#162633" fill-opacity="0.19"/>
<path d="M238.941 135.841L218.422 131.757L232.213 116.025L238.941 135.841ZM242.729 139.193L233.186 111.084L213.622 133.387L242.729 139.193Z" fill="#1A2E3E" fill-opacity="0.13"/>
<path d="M188.982 141.753L175.191 157.485L168.463 137.669L188.982 141.753ZM193.734 140.139L164.66 134.349L174.203 162.458L193.734 140.139Z" fill="#162633" fill-opacity="0.19"/>
<path d="M188.982 141.753L175.191 157.485L168.463 137.669L188.982 141.753ZM193.734 140.139L164.66 134.349L174.203 162.458L193.734 140.139Z" fill="#1A2E3E" fill-opacity="0.13"/>
<path d="M160.436 162.495L139.917 158.411L153.708 142.678L160.436 162.495ZM164.224 165.846L154.681 137.737L135.117 160.04L164.224 165.846Z" fill="#162633" fill-opacity="0.19"/>
<path d="M160.436 162.495L139.917 158.411L153.708 142.678L160.436 162.495ZM164.224 165.846L154.681 137.737L135.117 160.04L164.224 165.846Z" fill="#1A2E3E" fill-opacity="0.13"/>
<path d="M110.453 168.413L96.6858 184.137L89.958 164.321L110.453 168.413ZM115.205 166.8L86.1546 161.001L95.6977 189.11L115.324 166.759L115.205 166.8Z" fill="#162633" fill-opacity="0.19"/>
<path d="M110.453 168.413L96.6858 184.137L89.958 164.321L110.453 168.413ZM115.205 166.8L86.1546 161.001L95.6977 189.11L115.324 166.759L115.205 166.8Z" fill="#1A2E3E" fill-opacity="0.13"/>
<path d="M81.9308 189.147L61.4356 185.055L75.203 169.331L81.9308 189.147ZM85.7186 192.499L76.1755 164.39L56.6359 186.685L85.7423 192.491L85.7186 192.499Z" fill="#162633" fill-opacity="0.19"/>
<path d="M81.9308 189.147L61.4356 185.055L75.203 169.331L81.9308 189.147ZM85.7186 192.499L76.1755 164.39L56.6359 186.685L85.7423 192.491L85.7186 192.499Z" fill="#1A2E3E" fill-opacity="0.13"/>
<path d="M31.949 195.066L18.1815 210.79L11.4537 190.974L31.949 195.066ZM36.7011 193.453L7.60278 187.671L17.1459 215.779L36.7011 193.453Z" fill="#162633" fill-opacity="0.19"/>
<path d="M31.949 195.066L18.1815 210.79L11.4537 190.974L31.949 195.066ZM36.7011 193.453L7.60278 187.671L17.1459 215.779L36.7011 193.453Z" fill="#1A2E3E" fill-opacity="0.13"/>
<path d="M3.44969 215.792L-17.0693 211.709L-3.27808 195.976L3.44969 215.792ZM7.23745 219.144L-2.30566 191.035L-21.869 213.338L7.23745 219.144Z" fill="#162633" fill-opacity="0.19"/>
<path d="M3.44969 215.792L-17.0693 211.709L-3.27808 195.976L3.44969 215.792ZM7.23745 219.144L-2.30566 191.035L-21.869 213.338L7.23745 219.144Z" fill="#1A2E3E" fill-opacity="0.13"/>
<path d="M270.496 99.8445L249.977 95.7606L263.744 79.9569L270.464 99.7494M274.252 103.101L264.741 75.0872L245.201 97.3821L274.308 103.188L274.252 103.101Z" fill="#162633" fill-opacity="0.19"/>
<path d="M270.496 99.8445L249.977 95.7606L263.744 79.9569L270.464 99.7494M274.252 103.101L264.741 75.0872L245.201 97.3821L274.308 103.188L274.252 103.101Z" fill="#1A2E3E" fill-opacity="0.13"/>
<path d="M220.514 105.764L206.723 121.496L199.971 101.609L220.482 105.669M225.234 104.055L196.191 98.3603L205.734 126.469L225.313 104.134L225.234 104.055Z" fill="#162633" fill-opacity="0.19"/>
<path d="M220.514 105.764L206.723 121.496L199.971 101.609L220.482 105.669M225.234 104.055L196.191 98.3603L205.734 126.469L225.313 104.134L225.234 104.055Z" fill="#1A2E3E" fill-opacity="0.13"/>
<path d="M191.991 126.498L171.472 122.414L185.239 106.61L191.959 126.403M195.747 129.754L186.236 101.74L166.696 124.035L195.803 129.841L195.747 129.754Z" fill="#162633" fill-opacity="0.19"/>
<path d="M191.991 126.498L171.472 122.414L185.239 106.61L191.959 126.403M195.747 129.754L186.236 101.74L166.696 124.035L195.803 129.841L195.747 129.754Z" fill="#1A2E3E" fill-opacity="0.13"/>
<path d="M142.009 132.417L128.218 148.15L121.466 128.262L141.977 132.322M146.729 130.709L117.71 125.006L127.253 153.114L146.809 130.788L146.729 130.709Z" fill="#162633" fill-opacity="0.19"/>
<path d="M142.009 132.417L128.218 148.15L121.466 128.262L141.977 132.322M146.729 130.709L117.71 125.006L127.253 153.114L146.809 130.788L146.729 130.709Z" fill="#1A2E3E" fill-opacity="0.13"/>
<path d="M113.368 153.191L92.9912 149.059L106.616 133.304L113.335 153.096M117.123 156.448L107.612 128.434L88.1916 150.689L117.298 156.494L117.123 156.448Z" fill="#162633" fill-opacity="0.19"/>
<path d="M113.368 153.191L92.9912 149.059L106.616 133.304L113.335 153.096M117.123 156.448L107.612 128.434L88.1916 150.689L117.298 156.494L117.123 156.448Z" fill="#1A2E3E" fill-opacity="0.13"/>
<path d="M63.505 159.069L49.7375 174.794L42.9856 154.906L63.4727 158.974M68.2249 157.361L39.2063 151.658L48.7494 179.767L68.3046 157.44L68.2249 157.361Z" fill="#162633" fill-opacity="0.19"/>
<path d="M63.505 159.069L49.7375 174.794L42.9856 154.906L63.4727 158.974M68.2249 157.361L39.2063 151.658L48.7494 179.767L68.3046 157.44L68.2249 157.361Z" fill="#1A2E3E" fill-opacity="0.13"/>
<path d="M34.9575 179.812L14.486 175.712L28.2055 159.924L34.9252 179.717M38.713 183.068L29.2021 155.055L9.63887 177.358L38.7453 183.163L38.713 183.068Z" fill="#162633" fill-opacity="0.19"/>
<path d="M34.9575 179.812L14.486 175.712L28.2055 159.924L34.9252 179.717M38.713 183.068L29.2021 155.055L9.63887 177.358L38.7453 183.163L38.713 183.068Z" fill="#1A2E3E" fill-opacity="0.13"/>
<path d="M252.009 69.8202L238.21 85.5289L231.49 65.7364L252.009 69.8202ZM256.761 68.2069L227.75 62.3688L237.293 90.4776L256.761 68.2069Z" fill="#162633" fill-opacity="0.19"/>
<path d="M252.009 69.8202L238.21 85.5289L231.49 65.7364L252.009 69.8202ZM256.761 68.2069L227.75 62.3688L237.293 90.4776L256.761 68.2069Z" fill="#1A2E3E" fill-opacity="0.13"/>
<path d="M223.549 90.5063L203.038 86.4462L216.83 70.7138L223.549 90.5063ZM227.337 93.8578L217.794 65.749L198.239 88.0757L227.337 93.8578Z" fill="#162633" fill-opacity="0.19"/>
<path d="M223.549 90.5063L203.038 86.4462L216.83 70.7138L223.549 90.5063ZM227.337 93.8578L217.794 65.749L198.239 88.0757L227.337 93.8578Z" fill="#1A2E3E" fill-opacity="0.13"/>
<path d="M173.599 96.4404L159.799 112.149L153.08 92.3565L173.599 96.4404ZM178.351 94.827L149.268 89.0132L158.811 117.122L178.351 94.827Z" fill="#162633" fill-opacity="0.19"/>
<path d="M173.599 96.4404L159.799 112.149L153.08 92.3565L173.599 96.4404ZM178.351 94.827L149.268 89.0132L158.811 117.122L178.351 94.827Z" fill="#1A2E3E" fill-opacity="0.13"/>
<path d="M145.044 117.159L124.533 113.099L138.325 97.3662L145.044 117.159ZM148.832 120.51L139.289 92.4014L119.734 114.728L148.832 120.51Z" fill="#162633" fill-opacity="0.19"/>
<path d="M145.044 117.159L124.533 113.099L138.325 97.3662L145.044 117.159ZM148.832 120.51L139.289 92.4014L119.734 114.728L148.832 120.51Z" fill="#1A2E3E" fill-opacity="0.13"/>
<path d="M95.0697 123.102L81.2942 138.802L74.5745 119.01L95.0697 123.102ZM99.8218 121.488L70.763 115.667L80.3061 143.775L99.9406 121.448L99.8218 121.488Z" fill="#162633" fill-opacity="0.19"/>
<path d="M95.0697 123.102L81.2942 138.802L74.5745 119.01L95.0697 123.102ZM99.8218 121.488L70.763 115.667L80.3061 143.775L99.9406 121.448L99.8218 121.488Z" fill="#1A2E3E" fill-opacity="0.13"/>
<path d="M66.5392 143.812L46.052 139.744L59.8195 124.02L66.5392 143.812ZM70.327 147.164L60.7839 119.055L41.2524 141.374L70.3507 147.156L70.327 147.164Z" fill="#162633" fill-opacity="0.19"/>
<path d="M66.5392 143.812L46.052 139.744L59.8195 124.02L66.5392 143.812ZM70.327 147.164L60.7839 119.055L41.2524 141.374L70.3507 147.156L70.327 147.164Z" fill="#1A2E3E" fill-opacity="0.13"/>
<path d="M16.5655 149.755L2.78992 165.455L-3.92979 145.663L16.5655 149.755ZM21.3176 148.141L-7.78882 142.336L1.75429 170.444L21.3176 148.141Z" fill="#162633" fill-opacity="0.19"/>
<path d="M16.5655 149.755L2.78992 165.455L-3.92979 145.663L16.5655 149.755ZM21.3176 148.141L-7.78882 142.336L1.75429 170.444L21.3176 148.141Z" fill="#1A2E3E" fill-opacity="0.13"/>
<path d="M176.61 81.1902L156.091 77.1063L169.914 61.4689L176.61 81.1902ZM180.389 84.5178L170.854 56.4329L151.291 78.7358L180.381 84.4147L180.389 84.5178Z" fill="#162633" fill-opacity="0.19"/>
<path d="M176.61 81.1902L156.091 77.1063L169.914 61.4689L176.61 81.1902ZM180.389 84.5178L170.854 56.4329L151.291 78.7358L180.381 84.4147L180.389 84.5178Z" fill="#2A5F88" fill-opacity="0.25"/>
<path d="M176.61 81.1902L156.091 77.1063L169.914 61.4689L176.61 81.1902ZM180.389 84.5178L170.854 56.4329L151.291 78.7358L180.381 84.4147L180.389 84.5178Z" fill="#785C26" fill-opacity="0.12"/>
<path d="M126.627 87.1095L112.836 102.842L106.14 83.1207L126.659 87.2045M131.411 85.5912L102.328 79.698L111.831 107.688L131.427 85.48L131.411 85.5912Z" fill="#162633" fill-opacity="0.19"/>
<path d="M126.627 87.1095L112.836 102.842L106.14 83.1207L126.659 87.2045M131.411 85.5912L102.328 79.698L111.831 107.688L131.427 85.48L131.411 85.5912Z" fill="#2A5F88" fill-opacity="0.25"/>
<path d="M126.627 87.1095L112.836 102.842L106.14 83.1207L126.659 87.2045M131.411 85.5912L102.328 79.698L111.831 107.688L131.427 85.48L131.411 85.5912Z" fill="#785C26" fill-opacity="0.12"/>
<path d="M97.9858 107.884L77.4906 103.792L91.2903 88.1626L97.9858 107.884ZM101.766 111.211L92.2305 83.1265L72.6672 105.429L101.876 111.068L101.766 111.211Z" fill="#162633" fill-opacity="0.19"/>
<path d="M97.9858 107.884L77.4906 103.792L91.2903 88.1626L97.9858 107.884ZM101.766 111.211L92.2305 83.1265L72.6672 105.429L101.876 111.068L101.766 111.211Z" fill="#2A5F88" fill-opacity="0.25"/>
<path d="M97.9858 107.884L77.4906 103.792L91.2903 88.1626L97.9858 107.884ZM101.766 111.211L92.2305 83.1265L72.6672 105.429L101.876 111.068L101.766 111.211Z" fill="#785C26" fill-opacity="0.12"/>
<path d="M48.1222 113.762L34.3547 129.486L27.6592 109.765L48.1545 113.857M52.9066 112.243L23.8235 106.35L33.3263 134.34L52.9218 112.132L52.9066 112.243Z" fill="#162633" fill-opacity="0.19"/>
<path d="M48.1222 113.762L34.3547 129.486L27.6592 109.765L48.1545 113.857M52.9066 112.243L23.8235 106.35L33.3263 134.34L52.9218 112.132L52.9066 112.243Z" fill="#2A5F88" fill-opacity="0.25"/>
<path d="M48.1222 113.762L34.3547 129.486L27.6592 109.765L48.1545 113.857M52.9066 112.243L23.8235 106.35L33.3263 134.34L52.9218 112.132L52.9066 112.243Z" fill="#785C26" fill-opacity="0.12"/>
<path d="M19.5757 134.504L-0.919572 130.412L12.8802 114.783L19.5757 134.504ZM23.3231 137.737L13.8203 109.747L-5.74296 132.05L23.3231 137.737Z" fill="#162633" fill-opacity="0.19"/>
<path d="M19.5757 134.504L-0.919572 130.412L12.8802 114.783L19.5757 134.504ZM23.3231 137.737L13.8203 109.747L-5.74296 132.05L23.3231 137.737Z" fill="#2A5F88" fill-opacity="0.25"/>
<path d="M19.5757 134.504L-0.919572 130.412L12.8802 114.783L19.5757 134.504ZM23.3231 137.737L13.8203 109.747L-5.74296 132.05L23.3231 137.737Z" fill="#785C26" fill-opacity="0.12"/>
<path d="M129.661 71.8472L109.142 67.7633L122.941 52.0546L129.661 71.8472ZM133.448 75.1986L123.905 47.0898L104.342 69.3928L133.448 75.1986Z" fill="#162633" fill-opacity="0.19"/>
<path d="M129.661 71.8472L109.142 67.7633L122.941 52.0546L129.661 71.8472ZM133.448 75.1986L123.905 47.0898L104.342 69.3928L133.448 75.1986Z" fill="#2A5F88" fill-opacity="0.25"/>
<path d="M129.661 71.8472L109.142 67.7633L122.941 52.0546L129.661 71.8472ZM133.448 75.1986L123.905 47.0898L104.342 69.3928L133.448 75.1986Z" fill="#785C26" fill-opacity="0.12"/>
<path d="M79.6779 77.7655L65.9104 93.4899L59.1907 73.6974L79.6779 77.7655ZM84.43 76.1522L55.3792 70.354L64.9223 98.4627L84.5488 76.1118L84.43 76.1522Z" fill="#162633" fill-opacity="0.19"/>
<path d="M79.6779 77.7655L65.9104 93.4899L59.1907 73.6974L79.6779 77.7655ZM84.43 76.1522L55.3792 70.354L64.9223 98.4627L84.5488 76.1118L84.43 76.1522Z" fill="#2A5F88" fill-opacity="0.25"/>
<path d="M79.6779 77.7655L65.9104 93.4899L59.1907 73.6974L79.6779 77.7655ZM84.43 76.1522L55.3792 70.354L64.9223 98.4627L84.5488 76.1118L84.43 76.1522Z" fill="#785C26" fill-opacity="0.12"/>
<path d="M51.1554 98.4998L30.6602 94.4078L44.4357 78.7072L51.1554 98.4998ZM54.9432 101.851L45.4001 73.7424L25.8606 96.0373L54.9669 101.843L54.9432 101.851Z" fill="#162633" fill-opacity="0.19"/>
<path d="M51.1554 98.4998L30.6602 94.4078L44.4357 78.7072L51.1554 98.4998ZM54.9432 101.851L45.4001 73.7424L25.8606 96.0373L54.9669 101.843L54.9432 101.851Z" fill="#2A5F88" fill-opacity="0.25"/>
<path d="M51.1554 98.4998L30.6602 94.4078L44.4357 78.7072L51.1554 98.4998ZM54.9432 101.851L45.4001 73.7424L25.8606 96.0373L54.9669 101.843L54.9432 101.851Z" fill="#785C26" fill-opacity="0.12"/>
<path d="M1.17362 104.419L-12.5939 120.143L-19.3136 100.35L1.17362 104.419ZM5.92573 102.805L-23.1726 97.0232L-13.6295 125.132L5.92573 102.805Z" fill="#162633" fill-opacity="0.19"/>
<path d="M1.17362 104.419L-12.5939 120.143L-19.3136 100.35L1.17362 104.419ZM5.92573 102.805L-23.1726 97.0232L-13.6295 125.132L5.92573 102.805Z" fill="#2A5F88" fill-opacity="0.25"/>
<path d="M1.17362 104.419L-12.5939 120.143L-19.3136 100.35L1.17362 104.419ZM5.92573 102.805L-23.1726 97.0232L-13.6295 125.132L5.92573 102.805Z" fill="#785C26" fill-opacity="0.12"/>
<path d="M32.7306 68.4269L18.9631 84.1512L12.2434 64.3587L32.7306 68.4269ZM37.4827 66.8135L8.4319 61.0154L17.9992 89.1954L37.5302 66.7974L37.4827 66.8135Z" fill="#162633" fill-opacity="0.19"/>
<path d="M32.7306 68.4269L18.9631 84.1512L12.2434 64.3587L32.7306 68.4269ZM37.4827 66.8135L8.4319 61.0154L17.9992 89.1954L37.5302 66.7974L37.4827 66.8135Z" fill="#2A5F88" fill-opacity="0.25"/>
<path d="M32.7306 68.4269L18.9631 84.1512L12.2434 64.3587L32.7306 68.4269ZM37.4827 66.8135L8.4319 61.0154L17.9992 89.1954L37.5302 66.7974L37.4827 66.8135Z" fill="#785C26" fill-opacity="0.12"/>
<path d="M4.18407 89.1694L-16.3112 85.0775L-2.53564 69.3769L4.18407 89.1694ZM7.99603 92.5921L-1.57129 64.4121L-21.1346 86.7151L7.99603 92.5921Z" fill="#162633" fill-opacity="0.19"/>
<path d="M4.18407 89.1694L-16.3112 85.0775L-2.53564 69.3769L4.18407 89.1694ZM7.99603 92.5921L-1.57129 64.4121L-21.1346 86.7151L7.99603 92.5921Z" fill="#2A5F88" fill-opacity="0.25"/>
<path d="M4.18407 89.1694L-16.3112 85.0775L-2.53564 69.3769L4.18407 89.1694ZM7.99603 92.5921L-1.57129 64.4121L-21.1346 86.7151L7.99603 92.5921Z" fill="#785C26" fill-opacity="0.12"/>
</g>
</g>
</svg>
