<svg width="325" height="333" viewBox="0 0 325 333" fill="none" xmlns="http://www.w3.org/2000/svg">
<mask id="mask0_341_859" style="mask-type:alpha" maskUnits="userSpaceOnUse" x="0" y="0" width="478" height="497">
<path fill-rule="evenodd" clip-rule="evenodd" d="M477.066 144.213L279 0L188.352 124.498L125.863 79L0 251.863L107.163 329.89L67.1367 384.863L220.593 496.596L346.456 323.733L239.293 245.706L239.358 245.617L346.456 323.596L477.066 144.213Z" fill="#D9D9D9"/>
</mask>
<g mask="url(#mask0_341_859)">
<path d="M444.041 -16.9373C418.818 7.41681 375.14 50.5144 374.661 51.7368C375.332 53.3667 412.943 90.415 415.274 91.4807C430.376 76.6864 445.573 61.7355 460.899 46.7218C462.847 48.4144 464.539 49.8562 466.039 51.9249C449.022 68.6311 432.1 85.2433 415.05 101.949C411.73 98.7211 408.696 95.7121 405.663 92.7344C402.63 89.7568 399.565 86.7791 396.532 83.7701C393.499 80.7925 390.434 77.8148 387.4 74.8058C384.367 71.8282 381.334 68.8192 378.269 65.8729C375.204 62.9579 372.394 59.7608 369.201 57.2533C367.062 58.131 329.387 95.0852 328.589 96.8718C328.812 97.9375 329.706 98.533 330.441 99.2539C344.298 112.888 358.186 126.492 372.043 140.126C372.682 140.753 373.512 141.223 373.671 142.54C356.909 158.995 340.019 175.545 323.033 192.251C321.086 190.621 319.457 189.116 317.893 187.079C333.091 172.128 348.257 157.302 363.135 142.665C362.784 140.972 361.826 140.346 361.06 139.593C331.973 111.039 302.887 82.5164 273.8 53.9622C273.162 53.3354 272.332 52.8652 272.172 51.8936C272.491 50.9846 273.289 50.4517 273.896 49.8562C296.565 27.6022 319.234 5.37947 341.903 -16.8746H328.844C306.143 5.37947 283.474 27.6335 260.774 49.9189C260.199 50.4831 259.465 51.0159 259.433 52.3637C289.764 82.1089 320.288 112.074 350.97 142.163C343.148 149.874 335.581 157.271 328.046 164.668C320.479 172.097 312.88 179.557 305.058 187.236C311.124 193.191 316.744 198.99 322.65 204.349C325.077 203.096 385.517 143.574 386.219 141.662C371.213 126.93 356.079 112.105 340.785 97.0599C350.268 87.7508 359.495 78.6924 368.882 69.4774C384.271 84.5537 399.405 99.4106 414.859 114.581C436.346 93.518 457.483 72.7685 478.555 52.0816C477.055 49.4801 462.368 35.3754 460.484 34.7485C445.478 49.4801 430.344 64.3057 415.05 79.3193C405.568 70.0102 396.34 60.9519 386.953 51.7368C410.389 28.7305 433.6 5.94366 456.94 -16.9373H444.041Z" fill="#68490E"/>
<path d="M230.8 92.0762C247.882 108.845 264.708 125.363 281.725 142.038C280.033 143.856 278.628 145.455 276.617 146.865C272.753 143.072 268.986 139.374 265.218 135.675C261.387 131.914 257.556 128.153 253.724 124.423C249.957 120.724 246.189 116.963 242.358 113.296C238.527 109.629 234.951 105.648 230.896 102.326C228.501 103.767 191.113 140.69 190.507 142.132C191.465 144.075 321.444 271.425 323.455 272.146C338.462 257.414 353.595 242.589 368.921 227.544C386.098 244.407 403.02 260.987 420.102 277.756C418.282 279.418 417.005 281.11 414.897 282.489C399.604 267.538 384.406 252.587 369.272 237.762C366.846 239.016 329.17 276.158 328.596 277.725C328.851 278.697 329.681 279.261 330.384 279.95C342.836 292.174 355.288 304.367 367.708 316.591C382.65 331.26 397.592 345.898 412.535 360.535C413.301 361.287 413.94 362.259 415.281 362.29C416.302 362.04 416.973 361.193 417.675 360.472C431.468 346.963 445.261 333.423 459.054 319.914C459.661 319.318 460.139 318.441 461.385 318.378C462.917 319.694 464.45 321.105 465.918 322.985C459.756 329.035 453.69 334.99 447.624 340.945C441.493 346.963 435.363 352.981 429.233 358.999C423.135 364.955 417.069 370.941 410.97 376.897C404.84 382.915 398.71 388.933 392.58 394.951C386.545 400.906 380.415 406.798 374.189 413.067C389.61 428.238 404.776 443.063 419.846 457.889C419.527 458.892 418.856 459.331 418.314 459.863C404.393 473.529 390.472 487.195 376.552 500.861C375.785 501.613 374.796 502.24 374.7 503.431C374.828 504.528 375.69 505.092 376.36 505.751C379.776 509.104 383.193 512.458 386.609 515.812H399.636C395.485 511.737 391.334 507.663 387.248 503.651C387.631 502.554 388.333 502.115 388.876 501.582C402.797 487.916 416.717 474.25 430.638 460.584C431.34 459.895 432.298 459.299 432.33 457.669C417.356 442.969 402.19 428.081 386.801 413.004C417.579 382.789 448.103 352.856 478.945 322.609C472.847 316.717 467.259 310.887 460.97 305.213C445.58 320.29 430.446 335.147 415.121 350.192C390.377 325.9 365.824 301.828 341.048 277.506C350.498 268.228 359.726 259.17 369.144 249.923C384.534 264.999 399.668 279.888 415.057 294.933C421.219 289.165 426.934 283.461 432.554 277.882C431.436 275.562 370.645 216.041 368.921 215.414C367.74 215.57 367.101 216.542 366.335 217.294C352.542 230.803 338.749 244.344 324.956 257.853C324.381 258.417 323.902 259.17 322.625 259.389C282.843 220.335 242.901 181.155 202.767 141.819C212.25 132.541 221.445 123.451 230.864 114.268C246.413 129.438 261.547 144.389 277 159.465C283.098 153.604 288.877 147.993 294.848 141.944C273.424 120.944 252.32 100.194 230.896 79.1939C200.085 109.441 169.53 139.374 138.751 169.589C129.332 160.343 120.105 151.284 110.974 142.352C111.357 141.004 112.219 140.471 112.89 139.813C166.114 87.6254 219.402 35.3441 272.69 -16.9373H260.046C206.918 35.1873 153.789 87.2806 100.693 139.405C100.246 139.844 99.7671 140.314 99.3201 140.784C98.9369 141.223 98.5219 141.631 98.458 142.414C111.772 155.704 125.214 168.868 138.879 182.283C169.658 152.068 200.149 122.166 230.8 92.0762Z" fill="#68490E"/>
<path d="M248.041 52.2069C278.405 82.0148 308.992 112.011 339.675 142.132C324.19 157.334 308.992 172.222 293.539 187.392C303.404 197.203 313.015 206.575 322.497 215.852C324.892 214.693 397.209 143.605 397.848 142.007C397.56 140.972 396.666 140.345 395.964 139.656C382.107 126.021 368.218 112.418 354.362 98.7837C353.755 98.1882 352.861 97.718 352.829 96.4016C358.033 91.2925 363.333 86.0581 368.921 80.6043C384.374 95.7433 399.604 110.694 414.706 125.52C417.196 124.235 489.226 53.3039 489.769 51.7995C488.587 49.6994 462.406 24.2483 460.491 23.6214C445.484 38.3217 430.382 53.1786 415.057 68.1922C409.31 62.5817 403.914 57.2846 398.295 51.7368C419.335 31.0813 440.088 10.7392 461.001 -9.79095C482.01 10.8332 502.731 31.1439 523.74 51.7368C492.961 81.9208 462.438 111.854 431.628 142.132C441.525 151.849 451.072 161.314 461.065 170.937C476.518 155.798 491.684 140.91 506.978 125.896C512.597 131.381 517.961 136.647 523.549 142.132C515.758 149.811 508.159 157.24 500.56 164.7C492.993 172.128 485.394 179.556 477.604 187.236C493.153 202.5 508.383 217.42 523.74 232.527C519.653 236.602 515.854 240.269 512.086 243.968C508.319 247.666 504.519 251.396 500.752 255.095C496.921 258.856 493.089 262.586 489.29 266.347C485.554 270.046 481.691 273.619 477.923 277.662C487.725 287.41 497.336 296.751 506.659 305.934C508.319 305.684 508.925 304.775 509.66 304.085C523.549 290.482 537.405 276.847 551.294 263.244C551.869 262.68 552.316 261.896 553.497 261.74C558.829 266.88 564.161 272.146 569.717 277.631C538.938 307.815 508.415 337.779 477.604 367.995C493.025 383.197 508.223 398.022 523.517 413.098C517.897 418.646 512.533 423.912 507.201 429.115C506.116 428.645 505.573 427.955 504.998 427.391C491.11 413.788 477.253 400.153 463.364 386.55C462.662 385.861 462.055 384.92 460.395 384.858C451.04 394.01 441.493 403.382 431.596 413.098C447.081 428.3 462.247 443.157 477.572 458.202C457.872 477.541 438.364 496.661 418.761 515.906H431.149C450.21 497.225 469.239 478.544 488.3 459.832C488.619 459.518 488.938 459.205 489.258 458.892C489.449 458.704 489.641 458.547 489.513 458.045C489.162 457.732 488.683 457.293 488.236 456.854C482.042 450.805 475.88 444.724 469.686 438.675C461.193 430.337 452.732 422.031 444.239 413.694C444.016 413.475 443.696 413.318 443.824 412.848C449.411 407.363 455.031 401.846 460.65 396.33C460.81 396.173 460.969 396.173 461.289 396.173C461.672 396.58 462.087 397.05 462.566 397.489C468.473 403.288 474.379 409.055 480.254 414.854C489.002 423.442 497.783 432.03 506.531 440.65C506.754 440.869 506.914 441.182 507.393 441.057C516.748 431.873 526.167 422.658 535.553 413.412C535.713 413.255 535.713 413.098 535.713 412.785C535.298 412.409 534.819 412.001 534.372 411.531C528.465 405.733 522.559 399.965 516.652 394.167C507.904 385.579 499.124 376.99 490.375 368.371C490.152 368.152 489.832 367.995 489.96 367.525C520.388 337.654 550.879 307.784 581.338 277.882C581.37 277.85 581.434 277.788 581.466 277.756C581.498 277.694 581.466 277.631 581.466 277.568C581.53 277.317 581.338 277.223 581.211 277.098C569.046 264.937 554.615 250.895 552.954 249.547C552.89 249.547 552.795 249.516 552.763 249.547C537.501 264.529 522.271 279.512 507.01 294.494C501.295 288.883 495.611 283.335 489.96 277.756C489.928 277.725 489.96 277.631 489.928 277.38C505.126 262.461 520.42 247.478 535.713 232.465C520.835 217.858 505.924 203.252 491.046 188.646C490.663 188.27 490.311 187.925 489.96 187.549C489.928 187.518 489.96 187.424 489.96 187.267C490.12 186.828 490.599 186.577 490.95 186.233C491.333 185.794 491.78 185.418 492.195 185.01C492.578 184.634 492.929 184.289 493.313 183.913C493.696 183.537 494.047 183.192 494.43 182.816C494.845 182.409 495.26 182.001 495.675 181.594C496.058 181.218 496.41 180.873 496.793 180.497C497.176 180.121 497.527 179.776 497.91 179.4C498.325 178.992 498.74 178.585 499.155 178.177C499.539 177.801 499.89 177.456 500.273 177.08C500.656 176.704 501.007 176.359 501.39 175.983C501.805 175.576 502.221 175.168 502.636 174.761C503.019 174.385 503.37 174.04 503.753 173.664C504.136 173.288 504.487 172.943 504.871 172.567C505.286 172.159 505.701 171.752 506.116 171.344C506.499 170.968 506.85 170.623 507.233 170.247C507.616 169.871 507.968 169.526 508.351 169.15C508.766 168.743 509.181 168.335 509.596 167.928C509.979 167.552 510.33 167.207 510.713 166.831C511.097 166.455 511.448 166.11 511.831 165.734C512.214 165.358 512.565 165.013 512.948 164.637C513.363 164.229 513.779 163.822 514.194 163.414C514.577 163.038 514.928 162.694 515.311 162.317C515.694 161.941 516.045 161.596 516.429 161.22C516.844 160.813 517.259 160.405 517.674 159.998C518.057 159.622 518.408 159.277 518.791 158.901C519.174 158.525 519.526 158.18 519.909 157.804C520.324 157.396 520.739 156.989 521.154 156.581C521.537 156.205 521.888 155.861 522.271 155.484C522.655 155.108 523.006 154.764 523.389 154.387C523.804 153.98 524.219 153.572 524.634 153.165C525.017 152.789 525.368 152.444 525.752 152.068C526.135 151.692 526.486 151.347 526.869 150.971C527.284 150.564 527.699 150.156 528.114 149.749C528.497 149.372 528.849 149.028 529.232 148.652C529.615 148.275 529.966 147.931 530.349 147.554C530.764 147.147 531.179 146.74 531.594 146.332C531.978 145.956 532.329 145.611 532.712 145.235C533.095 144.859 533.446 144.514 533.829 144.138C534.244 143.731 534.691 143.354 535.075 142.916C535.394 142.54 535.937 142.32 536.064 141.787C534.628 140.095 514.832 120.568 507.808 113.891C507.744 113.829 507.584 113.797 507.489 113.766C507.425 113.766 507.361 113.766 507.297 113.766C507.233 113.797 507.201 113.86 507.169 113.891C507.137 113.923 507.074 113.985 507.042 114.017C492.099 128.686 477.157 143.323 462.215 157.992C462.023 158.18 461.832 158.368 461.672 158.525C461.64 158.556 461.576 158.619 461.512 158.65C461.448 158.682 461.385 158.65 461.321 158.65C459.756 157.365 449.284 147.178 444.271 142.069C444.207 142.007 444.175 141.85 444.079 141.599C474.73 111.541 505.381 81.4506 536.064 51.3606L465.759 -16.9373H456.436C433.096 6.00628 409.757 28.8872 386.449 51.7368L415.121 79.8521C430.255 64.9952 445.484 50.0755 460.682 35.1559C460.714 35.1246 460.778 35.0619 460.81 35.0306C460.874 34.9992 460.938 35.0306 461.001 35.0306C461.065 35.0306 461.161 34.9992 461.193 35.0306C466.844 40.6097 472.527 46.1576 478.147 51.7054C457.138 72.3609 436.066 93.0164 415.025 113.703C414.993 113.735 414.897 113.703 414.833 113.703C414.77 113.703 414.674 113.735 414.642 113.672C399.38 98.721 384.119 83.7387 368.953 68.8504C359.342 78.2536 349.764 87.6567 340.185 97.0598C355.351 111.948 370.581 126.868 385.779 141.819C385.843 141.881 385.843 142.038 385.907 142.257C365.026 162.756 344.113 183.286 323.168 203.785C323.104 203.848 322.944 203.848 322.912 203.848L305.799 187.048C320.933 172.191 336.163 157.271 351.36 142.351C351.424 142.289 351.424 142.132 351.424 142.101C320.741 111.979 290.09 81.9208 259.375 51.7995C259.95 51.2353 260.397 50.7964 260.844 50.3576C283.737 27.9155 306.597 5.47344 329.49 -17H317.485C294.816 5.22269 272.179 27.4767 249.51 49.6994C248.967 50.3263 248.265 50.8591 248.041 52.2069Z" fill="#261C0A"/>
<path d="M138.331 169.997C138.395 170.059 138.554 170.091 138.65 170.122C138.714 170.122 138.81 170.153 138.842 170.122C169.429 140.126 199.984 110.13 230.539 80.1656C230.571 80.1342 230.635 80.0715 230.667 80.0402C230.699 80.0089 230.763 80.0089 230.795 80.0089L282.518 130.754C286.222 134.359 289.894 137.995 293.597 141.599C293.789 141.787 294.012 141.913 293.948 142.226C292.16 144.138 278.208 157.773 276.739 159.026C261.509 144.075 246.28 129.124 230.954 114.079C230.827 114.079 230.571 114.111 230.38 114.111C221.025 123.295 211.702 132.447 202.379 141.568C202.283 141.662 202.187 141.756 202.091 141.85C202.059 141.881 202.091 141.944 202.091 141.975C241.874 180.998 281.656 220.053 321.47 259.076C321.79 259.389 322.141 259.702 322.428 260.016C322.62 260.204 322.811 260.361 323.131 260.267C338.137 245.535 353.175 230.803 368.181 216.041C368.277 215.947 368.373 215.853 368.469 215.758C368.501 215.727 368.596 215.727 368.66 215.727H369.299C369.746 216.166 370.193 216.605 370.64 217.044C386.859 232.966 403.111 248.889 419.33 264.811C423.481 268.886 427.631 272.961 431.782 277.035C431.974 277.224 432.133 277.412 432.069 277.662C426.386 283.242 420.703 288.789 415.02 294.4C399.79 279.48 384.56 264.498 369.299 249.547C369.267 249.516 369.171 249.547 369.107 249.516C368.884 249.453 368.788 249.641 368.628 249.766C359.305 258.887 350.014 268.04 340.691 277.161C340.531 277.318 340.531 277.474 340.531 277.631L415.084 350.787C430.249 335.899 445.479 320.979 460.677 306.06C460.741 305.997 460.9 305.966 460.996 305.934C461.092 305.934 461.156 305.903 461.188 305.934C466.871 311.482 472.522 317.061 478.205 322.609C447.586 352.637 416.967 382.695 386.38 412.722C386.316 412.785 386.316 412.942 386.253 413.161C401.482 428.081 416.712 443.063 431.974 458.014C432.037 458.077 432.037 458.233 432.101 458.453L386.316 503.4C390.531 507.537 394.745 511.674 398.96 515.812H410.965C406.718 511.674 402.632 507.663 398.609 503.713C398.928 502.522 399.694 502.052 400.269 501.488C414.126 487.853 428.014 474.25 441.871 460.616C442.638 459.863 443.627 459.237 443.691 458.014C443.468 456.917 442.574 456.29 441.839 455.569C428.046 442.029 414.285 428.52 400.492 414.979C399.886 414.352 399.024 413.882 398.864 412.597C429.196 382.852 459.623 352.981 490.338 322.829C480.472 313.049 470.862 303.678 460.996 293.961C445.447 309.1 430.345 324.051 414.988 339.033C393.979 318.409 373.226 298.036 352.313 277.537C357.932 271.926 363.328 266.692 368.788 261.301C372.875 265.125 376.578 268.886 380.378 272.553C384.209 276.283 388.041 280.044 391.872 283.806C395.639 287.504 399.407 291.266 403.206 294.933C407.038 298.631 410.646 302.549 414.956 306.185C424.79 296.594 434.336 287.222 444.202 277.506C418.947 252.744 394.011 228.265 368.82 203.566C353.367 218.736 338.233 233.593 322.843 248.669C286.605 213.126 250.494 177.707 214.224 142.132C219.907 136.584 225.207 131.287 230.827 125.927C246.184 140.972 261.286 155.829 276.739 170.968C286.669 161.252 296.247 151.849 305.698 142.54C304.644 140.346 232.327 69.446 230.316 68.6311C199.952 98.4076 169.461 128.341 138.842 158.368C133.254 152.852 127.858 147.617 122.622 142.414C123.005 141.098 123.867 140.565 124.57 139.875C177.858 87.6254 231.114 35.3441 284.402 -16.9373H272.014C252.027 2.68391 232.04 22.3051 212.021 41.9262C178.369 74.9625 144.716 107.967 111.064 141.004C110.713 141.349 110.234 141.599 110.106 142.069C110.106 142.195 110.106 142.289 110.138 142.32C119.525 151.535 128.912 160.782 138.331 169.997Z" fill="#261C0A"/>
<path d="M138.938 159.089C169.589 129.03 200.24 98.9405 230.891 68.8819C255.667 93.1732 280.443 117.527 305.252 141.85C305.315 141.913 305.315 142.069 305.347 142.289C295.929 151.535 286.51 160.782 277.059 170.059C276.995 170.122 276.836 170.122 276.612 170.185C261.382 155.234 246.089 140.252 230.827 125.269C225.144 130.848 219.525 136.365 213.905 141.881C213.841 141.944 213.841 142.101 213.81 142.32C214.193 142.696 214.576 143.072 214.991 143.48C250.527 178.365 286.095 213.22 321.631 248.105C321.918 248.387 322.174 248.638 322.461 248.92C322.652 249.108 322.812 249.296 323.036 249.265L368.884 204.287C393.788 228.735 418.628 253.089 443.468 277.474C443.5 277.506 443.468 277.6 443.5 277.662C443.564 277.882 443.373 277.976 443.245 278.133C433.922 287.285 424.631 296.406 415.308 305.558C415.148 305.715 414.988 305.715 414.829 305.715C399.567 290.733 384.306 275.75 369.012 260.768C363.361 266.316 357.741 271.832 352.122 277.349C351.962 277.506 351.962 277.662 351.962 277.819C373.035 298.506 394.107 319.161 415.212 339.88C430.442 324.929 445.671 309.946 460.933 294.995C460.965 294.964 461.061 294.995 461.125 294.995C461.188 294.995 461.284 294.964 461.316 294.995C470.767 304.273 480.218 313.551 489.668 322.829C489.7 322.86 489.668 322.954 489.668 323.017C489.668 323.079 489.7 323.142 489.668 323.205C489.636 323.267 489.573 323.299 489.541 323.33C489.509 323.362 489.445 323.424 489.413 323.456C489.381 323.487 489.317 323.55 489.285 323.581C489.189 323.675 489.094 323.769 488.998 323.863C459.017 353.263 429.069 382.664 399.088 412.064C398.897 412.252 398.705 412.44 398.546 412.597C398.45 412.691 398.354 412.785 398.258 412.879C398.226 412.911 398.162 412.973 398.13 413.036C398.099 413.099 398.13 413.161 398.13 413.224C398.13 413.287 398.13 413.381 398.162 413.412C413.296 428.238 428.398 443.095 443.532 457.92C443.532 458.171 443.532 458.422 443.532 458.704C428.302 473.655 413.041 488.637 397.779 503.588C401.994 507.725 406.208 511.863 410.423 516H419.522C439.126 496.755 458.73 477.541 478.334 458.296C463.104 443.345 447.874 428.426 432.677 413.475C432.613 413.412 432.613 413.255 432.581 413.13C434.241 411.249 449.024 396.674 460.837 385.265C460.901 385.203 461.061 385.203 461.188 385.14C461.252 385.14 461.348 385.14 461.38 385.171C476.61 400.091 491.807 415.011 507.037 429.962C507.069 429.993 507.133 430.024 507.165 430.024C512.784 424.508 518.404 418.991 524.023 413.475C524.087 413.412 524.087 413.255 524.151 413.13C524.151 413.067 524.151 413.005 524.119 412.942C524.087 412.879 524.023 412.848 523.991 412.817C508.921 398.022 493.851 383.228 478.749 368.434C478.653 368.34 478.557 368.246 478.462 368.152C478.43 368.12 478.43 368.058 478.398 368.026C508.602 338.406 538.806 308.787 568.978 279.136C569.297 278.822 569.616 278.509 569.936 278.195C570.127 278.007 570.351 277.85 570.255 277.568C568.371 275.562 554.514 262.022 553.173 260.862C548.831 265.125 544.521 269.356 540.179 273.619C529.483 284.119 518.787 294.619 508.091 305.088C507.835 305.339 507.676 305.778 507.069 305.684C497.682 296.469 488.232 287.191 478.781 277.944C478.717 277.882 478.717 277.725 478.685 277.506C493.819 262.68 508.953 247.792 524.055 232.998V231.932C508.921 217.075 493.659 202.124 478.43 187.173C493.595 172.316 508.793 157.365 523.991 142.446C524.055 142.383 524.055 142.226 524.055 142.226L506.941 125.426C491.776 140.283 476.578 155.202 461.348 170.122C461.284 170.185 461.125 170.185 460.901 170.216C451.482 160.97 442.032 151.723 432.613 142.446C432.549 142.383 432.549 142.226 432.517 142.007C463.04 112.074 493.595 82.0776 524.087 52.1443C524.055 51.7995 524.055 51.5488 524.055 51.3607C506.111 33.7455 488.232 16.2244 470.352 -1.32808C467.446 -4.18036 464.541 -7.03264 461.635 -9.88492C461.444 -10.073 461.284 -10.261 461.188 -10.261C440.116 10.4258 419.139 30.9873 398.13 51.6115C398.13 51.7368 398.162 51.9876 398.162 52.0189C403.846 57.5668 409.369 62.9892 414.893 68.443H415.563C430.665 53.6175 445.735 38.8232 460.837 24.0603C460.901 23.9976 461.061 23.9976 461.188 23.9663C463.136 25.6275 478.813 40.9233 489.573 51.7055C489.636 51.7682 489.636 51.9249 489.7 52.0503C488.583 53.3354 417.223 123.42 415.02 125.363L369.236 80.4477H368.565C363.041 85.8702 357.55 91.2299 352.09 96.621C352.026 96.6837 352.026 96.8405 351.962 96.9658C351.962 97.0285 351.962 97.1226 351.994 97.1539C367.192 112.074 382.422 127.024 397.62 141.944C397.652 141.975 397.715 142.038 397.715 142.101C397.747 142.163 397.715 142.226 397.715 142.289C396.215 143.981 329.645 209.427 323.259 215.476C323.195 215.539 323.036 215.539 322.812 215.57C313.393 206.355 303.974 197.078 294.524 187.8C294.46 187.737 294.46 187.581 294.396 187.361C309.626 172.442 324.855 157.459 340.117 142.508C340.181 142.446 340.181 142.289 340.181 142.258L248.164 51.9562C248.739 51.3921 249.186 50.9532 249.633 50.5144C272.525 28.0723 295.386 5.63022 318.278 -16.8432H305.89C283.477 5.16007 261.031 27.1634 238.65 49.1666C237.851 49.9502 236.766 50.6085 236.67 51.9249C236.926 53.1473 237.947 53.8055 238.777 54.6205C267.8 83.1119 296.855 111.635 325.909 140.126C326.58 140.784 327.506 141.286 327.665 142.634C312.627 157.397 297.493 172.222 282.487 186.985C283.796 189.43 321.631 226.321 323.578 227.011C352.186 198.958 380.921 170.749 409.433 142.79C409.146 141.16 408.22 140.565 407.517 139.875C393.66 126.241 379.772 112.638 365.915 99.0032C365.34 98.439 364.542 98.0002 364.414 96.8718C365.883 95.336 367.352 93.6747 369.395 92.2016C384.657 107.153 399.791 122.009 415.212 137.148C444.267 108.657 473.034 80.4164 501.737 52.2697C500.652 50.107 462.753 12.996 460.741 12.1811C445.608 26.944 430.442 41.9263 415.116 56.9086C413.201 55.2787 411.668 53.8682 410.167 51.9249C426.993 35.0933 443.915 18.4812 461.029 1.71226C478.142 18.5125 495 35.0306 512.018 51.7368C481.303 81.8895 450.812 111.791 420.097 141.944C433.858 155.453 447.3 168.618 461.029 182.127C476.482 166.988 491.584 152.131 506.846 137.211C508.921 138.716 510.453 140.314 512.114 142.258C496.852 157.24 481.686 172.097 466.265 187.236C481.718 202.406 496.852 217.263 512.21 232.308C496.82 247.51 481.495 262.367 466.488 277.255C467.734 279.637 505.6 316.623 507.484 317.312C522.586 302.518 537.752 287.63 552.854 272.804C554.738 273.838 557.132 276.189 558.09 277.913C527.631 307.815 497.076 337.748 466.265 367.995C481.718 383.165 496.884 398.054 512.21 413.099C510.294 414.854 508.953 416.672 506.814 417.988C502.918 414.227 499.151 410.497 495.383 406.799C491.584 403.1 487.816 399.37 484.049 395.672C480.218 391.91 476.418 388.149 472.555 384.419C468.755 380.783 465.211 376.897 460.869 373.261C447.236 386.645 433.794 399.809 420.097 413.255C435.518 428.457 450.716 443.283 466.042 458.39C448.928 475.159 432.102 491.709 415.116 508.352C413.328 506.597 411.636 505.249 410.199 503.337C425.397 488.355 440.595 473.561 456.016 458.359C440.499 443.126 425.269 428.206 409.88 413.067C440.691 382.852 471.214 352.887 501.641 323.048C500.396 320.729 462.497 283.743 460.55 282.991C445.48 297.754 430.314 312.673 414.893 327.781C397.747 310.949 380.825 294.369 363.776 277.631C365.532 275.75 367.001 274.058 369.108 272.647C373.035 276.44 376.834 280.201 380.666 283.931C384.465 287.63 388.233 291.36 392 295.058C395.832 298.819 399.631 302.612 403.494 306.311C407.326 309.978 410.902 313.958 414.957 317.281C417.287 315.902 454.739 278.947 455.378 277.506C454.42 275.531 370.513 193.41 368.342 192.658C353.303 207.358 338.169 222.278 322.748 237.386C290.277 205.603 257.998 173.946 225.655 142.195C227.443 140.314 228.88 138.684 230.955 137.18C246.249 152.162 261.446 167.113 276.58 181.939C278.975 180.716 316.65 143.574 317.257 142.007C317.001 141.035 316.171 140.44 315.501 139.781C302.953 127.463 290.437 115.177 277.889 102.858C263.043 88.2836 248.196 73.7401 233.35 59.1653C232.583 58.4131 231.945 57.4414 230.061 57.3787C199.857 86.9985 169.366 116.932 138.779 146.928C136.863 145.392 135.33 143.919 134.021 142.289C134.372 141.098 135.235 140.565 135.905 139.907C189.193 87.6254 242.481 35.3441 295.769 -16.9373H283.764C230.061 35.7515 176.358 88.4403 122.655 141.129C122.336 141.443 121.921 141.662 121.825 142.069C121.825 142.195 121.793 142.289 121.825 142.32C127.508 147.868 133.191 153.447 138.938 159.089Z" fill="#68490E"/>
<path d="M466.518 322.828C464.603 320.697 462.144 318.346 460.995 317.531C460.931 317.531 460.835 317.531 460.803 317.563C445.669 332.388 430.567 347.245 415.465 362.039H414.667C386.06 333.987 357.484 305.934 328.908 277.882C328.844 277.819 328.844 277.662 328.812 277.537C329.962 276.22 366.839 239.987 369.042 238.012C384.303 252.963 399.565 267.946 414.827 282.928H415.37C417.189 281.141 418.945 279.417 420.574 277.85C403.333 260.925 386.06 243.999 368.786 227.042C365.338 230.427 361.826 233.844 358.346 237.291C346.82 248.607 335.294 259.922 323.768 271.205C323.512 271.456 323.353 271.895 322.746 271.801C278.781 228.672 234.752 185.48 190.723 142.289C190.692 142.257 190.723 142.163 190.723 142.101C190.723 142.038 190.692 141.944 190.723 141.912C204.101 128.811 217.479 115.678 230.889 102.545C246.119 117.496 261.348 132.478 276.61 147.46C276.642 147.492 276.738 147.46 276.802 147.46C278.174 146.332 281.112 143.48 282.357 141.975C265.18 125.112 248.002 108.281 230.761 91.3237C200.11 121.382 169.459 151.441 138.808 181.531C125.526 168.492 112.18 155.422 98.8663 142.351C98.8025 142.289 98.8025 142.132 98.7386 141.912C99.1537 141.505 99.6007 141.066 100.048 140.627C153.591 88.1267 207.134 35.5946 260.678 -16.9375H248.29C246.949 -15.6211 245.608 -14.3046 244.299 -13.0195C194.459 35.8767 144.651 84.7729 94.8115 133.638C94.141 134.296 93.6621 135.205 92.3211 135.33C79.3583 122.605 66.2997 109.785 53.0815 96.8089C83.8282 66.6562 114.256 36.7856 144.779 6.85239C142.863 4.34489 140.979 2.40158 138.457 0.646328C123.164 15.66 108.03 30.5169 92.9916 45.2484C91.8102 44.841 91.3313 44.1201 90.7566 43.5559C70.1311 23.4019 49.6013 3.21651 29.0396 -16.9375H16.3961C23.7395 -9.72844 31.1149 -2.48804 38.4584 4.72101C39.0331 5.2852 39.7994 5.75535 40.0548 6.94641C27.0601 19.672 13.9696 32.5229 0.910965 45.3425C-0.142662 44.7783 -0.685448 44.1201 -1.26015 43.5245C-21.8218 23.3705 -42.3516 3.21651 -62.9133 -16.9375H-75.94C-53.271 5.2852 -30.634 27.5079 -7.96505 49.7619C-7.29456 50.4202 -6.40057 50.953 -6.11322 52.2694C-19.0441 64.9636 -32.1027 77.7832 -45.0336 90.4461C-46.4065 90.1327 -46.9173 89.3177 -47.5559 88.7222C-59.1139 77.3758 -70.6718 66.0293 -82.2617 54.6829V67.0637C-55.506 93.3297 -28.7502 119.564 -1.96257 145.83C-1.19629 146.583 -0.557732 147.554 0.847099 147.742C2.8905 146.175 4.87004 144.42 6.59415 141.85C-8.63554 126.899 -23.8014 112.011 -39.0949 97.0283C-25.7809 83.9579 -12.6904 71.1384 0.559753 58.1307C44.6205 101.354 88.362 144.295 132.327 187.424C119.013 200.494 105.954 213.282 92.7042 226.29C77.1872 211.119 62.0213 196.2 46.7597 181.218C44.2374 183.067 42.2898 184.947 40.4699 187.424C55.7315 202.437 70.9293 217.294 86.3825 232.496C70.9931 247.604 55.8592 262.429 40.6614 277.38C42.5452 279.888 44.397 281.831 47.0151 283.555C77.5703 253.59 107.998 223.72 138.649 193.63C151.963 206.669 165.021 219.488 178.303 232.527C174.344 236.414 170.577 240.112 166.809 243.811C162.978 247.572 159.147 251.333 155.315 255.063C151.548 258.762 147.748 262.46 143.981 266.19C140.213 269.952 136.286 273.556 132.582 277.505C134.53 279.919 136.286 281.862 138.553 283.273C139.862 282.834 140.533 281.956 141.299 281.173C170.385 252.65 199.472 224.096 228.59 195.573C229.261 194.915 229.803 194.037 231.24 193.88C244.139 206.543 257.198 219.363 270.416 232.308C254.931 247.509 239.733 262.398 224.503 277.38C226.451 279.95 228.335 281.862 230.474 283.335C231.975 283.116 232.645 282.176 233.411 281.423C247.3 267.82 261.157 254.186 275.046 240.583C275.62 240.018 276.067 239.235 277.312 239.078C305.601 266.849 334.017 294.713 362.56 322.703C349.215 335.805 336.156 348.624 322.938 361.569C315.083 353.921 307.548 346.493 299.981 339.096C292.383 331.667 284.816 324.208 277.312 316.873C274.918 318.096 225.653 366.647 225.014 368.308C226.738 370.251 228.494 372.258 231.049 373.919C246.246 358.999 261.38 344.142 276.387 329.442C277.728 329.787 278.238 330.602 278.877 331.197C292.766 344.8 306.622 358.435 320.511 372.038C321.246 372.728 321.82 373.668 323.449 373.793C338.487 359.156 353.589 344.174 369.074 329.097C382.356 342.105 395.383 354.924 408.25 367.556C408.058 368.841 407.356 369.28 406.813 369.813C403.333 373.26 399.821 376.708 396.308 380.125C355.281 420.37 314.253 460.647 273.226 500.892C272.427 501.676 271.374 502.334 271.15 503.525C271.406 504.434 272.108 504.967 272.715 505.531C276.227 508.979 279.739 512.427 283.251 515.874H295.895C292.255 512.301 288.615 508.728 284.975 505.155C284.432 504.622 283.73 504.215 283.475 503.212C296.533 490.423 309.592 477.541 322.618 464.847C323.896 465.38 324.438 466.132 325.077 466.759C341.775 483.12 358.474 499.513 375.172 515.906H387.177C383.09 511.894 379.003 507.882 374.917 503.87V502.992C390.146 488.073 405.376 473.09 420.638 458.139C405.44 443.22 390.242 428.3 375.012 413.38C374.949 413.318 374.949 413.161 374.917 413.036C374.917 412.973 374.917 412.91 374.949 412.848C405.408 382.946 435.899 353.044 466.359 323.142C466.391 323.111 466.423 323.048 466.454 322.985C466.518 322.954 466.518 322.891 466.518 322.828Z" fill="#261C0A"/>
<path d="M368.571 57.6922H369.241L414.994 102.608C432.172 85.7448 449.317 68.9445 466.494 52.0816V51.3607C464.834 49.7308 463.174 48.101 461.513 46.4711C461.322 46.283 461.162 46.095 460.779 46.189L451.137 55.6235C439.228 67.2833 427.35 78.9745 415.441 90.6344C415.218 90.8538 415.058 91.1673 414.643 91.0419C404.969 81.7641 376.649 53.8996 374.956 51.9563V51.3294C398.136 28.5738 421.348 5.81829 444.56 -16.9373H432.555C427.223 -11.7029 421.891 -6.46845 416.559 -1.23405C416.016 -0.701206 415.377 -0.199707 415.058 0.552542C414.771 -0.168364 414.196 -0.607176 413.717 -1.07733C408.353 -6.34308 402.957 -11.6402 397.593 -16.9059H341.304C329.171 -5.02664 317.071 6.88398 304.938 18.7632C294.051 29.4515 283.163 40.1083 272.308 50.7965C271.956 51.1413 271.477 51.4234 271.254 52.0503C271.573 52.3951 271.924 52.7398 272.276 53.0846C272.691 53.4921 273.106 53.8996 273.521 54.307C273.904 54.6832 274.255 55.0279 274.638 55.4041C275.053 55.8115 275.468 56.219 275.883 56.6265C276.267 57.0026 276.618 57.3474 277.001 57.7235C277.384 58.0996 277.735 58.4444 278.118 58.8205C278.534 59.228 278.949 59.6355 279.364 60.0429C279.747 60.4191 280.098 60.7638 280.481 61.14C280.896 61.5474 281.311 61.9549 281.726 62.3624C282.109 62.7385 282.461 63.0833 282.844 63.4594C283.227 63.8355 283.578 64.1803 283.961 64.5564C284.376 64.9639 284.791 65.3714 285.207 65.7788C285.59 66.155 285.941 66.4997 286.324 66.8759C286.739 67.2833 287.154 67.6908 287.569 68.0983C287.952 68.4744 288.304 68.8192 288.687 69.1953C289.07 69.5714 289.421 69.9162 289.804 70.2923C290.219 70.6998 290.634 71.1073 291.049 71.5147C291.432 71.8909 291.784 72.2356 292.167 72.6118C292.582 73.0192 292.997 73.4267 293.412 73.8342C293.795 74.2103 294.146 74.5551 294.529 74.9312C294.945 75.3387 295.36 75.7461 295.775 76.1536C296.158 76.5297 296.509 76.8745 296.892 77.2506C297.275 77.6268 297.627 77.9715 298.01 78.3477C298.425 78.7551 298.84 79.1626 299.255 79.5701C299.638 79.9462 299.989 80.291 300.372 80.6671L301.618 81.8895C302.001 82.2656 302.352 82.6104 302.735 82.9865C303.118 83.3627 303.469 83.7074 303.853 84.0836C304.268 84.491 304.683 84.8985 305.098 85.306C305.481 85.6821 305.832 86.0269 306.215 86.403C306.63 86.8105 307.045 87.2179 307.46 87.6254C307.844 88.0015 308.195 88.3463 308.578 88.7224C308.961 89.0986 309.312 89.4434 309.695 89.8195C310.11 90.2269 310.525 90.6344 310.941 91.0419L312.058 92.1389C312.473 92.5464 312.888 92.9538 313.303 93.3613L314.421 94.4583C314.804 94.8345 315.155 95.1792 315.538 95.5554C315.953 95.9628 316.368 96.3703 316.783 96.7778C317.167 97.1539 317.518 97.4987 317.901 97.8748C318.316 98.2823 318.731 98.6898 319.146 99.0972C319.529 99.4733 319.88 99.8181 320.264 100.194C320.647 100.57 320.998 100.915 321.381 101.291C321.796 101.699 322.211 102.106 322.626 102.514C323.009 102.89 323.361 103.235 323.744 103.611C324.159 104.018 324.574 104.426 324.989 104.833C325.372 105.209 325.723 105.554 326.106 105.93C326.49 106.306 326.841 106.651 327.224 107.027L328.469 108.25C328.852 108.626 329.203 108.97 329.587 109.347C330.002 109.754 330.417 110.162 330.832 110.569L331.949 111.666C332.332 112.042 332.684 112.387 333.067 112.763C333.482 113.171 333.897 113.578 334.312 113.985C334.695 114.362 335.046 114.706 335.429 115.083C335.844 115.49 336.26 115.897 336.675 116.305C337.058 116.681 337.409 117.026 337.792 117.402C338.175 117.778 338.526 118.123 338.91 118.499C339.325 118.906 339.74 119.314 340.155 119.721C340.538 120.098 340.889 120.442 341.272 120.818C341.687 121.226 342.102 121.633 342.517 122.041C342.901 122.417 343.252 122.762 343.635 123.138C344.05 123.545 344.465 123.953 344.88 124.36C345.263 124.736 345.614 125.081 345.998 125.457C346.381 125.833 346.732 126.178 347.115 126.554C347.53 126.962 347.945 127.369 348.36 127.777C348.743 128.153 349.095 128.498 349.478 128.874L350.723 130.096C351.106 130.472 351.457 130.817 351.84 131.193C352.224 131.569 352.575 131.914 352.958 132.29L354.203 133.513C354.586 133.889 354.937 134.234 355.321 134.61C355.736 135.017 356.151 135.425 356.566 135.832C356.949 136.208 357.3 136.553 357.683 136.929L358.801 138.026C359.216 138.434 359.631 138.841 360.046 139.249C360.429 139.625 360.78 139.969 361.163 140.346C361.579 140.753 362.025 141.129 362.409 141.568C362.728 141.944 363.239 142.163 363.43 142.822C348.296 157.647 333.162 172.536 317.997 187.393V188.176C319.657 189.806 321.317 191.436 322.977 193.066C323.169 193.254 323.329 193.442 323.776 193.316C324.127 192.94 324.574 192.47 325.021 192.031C333.45 183.757 341.879 175.482 350.34 167.207C358.45 159.246 366.559 151.285 374.669 143.323C374.893 143.104 375.212 142.947 375.084 142.477C359.918 127.589 344.689 112.669 329.491 97.7494C329.459 97.7181 329.395 97.6554 329.363 97.6241C329.331 97.5614 329.363 97.4987 329.363 97.436C329.363 97.3733 329.331 97.2793 329.363 97.2479C342.038 83.6761 355.289 70.6998 368.571 57.6922Z" fill="#261C0A"/>
<path d="M368.659 362.04C353.429 376.991 338.295 391.848 322.97 406.861C318.851 402.943 315.083 399.151 311.252 395.421C307.453 391.722 303.685 387.992 299.918 384.294C296.086 380.532 292.287 376.771 288.423 373.041C284.624 369.343 280.888 365.519 276.706 361.664C261.253 376.803 246.119 391.659 230.793 406.704C217.479 393.665 204.421 380.846 191.139 367.807C219.778 339.723 248.162 311.858 276.738 283.806C292.223 299.007 307.389 313.896 322.65 328.847C325.237 327.029 327.12 325.179 328.972 322.641C311.603 305.621 294.33 288.664 276.929 271.801C275.588 272.24 274.982 273.118 274.247 273.838C260.359 287.442 246.502 301.076 232.613 314.679C232.038 315.243 231.591 316.058 230.378 316.09C217.415 303.396 204.357 290.576 191.139 277.6C206.56 262.461 221.726 247.604 236.955 232.621C234.912 230.302 233.124 228.327 230.538 226.509C200.015 256.474 169.523 286.376 138.808 316.497C125.558 303.49 112.436 290.639 99.1537 277.6C114.575 262.461 129.709 247.635 144.939 232.684C142.895 230.208 141.011 228.171 138.361 226.353C107.71 256.411 77.1872 286.376 46.4724 316.497C33.1903 303.49 20.1317 290.67 6.8496 277.6C22.2709 262.461 37.5006 247.541 52.9857 232.339C37.5644 217.044 22.3028 202.249 7.0731 187.204C20.3871 174.134 33.4457 161.314 46.6959 148.338C62.1171 163.477 77.2511 178.334 92.4488 193.222C94.9392 191.342 96.8549 189.492 98.4513 187.392C97.4935 185.386 2.02846 91.8881 0.240486 91.1672C-1.80291 92.7658 -3.81438 94.521 -5.50657 97.0912C9.75506 112.136 25.0167 127.024 40.3422 142.132C26.9962 155.234 13.9376 168.053 0.974838 180.779C-0.206505 180.309 -0.717354 179.619 -1.29206 179.024C-28.2713 152.538 -55.2505 126.053 -82.2617 99.5674V112.356C-72.811 121.633 -63.3284 130.911 -53.8776 140.189C-53.3029 140.753 -52.5367 141.223 -52.3132 142.101C-52.5367 142.978 -53.3029 143.449 -53.8776 144.013C-63.3284 153.322 -72.811 162.6 -82.2617 171.877V202.594C-72.7791 211.903 -63.2645 221.212 -53.7819 230.521C-53.1433 231.148 -52.3132 231.618 -52.1855 232.59C-52.4089 233.405 -53.0794 233.875 -53.6222 234.408C-59.3373 240.019 -65.0525 245.629 -70.7676 251.24C-74.599 254.969 -78.4303 258.699 -82.2617 262.461V293.146C-72.811 302.424 -63.3284 311.702 -53.8776 321.011C-53.3029 321.575 -52.5367 322.045 -52.3451 322.923C-52.5686 323.738 -53.2391 324.176 -53.7819 324.709C-60.2633 331.103 -66.7766 337.466 -73.258 343.86C-76.2592 346.807 -79.2605 349.722 -82.2617 352.668V365.08C-54.8036 338.124 -27.2177 311.075 0.559769 283.837C13.8738 296.907 26.9324 309.727 39.9271 322.453C39.5759 323.612 38.8416 324.082 38.2669 324.647C24.4101 338.281 10.5213 351.884 -3.33546 365.487C-4.10174 366.24 -5.09151 366.867 -5.18729 368.465C-3.59089 370.377 -1.80291 372.383 0.879044 374.138C31.4662 344.111 61.9894 314.178 92.7362 284.025C106.05 297.064 119.141 309.915 132.391 322.923C121.887 333.203 111.701 343.202 101.548 353.201C91.3633 363.199 81.1782 373.198 70.9931 383.197C60.84 393.164 50.655 403.131 40.2783 413.318C55.7634 428.52 70.8974 443.345 86.2229 458.39C82.2318 462.34 78.4643 466.007 74.6968 469.705C70.8654 473.467 67.0341 477.228 63.2027 480.958C59.4352 484.656 55.6357 488.355 51.8682 492.085C48.1007 495.846 44.1736 499.451 40.7253 503.18C41.1085 504.465 41.8109 504.967 42.3856 505.562C45.8977 509.01 49.4098 512.458 52.9218 515.906H65.8847C62.2449 512.333 58.605 508.76 54.9652 505.186C54.3905 504.622 53.6243 504.152 53.3688 502.93C60.84 495.595 68.4389 488.167 76.0378 480.707C83.6048 473.278 91.2036 465.85 98.9622 458.171C83.5409 442.969 68.3431 428.144 53.0496 413.067C66.3316 399.997 79.4222 387.209 92.6723 374.201C96.6314 378.056 100.399 381.755 104.166 385.453C107.998 389.215 111.829 392.976 115.661 396.706C119.428 400.404 123.196 404.134 126.995 407.833C130.826 411.531 134.466 415.418 138.777 419.148C154.134 404.103 169.268 389.246 184.625 374.17C197.939 387.24 210.998 400.06 224.248 413.036C220.289 417.017 216.49 420.684 212.722 424.382C208.954 428.081 205.155 431.811 201.388 435.509C197.556 439.271 193.693 443 189.925 446.793C186.222 450.523 182.263 454.002 178.974 457.732C179.197 459.331 180.123 459.926 180.826 460.616C194.746 474.281 208.667 487.947 222.588 501.613C223.162 502.177 223.961 502.616 224.12 503.588C223.769 504.277 223.131 504.748 222.588 505.28C219.012 508.791 215.404 512.333 211.828 515.843H224.472C226.068 514.276 227.696 512.678 229.293 511.11C229.835 510.577 230.474 510.076 230.793 509.324C231.081 510.045 231.655 510.483 232.134 510.985C233.795 512.615 235.455 514.245 237.115 515.875H249.759C246.246 512.427 242.734 508.979 239.222 505.5C238.584 504.873 237.754 504.371 237.562 502.992C283.251 458.171 329.068 413.224 375.012 368.152C373.065 365.738 371.213 363.795 368.659 362.04Z" fill="#261C0A"/>
<path d="M408.984 367.619C408.026 366.678 407.068 365.738 406.11 364.798C394.042 352.95 381.941 341.102 369.872 329.254C369.617 329.003 369.425 328.596 368.914 328.69C365.913 331.636 362.848 334.645 359.815 337.623C347.746 349.471 335.645 361.319 323.576 373.167C323.353 373.386 323.193 373.699 322.746 373.574C320.703 371.568 318.627 369.531 316.552 367.493C303.493 354.705 290.467 341.885 277.408 329.097C277.185 328.878 276.993 328.564 276.578 328.69C261.348 343.641 246.087 358.623 230.825 373.574C228.941 371.725 227.026 369.844 225.206 368.058L277.057 317.187C292.255 332.075 307.453 347.026 322.682 361.945C322.746 362.008 322.906 362.008 323.129 362.071C336.475 348.969 349.885 335.836 363.263 322.703L277.057 238.106C277.025 238.138 276.961 238.138 276.929 238.169C261.763 253.057 246.598 267.946 231.432 282.803C231.4 282.834 231.336 282.897 231.304 282.928C231.24 282.959 231.176 282.959 231.113 282.959H230.474C228.75 281.267 226.994 279.543 225.27 277.819C225.206 277.756 225.238 277.6 225.206 277.38C225.621 276.973 226.1 276.503 226.547 276.064C232.23 270.485 237.881 264.937 243.564 259.357C252.568 250.55 261.54 241.711 270.544 232.903C270.767 232.684 271.086 232.527 271.055 232.308C257.677 219.175 244.427 206.167 231.113 193.097H230.538C230.123 193.504 229.676 193.943 229.229 194.382C199.44 223.532 169.779 252.619 140.149 281.706C139.83 282.019 139.511 282.332 139.192 282.646C139 282.834 138.84 283.022 138.521 282.959C135.041 279.731 133.7 278.352 133.189 277.506C133.221 277.443 133.221 277.38 133.253 277.349C133.285 277.286 133.349 277.255 133.381 277.223C148.451 262.429 163.521 247.635 178.623 232.841C178.719 232.747 178.814 232.653 178.91 232.559C178.942 232.527 178.91 232.465 178.91 232.433C177.441 230.991 175.973 229.55 174.472 228.076C162.818 216.636 151.133 205.196 139.479 193.755C139.223 193.504 139.064 193.097 138.489 193.16C138.074 193.567 137.627 194.006 137.18 194.445C107.519 223.532 77.8896 252.619 48.2284 281.706C47.9091 282.019 47.5898 282.332 47.2706 282.646C47.079 282.834 46.9193 283.022 46.5362 282.928C44.9079 281.361 43.2795 279.731 41.6193 278.101C41.4277 277.913 41.2361 277.756 41.3 277.349L86.6379 232.872C86.6379 232.527 86.606 232.308 86.606 232.088C71.4401 217.2 56.3062 202.375 41.2042 187.549C41.1084 187.455 41.0126 187.361 40.9169 187.267C40.8849 187.236 40.9169 187.173 40.9169 187.142C42.7048 185.386 44.5247 183.6 46.3127 181.844C46.3446 181.813 46.4085 181.75 46.4404 181.719C46.4724 181.688 46.5362 181.719 46.8235 181.75C61.9255 196.576 77.1872 211.527 92.5127 226.572H93.0554C106.242 213.627 119.46 200.651 132.678 187.674C132.742 187.612 132.742 187.455 132.774 187.236C132.391 186.859 131.976 186.452 131.593 186.076C88.362 143.637 45.1314 101.197 1.8688 58.789C1.58145 58.507 1.2941 58.2562 1.03867 57.9741C0.847107 57.786 0.655533 57.6293 0.400108 57.692L-39.7335 97.0284C-24.5357 111.948 -9.33795 126.868 5.89175 141.787C5.9556 141.85 5.98753 142.007 6.01945 142.101C4.9339 143.417 2.02844 146.269 0.559753 147.46C0.495895 147.46 0.400108 147.492 0.368179 147.46C-27.1858 120.411 -54.7397 93.3612 -82.2617 66.3115V78.5983C-55.3144 105.021 -28.399 131.444 -1.45171 157.867C-0.877007 158.431 -0.334229 159.152 0.783249 159.402C6.68995 153.823 12.5966 148.181 18.5353 142.038C3.08208 126.868 -12.1476 111.917 -27.537 96.8403C-18.0543 87.5312 -8.85904 78.5356 0.559753 69.2578C40.7253 108.657 80.6354 147.837 120.801 187.204C111.35 196.482 102.123 205.54 92.7042 214.755C88.7132 210.869 84.9457 207.17 81.1782 203.472C77.3468 199.71 73.5154 195.949 69.6841 192.219C65.9165 188.521 62.149 184.791 58.3496 181.092C54.5502 177.394 50.8146 173.57 47.0151 170.091C44.4928 171.438 29.8697 186.013 29.1673 187.925C44.1735 202.657 59.3074 217.482 74.601 232.496C59.2117 247.604 44.0777 262.429 28.6565 277.568C34.6909 283.586 40.4379 289.259 46.5362 295.058C77.3468 264.843 107.87 234.878 138.617 204.725C148.163 214.066 157.422 223.187 166.905 232.465C162.818 236.508 158.987 240.238 155.188 243.968C151.42 247.666 147.621 251.396 143.853 255.095C140.022 258.856 136.158 262.586 132.391 266.378C128.623 270.14 124.6 273.65 120.961 277.913C126.867 283.743 132.55 289.416 138.234 294.807C139.798 294.4 140.469 293.491 141.235 292.739C170.417 264.122 199.599 235.474 228.814 206.857C229.42 206.261 229.899 205.384 231.144 205.29C240.276 214.223 249.471 223.25 258.858 232.496C254.899 236.414 251.131 240.081 247.364 243.78C243.533 247.541 239.701 251.302 235.87 255.032C232.102 258.731 228.271 262.429 224.535 266.159C220.768 269.92 216.777 273.462 213.105 277.631C218.948 283.618 224.727 289.197 230.793 295.058C246.215 279.95 261.38 265.031 276.738 249.986C301.61 274.371 326.194 298.506 351.003 322.86C341.52 332.169 332.325 341.196 322.906 350.411C318.787 346.399 314.988 342.669 311.156 338.908C307.389 335.209 303.589 331.479 299.822 327.781C295.99 324.02 292.191 320.227 288.328 316.528C284.496 312.861 280.92 308.912 277.025 305.652C275.876 305.903 275.429 306.373 274.982 306.843C254.867 326.558 234.784 346.274 214.67 366.02C214.063 366.616 213.392 367.149 213.456 368.089C214.478 370.126 229.197 384.356 231.336 385.077C246.374 370.377 261.508 355.457 276.897 340.412C280.92 344.236 284.656 347.966 288.423 351.665C292.255 355.426 296.086 359.156 299.918 362.917C303.685 366.616 307.453 370.346 311.252 374.044C315.083 377.743 318.691 381.629 323.033 385.328C338.423 370.252 353.557 355.395 368.882 340.381C378.333 349.659 387.56 358.717 396.979 367.964C390.21 374.608 383.665 381.034 377.12 387.428C370.511 393.885 363.933 400.373 357.356 406.83C350.811 413.255 344.266 419.681 337.72 426.106C331.175 432.532 324.63 438.957 318.085 445.383C311.539 451.808 304.994 458.233 298.449 464.659C291.872 471.116 285.263 477.604 278.685 484.061C272.172 490.455 265.627 496.818 259.273 503.368C259.752 504.434 260.454 504.967 261.029 505.531C264.541 508.979 268.053 512.427 271.565 515.875H283.953C280.186 512.176 276.387 508.446 272.619 504.747C272.396 504.528 272.14 504.309 271.917 504.058C271.725 503.839 271.406 503.713 271.342 503.4L408.984 368.371V367.619Z" fill="#68490E"/>
<path d="M260.167 504.089C259.975 503.87 259.656 503.745 259.592 503.4C305.601 458.265 351.609 413.13 397.586 368.026C388.007 358.623 378.429 349.22 368.85 339.817C353.653 354.736 338.455 369.656 323.225 384.576C323.161 384.638 323.002 384.638 322.778 384.732C319.777 381.786 316.744 378.808 313.71 375.831C310.613 372.79 307.548 369.781 304.451 366.741C301.418 363.763 298.353 360.754 295.32 357.777C292.223 354.737 289.158 351.728 286.061 348.687C283.028 345.71 279.994 342.732 276.897 339.692L231.081 384.638H230.442C224.855 379.153 219.331 373.731 213.776 368.308V367.587C234.657 347.089 255.569 326.59 276.45 306.122C276.514 306.06 276.674 306.028 276.802 305.997C276.865 305.997 276.961 305.997 276.993 306.028C292.223 320.948 307.421 335.868 322.65 350.819C322.682 350.85 322.746 350.913 322.81 350.913C322.874 350.944 322.938 350.913 323.002 350.913C324.885 349.314 339.413 335.115 351.386 323.205C351.449 323.142 351.481 322.985 351.513 322.86C351.513 322.797 351.513 322.703 351.481 322.672C326.673 298.318 301.865 273.995 277.057 249.672C276.993 249.61 276.834 249.61 276.61 249.547C261.38 264.498 246.087 279.48 230.825 294.494C225.142 288.915 219.523 283.398 213.903 277.882C213.839 277.819 213.839 277.662 213.776 277.443C229.005 262.492 244.299 247.51 259.56 232.496C250.046 223.156 240.595 213.878 231.144 204.631C231.049 204.537 230.953 204.443 230.857 204.349C230.825 204.318 230.761 204.349 230.729 204.349C200.525 233.969 170.321 263.62 140.117 293.24C139.798 293.554 139.479 293.867 139.16 294.18C138.968 294.368 138.776 294.525 138.521 294.463C132.838 288.883 127.155 283.336 121.503 277.756C121.503 277.756 121.535 277.694 121.567 277.662C136.701 262.837 151.803 247.98 166.937 233.154C167.033 233.06 167.129 232.966 167.224 232.872C167.256 232.841 167.224 232.747 167.256 232.684V232.089C157.869 222.873 148.451 213.658 139.064 204.412C138.904 204.255 138.745 204.255 138.521 204.255C107.87 234.314 77.2191 264.404 46.6001 294.431C40.8849 288.852 35.2337 283.304 29.5505 277.756C29.5185 277.725 29.5505 277.631 29.5505 277.568C29.5505 277.506 29.5185 277.412 29.5505 277.38C44.8121 262.398 60.0418 247.447 75.3034 232.465C60.0737 217.514 44.844 202.594 29.6462 187.674C29.5824 187.612 29.5824 187.455 29.5185 187.33C29.5185 187.267 29.5185 187.173 29.5505 187.142C35.1698 181.625 40.7892 176.109 46.4404 170.592C46.5043 170.529 46.6639 170.498 46.8874 170.435L92.6084 215.288C102.219 205.854 111.797 196.482 121.376 187.079L2.02844 70.0729C1.70917 69.7594 1.38988 69.446 1.0706 69.1325C0.879036 68.9445 0.719391 68.7564 0.400108 68.8505C0.368179 68.8818 0.304329 68.9131 0.2724 68.9445C-9.08253 78.1282 -18.4375 87.3119 -27.8243 96.4956C-27.984 96.6523 -28.0159 96.809 -27.984 97.1852C-27.6008 97.53 -27.1219 97.9374 -26.6749 98.3762C-20.5447 104.394 -14.4145 110.412 -8.28433 116.43C0.240471 124.799 8.76527 133.168 17.2901 141.537C17.5136 141.756 17.8329 141.913 17.7051 142.383C12.0858 147.899 6.43452 153.447 0.75132 158.995C0.687462 159.058 0.495895 159.026 0.240471 159.058C-0.14267 158.65 -0.557732 158.18 -1.00472 157.741C-28.0797 131.099 -55.1548 104.52 -82.2617 77.9401V89.694C-55.506 115.96 -28.7502 142.195 -1.9945 168.461C-1.22823 169.213 -0.589661 170.185 0.591682 170.341C2.50736 169.401 28.6565 143.637 29.4866 141.693C14.5443 126.899 -0.685448 112.136 -15.9471 97.0285C-10.3597 91.512 -4.96381 86.2149 0.591682 80.7924C36.9578 116.462 73.0365 151.849 109.275 187.424C103.656 192.94 98.2917 198.206 92.9916 203.409C91.8741 203.033 91.3633 202.343 90.7566 201.748C76.8679 188.145 63.0111 174.51 49.1224 160.907C48.3561 160.155 47.7175 159.183 46.4724 159.12C44.5567 159.967 18.5672 185.543 17.8648 187.267C17.9925 188.364 18.9184 188.991 19.6528 189.68C33.6053 203.409 47.5898 217.106 61.5424 230.803C62.0852 231.336 62.8195 231.744 62.9792 232.747C59.3394 236.477 55.508 240.113 51.7724 243.811C47.941 247.572 44.1097 251.334 40.3102 255.063C36.5427 258.762 32.7113 262.461 28.9758 266.19C25.2082 269.952 21.2492 273.525 17.4816 277.694C27.3793 287.379 36.862 296.876 46.8235 306.373C77.6022 276.189 108.03 246.319 138.681 216.26C144.332 221.808 149.728 227.074 155.219 232.496C151.196 236.539 147.397 240.207 143.63 243.905C139.862 247.635 136.063 251.334 132.295 255.032C128.464 258.793 124.632 262.523 120.833 266.285C117.097 269.983 113.234 273.556 109.403 277.694C119.268 287.379 128.815 296.813 138.745 306.404C169.587 276.158 200.11 246.193 230.825 216.072C236.54 221.651 241.936 226.979 247.555 232.496C232.102 247.729 216.841 262.586 201.803 277.694C202.186 278.634 202.76 279.104 203.271 279.574C211.796 287.943 220.321 296.312 228.846 304.681C229.452 305.245 229.995 305.934 231.144 306.06C246.47 291.297 261.636 276.409 276.993 261.332C297.906 281.831 318.595 302.142 339.54 322.672C333.889 328.188 328.557 333.517 322.938 338.877C317.638 333.674 312.625 328.753 307.612 323.832C302.536 318.848 297.459 313.864 292.383 308.912C287.37 304.022 282.421 299.07 276.961 293.836C251.642 318.66 226.674 343.171 201.419 367.932C211.317 377.68 220.927 387.083 230.825 396.8C246.278 381.661 261.444 366.772 276.77 351.727C292.191 366.835 307.293 381.723 322.746 396.8C338.263 381.598 353.461 366.647 368.882 351.539C374.597 357.119 380.025 362.416 385.293 367.619C384.942 368.841 384.24 369.343 383.633 369.938C376.96 376.489 370.255 383.071 363.582 389.622C325.779 426.702 287.976 463.813 250.174 500.892C249.375 501.676 248.322 502.334 248.098 503.525C248.354 504.434 249.056 504.967 249.663 505.531C253.175 508.979 256.687 512.427 260.199 515.875H272.204C268.436 512.176 264.637 508.446 260.869 504.748C260.614 504.559 260.391 504.34 260.167 504.089Z" fill="#261C0A"/>
<path d="M369.042 351.289C368.914 351.289 368.659 351.32 368.467 351.32C353.206 366.302 337.976 381.222 322.714 396.204C322.267 395.765 321.82 395.327 321.373 394.888L303.27 377.116C294.649 368.653 286.029 360.19 277.408 351.759C277.185 351.539 277.025 351.226 276.674 351.289L230.889 396.204C221.247 386.738 211.668 377.367 202.122 367.964C226.898 343.641 251.738 319.287 276.61 294.87C276.802 294.87 277.057 294.87 277.312 294.87C283.123 300.575 288.934 306.279 294.745 311.952C303.909 320.948 313.104 329.944 322.267 338.939C322.491 339.159 322.65 339.472 323.034 339.347C328.717 333.768 334.368 328.22 340.019 322.672C318.979 302.016 297.906 281.361 276.834 260.705C261.604 275.625 246.374 290.607 231.113 305.59H230.346C220.896 296.312 211.445 287.034 201.994 277.756C217.256 262.774 232.517 247.823 247.779 232.841V232.089C242.351 226.76 236.892 221.4 231.464 216.072C231.368 215.978 231.272 215.884 231.176 215.79C231.144 215.758 231.049 215.758 230.985 215.758H230.314C229.931 216.166 229.484 216.636 229.037 217.075C199.408 246.162 169.747 275.249 140.117 304.336C139.798 304.649 139.447 304.963 139.16 305.276C138.968 305.464 138.776 305.621 138.457 305.527C129.134 296.375 119.779 287.191 110.392 278.007C110.201 277.819 110.041 277.631 110.105 277.38C125.367 262.398 140.628 247.416 155.922 232.433C150.271 226.885 144.651 221.369 139.032 215.853C138.872 215.696 138.681 215.727 138.425 215.696C138.01 216.103 137.563 216.573 137.116 217.044C107.487 246.131 77.8258 275.218 48.1965 304.305C47.8772 304.618 47.526 304.931 47.2386 305.245C47.0471 305.433 46.8555 305.59 46.5362 305.496C37.1174 296.249 27.6667 286.971 18.216 277.694C18.1841 277.662 18.216 277.568 18.1841 277.318C33.3818 262.398 48.6754 247.416 63.969 232.402C48.7073 217.42 33.4457 202.469 18.216 187.518V186.703C27.539 177.582 36.8301 168.429 46.1531 159.308C46.185 159.277 46.2808 159.277 46.3447 159.277H46.8874C62.181 174.259 77.4107 189.242 92.6723 204.193C92.7681 204.13 92.832 204.099 92.8639 204.067C98.4513 198.582 104.007 193.128 109.594 187.643C109.754 187.486 109.754 187.33 109.754 187.079C73.4197 151.598 37.0855 115.96 0.751328 80.3223C0.719398 80.2909 0.623611 80.3223 0.559761 80.3223C0.495903 80.3223 0.400116 80.2909 0.368187 80.3223C-5.31501 85.8701 -10.9663 91.4493 -16.6495 97.0285C-15.1489 98.5016 -13.6163 99.9748 -12.0838 101.479C1.5176 114.832 15.119 128.153 28.7203 141.505C28.9438 141.725 29.2631 141.913 29.1354 142.32C19.8443 151.441 10.5213 160.562 1.23025 169.715C1.00675 169.934 0.847115 170.247 0.432045 170.122L-82.2617 89.0358V100.351C-54.612 127.495 -26.9623 154.607 0.687469 181.719C14.0973 168.586 27.4113 155.516 40.7253 142.446C40.8849 142.289 40.853 142.101 40.853 141.913C25.8787 127.212 10.8725 112.512 -4.10174 97.8121C-4.38909 97.53 -4.64452 97.2792 -4.93187 96.9971C-4.9638 96.9658 -4.93187 96.8718 -4.93187 96.8091C-3.84632 95.4926 -0.940865 92.6404 0.527832 91.4493C0.591682 91.4493 0.687469 91.418 0.719398 91.4493C33.2541 123.389 65.7889 155.328 98.2597 187.236C96.4079 189.054 94.5241 190.903 92.6404 192.752C77.4426 177.833 62.2448 162.913 47.0151 147.993C46.9513 147.931 46.7916 147.931 46.6639 147.868C45.3229 148.996 8.73335 184.822 6.46645 187.267C21.6962 202.187 36.8939 217.106 52.0917 232.057C52.1556 232.12 52.1556 232.277 52.2194 232.496C36.9897 247.416 21.76 262.398 6.49838 277.349C6.43453 277.412 6.43453 277.568 6.4026 277.694C7.99901 279.449 45.2272 315.902 46.5681 317.061C76.7721 287.442 106.976 257.79 137.18 228.171C137.499 227.857 137.819 227.544 138.138 227.23C138.329 227.042 138.489 226.885 138.776 226.948C140.692 228.829 142.576 230.678 144.492 232.559L98.8983 277.255C98.8664 277.286 98.8025 277.349 98.7706 277.38C98.7386 277.443 98.7706 277.506 98.7387 277.756L138.936 317.187C169.587 287.128 200.238 257.038 230.793 227.074C232.645 228.892 234.529 230.741 236.381 232.559C221.215 247.447 205.985 262.367 190.787 277.318C190.724 277.38 190.723 277.537 190.723 277.568L230.921 316.999C246.055 302.142 261.285 287.222 276.514 272.303C276.578 272.24 276.738 272.24 276.961 272.209C277.376 272.616 277.823 273.055 278.302 273.525C285.55 280.64 292.766 287.724 300.013 294.839C309.273 303.928 318.564 313.018 327.823 322.108C328.078 322.358 328.525 322.515 328.429 323.017C325.652 325.963 323.927 327.624 322.81 328.345C307.58 313.394 292.319 298.443 277.057 283.461C276.993 283.398 276.834 283.398 276.61 283.367C276.291 283.68 275.908 284.025 275.556 284.401C247.619 311.827 219.682 339.221 191.745 366.647C191.522 366.867 191.298 367.086 191.043 367.337C190.851 367.525 190.66 367.681 190.692 367.87L230.889 407.3C231.24 406.955 231.687 406.516 232.134 406.078C238.36 399.966 244.586 393.853 250.812 387.773C259.241 379.498 267.702 371.223 276.131 362.949C276.355 362.729 276.514 362.416 277.121 362.541C277.44 362.886 277.887 363.356 278.334 363.795C284.432 369.782 290.499 375.737 296.597 381.723C305.186 390.124 313.742 398.555 322.331 406.955C322.555 407.175 322.714 407.488 323.097 407.394C338.391 392.412 353.621 377.429 368.882 362.478C370.798 364.359 372.682 366.208 374.597 368.089C328.717 413.099 282.804 458.139 236.923 503.149V503.933C241.01 507.945 245.097 511.957 249.152 515.937H260.901C257.134 512.239 253.335 508.509 249.567 504.81C249.344 504.591 249.088 504.371 248.865 504.121C248.673 503.901 248.354 503.776 248.29 503.463C294.139 458.484 339.955 413.537 385.772 368.559C385.804 368.528 385.868 368.465 385.9 368.434C385.932 368.371 385.932 368.308 385.932 368.246C385.932 368.058 385.932 367.87 385.932 367.87C380.249 362.29 374.661 356.837 369.042 351.289Z" fill="#68490E"/>
<path d="M552.473 272.271C537.339 287.128 522.109 302.079 506.847 317.03C506.56 316.748 506.177 316.372 505.794 315.996C493.054 303.521 480.347 291.015 467.64 278.54C467.352 278.258 466.841 278.07 466.873 277.412C467.288 277.004 467.735 276.565 468.182 276.126C473.77 270.641 479.325 265.188 484.913 259.702C493.948 250.832 502.984 241.962 512.02 233.092C512.275 232.841 512.69 232.684 512.658 232.277C497.365 217.263 482.103 202.281 466.81 187.298C467.32 186.797 467.767 186.358 468.214 185.919C474.345 179.901 480.475 173.883 486.605 167.865C495.13 159.497 503.655 151.128 512.179 142.759C512.403 142.54 512.722 142.383 512.69 142.226C510.743 140.346 508.987 138.59 507.135 136.772H506.592C491.522 151.567 476.388 166.392 461.286 181.218C461.222 181.28 461.062 181.28 460.935 181.28C460.871 181.249 460.807 181.249 460.775 181.218C447.493 168.179 434.211 155.171 420.929 142.132C420.897 142.101 420.833 142.038 420.801 142.007C420.769 141.975 420.801 141.913 420.801 141.881C451.42 111.854 482.039 81.7954 512.658 51.7682C495.513 34.9366 478.368 18.1364 461.222 1.30479C461.19 1.27344 461.094 1.30479 461.031 1.30479C460.967 1.30479 460.871 1.27344 460.839 1.30479C443.694 18.1364 426.516 34.9366 409.371 51.7682C409.339 51.7995 409.371 51.8935 409.371 51.9562C409.307 52.207 409.531 52.301 409.658 52.4264C411.223 53.9622 412.787 55.4981 414.352 57.0339C414.543 57.222 414.703 57.3787 415.054 57.316C418.055 54.3697 421.089 51.392 424.122 48.4144C436.191 36.5665 448.291 24.7185 460.36 12.8706C460.584 12.6512 460.743 12.3378 461.126 12.4632C474.504 25.5962 487.882 38.6978 501.164 51.7368C472.429 79.9148 443.694 108.124 414.926 136.334C399.761 121.445 384.531 106.526 369.301 91.606C369.237 91.5433 369.078 91.5434 369.046 91.5434C367.098 93.4553 365.182 95.3359 363.267 97.2166C378.401 112.073 393.63 126.993 408.828 141.913C408.892 141.975 408.892 142.132 408.924 142.352C408.605 142.665 408.253 143.01 407.87 143.386C379.933 170.812 351.996 198.206 324.059 225.632C323.836 225.851 323.612 226.071 323.357 226.321C323.165 226.509 323.005 226.697 322.814 226.666C309.372 213.502 296.026 200.369 282.616 187.236C282.968 186.891 283.415 186.452 283.862 186.013C289.992 179.995 296.122 173.977 302.252 167.959C310.777 159.591 319.302 151.222 327.827 142.853C328.05 142.634 328.369 142.477 328.305 142.132C297.846 112.073 267.355 82.1089 236.863 52.2383V51.298C237.278 50.9219 237.757 50.4831 238.204 50.0129C260.969 27.6962 283.702 5.37947 306.467 -16.9373H295.1C241.589 35.5635 188.077 88.0642 134.566 140.565C134.151 140.972 133.736 141.38 133.321 141.787C133.257 141.881 133.225 142.007 133.193 142.101C133.129 142.352 133.353 142.446 133.48 142.571C135.045 144.107 136.609 145.643 138.174 147.178C138.365 147.367 138.557 147.523 138.844 147.461C169.335 117.527 199.859 87.594 230.382 57.6921H231.212C259.788 85.7448 288.395 113.797 316.971 141.819C317.035 141.881 317.067 142.038 317.099 142.163C315.917 143.543 280.094 178.742 276.901 181.688C261.64 166.737 246.378 151.755 231.116 136.772H230.414C228.69 138.465 226.966 140.126 225.274 141.819C225.21 141.881 225.178 142.038 225.114 142.257C235.937 152.883 246.825 163.54 257.681 174.197C268.504 184.822 279.36 195.448 290.183 206.073C301.039 216.73 311.894 227.387 322.878 238.138C338.203 223.124 353.433 208.142 368.758 193.128C368.918 193.128 369.142 193.16 369.365 193.16C397.589 220.836 425.75 248.481 453.911 276.126C454.23 276.44 454.549 276.753 454.868 277.067C455.06 277.255 455.252 277.412 455.188 277.631C441.778 290.795 428.4 303.897 415.086 316.967L369.461 272.209H368.503C366.875 273.807 365.214 275.437 363.554 277.067C363.363 277.255 363.171 277.412 363.267 277.788L391.268 305.245C398.93 312.767 406.561 320.258 414.224 327.781C414.447 328 414.607 328.314 415.214 328.188C415.533 327.844 415.948 327.373 416.395 326.935C422.525 320.917 428.655 314.899 434.786 308.881C443.31 300.512 451.835 292.143 460.36 283.774C460.584 283.555 460.743 283.242 461.094 283.336C474.504 296.469 487.85 309.602 501.26 322.735C470.705 352.731 440.086 382.758 409.499 412.785C409.435 412.848 409.403 413.004 409.371 413.13C409.371 413.193 409.371 413.287 409.403 413.318C424.601 428.238 439.83 443.189 455.028 458.108C455.06 458.139 455.124 458.202 455.124 458.265C455.156 458.328 455.124 458.39 455.124 458.61C453.049 460.647 450.877 462.778 448.738 464.878C446.535 467.041 444.3 469.235 442.097 471.398C439.926 473.529 437.755 475.661 435.584 477.761C433.381 479.923 431.146 482.117 428.943 484.28L422.429 490.643C420.226 492.806 417.992 495 415.788 497.162C413.649 499.262 411.478 501.394 409.403 503.431C411.319 505.312 413.202 507.161 415.086 509.01C432.168 492.273 449.249 475.473 466.363 458.704C466.426 458.641 466.426 458.484 466.49 458.265C451.261 443.314 435.967 428.332 420.705 413.318C434.083 400.185 447.397 387.115 460.743 374.044C460.807 373.982 460.967 373.982 461.19 373.95C476.324 388.776 491.458 403.664 506.56 418.458H507.39C509.114 416.766 510.838 415.073 512.531 413.412C512.594 413.349 512.594 413.193 512.69 412.973C509.689 410.027 506.656 407.049 503.623 404.072L485.232 386.018C482.135 382.977 479.038 379.968 475.973 376.928L466.873 367.995C497.109 338.312 527.313 308.693 557.517 279.073C557.837 278.759 558.156 278.446 558.475 278.133C558.667 277.944 558.858 277.788 558.826 277.6C556.975 275.782 555.187 274.026 553.399 272.271H552.473Z" fill="#261C0A"/>
<path d="M132.806 322.891C131.337 321.167 99.9839 290.294 92.6723 283.398C62.0533 313.426 31.4662 343.453 0.847115 373.48C0.783264 373.543 0.623627 373.543 0.591698 373.543C-1.2282 371.756 -3.01617 370.001 -4.89993 368.152V367.493C10.2978 352.574 25.5595 337.623 40.8211 322.641C27.539 309.602 14.1931 296.531 0.879044 283.461C0.815193 283.398 0.655548 283.398 0.52784 283.367C-1.324 284.903 -65.1483 347.402 -82.2617 364.39V371.192C-68.1495 385.046 -53.9734 398.931 -39.8293 412.816C-39.7654 412.879 -39.7654 413.036 -39.7654 413.067C-41.5853 414.854 -43.3733 416.609 -45.2571 418.458H-45.7998L-82.2617 382.695V394.48C-70.608 405.921 -58.9542 417.361 -47.2685 428.802C-46.7257 429.335 -46.2468 429.993 -44.9378 430.118C-39.3823 424.664 -33.5075 419.117 -27.6647 413.005C-43.0859 397.866 -58.2199 383.04 -73.5453 367.995C-48.7691 343.704 -24.2484 319.632 0.52784 295.34C9.97855 304.618 19.2058 313.645 28.6246 322.923C13.2352 338.03 -1.8987 352.887 -17.288 367.995C-11.3175 373.982 -5.57043 379.655 0.591698 385.485C31.4023 355.269 61.9256 325.305 92.6723 295.152C102.091 304.399 111.318 313.457 120.45 322.421C120.099 323.675 119.3 324.176 118.662 324.803C89.5434 353.389 60.393 381.974 31.2746 410.56C30.4764 411.343 29.3908 411.97 29.2312 413.694C44.2374 428.394 59.4032 443.283 74.7926 458.39C70.8335 462.371 67.0341 466.038 63.2666 469.737C59.4352 473.498 55.6038 477.259 51.8044 480.989C48.0368 484.688 44.2374 488.386 40.4699 492.116C36.7024 495.877 32.7752 499.482 29.327 503.212C29.7101 504.497 30.4125 505.03 30.9873 505.594C34.4993 509.042 38.0114 512.49 41.5235 515.937H53.5285C49.314 511.8 45.0675 507.631 40.8211 503.494C41.3 503.055 41.7789 502.648 42.2259 502.209C47.8453 496.692 53.4646 491.176 59.084 485.659C68.1196 476.789 77.1553 467.919 86.1909 459.08C86.4144 458.86 86.7337 458.704 86.6379 458.328C71.3763 443.345 56.1147 428.363 40.853 413.381C71.4721 383.322 102.091 353.295 132.678 323.268C132.742 323.142 132.742 322.985 132.806 322.891Z" fill="#68490E"/>
<path d="M121.249 322.735C111.734 313.394 102.156 303.991 92.5772 294.619C62.4371 324.177 32.2331 353.828 2.02913 383.447C1.70985 383.761 1.39057 384.074 1.07129 384.388C0.879723 384.576 0.720085 384.764 0.464661 384.701L-16.6169 367.932C-16.2337 367.556 -15.7867 367.117 -15.3398 366.679C-9.20956 360.661 -3.07936 354.643 3.05083 348.625C11.5756 340.256 20.1004 331.887 28.6252 323.518C28.8487 323.299 29.168 323.142 29.0722 322.735C29.0084 322.641 28.9126 322.547 28.8487 322.453C19.5896 313.363 10.3304 304.273 1.03936 295.184C0.847794 294.996 0.688156 294.807 0.464661 294.87C-24.4073 319.287 -49.2793 343.672 -74.1194 368.058C-58.9535 382.915 -43.7558 397.834 -28.558 412.785C-28.5261 412.817 -28.4622 412.879 -28.4303 412.911C-28.3983 412.973 -28.4303 413.036 -28.4303 413.099C-28.4303 413.161 -28.3983 413.255 -28.4303 413.287C-34.1135 418.866 -39.7647 424.414 -45.4479 429.962C-57.7403 417.926 -70.0326 405.858 -82.293 393.791V405.984C-70.7031 417.361 -59.1132 428.708 -47.5233 440.086C-46.9166 440.681 -46.3739 441.339 -45.416 441.371C-43.6919 440.681 -17.447 415.011 -16.4572 412.848C-31.5592 398.022 -46.7889 383.103 -62.1783 367.964C-41.1377 347.308 -20.4163 326.997 0.528511 306.436C6.14785 311.952 11.6076 317.156 17.0353 322.735C11.7672 327.938 6.69063 332.89 1.64599 337.842C-3.36672 342.763 -8.41135 347.684 -13.4241 352.637C-18.4687 357.589 -23.5453 362.51 -28.4303 367.368C-27.2809 369.656 -0.716682 395.609 1.199 396.361C31.5945 366.553 62.0859 336.651 92.673 306.593C98.2604 312.109 103.656 317.312 109.148 322.829C102.986 329.097 96.8556 334.99 90.7892 340.945C84.659 346.963 78.5289 352.981 72.3987 358.999C66.3004 364.955 60.2341 370.941 54.1358 376.897C48.0056 382.915 41.8754 388.901 35.7452 394.951C29.7108 400.906 23.5487 406.767 17.3546 413.13C32.8078 428.3 47.9737 443.157 63.2353 458.14C59.2124 462.152 55.4129 465.819 51.6454 469.549C47.814 473.31 43.9827 477.071 40.1832 480.801C36.4157 484.5 32.6162 488.198 28.8487 491.928C25.0812 495.658 21.1541 499.294 17.642 503.306C17.9932 504.56 18.8233 505.124 19.4938 505.813C22.9101 509.167 26.3264 512.521 29.7427 515.875H42.1308C37.9163 511.737 33.7018 507.6 29.4873 503.463C44.6851 488.543 59.9148 473.623 75.1125 458.704C75.1445 458.672 75.2083 458.61 75.2402 458.578C75.2722 458.516 75.2402 458.453 75.2402 458.422C75.2722 458.077 75.0168 457.983 74.8252 457.795C72.4944 455.475 70.1318 453.187 67.7691 450.868C55.1255 438.487 42.514 426.075 29.8704 413.694C29.6469 413.475 29.3277 413.287 29.5512 412.628C60.0744 382.758 90.7254 352.699 121.249 322.735Z" fill="#261C0A"/>
<path d="M109.723 322.797C104.039 317.218 98.3561 311.639 92.7368 306.122C62.1497 336.15 31.4987 366.208 0.879707 396.267C-8.79451 386.801 -18.3729 377.398 -27.9833 367.995C-28.0152 367.964 -27.9833 367.869 -27.9833 367.807C-27.9833 367.744 -28.0152 367.65 -27.9833 367.619C-12.7217 352.636 2.50803 337.685 17.7697 322.735C12.0865 317.155 6.4352 311.576 0.751991 306.028C0.720062 305.997 0.624283 306.028 0.560425 306.028C0.496567 306.028 0.40078 305.997 0.368851 306.028C-20.576 326.558 -41.4889 347.089 -62.4337 367.619V368.434C-47.204 383.385 -31.9424 398.367 -16.6807 413.318C-26.1315 422.596 -35.5822 431.842 -45.0329 441.12H-45.8311C-48.3534 438.644 -50.8757 436.136 -53.43 433.66C-63.0403 424.225 -72.6507 414.791 -82.293 405.357V417.11C-70.6392 428.551 -58.9855 439.991 -47.2998 451.432C-46.757 451.965 -46.2781 452.623 -45.416 452.686C-43.3726 451.62 -5.72941 414.509 -4.99506 412.566C-20.0013 397.834 -35.1352 383.009 -50.4607 367.964C-33.2834 351.132 -16.3615 334.52 0.720062 317.751C2.38033 319.569 4.20023 320.791 5.28579 322.578C4.93458 323.706 4.13638 324.239 3.52974 324.866C-10.327 338.5 -24.2158 352.104 -38.0726 365.707C-38.775 366.396 -39.7328 366.992 -39.8605 368.528C-26.6104 381.535 -13.1687 394.7 0.528496 408.146C31.403 377.868 61.9262 347.904 92.5452 317.845C94.429 319.412 95.9935 320.917 97.558 322.766C66.907 352.825 36.3837 382.758 5.54121 413.036C21.0583 428.269 36.288 443.188 51.6773 458.296C47.7501 462.308 43.9188 465.944 40.1832 469.643C36.3518 473.404 32.5204 477.165 28.721 480.895C24.9535 484.594 21.154 488.292 17.3865 492.022C13.619 495.783 9.69186 499.356 6.2117 503.149C6.65869 504.371 7.32918 504.904 7.90388 505.5C11.416 508.948 14.9281 512.395 18.4402 515.843H30.4451C26.4222 511.894 22.3992 507.945 18.3763 503.995C18.2805 503.901 18.2486 503.807 18.1847 503.682C18.1847 503.494 18.1847 503.306 18.1847 503.18C33.4783 488.167 48.7399 473.216 64.0335 458.202C63.5226 457.701 63.0756 457.262 62.6286 456.823C56.4984 450.805 50.3683 444.787 44.2381 438.769C35.7133 430.4 27.1885 422.031 18.6637 413.663C18.4402 413.443 18.1209 413.287 18.2486 412.691C18.5998 412.378 19.0787 411.97 19.5257 411.5C49.155 382.413 78.8162 353.326 108.445 324.27C108.765 323.957 109.084 323.643 109.403 323.33C109.595 323.205 109.786 323.048 109.723 322.797Z" fill="#68490E"/>
<path d="M236.957 -16.9373C189.608 29.5141 142.259 75.9655 94.9093 122.386C94.2388 123.044 93.696 123.89 92.3869 124.266C83.2555 115.302 74.0283 106.244 64.8968 97.2792C65.3119 96.0255 66.0782 95.524 66.7167 94.8971C95.8352 66.3116 124.986 37.7262 154.104 9.14071C154.902 8.35712 155.988 7.73025 156.115 6.10037C150.56 0.458506 144.749 -5.15202 138.651 -11.1073C123.166 4.06303 108.032 18.9513 92.9297 33.7455C91.7803 33.3067 91.2695 32.5858 90.6947 32.0216C74.0602 15.7229 57.4257 -0.607182 40.7592 -16.9373H28.3711C49.5075 3.78094 70.6439 24.5305 91.7484 45.2487C92.0676 45.5621 92.355 45.8442 92.6743 46.1576C107.936 31.2067 123.134 16.2557 138.363 1.33613C138.427 1.27344 138.587 1.27344 138.715 1.2421C140.726 2.966 143.248 5.50484 144.11 6.63321C144.11 6.6959 144.11 6.78994 144.079 6.82128C113.651 36.7232 83.1597 66.6251 52.7003 96.527C52.6684 96.5583 52.6364 96.621 52.6045 96.6837C52.5726 96.7464 52.6045 96.8091 52.6045 96.8718C53.7539 98.1882 90.9182 134.672 92.7701 136.302C144.813 85.2119 196.888 34.153 248.93 -16.9373H236.957Z" fill="#68490E"/>
<path d="M52.0574 458.077C52.0255 458.046 51.9617 457.983 51.9297 457.951C51.8978 457.92 51.8339 457.857 51.802 457.826L51.6743 457.701C51.5785 457.607 51.4827 457.513 51.3869 457.419L6.84726 413.726C6.81533 413.694 6.75148 413.631 6.71955 413.6C6.68762 413.569 6.62376 413.506 6.59183 413.475C6.5599 413.443 6.49605 413.381 6.46412 413.349C6.43219 413.287 6.46412 413.224 6.46412 413.161C6.46412 413.099 6.43219 413.005 6.46412 412.973C37.1151 382.915 67.7661 352.825 98.3212 322.829C96.4056 320.948 94.5218 319.099 92.638 317.25C62.466 346.838 32.262 376.458 2.08997 406.109C1.7707 406.422 1.45142 406.736 1.13213 407.049C0.940567 407.237 0.780922 407.425 0.461639 407.363C0.42971 407.331 0.36586 407.331 0.302002 407.3C-12.9801 394.261 -26.2622 381.253 -39.5443 368.214C-39.5762 368.183 -39.64 368.12 -39.672 368.089C-39.672 368.058 -39.64 367.995 -39.64 367.964C-24.5061 353.138 -9.40414 338.281 5.72977 323.456C5.82556 323.362 5.92134 323.268 6.01713 323.173C6.04906 323.142 6.04906 323.048 6.04906 322.985V322.359C4.38879 320.729 2.66468 319.036 0.972496 317.375C0.940567 317.344 0.876701 317.281 0.844772 317.25C0.812843 317.218 0.748993 317.25 0.717064 317.25C-16.5241 334.175 -33.7653 351.069 -51.0384 368.026C-35.7767 382.977 -20.547 397.96 -5.28541 412.911C-5.25349 412.942 -5.25349 413.036 -5.25349 413.099C-5.25349 413.161 -5.22156 413.255 -5.25349 413.287C-18.6314 426.388 -32.0092 439.49 -45.3871 452.56C-57.6156 440.556 -69.9079 428.488 -82.2002 416.452V428.645C-70.6422 439.96 -59.1162 451.275 -47.5582 462.622C-46.9835 463.186 -46.4407 463.907 -45.4829 463.969C-44.3973 463.75 -43.7907 462.872 -43.0563 462.152C-29.1676 448.548 -15.3108 434.914 -1.42211 421.311C-0.783554 420.715 -0.304634 419.869 1.03635 419.712C13.9672 432.406 27.0258 445.226 40.0525 457.983C39.5416 459.049 38.8392 459.55 38.2645 460.146C21.7577 476.35 5.25085 492.524 -11.256 508.728C-13.6825 511.11 -16.141 513.524 -18.5675 515.906H-5.50891C-4.10407 514.527 -2.66731 513.116 -1.26247 511.737C-0.687767 511.173 -0.240784 510.39 0.685135 510.296C1.48334 510.546 1.93033 511.204 2.47311 511.737C3.87794 513.116 5.31471 514.527 6.71955 515.906H19.1076C14.8931 511.769 10.6786 507.631 6.46412 503.494C21.6619 488.574 36.8916 473.655 52.0894 458.735C52.1213 458.704 52.1852 458.641 52.2171 458.61C52.249 458.547 52.2171 458.484 52.249 458.422C52.249 458.359 52.2809 458.296 52.249 458.234C52.1852 458.171 52.1213 458.108 52.0574 458.077Z" fill="#261C0A"/>
<path d="M225.206 -16.9373C181.752 25.7215 138.266 68.349 94.812 110.976C94.1415 111.635 93.6306 112.544 92.3216 112.7C87.0534 107.497 81.6257 102.326 76.4852 97.0599C76.9322 95.8061 77.6985 95.3046 78.3371 94.6777C107.36 66.1863 136.414 37.6948 165.437 9.20341C166.235 8.41981 167.321 7.79294 167.48 6.06903C159.818 -1.45346 152.027 -9.10133 144.045 -16.9373H133.285C119.684 -3.58483 106.274 9.54819 92.9601 22.6185C91.7788 22.211 91.2999 21.4901 90.6933 20.926C77.8262 8.29444 64.9911 -4.30574 52.1241 -16.9373H40.1191C57.3284 -0.0429897 74.5376 16.8199 91.7469 33.7142C92.0662 34.0276 92.3535 34.3724 92.6728 34.6858C107.934 19.7036 123.164 4.78394 138.362 -10.1357C138.426 -10.1984 138.585 -10.2297 138.713 -10.261C140.278 -8.97595 150.686 1.14807 155.763 6.31978C155.827 6.38247 155.858 6.53919 155.954 6.78994C140.661 21.8036 125.303 36.8486 109.978 51.8936C94.6523 66.9385 79.2949 81.9835 64.0971 96.9031C73.7075 106.338 83.2859 115.741 92.8644 125.112C141.044 77.7835 189.319 30.4231 237.594 -16.9373H225.206Z" fill="#261C0A"/>
<path d="M92.7003 23.5275C106.461 10.0497 120.19 -3.45946 133.919 -16.9373H121.915C112.208 -7.40877 102.598 2.02569 92.9877 11.4288C91.7106 11.0213 91.1678 10.2691 90.5292 9.64222C81.5255 0.771946 72.4898 -8.06698 63.4542 -16.9373H51.4492C60.2294 -8.34908 68.9777 0.270445 77.758 8.85862C82.7388 13.7482 87.7195 18.6379 92.7003 23.5275Z" fill="#68490E"/>
<path d="M213.873 -16.9373C174.186 21.9916 134.499 60.9205 94.8127 99.8494C94.1422 100.508 93.6313 101.417 92.3542 101.573C90.9494 100.132 89.321 98.8151 88.0759 97.2479C88.3313 96.0882 89.1614 95.618 89.8 94.9911C118.886 66.3743 148.037 37.8202 177.155 9.2034C177.953 8.41981 179.039 7.76159 179.231 6.03769C171.472 -1.54749 163.682 -9.19536 155.795 -16.9373H143.407C151.357 -9.16402 159.276 -1.35943 167.226 6.41381C167.258 6.44515 167.226 6.53918 167.258 6.60187C167.258 6.66456 167.289 6.75859 167.258 6.78993C166.842 7.1974 166.427 7.60487 166.044 8.01234C136.351 37.1306 106.69 66.249 76.9968 95.3673C76.6775 95.6807 76.3582 95.9941 76.039 96.3076C75.8474 96.4956 75.6877 96.6837 75.7516 96.9344C81.4348 102.514 87.0861 108.061 92.8331 113.703C93.1844 113.327 93.5675 112.888 93.9825 112.481C137.884 69.3833 181.881 26.223 225.846 -16.9373H213.873Z" fill="#68490E"/>
<path d="M93.1471 11.993L122.617 -16.9373H110.165C104.833 -11.7029 99.5008 -6.46845 94.1688 -1.23405C93.626 -0.70121 92.9875 -0.199711 92.6682 0.55254C92.3809 -0.168365 91.8061 -0.607178 91.3272 -1.07733C85.9314 -6.37442 80.5675 -11.6715 75.2035 -16.9373H62.8154C72.6493 -7.28339 82.4831 2.37048 92.2851 11.993H93.1471Z" fill="#261C0A"/>
<path d="M202.531 -16.9373C196.72 -11.2014 190.878 -5.4968 185.035 0.145069C183.853 -0.35643 183.343 -1.04599 182.768 -1.64152C177.532 -6.7192 172.327 -11.8282 167.123 -16.9373H155.118C163.036 -9.19536 170.923 -1.42212 178.841 6.31978C178.905 6.38247 178.937 6.53919 179 6.75859C173.924 11.7422 168.815 16.7259 163.707 21.7409L132.992 51.8622C127.884 56.8772 122.743 61.8922 117.635 66.9385C112.526 71.9535 107.386 76.9685 102.277 82.0149C97.1687 87.0299 92.0921 92.0135 87.1113 96.8718C89.0589 98.7837 90.9108 100.602 92.7945 102.451C133.343 62.7071 173.924 22.8693 214.504 -16.9373H202.531Z" fill="#261C0A"/>
<path d="M40.4371 6.03769C38.3617 4.00035 36.2864 1.96301 34.2111 -0.0743351C28.496 -5.7162 22.7489 -11.3267 17.0338 -16.9373H4.64568C12.0211 -9.69686 19.3645 -2.4878 26.7399 4.7526C27.3146 5.31678 28.1128 5.78694 28.2405 6.66457C27.0273 8.54519 1.77215 33.15 0.431168 33.7769C-0.462822 33.4634 -0.973667 32.6799 -1.61223 32.053C-18.2787 15.7229 -34.9132 -0.607178 -51.5478 -16.9373H-63.5527C-42.4802 3.7496 -21.4076 24.4051 -0.335106 45.092C0.0161018 45.4367 0.367306 45.8129 0.686584 46.1577C14.0964 33.0246 27.4743 19.8916 40.8521 6.78994C40.8841 6.75859 40.8521 6.66456 40.8521 6.63322C40.8841 6.28844 40.5967 6.19441 40.4371 6.03769Z" fill="#68490E"/>
<path d="M5.31567 -16.9373H-6.68929C0.654179 -9.7282 8.02956 -2.4878 15.373 4.72126C15.9477 5.28544 16.714 5.7556 16.9694 6.94666C11.7013 12.1497 6.30545 17.4155 0.941528 22.7126C-0.0801697 22.1797 -0.55909 21.5528 -1.10187 21.02C-14.0327 8.38847 -26.9317 -4.27439 -39.8307 -16.9373H-52.2188C-34.786 0.176416 -17.3533 17.2901 0.111397 34.3724C0.239109 34.4978 0.334892 34.6859 0.590317 34.6232C0.6861 34.5918 0.813816 34.5605 0.909599 34.4664C10.2645 25.2827 19.6195 16.099 29.0063 6.94666C29.166 6.78994 29.1021 6.60188 29.134 6.41382L20.9604 -1.57883C15.7242 -6.68786 10.52 -11.8282 5.31567 -16.9373Z" fill="#261C0A"/>
<path d="M17.3511 6.03769C15.2758 4.00035 13.2004 1.96301 11.1251 -0.074337C5.40997 -5.68486 -0.305157 -11.3267 -6.05222 -16.9373H-18.4403C-11.1288 -9.7282 -3.78532 -2.55049 3.52622 4.65857C4.13285 5.2541 4.99491 5.75559 5.12262 6.91531C3.78164 8.41981 2.34488 9.92431 0.74847 11.1781C-0.432869 10.9273 -0.911789 10.1124 -1.55035 9.51684C-10.5221 0.677914 -19.4939 -8.12967 -28.4657 -16.9373H-40.4707C-26.997 -3.71021 -13.5234 9.4855 -0.0816612 22.7125C0.205688 22.9946 0.429188 23.2767 0.716541 23.5588C6.39974 18.011 12.0191 12.4945 17.6384 6.94666C17.7023 6.88397 17.7342 6.72725 17.7661 6.60188C17.7981 6.28844 17.5107 6.19441 17.3511 6.03769Z" fill="#68490E"/>
<path d="M190.784 -16.9373C189.411 -15.5895 188.038 -14.2417 186.665 -12.8939C186.122 -12.3611 185.675 -11.6715 184.845 -11.4834C184.015 -11.6715 183.568 -12.3611 183.025 -12.8939C181.652 -14.2417 180.28 -15.5895 178.907 -16.9373H166.519C172.489 -11.076 178.428 -5.24605 184.398 0.615223C184.526 0.740599 184.622 0.928661 184.877 0.865973C184.941 0.865973 185.037 0.897318 185.069 0.834629C191.071 -5.08933 197.106 -11.0133 203.172 -16.9373H190.784Z" fill="#68490E"/>
<path d="M98.8351 -16.9373C97.2706 -15.4014 95.738 -13.8969 94.1736 -12.3611C93.6308 -11.8282 92.9922 -11.3267 92.673 -10.6058C92.3856 -11.264 91.8109 -11.7342 91.3 -12.2357C89.7036 -13.8029 88.1072 -15.3701 86.5108 -16.9373H74.5059C80.6041 -11.0133 86.6385 -5.05799 92.7049 0.865974C98.7393 -5.05799 104.806 -11.0133 110.84 -16.9373H98.8351Z" fill="#68490E"/>
<path d="M-29.1279 -16.9373C-27.2442 -15.088 -25.3285 -13.2074 -23.4447 -11.3581C-15.6543 -3.71021 -7.86382 3.90632 -0.105289 11.5542C0.118206 11.7736 0.277847 12.087 0.692911 11.993C4.30079 8.67056 5.4502 7.51085 5.99298 6.60188C-2.02098 -1.2654 -10.003 -9.10133 -17.985 -16.9373H-29.1279Z" fill="#261C0A"/>
<path d="M6.43262 51.7368C19.8105 38.6351 33.1564 25.5021 46.5343 12.4004C46.5662 12.3691 46.662 12.4004 46.7259 12.4004C46.7897 12.4004 46.8855 12.3691 46.9174 12.4004C60.1357 25.3767 73.3858 38.353 86.636 51.3606C86.636 51.58 86.636 51.8308 86.636 52.1129C74.5352 64.2429 48.8012 89.4119 46.7897 91.0731C46.662 91.0418 46.5343 91.0418 46.4385 90.9478C33.0926 77.8774 19.7786 64.8071 6.43262 51.7368Z" fill="#68490E"/>
<path d="M224.732 186.828C224.732 187.142 224.732 187.33 224.732 187.392C211.386 200.463 198.136 213.502 184.822 226.541C184.79 226.541 184.631 226.541 184.567 226.478C171.221 213.408 157.907 200.337 144.593 187.267C146.253 185.48 183.449 149.028 184.79 147.868C184.918 147.899 185.046 147.899 185.141 147.962C198.296 160.907 211.482 173.852 224.732 186.828Z" fill="#68490E"/>
<path d="M384.91 -16.9373H352.631C329.355 5.91232 306.016 28.7932 282.645 51.7368C283.634 52.7085 284.56 53.6175 285.486 54.5264C297.715 66.4997 309.911 78.5044 322.14 90.4777C322.395 90.7284 322.555 91.1672 323.161 91.0732C351.737 63.0519 380.344 34.9679 408.952 6.88397C409.016 6.82128 409.016 6.66457 408.984 6.69591L384.91 -16.9373Z" fill="#68490E"/>
<path d="M-45.4806 147.931C-57.709 159.935 -70.0013 172.003 -82.2617 184.039V190.778C-68.0856 204.694 -53.9096 218.611 -39.7016 232.527C-53.9096 246.444 -68.0856 260.361 -82.2617 274.246V280.922C-75.493 287.692 -59.3693 303.521 -45.4486 317.093L40.7572 232.527L-45.4806 147.931Z" fill="#68490E"/>
<path d="M138.553 328.627C138.776 328.659 138.84 328.627 138.872 328.659C152.25 341.76 165.596 354.862 178.878 367.901C165.468 381.034 152.122 394.167 138.713 407.331C138.297 407.394 138.106 406.986 137.851 406.736C125.909 395.013 113.968 383.322 102.027 371.599C100.91 370.502 99.8241 369.437 98.7705 368.402C98.7705 368.089 98.7705 367.838 98.7705 367.65C112.053 354.642 125.271 341.666 138.553 328.627Z" fill="#68490E"/>
<path d="M224.726 322.327C224.726 322.609 224.726 322.797 224.726 322.891C211.412 335.962 198.13 348.969 184.784 362.102C184.465 362.165 184.305 361.726 184.05 361.475C172.364 350.035 160.71 338.594 149.057 327.154C147.588 325.712 146.119 324.27 144.619 322.797C144.619 322.766 144.587 322.703 144.619 322.672C144.651 322.609 144.714 322.578 144.746 322.546C158.028 309.507 171.311 296.5 184.593 283.461C184.625 283.43 184.688 283.43 184.752 283.398C184.88 283.43 185.04 283.398 185.104 283.461C198.322 296.406 211.54 309.382 224.726 322.327Z" fill="#68490E"/>
<path d="M18.1494 52.0815C18.1494 51.8307 18.1494 51.58 18.1494 51.3292C27.6001 42.0515 37.0508 32.7737 46.5016 23.5273C56.08 32.9305 65.6584 42.3336 75.2049 51.7053C65.6265 61.1085 56.0481 70.5116 46.4696 79.8833C37.0508 70.637 27.6001 61.3592 18.1494 52.0815Z" fill="#261C0A"/>
<path d="M156.271 187.612C156.271 187.267 156.271 187.048 156.271 186.891C165.594 177.738 174.885 168.617 184.271 159.434C184.431 159.434 184.687 159.402 184.814 159.402C194.361 168.743 203.843 178.052 213.422 187.455C213.454 187.58 213.262 187.737 213.071 187.925C203.716 197.109 194.361 206.261 185.038 215.414C184.591 215.539 184.431 215.226 184.208 215.006C174.885 205.885 165.594 196.764 156.271 187.612Z" fill="#261C0A"/>
<path d="M373.831 -16.9373H363.966C340.754 5.81828 317.574 28.5738 294.362 51.3607V52.1129C303.813 61.3907 313.264 70.6684 322.714 79.9148C322.746 79.9462 322.842 79.9148 322.906 79.9148C322.97 79.9148 323.066 79.9462 323.098 79.9148C347.906 55.5921 372.714 31.2694 397.522 6.91531C397.586 6.85262 397.618 6.6959 397.65 6.60187C397.65 6.53918 397.682 6.44515 397.618 6.41381C389.7 -1.35943 381.75 -9.16402 373.831 -16.9373Z" fill="#261C0A"/>
<path d="M-74.1514 187.204C-64.5091 177.77 -54.9945 168.398 -45.4799 159.089C-20.6399 183.443 4.20018 207.828 29.1041 232.276C29.1041 232.339 29.1041 232.59 29.1041 232.841C4.39175 257.101 -20.3206 281.329 -45.0968 305.621C-45.2564 305.621 -45.5119 305.621 -45.6076 305.621C-55.1542 296.249 -64.6368 286.94 -74.1514 277.599C-74.1514 277.568 -74.1514 277.411 -74.0875 277.349C-58.8578 262.366 -43.5962 247.415 -28.3665 232.496C-28.4303 232.276 -28.3984 232.12 -28.4623 232.057C-43.692 217.106 -58.8897 202.186 -74.1514 187.204Z" fill="#261C0A"/>
<path d="M184.846 350.944C175.268 341.541 165.785 332.263 156.271 322.923C156.271 322.891 156.271 322.735 156.334 322.672C165.753 313.394 175.204 304.148 184.591 294.933C185.07 294.807 185.229 295.152 185.453 295.34C194.744 304.461 204.067 313.582 213.358 322.735C213.326 322.923 213.39 323.079 213.23 323.268C203.875 332.42 194.52 341.604 185.165 350.787C185.102 350.819 184.974 350.85 184.846 350.944Z" fill="#261C0A"/>
<path d="M46.8204 34.9993C52.5036 40.5784 58.1868 46.1263 63.7742 51.6428C58.1229 57.1906 52.4397 62.7698 46.6288 68.4744C46.533 68.5057 46.3734 68.2863 46.1818 68.1296C40.6263 62.6758 35.0389 57.222 29.4834 51.7368C35.1666 46.1576 40.8179 40.6098 46.4692 35.062C46.533 35.0306 46.6288 35.0306 46.8204 34.9993Z" fill="#68490E"/>
<path d="M184.813 203.91C179.066 198.269 173.382 192.689 167.699 187.11C173.287 181.625 178.97 176.077 184.621 170.498C184.653 170.467 184.749 170.498 184.813 170.498C184.877 170.498 184.972 170.467 185.004 170.498C190.656 176.046 196.339 181.594 201.926 187.11C196.243 192.689 190.56 198.269 184.813 203.91Z" fill="#68490E"/>
<path d="M322.847 68.443C317.132 62.8325 311.48 57.2847 305.829 51.7682C326.838 31.144 347.878 10.4885 368.951 -10.167C374.091 -5.30872 384.532 4.97202 385.905 6.6019C385.873 6.72727 385.873 6.85265 385.777 6.94668C364.896 27.4455 344.015 47.9443 323.134 68.4117C323.134 68.4117 323.038 68.4117 322.847 68.443Z" fill="#68490E"/>
<path d="M17.7358 232.465C-3.33673 253.12 -24.3774 273.776 -45.4499 294.431C-51.1012 288.883 -56.7844 283.335 -62.4356 277.756C-62.5634 277.349 -62.2441 277.192 -62.0206 276.973C-48.8981 264.09 -35.7438 251.208 -22.6213 238.294C-20.6418 236.351 -18.6622 234.408 -16.6508 232.465C-31.9124 217.482 -47.174 202.5 -62.4356 187.549C-62.4356 187.298 -62.4356 187.047 -62.4356 186.797C-56.8482 181.343 -51.2927 175.858 -45.7692 170.435C-45.5457 170.498 -45.386 170.529 -45.3222 170.592C-24.2816 191.248 -3.24095 211.872 17.7358 232.465Z" fill="#68490E"/>
<path d="M184.943 339.409C184.784 339.409 184.592 339.409 184.401 339.409C182.996 338.25 168.852 324.364 167.606 322.954C167.638 322.829 167.638 322.703 167.734 322.609C173.385 317.061 179.037 311.514 184.656 305.997C184.88 306.06 185.039 306.028 185.103 306.091C190.754 311.639 196.406 317.155 202.025 322.672C196.278 328.282 190.627 333.83 184.943 339.409Z" fill="#68490E"/>
<path d="M40.8506 51.7367C42.7663 49.8561 44.6181 48.0695 46.438 46.2516C46.4699 46.2516 46.5338 46.2202 46.5657 46.2202C46.6296 46.2516 46.6615 46.3142 46.6934 46.3456C48.5133 48.1322 50.3652 49.9501 52.1531 51.7054C52.2489 52.0501 52.0573 52.2069 51.8658 52.3949C50.3013 53.9308 48.7368 55.4666 47.1723 56.9711C47.0446 57.0965 46.885 57.1905 46.7573 57.2845C46.5976 57.2219 46.438 57.2219 46.3741 57.1592C44.5862 55.3726 42.7343 53.586 40.8506 51.7367Z" fill="#68490E"/>
<path d="M178.942 187.204C180.858 185.324 182.742 183.475 184.626 181.625C186.509 183.475 188.393 185.324 190.277 187.173C190.309 187.204 190.309 187.298 190.309 187.361C189.447 188.521 187.786 190.182 184.945 192.784C184.817 192.752 184.658 192.784 184.594 192.721C182.71 190.903 180.826 189.054 178.942 187.204Z" fill="#68490E"/>
<path d="M368.759 1.24194C368.759 1.24194 369.014 1.24194 369.301 1.24194C371.057 2.96585 372.813 4.68975 374.538 6.38231C374.57 6.41366 374.57 6.50769 374.57 6.57038C374.538 6.69575 374.538 6.82113 374.442 6.91516C357.328 23.7154 340.183 40.547 323.07 57.3159C321.984 56.6576 320.675 55.4352 317.45 52.0188C317.45 51.8307 317.45 51.6426 317.45 51.58C334.564 34.8111 351.581 18.1049 368.759 1.24194Z" fill="#261C0A"/>
<path d="M6.0142 232.12C6.0142 232.371 6.0142 232.622 6.0142 232.872C-10.9715 249.578 -27.9892 266.253 -45.0069 282.96C-45.2304 282.96 -45.4858 282.96 -45.6455 282.96C-47.4654 281.173 -49.2533 279.418 -51.1052 277.6C-51.169 277.224 -50.722 277.067 -50.4666 276.816C-40.2496 266.786 -30.0007 256.725 -19.7837 246.695C-15.4095 242.401 -11.0354 238.107 -6.66125 233.813C-6.21426 233.374 -5.70341 232.966 -5.38413 232.653C-5.25642 232.057 -5.5757 231.869 -5.79919 231.681C-14.3559 223.281 -22.9446 214.85 -31.5013 206.45C-37.5676 200.494 -43.6659 194.508 -49.7642 188.552C-50.2112 188.113 -50.6901 187.706 -51.1052 187.299C-49.1575 185.387 -47.2738 183.537 -45.39 181.688C-28.2446 198.488 -11.0993 215.32 6.0142 232.12Z" fill="#261C0A"/>
<path d="M184.815 328.314C182.931 326.464 181.143 324.709 179.323 322.923C179.323 322.797 179.323 322.609 179.323 322.546C181.175 320.728 182.963 318.973 184.719 317.249C186.475 318.973 188.359 320.822 190.243 322.703C190.275 322.734 190.243 322.828 190.243 322.891C189.317 324.082 186.731 326.684 184.815 328.314Z" fill="#68490E"/>
</g>
</svg>
