<svg width="47" height="46" viewBox="0 0 47 46" fill="none" xmlns="http://www.w3.org/2000/svg">
<path d="M23.9688 0C11.2727 0 0.96875 10.304 0.96875 23C0.96875 35.696 11.2727 46 23.9688 46C36.6647 46 46.9688 35.696 46.9688 23C46.9688 10.304 36.6647 0 23.9688 0ZM23.9688 9.2C28.4077 9.2 32.0187 12.811 32.0187 17.25C32.0187 21.689 28.4077 25.3 23.9688 25.3C19.5297 25.3 15.9187 21.689 15.9187 17.25C15.9187 12.811 19.5297 9.2 23.9688 9.2ZM23.9688 41.4C19.2997 41.4 13.7797 39.514 9.84675 34.776C13.8754 31.6152 18.8481 29.8972 23.9688 29.8972C29.0894 29.8972 34.0621 31.6152 38.0907 34.776C34.1577 39.514 28.6377 41.4 23.9688 41.4Z" fill="#D9D9D9"/>
</svg>
