<svg width="23" height="23" viewBox="0 0 23 23" fill="none" xmlns="http://www.w3.org/2000/svg">
<path d="M4.30103 16.869C5.25061 16.1428 6.31191 15.5701 7.48492 15.1508C8.65793 14.7315 9.8868 14.5222 11.1715 14.523C12.4562 14.523 13.6851 14.7326 14.8581 15.1519C16.0311 15.5712 17.0924 16.1436 18.042 16.869C18.6937 16.1056 19.2012 15.2398 19.5647 14.2716C19.9281 13.3034 20.1095 12.2701 20.1087 11.1715C20.1087 8.69517 19.2385 6.58636 17.498 4.84509C15.7574 3.10382 13.6486 2.23356 11.1715 2.2343C8.69517 2.2343 6.58636 3.10457 4.84509 4.84509C3.10382 6.58561 2.23356 8.69442 2.2343 11.1715C2.2343 12.2701 2.41603 13.3034 2.77947 14.2716C3.14292 15.2398 3.65011 16.1056 4.30103 16.869ZM11.1715 12.2887C10.073 12.2887 9.1465 11.9118 8.39205 11.1581C7.6376 10.4044 7.26074 9.47792 7.26149 8.37864C7.26149 7.28011 7.63834 6.35362 8.39205 5.59917C9.14575 4.84472 10.0722 4.46786 11.1715 4.46861C12.2701 4.46861 13.1965 4.84546 13.951 5.59917C14.7054 6.35287 15.0823 7.27936 15.0816 8.37864C15.0816 9.47717 14.7047 10.4037 13.951 11.1581C13.1973 11.9126 12.2708 12.2894 11.1715 12.2887ZM11.1715 22.343C9.62613 22.343 8.17383 22.0496 6.81463 21.4627C5.45543 20.8758 4.27311 20.0801 3.26767 19.0754C2.26223 18.0699 1.46645 16.8876 0.880316 15.5284C0.294183 14.1692 0.000744768 12.7169 0 11.1715C0 9.62613 0.293439 8.17383 0.880316 6.81463C1.46719 5.45543 2.26298 4.27311 3.26767 3.26767C4.27311 2.26223 5.45543 1.46645 6.81463 0.880316C8.17383 0.294183 9.62613 0.000744768 11.1715 0C12.7169 0 14.1692 0.293439 15.5284 0.880316C16.8876 1.46719 18.0699 2.26298 19.0754 3.26767C20.0808 4.27311 20.877 5.45543 21.4638 6.81463C22.0507 8.17383 22.3438 9.62613 22.343 11.1715C22.343 12.7169 22.0496 14.1692 21.4627 15.5284C20.8758 16.8876 20.0801 18.0699 19.0754 19.0754C18.0699 20.0808 16.8876 20.877 15.5284 21.4638C14.1692 22.0507 12.7169 22.3438 11.1715 22.343ZM11.1715 20.1087C12.1583 20.1087 13.0893 19.9643 13.9644 19.6753C14.8395 19.3863 15.6401 18.9722 16.3663 18.433C15.6401 17.8931 14.8395 17.4786 13.9644 17.1896C13.0893 16.9006 12.1583 16.7565 11.1715 16.7573C10.1847 16.7573 9.25374 16.9018 8.37864 17.1907C7.50354 17.4797 6.70291 17.8938 5.97676 18.433C6.70291 18.973 7.50354 19.3874 8.37864 19.6764C9.25374 19.9654 10.1847 20.1095 11.1715 20.1087ZM11.1715 10.0544C11.6556 10.0544 12.0559 9.8961 12.3725 9.57958C12.689 9.26305 12.8472 8.86274 12.8472 8.37864C12.8472 7.89454 12.689 7.49423 12.3725 7.1777C12.0559 6.86118 11.6556 6.70291 11.1715 6.70291C10.6874 6.70291 10.2871 6.86118 9.97058 7.1777C9.65406 7.49423 9.49579 7.89454 9.49579 8.37864C9.49579 8.86274 9.65406 9.26305 9.97058 9.57958C10.2871 9.8961 10.6874 10.0544 11.1715 10.0544Z" fill="#9B9B9B"/>
</svg>
