<svg width="29" height="29" viewBox="0 0 29 29" fill="none" xmlns="http://www.w3.org/2000/svg">
<path fill-rule="evenodd" clip-rule="evenodd" d="M19.3332 10.8751C19.3332 12.157 18.8239 13.3863 17.9175 14.2928C17.0111 15.1992 15.7817 15.7084 14.4998 15.7084C13.218 15.7084 11.9886 15.1992 11.0822 14.2928C10.1757 13.3863 9.6665 12.157 9.6665 10.8751C9.6665 9.5932 10.1757 8.36382 11.0822 7.4574C11.9886 6.55097 13.218 6.04175 14.4998 6.04175C15.7817 6.04175 17.0111 6.55097 17.9175 7.4574C18.8239 8.36382 19.3332 9.5932 19.3332 10.8751ZM16.9165 10.8751C16.9165 11.516 16.6619 12.1307 16.2087 12.5839C15.7555 13.0371 15.1408 13.2917 14.4998 13.2917C13.8589 13.2917 13.2442 13.0371 12.791 12.5839C12.3378 12.1307 12.0832 11.516 12.0832 10.8751C12.0832 10.2341 12.3378 9.61945 12.791 9.16624C13.2442 8.71303 13.8589 8.45841 14.4998 8.45841C15.1408 8.45841 15.7555 8.71303 16.2087 9.16624C16.6619 9.61945 16.9165 10.2341 16.9165 10.8751Z" fill="#261229"/>
<path fill-rule="evenodd" clip-rule="evenodd" d="M14.5 1.20825C7.15936 1.20825 1.20831 7.15929 1.20831 14.4999C1.20831 21.8405 7.15936 27.7916 14.5 27.7916C21.8406 27.7916 27.7916 21.8405 27.7916 14.4999C27.7916 7.15929 21.8406 1.20825 14.5 1.20825ZM3.62498 14.4999C3.62498 17.0253 4.48652 19.3502 5.93048 21.1965C6.94455 19.8648 8.25278 18.7856 9.75296 18.0431C11.2531 17.3007 12.9047 16.9151 14.5785 16.9166C16.2307 16.915 17.8615 17.2906 19.3465 18.0147C20.8316 18.7388 22.1318 19.7923 23.148 21.095C24.195 19.7219 24.8999 18.1191 25.2045 16.4195C25.509 14.7198 25.4045 12.972 24.8995 11.3208C24.3945 9.66953 23.5035 8.16227 22.3004 6.92371C21.0972 5.68516 19.6164 4.75092 17.9804 4.19828C16.3445 3.64565 14.6005 3.49052 12.8927 3.74572C11.1849 4.00092 9.56248 4.65912 8.15958 5.66586C6.75667 6.6726 5.61367 7.99893 4.82513 9.53511C4.0366 11.0713 3.6252 12.7732 3.62498 14.4999ZM14.5 25.3749C12.0035 25.3787 9.58239 24.5198 7.64631 22.9438C8.4256 21.8281 9.46285 20.9173 10.6698 20.2887C11.8767 19.66 13.2177 19.3323 14.5785 19.3333C15.9224 19.3322 17.2471 19.6517 18.4427 20.2654C19.6383 20.879 20.6702 21.7691 21.4527 22.8616C19.5016 24.4889 17.0406 25.3785 14.5 25.3749Z" fill="#261229"/>
</svg>
