<svg width="30" height="20" viewBox="0 0 30 20" fill="none" xmlns="http://www.w3.org/2000/svg">
<g clip-path="url(#clip0_1020_72236)">
<path d="M29.2276 0H0V18.59H29.2276V0Z" fill="white"/>
<path d="M28.7638 15.5435H0.517334V18.0738H28.7638V15.5435Z" fill="#FCB316"/>
<path d="M28.7638 0.516602H0.517334V3.04691H28.7638V0.516602Z" fill="#10357F"/>
<path d="M11.825 5.83472L8.88157 12.806H6.97093L5.52504 7.22897C5.52504 6.97078 5.31849 6.71258 5.11193 6.6093C4.5439 6.35111 3.92423 6.14456 3.3562 6.04127L3.40785 5.83472H6.45454C6.86765 5.83472 7.22912 6.14456 7.28077 6.55767L8.05535 10.5855L9.91436 5.83472H11.825ZM19.261 10.5338C19.261 8.67486 16.7307 8.57158 16.7307 7.797C16.7307 7.5388 16.9888 7.2806 17.5053 7.22897C18.125 7.17733 18.7446 7.2806 19.261 7.5388L19.5709 6.04127C19.0544 5.83472 18.4347 5.73145 17.8668 5.73145C16.111 5.73145 14.82 6.66094 14.82 8.05519C14.82 9.03633 15.6979 9.60438 16.4209 9.96586C17.1438 10.3273 17.3503 10.5338 17.3503 10.8437C17.3503 11.3085 16.7824 11.515 16.2659 11.515C15.6462 11.515 14.975 11.3601 14.4069 11.1019L14.0971 12.6511C14.7168 12.9092 15.4398 13.0125 16.111 13.0125C18.0217 12.9092 19.261 11.9797 19.261 10.5338ZM24.0117 12.806H25.6642L24.2183 5.83472H22.6691C22.3077 5.83472 22.0495 6.04127 21.8946 6.35111L19.2094 12.806H21.1199L21.4814 11.7732H23.8052L24.0117 12.806ZM21.9979 10.3273L22.9273 7.69372L23.4954 10.3273H21.9979ZM14.4069 5.83472L12.9094 12.806H11.1021L12.5996 5.83472H14.4069Z" fill="#10357F"/>
</g>
<defs>
<clipPath id="clip0_1020_72236">
<rect width="29.3806" height="19.281" fill="white"/>
</clipPath>
</defs>
</svg>
