<svg width="162" height="162" viewBox="0 0 162 162" fill="none" xmlns="http://www.w3.org/2000/svg">
<path d="M81 10.125C66.9823 10.125 53.2793 14.2817 41.624 22.0696C29.9687 29.8574 20.8844 40.9266 15.5201 53.8773C10.1557 66.828 8.75215 81.0786 11.4869 94.827C14.2216 108.575 20.9718 121.204 30.8838 131.116C40.7959 141.028 53.4246 147.778 67.173 150.513C80.9214 153.248 95.172 151.844 108.123 146.48C121.073 141.116 132.143 132.031 139.93 120.376C147.718 108.721 151.875 95.0178 151.875 81C151.875 62.2028 144.408 44.1754 131.116 30.8838C117.825 17.5922 99.7972 10.125 81 10.125ZM81 141.75C68.9848 141.75 57.2394 138.187 47.2491 131.512C37.2589 124.836 29.4724 115.349 24.8744 104.248C20.2763 93.1474 19.0733 80.9326 21.4173 69.1483C23.7614 57.3639 29.5473 46.5393 38.0433 38.0433C46.5393 29.5472 57.364 23.7613 69.1483 21.4173C80.9326 19.0732 93.1474 20.2763 104.248 24.8743C115.349 29.4723 124.837 37.2588 131.512 47.2491C138.187 57.2394 141.75 68.9848 141.75 81C141.75 97.1119 135.35 112.564 123.957 123.957C112.564 135.35 97.1119 141.75 81 141.75Z" fill="#FF5B5B"/>
<path d="M75.9375 40.5H86.0625V96.1875H75.9375V40.5ZM81 111.375C79.4981 111.375 78.0299 111.82 76.7811 112.655C75.5324 113.489 74.559 114.675 73.9843 116.063C73.4095 117.45 73.2592 118.977 73.5522 120.45C73.8452 121.923 74.5684 123.276 75.6304 124.338C76.6924 125.4 78.0455 126.124 79.5185 126.417C80.9916 126.71 82.5184 126.559 83.906 125.984C85.2936 125.41 86.4796 124.436 87.314 123.188C88.1484 121.939 88.5938 120.471 88.5938 118.969C88.5938 116.955 87.7937 115.023 86.3696 113.599C84.9455 112.175 83.014 111.375 81 111.375Z" fill="#FF5B5B"/>
</svg>
