<svg xmlns="http://www.w3.org/2000/svg" width="26" height="26" viewBox="0 0 26 26"><path fill="#ffdd9a" d="M6 0a3 3 0 0 0-3 3v15a3 3 0 0 0 3 3v.406c0 .825-.203 1.51-.531 1.938C5.14 23.77 4.725 24 4 24c-.725 0-1.14-.23-1.469-.656C2.203 22.917 2 22.23 2 21.406v-4.812a1 1 0 0 0-1.219-1a1 1 0 0 0-.781 1v4.812c0 1.164.295 2.28.969 3.157C1.643 25.438 2.735 26 4 26c1.265 0 2.357-.562 3.031-1.438c.674-.875.969-1.992.969-3.156V21a3 3 0 0 0 3-3V3a3 3 0 0 0-3-3H6zm9 0a3 3 0 0 0-3 3v15a3 3 0 0 0 3 3h7c1.657 0 3.906-1.313 3.906-10.5S23.657 0 22 0h-7zm.5 3h7a.5.5 0 0 1 .5.5v3a.5.5 0 0 1-.5.5h-7a.5.5 0 0 1-.5-.5v-3a.5.5 0 0 1 .5-.5zm0 6h1a.5.5 0 0 1 .5.5v1a.5.5 0 0 1-.5.5h-1a.5.5 0 0 1-.5-.5v-1a.5.5 0 0 1 .5-.5zm3 0h1a.5.5 0 0 1 .5.5v1a.5.5 0 0 1-.5.5h-1a.5.5 0 0 1-.5-.5v-1a.5.5 0 0 1 .5-.5zm3 0h1a.5.5 0 0 1 .5.5v1a.5.5 0 0 1-.5.5h-1a.5.5 0 0 1-.5-.5v-1a.5.5 0 0 1 .5-.5zm-6 3h1a.5.5 0 0 1 .5.5v1a.5.5 0 0 1-.5.5h-1a.5.5 0 0 1-.5-.5v-1a.5.5 0 0 1 .5-.5zm3 0h1a.5.5 0 0 1 .5.5v1a.5.5 0 0 1-.5.5h-1a.5.5 0 0 1-.5-.5v-1a.5.5 0 0 1 .5-.5zm3 0h1a.5.5 0 0 1 .5.5v1a.5.5 0 0 1-.5.5h-1a.5.5 0 0 1-.5-.5v-1a.5.5 0 0 1 .5-.5zm-6 3h1a.5.5 0 0 1 .5.5v1a.5.5 0 0 1-.5.5h-1a.5.5 0 0 1-.5-.5v-1a.5.5 0 0 1 .5-.5zm3 0h1a.5.5 0 0 1 .5.5v1a.5.5 0 0 1-.5.5h-1a.5.5 0 0 1-.5-.5v-1a.5.5 0 0 1 .5-.5zm3 0h1a.5.5 0 0 1 .5.5v1a.5.5 0 0 1-.5.5h-1a.5.5 0 0 1-.5-.5v-1a.5.5 0 0 1 .5-.5z"/></svg>
