<svg width="24" height="24" viewBox="0 0 24 24" fill="none" xmlns="http://www.w3.org/2000/svg">
<path d="M17 21.0003C15.3463 20.9988 13.7183 20.5901 12.26 19.8103L11.81 19.5603C8.70075 17.8886 6.15169 15.3395 4.48 12.2303L4.23 11.7803C3.42982 10.3137 3.00713 8.67097 3 7.00027V6.33027C2.99958 5.79723 3.21196 5.28607 3.59 4.91027L5.28 3.22027C5.44413 3.05487 5.67581 2.97515 5.90696 3.00453C6.13811 3.03391 6.34248 3.16907 6.46 3.37027L8.71 7.23027C8.93753 7.62316 8.87183 8.12003 8.55 8.44027L6.66 10.3303C6.50304 10.4855 6.46647 10.7253 6.57 10.9203L6.92 11.5803C8.17704 13.9087 10.0893 15.8175 12.42 17.0703L13.08 17.4303C13.275 17.5338 13.5148 17.4972 13.67 17.3403L15.56 15.4503C15.8802 15.1285 16.3771 15.0628 16.77 15.2903L20.63 17.5403C20.8312 17.6578 20.9664 17.8622 20.9957 18.0933C21.0251 18.3245 20.9454 18.5562 20.78 18.7203L19.09 20.4103C18.7142 20.7883 18.203 21.0007 17.67 21.0003H17Z" fill="#C99A40"/>
</svg>
