<svg width="47" height="47" viewBox="0 0 47 47" fill="none" xmlns="http://www.w3.org/2000/svg">
<path fill-rule="evenodd" clip-rule="evenodd" d="M13.3333 10.7917C13.3333 8.0953 14.4045 5.50937 16.3111 3.60275C18.2177 1.69613 20.8036 0.625 23.5 0.625C26.1964 0.625 28.7823 1.69613 30.6889 3.60275C32.5955 5.50937 33.6667 8.0953 33.6667 10.7917C33.6667 13.488 32.5955 16.074 30.6889 17.9806C28.7823 19.8872 26.1964 20.9583 23.5 20.9583C20.8036 20.9583 18.2177 19.8872 16.3111 17.9806C14.4045 16.074 13.3333 13.488 13.3333 10.7917ZM13.3333 26.0417C9.96287 26.0417 6.73046 27.3806 4.34718 29.7639C1.96391 32.1471 0.625 35.3795 0.625 38.75C0.625 40.7723 1.42835 42.7117 2.85831 44.1417C4.28828 45.5717 6.22772 46.375 8.25 46.375H38.75C40.7723 46.375 42.7117 45.5717 44.1417 44.1417C45.5717 42.7117 46.375 40.7723 46.375 38.75C46.375 35.3795 45.0361 32.1471 42.6528 29.7639C40.2695 27.3806 37.0371 26.0417 33.6667 26.0417H13.3333Z" fill="#9E9E9E"/>
</svg>
