<svg width="118" height="125" viewBox="0 0 118 125" fill="none" xmlns="http://www.w3.org/2000/svg">
<path d="M116.81 31.4656C116.81 61.2223 130.173 127.586 55.1726 119.828C14.6554 128.448 0 93.981 0 64.2242C0 34.4675 23.2734 53.8793 55.1726 53.8793C87.0718 53.8793 116.81 1.70884 116.81 31.4656Z" fill="#FFDD9A" fill-opacity="0.46"/>
<g clip-path="url(#clip0_1875_70880)">
<path d="M87.559 35.2848L83.3566 31.5515C83.1269 31.3218 83.1269 31.0824 82.8876 30.8527C83.3566 26.88 84.5245 18.9443 77.9863 18.9443C77.7566 23.1467 77.2875 28.0479 77.9863 32.0206C78.6852 36.223 81.959 37.1611 84.9936 39.9563L87.559 35.2848Z" fill="#FFC9AE"/>
<path d="M82.6866 59.609C83.3184 58.8432 83.9406 58.0583 84.5341 57.2733C86.1902 55.0907 87.8367 52.3434 86.8986 49.7683C86.2955 48.0835 84.6586 46.7625 84.649 44.982C84.649 43.8428 85.3382 42.8186 85.6063 41.6986C86.487 37.5345 82.1314 32.8151 81.4039 28.6606C80.4466 23.4435 81.5379 18.2072 80.1211 12.9901C79.5284 10.7346 78.3532 8.67453 76.7135 7.01628C75.0737 5.35803 73.0269 4.15988 70.7782 3.54188C68.7009 3.01538 66.4801 3.47488 64.4698 2.83351C62.1245 2.09641 60.478 0.325456 57.8934 0.0861389C44.999 -1.10087 43.7832 10.6161 42.5771 20.4472C42.1367 24.1327 41.2178 27.9522 38.748 30.7187C37.7046 31.877 36.4219 32.8151 35.4072 34.0021C34.8561 34.5577 34.436 35.2293 34.1777 35.968C33.9193 36.7066 33.8292 37.4936 33.9138 38.2715C34.4116 40.904 37.829 42.6654 37.3791 45.317C37.1302 46.8487 35.656 47.8251 34.4212 48.7728C33.1863 49.7205 31.9801 51.2234 32.5066 52.688C33.1289 54.4015 35.4646 54.526 37.293 54.3441C36.8584 55.8696 36.8202 57.4808 37.182 59.0253C37.5438 60.5697 38.2937 61.9963 39.3607 63.1701C39.333 62.4208 39.4724 61.6747 39.7688 60.9859C40.0652 60.2971 40.5111 59.683 41.0742 59.1878C40.921 61.5714 41.3135 64.3954 43.3908 65.5728C45.6212 66.846 48.4069 65.4867 50.9628 65.6781C52.8773 65.8217 54.6961 66.8747 56.5723 67.4586C59.3389 68.3202 62.316 68.1383 65.1878 67.9564C68.1142 67.9169 71.0182 67.4394 73.8032 66.5396C77.3546 65.1899 80.2073 62.5479 82.6866 59.609Z" fill="#C99940"/>
<path d="M73.7265 27.8373C73.9658 29.3881 74.9518 30.7091 75.1049 32.4035C75.3538 35.2753 72.9989 37.6972 72.0895 40.234C71.7353 41.2487 71.2758 42.0336 71.8119 43.0196C72.348 44.0056 73.5063 44.7618 73.8988 46.0637C74.6167 48.476 72.1757 51.8073 73.6116 53.8559" fill="#C99940"/>
<path d="M73.7267 27.8373C74.1068 28.9378 74.5511 30.0149 75.0573 31.0633C76.5219 34.6531 73.248 37.9078 72.3099 41.0189C72.0744 41.4649 72.0029 41.9794 72.1079 42.4727C72.2129 42.9661 72.4876 43.4069 72.8843 43.7184C75.0668 45.8053 74.4159 48.0261 73.6214 50.5341C73.3989 51.0596 73.2843 51.6244 73.2843 52.195C73.2843 52.7656 73.3989 53.3304 73.6214 53.8559C73.2476 53.3843 73.0421 52.8015 73.0374 52.1998C72.9704 49.328 74.885 46.5232 72.2046 44.3119C71.7417 43.8487 71.3913 43.2854 71.1803 42.6654C71.0503 41.9953 71.1374 41.3011 71.4292 40.6839C72.3865 37.3334 75.6508 34.8063 74.6169 31.2069C74.2294 30.1104 73.9348 28.9832 73.7362 27.8373H73.7267Z" fill="#957431"/>
<path d="M65.3984 6.56683C66.4897 7.5241 67.849 7.7347 69.0743 8.40479C70.3876 9.12757 71.5822 10.0477 72.6162 11.133C74.8791 13.4808 76.3055 16.5086 76.675 19.7484C76.8091 22.4096 75.3923 24.9559 76.541 27.531C77.4983 29.7327 78.7332 31.2931 78.9916 33.7628C79.4128 37.7929 75.1147 42.5314 77.4409 46.2073C80.753 51.4818 76.9144 58.6518 73.4969 62.9978" fill="#C99940"/>
<path d="M65.3984 6.56688C66.4706 7.39013 67.8107 7.63902 69.0265 8.2421C70.8533 9.18068 72.4726 10.4771 73.7882 12.0542C75.1038 13.6312 76.0888 15.4568 76.6846 17.4223C78.0056 20.6387 75.7944 24.1232 76.9527 27.2534C80.1404 33.2172 80.2265 34.4999 77.7855 40.8371C77.1638 42.2979 77.0724 43.93 77.527 45.4511C81.2604 51.3478 77.4696 58.3646 73.5448 63.0648C76.7133 58.4986 80.3222 52.0945 77.259 46.7051C74.3872 42.3112 79.499 37.4483 78.4364 33.0353C78.0727 31.1208 76.8856 29.4264 76.1294 27.598C75.2774 25.6261 75.9475 23.3669 76.2251 21.4428C76.8378 16.2257 73.3533 11.066 68.9595 8.46226C67.8203 7.83047 66.4514 7.505 65.4463 6.54773L65.3984 6.56688Z" fill="#957431"/>
<path d="M65.6279 5.466C68.3657 5.6766 70.9216 5.91592 72.9319 7.88789C74.106 9.18142 75.0367 10.6764 75.6792 12.3009C76.9907 11.9658 77.2874 11.9467 78.0724 13.2582C78.8574 14.5696 79.0297 16.2448 79.7763 17.585" fill="#C99940"/>
<path d="M65.6279 5.46604C71.0173 5.08313 74.138 7.08381 76.0813 12.0999L75.5644 11.8701C76.0944 11.6907 76.6623 11.6544 77.2109 11.7648C77.7135 12.0314 78.1115 12.4597 78.3404 12.9806C79.1637 14.4069 79.1445 16.1108 79.7763 17.5563C79.144 16.4644 78.6122 15.3174 78.1873 14.1293C77.9423 13.6052 77.6196 13.1211 77.23 12.6934C76.8184 12.3392 76.2728 12.6264 75.8228 12.6934C75.7269 12.721 75.6245 12.7152 75.5323 12.6769C75.4401 12.6387 75.3637 12.5702 75.3155 12.4828C73.2095 7.56244 70.845 6.15526 65.6566 5.42774L65.6279 5.46604Z" fill="#957431"/>
<path d="M64.8242 7.97406C66.5282 11.3149 67.897 12.8465 71.2188 14.3686L64.8242 7.97406Z" fill="#C99940"/>
<path d="M64.8242 7.97406C66.5765 10.4538 68.739 12.6164 71.2188 14.3686C69.643 14.0478 68.1966 13.2704 67.0595 12.1333C65.9224 10.9963 65.1451 9.54978 64.8242 7.97406Z" fill="#957431"/>
<path d="M61.177 6.03082C57.1948 8.36656 51.2214 7.21783 47.7753 10.7119C46.3298 12.1765 46.7414 14.4069 46.6744 16.2831C46.5882 18.6667 46.6744 21.3471 45.7171 23.5871C44.7599 25.8271 43.1708 27.7034 42.4146 29.9721C41.5147 32.6811 43.2761 33.8586 44.578 35.9454C45.8799 38.0323 44.444 39.6118 43.5346 41.6125C42.6252 43.6131 41.6679 47.1838 42.74 49.2706" fill="#C99940"/>
<path d="M61.1766 6.03082C57.3475 8.491 51.8337 7.5433 48.3875 10.664C46.54 12.186 47.2579 14.7802 47.0952 16.9149C47.0952 19.2028 47.0952 21.6343 46.1379 23.9222C45.1806 26.21 43.6299 27.9331 42.9024 30.0295C41.9451 32.3844 43.9266 33.983 45.0275 35.9071C46.4825 38.2524 44.1851 40.5116 43.4288 42.608C42.6726 44.7044 41.9355 47.1167 42.7875 49.3089C41.7249 47.1837 42.3184 44.6374 42.9885 42.4644C43.6586 40.2914 45.7359 38.4248 44.3861 36.2901C43.8213 35.3328 42.9981 34.5287 42.3759 33.4182C40.4039 29.9529 44.1468 26.4876 45.2477 23.5297C46.1188 21.5098 46.1379 19.1741 46.2049 16.8288C46.3389 15.0961 45.9656 13.2199 46.7027 11.5255C49.766 6.51902 56.6008 8.38569 61.1479 5.96381L61.1766 6.03082Z" fill="#957431"/>
<path d="M49.1919 12.9997C50.0439 13.7751 52.4562 13.89 53.5283 13.4496L49.1919 12.9997Z" fill="#C99940"/>
<path d="M49.1919 12.9997C50.6182 13.2199 52.0637 13.2199 53.5283 13.4496C52.437 14.5505 49.9481 14.4069 49.1919 12.9997Z" fill="#957431"/>
<path d="M50.5605 4.547C52.5325 3.49401 54.0737 2.03896 56.4286 2.63246C58.19 3.09195 59.9035 4.04922 61.6266 4.63315" fill="#C99940"/>
<path d="M50.5605 4.54702C53.3653 1.99111 55.5383 1.21572 59.0132 3.19726C59.9035 3.64718 60.7554 4.15453 61.6266 4.66188C60.6456 4.49605 59.6836 4.23311 58.7548 3.87693C57.8551 3.53911 56.9341 3.26091 55.9978 3.04411C54.0833 2.66121 52.3985 4.00137 50.5988 4.54702H50.5605Z" fill="#957431"/>
<path d="M50.7906 40.502C49.9865 42.5026 48.2539 43.6035 47.3732 45.4989C46.4925 47.3943 48.2634 48.9642 48.7134 50.8309C48.9464 51.8631 48.9569 52.9332 48.7439 53.9698C48.531 55.0064 48.0996 55.9857 47.4785 56.8425C46.8754 57.7998 45.4491 60.394 46.9041 61.2747" fill="#C99940"/>
<path d="M50.7902 40.502C50.2446 42.4165 48.6172 43.7662 47.8514 45.384C46.8941 47.222 48.5694 48.6483 49.1054 50.4384C49.3756 51.4218 49.4377 52.4507 49.2877 53.4595C49.1377 54.4682 48.7789 55.4346 48.2343 56.2969C47.4685 57.6753 45.4582 59.8388 46.9037 61.2747C45.0849 60.0972 46.9037 57.302 47.5738 55.9427C48.4493 54.3462 48.669 52.4717 48.1864 50.716C47.6025 49.0504 45.8794 46.8869 47.2292 45.0394C48.2535 43.2493 49.9478 42.2346 50.8285 40.502H50.7902Z" fill="#957431"/>
<path d="M47.5931 25.7792C46.6837 28.45 44.2043 32.6333 46.9038 35.0264L47.5931 25.7792Z" fill="#C99940"/>
<path d="M47.5933 25.7792C47.3157 28.8712 44.8651 32.1068 46.9041 35.0264C43.5728 32.9013 45.9468 28.3256 47.5933 25.7792Z" fill="#957431"/>
<path d="M39.6956 34.2224C37.781 35.1796 38.1352 36.5389 38.8053 38.3099C39.5616 40.301 40.4805 42.4357 39.9253 44.6087" fill="#C99940"/>
<path d="M39.696 34.2224C39.3261 34.4415 39.0307 34.7668 38.848 35.156C38.6654 35.5452 38.6039 35.9804 38.6717 36.4049C39.3418 38.9608 41.2372 41.8996 39.9257 44.6087C39.8899 42.7688 39.4624 40.9576 38.6717 39.2959C37.9633 37.6111 37.1305 34.8063 39.696 34.2224Z" fill="#957431"/>
<path d="M56.3328 48.342C56.7528 46.2688 57.0437 44.1716 57.2039 42.0623C56.0426 41.5592 54.9252 40.9605 53.863 40.2723C48.0429 35.7061 49.5266 31.0633 49.5266 24.2955C49.7264 20.5515 50.7045 16.8902 52.3984 13.5453C55.9619 13.3693 59.3106 11.7896 61.7126 9.15149C63.9431 14.2537 68.3274 15.6035 71.9458 18.1211C71.9458 21.2897 71.7065 26.0377 74.0805 28.5362C73.1233 33.1693 70.4046 39.6788 65.647 41.6316C66.1735 46.4179 65.848 52.2477 71.9458 51.9605L70.3185 61.246C68.2699 66.2812 60.1427 69.7465 55.4234 65.9749C52.4271 63.4477 51.1731 57.3116 50.8572 53.5304C54.1311 52.5923 55.5478 51.8073 56.3328 48.342Z" fill="#FFC9AE"/>
<path d="M68.318 21.2322C67.5617 19.5187 65.5706 19.3847 63.9146 19.3177C65.2834 17.7765 69.0359 18.8965 68.318 21.2322Z" fill="#967531"/>
<path d="M57.6157 19.9686C56.4191 20.9737 54.1121 20.6387 53.8345 18.9252C55.2799 19.6718 56.0936 19.5187 57.6157 19.9686Z" fill="#967531"/>
<path d="M59.5018 25.6356C59.4688 26.1329 59.2582 26.6018 58.9083 26.9567C58.5882 27.3047 58.2391 27.6249 57.8649 27.9139C57.6724 28.0913 57.4484 28.231 57.2043 28.3255C57.076 28.3749 56.9539 28.4391 56.8406 28.517C56.83 28.59 56.83 28.6642 56.8406 28.7372C56.8341 28.7912 56.8341 28.8459 56.8406 28.8999C56.8747 28.9623 56.9165 29.0202 56.965 29.0722C57.2573 29.3536 57.5782 29.6039 57.9223 29.8189C58.2765 30.0486 58.6307 30.2975 59.0136 30.5177C58.5629 30.534 58.1128 30.4724 57.683 30.3358C57.2229 30.2065 56.7911 29.9922 56.4098 29.704C56.2993 29.6103 56.1997 29.5043 56.1131 29.3881C56.0197 29.2596 55.9544 29.1128 55.9216 28.9573C55.8601 28.7884 55.8401 28.6071 55.8635 28.4288C55.8868 28.2505 55.9527 28.0805 56.0556 27.9331C56.2558 27.7121 56.5148 27.5527 56.8023 27.4736C56.9637 27.4114 57.1204 27.3378 57.2714 27.2534C58.129 26.8923 58.8922 26.3388 59.5018 25.6356Z" fill="#DD9778"/>
<path d="M60.1334 36.2422C59.4876 36.246 58.844 36.1655 58.2189 36.0028C57.5591 35.8408 56.9524 35.511 56.4575 35.0456C57.1153 34.8637 57.81 34.8637 58.4678 35.0456C59.1579 35.2117 59.7557 35.6411 60.1334 36.2422Z" fill="#DD9778"/>
<path d="M64.0008 26.0281C63.9243 26.8801 64.3359 27.6076 64.9581 27.665C65.5803 27.7224 66.0686 27.0619 66.1451 26.21C66.2217 25.358 65.8005 24.6305 65.1879 24.5826C64.5752 24.5348 64.0679 25.1857 64.0008 26.0281Z" fill="black"/>
<path d="M54.2747 24.4869C54.2077 25.3389 54.6193 26.0664 55.232 26.1143C55.8446 26.1621 56.3424 25.5208 56.4094 24.6688C56.4764 23.8168 56.0744 23.0893 55.4522 23.0415C54.8299 22.9936 54.3513 23.635 54.2747 24.4869Z" fill="black"/>
<path d="M68.2605 56.182C68.2605 56.182 63.0051 58.3263 51.4126 56.182L59.5398 79.1564L68.2605 56.182Z" fill="white"/>
<path d="M32.1523 96.8085C33.2053 99.1633 35.474 101.691 37.2258 103.71C40.9113 107.415 40.5571 108.085 38.1065 112.469C36.192 115.839 35.1294 120.386 33.0234 123.583C31.6258 125.775 30.927 125.096 28.4764 123.756C26.5619 122.913 24.7909 122.569 24.4463 120.549C23.9198 117.859 25.4993 112.977 26.1981 110.277C28.6487 110.45 27.4234 116.978 27.0692 118.701C29.2203 114.939 32.0055 111.578 35.3017 108.765C32.336 106.624 29.7478 104.003 27.6436 101.011L32.1523 96.8085Z" fill="#FFC9AE"/>
<path d="M18.138 78.6204C21.8139 74.2361 34.2488 56.2204 39.6765 54.2005C43.2719 52.9158 47.0686 52.2868 50.8861 52.3434H52.8485L59.8845 69.0286C59.8845 69.0286 65.8004 57.1011 69.0359 51.2521C70.6524 50.9875 72.2509 50.6231 73.8223 50.1609C77.6513 49.1557 82.0548 50.4959 86.2667 50.1609C90.0958 49.9981 96.4234 49.8258 96.4234 49.8258C92.5943 47.0593 90.249 45.5564 80.839 38.8843C82.0643 37.3622 85.3956 32.9875 87.3197 32.8152C88.7174 32.6524 115.081 48.8973 115.081 54.1335C114.834 55.334 114.21 56.4241 113.3 57.2446C108.389 59.6091 104.072 60.3079 98.941 62.031C95.865 63.0648 92.7858 64.0795 89.7033 65.0751C88.3632 65.5059 86.889 65.7931 85.5871 66.2525C83.0025 67.1428 82.7153 69.9571 82.4377 72.245C81.7676 78.764 80.0637 85.2447 78.8384 91.6871C78.4104 93.5351 78.2143 95.429 78.2544 97.3254C78.4459 100.446 79.7286 103.538 80.4849 106.544C81.0879 108.985 84.3809 114.824 82.7153 117.265C82.3037 117.859 82.7153 118.845 82.0452 119.075C67.1788 124.071 49.4024 122.904 34.8232 117.16C35.321 107.587 42.8834 100.264 41.2752 90.2608C40.5764 85.8765 38.9682 84.3353 39.3606 79.951C39.779 76.5859 40.5853 73.2805 41.7634 70.1007C38.4321 73.9298 29.9028 82.4782 28.8498 84.4598C28.3233 85.9818 28.8499 88.8441 26.0451 87.8294C27.0981 89.1791 28.3234 91.7063 29.3763 93.056C30.0752 93.8984 33.2054 96.416 33.2054 97.4307C33.3777 98.7805 27.95 105.012 26.3705 104.84C24.456 104.677 12.0115 90.6916 11.6573 88.0017C11.3127 85.5223 16.5585 80.4679 18.138 78.6204Z" fill="#463451"/>
<path d="M41.3994 56.1628C42.2425 60.5785 42.4296 65.0943 41.9546 69.5646L41.3994 56.1628Z" fill="#36283D"/>
<path d="M76.4165 51.4435C76.8025 57.0098 78.4842 62.4088 81.3273 67.2097L76.4165 51.4435Z" fill="#36283D"/>
<path d="M97.1318 49.9407C99.726 50.8022 102.646 52.2094 105.383 52.5157L97.1318 49.9407Z" fill="#36283D"/>
<path d="M99.8408 49.4046L100.731 49.194L99.8408 49.4046Z" fill="#36283D"/>
<path d="M84.228 39.8606C85.9408 38.0673 87.7665 36.3855 89.694 34.8254L84.228 39.8606Z" fill="#36283D"/>
<path d="M17.1997 82.5452C20.0577 83.8667 22.8184 85.3894 25.4609 87.1018C25.9196 87.3742 26.3303 87.7203 26.6767 88.1261" fill="#36283D"/>
<path d="M23.7764 79.3192C24.7336 80.8891 25.6048 82.4303 26.4567 84.0385L23.7764 79.3192Z" fill="#36283D"/>
<path d="M24.8965 101.748C25.7825 101.241 26.5651 100.572 27.2035 99.776C28.4438 98.6113 29.6107 97.3709 30.6975 96.0618" fill="#36283D"/>
<path d="M53.4419 84.5842C58.7643 85.5414 63.9718 86.7954 69.2847 87.8006L53.4419 84.5842Z" fill="#36283D"/>
</g>
<defs>
<clipPath id="clip0_1875_70880">
<rect width="103.481" height="125" fill="white" transform="translate(11.6382)"/>
</clipPath>
</defs>
</svg>
