<svg width="167" height="130" viewBox="0 0 167 130" fill="none" xmlns="http://www.w3.org/2000/svg">
<path d="M141.836 48.0747C141.836 74.2712 166.525 125 76.455 125C17.9317 119.688 11.9317 106 21.9317 80.5C35.1908 55.3494 42.6185 67.8068 76.455 67.8068C110.291 67.8068 141.836 21.8781 141.836 48.0747Z" fill="url(#paint0_linear_640_158)" fill-opacity="0.51"/>
<g clip-path="url(#clip0_640_158)" filter="url(#filter0_d_640_158)">
<path d="M17.9794 6.75732L9 15.7374V106.829H78.3268V6.75732H17.9794Z" fill="#FEE7BA"/>
<path d="M9 15.7374H17.9449V6.75732L9 15.7374Z" fill="#FFDE9E"/>
<path d="M39.892 25.7923H17.0596V48.6247H39.892V25.7923Z" fill="#C99A40"/>
<path d="M44.0367 26.2142H70.9629C70.993 26.2158 71.0231 26.2113 71.0513 26.2009C71.0795 26.1905 71.1054 26.1744 71.1272 26.1537C71.1491 26.133 71.1665 26.1081 71.1783 26.0804C71.1902 26.0528 71.1964 26.023 71.1964 25.9929C71.1964 25.9628 71.1902 25.933 71.1783 25.9053C71.1665 25.8777 71.1491 25.8528 71.1272 25.832C71.1054 25.8113 71.0795 25.7953 71.0513 25.7849C71.0231 25.7745 70.993 25.77 70.9629 25.7716H44.0367C44.0066 25.77 43.9765 25.7745 43.9483 25.7849C43.92 25.7953 43.8942 25.8113 43.8724 25.832C43.8505 25.8528 43.8331 25.8777 43.8212 25.9053C43.8094 25.933 43.8032 25.9628 43.8032 25.9929C43.8032 26.023 43.8094 26.0528 43.8212 26.0804C43.8331 26.1081 43.8505 26.133 43.8724 26.1537C43.8942 26.1744 43.92 26.1905 43.9483 26.2009C43.9765 26.2113 44.0066 26.2158 44.0367 26.2142Z" fill="#C99A40"/>
<path d="M44.0367 28.7032H70.9629C70.993 28.7048 71.0231 28.7002 71.0513 28.6898C71.0795 28.6794 71.1054 28.6634 71.1272 28.6427C71.1491 28.622 71.1665 28.597 71.1783 28.5694C71.1902 28.5417 71.1964 28.5119 71.1964 28.4818C71.1964 28.4517 71.1902 28.422 71.1783 28.3943C71.1665 28.3666 71.1491 28.3417 71.1272 28.321C71.1054 28.3003 71.0795 28.2842 71.0513 28.2738C71.0231 28.2634 70.993 28.2589 70.9629 28.2605H44.0367C44.0066 28.2589 43.9765 28.2634 43.9483 28.2738C43.92 28.2842 43.8942 28.3003 43.8724 28.321C43.8505 28.3417 43.8331 28.3666 43.8212 28.3943C43.8094 28.422 43.8032 28.4517 43.8032 28.4818C43.8032 28.5119 43.8094 28.5417 43.8212 28.5694C43.8331 28.597 43.8505 28.622 43.8724 28.6427C43.8942 28.6634 43.92 28.6794 43.9483 28.6898C43.9765 28.7002 44.0066 28.7048 44.0367 28.7032Z" fill="#C99A40"/>
<path d="M44.0366 31.194H70.9629C70.9942 31.1981 71.0259 31.1955 71.0561 31.1863C71.0863 31.1771 71.1142 31.1616 71.1379 31.1408C71.1616 31.12 71.1806 31.0944 71.1936 31.0657C71.2066 31.0369 71.2134 31.0057 71.2134 30.9742C71.2134 30.9427 71.2066 30.9115 71.1936 30.8828C71.1806 30.854 71.1616 30.8284 71.1379 30.8076C71.1142 30.7868 71.0863 30.7713 71.0561 30.7621C71.0259 30.753 70.9942 30.7503 70.9629 30.7544H44.0366C44.0053 30.7503 43.9736 30.753 43.9434 30.7621C43.9132 30.7713 43.8853 30.7868 43.8616 30.8076C43.8379 30.8284 43.8189 30.854 43.8059 30.8828C43.7929 30.9115 43.7861 30.9427 43.7861 30.9742C43.7861 31.0057 43.7929 31.0369 43.8059 31.0657C43.8189 31.0944 43.8379 31.12 43.8616 31.1408C43.8853 31.1616 43.9132 31.1771 43.9434 31.1863C43.9736 31.1955 44.0053 31.1981 44.0366 31.194Z" fill="#C99A40"/>
<path d="M44.0366 33.6823H70.9629C70.9942 33.6864 71.0259 33.6838 71.0561 33.6746C71.0863 33.6655 71.1142 33.65 71.1379 33.6292C71.1616 33.6084 71.1806 33.5827 71.1936 33.554C71.2066 33.5253 71.2134 33.4941 71.2134 33.4625C71.2134 33.431 71.2066 33.3998 71.1936 33.3711C71.1806 33.3424 71.1616 33.3167 71.1379 33.2959C71.1142 33.2751 71.0863 33.2596 71.0561 33.2505C71.0259 33.2413 70.9942 33.2387 70.9629 33.2428H44.0366C44.0053 33.2387 43.9736 33.2413 43.9434 33.2505C43.9132 33.2596 43.8853 33.2751 43.8616 33.2959C43.8379 33.3167 43.8189 33.3424 43.8059 33.3711C43.7929 33.3998 43.7861 33.431 43.7861 33.4625C43.7861 33.4941 43.7929 33.5253 43.8059 33.554C43.8189 33.5827 43.8379 33.6084 43.8616 33.6292C43.8853 33.65 43.9132 33.6655 43.9434 33.6746C43.9736 33.6838 44.0053 33.6864 44.0366 33.6823Z" fill="#C99A40"/>
<path d="M44.0366 36.1719H70.9629C70.9942 36.176 71.0259 36.1734 71.0561 36.1642C71.0863 36.155 71.1142 36.1395 71.1379 36.1187C71.1616 36.0979 71.1806 36.0723 71.1936 36.0436C71.2066 36.0148 71.2134 35.9837 71.2134 35.9521C71.2134 35.9206 71.2066 35.8894 71.1936 35.8607C71.1806 35.8319 71.1616 35.8063 71.1379 35.7855C71.1142 35.7647 71.0863 35.7492 71.0561 35.74C71.0259 35.7309 70.9942 35.7282 70.9629 35.7324H44.0366C44.0053 35.7282 43.9736 35.7309 43.9434 35.74C43.9132 35.7492 43.8853 35.7647 43.8616 35.7855C43.8379 35.8063 43.8189 35.8319 43.8059 35.8607C43.7929 35.8894 43.7861 35.9206 43.7861 35.9521C43.7861 35.9837 43.7929 36.0148 43.8059 36.0436C43.8189 36.0723 43.8379 36.0979 43.8616 36.1187C43.8853 36.1395 43.9132 36.155 43.9434 36.1642C43.9736 36.1734 44.0053 36.176 44.0366 36.1719Z" fill="#C99A40"/>
<path d="M44.0366 38.6614H70.9629C70.9942 38.6655 71.0259 38.6629 71.0561 38.6538C71.0863 38.6446 71.1142 38.6291 71.1379 38.6083C71.1616 38.5875 71.1806 38.5619 71.1936 38.5331C71.2066 38.5044 71.2134 38.4732 71.2134 38.4417C71.2134 38.4101 71.2066 38.379 71.1936 38.3502C71.1806 38.3215 71.1616 38.2959 71.1379 38.2751C71.1142 38.2543 71.0863 38.2388 71.0561 38.2296C71.0259 38.2204 70.9942 38.2178 70.9629 38.2219H44.0366C44.0053 38.2178 43.9736 38.2204 43.9434 38.2296C43.9132 38.2388 43.8853 38.2543 43.8616 38.2751C43.8379 38.2959 43.8189 38.3215 43.8059 38.3502C43.7929 38.379 43.7861 38.4101 43.7861 38.4417C43.7861 38.4732 43.7929 38.5044 43.8059 38.5331C43.8189 38.5619 43.8379 38.5875 43.8616 38.6083C43.8853 38.6291 43.9132 38.6446 43.9434 38.6538C43.9736 38.6629 44.0053 38.6655 44.0366 38.6614Z" fill="#C99A40"/>
<path d="M44.0367 41.151H70.9629C70.993 41.1526 71.0231 41.1481 71.0513 41.1377C71.0795 41.1273 71.1054 41.1113 71.1272 41.0906C71.1491 41.0698 71.1665 41.0449 71.1783 41.0172C71.1902 40.9896 71.1964 40.9598 71.1964 40.9297C71.1964 40.8996 71.1902 40.8698 71.1783 40.8422C71.1665 40.8145 71.1491 40.7896 71.1272 40.7689C71.1054 40.7482 71.0795 40.7321 71.0513 40.7217C71.0231 40.7113 70.993 40.7068 70.9629 40.7084H44.0367C44.0066 40.7068 43.9765 40.7113 43.9483 40.7217C43.92 40.7321 43.8942 40.7482 43.8724 40.7689C43.8505 40.7896 43.8331 40.8145 43.8212 40.8422C43.8094 40.8698 43.8032 40.8996 43.8032 40.9297C43.8032 40.9598 43.8094 40.9896 43.8212 41.0172C43.8331 41.0449 43.8505 41.0698 43.8724 41.0906C43.8942 41.1113 43.92 41.1273 43.9483 41.1377C43.9765 41.1481 44.0066 41.1526 44.0367 41.151Z" fill="#C99A40"/>
<path d="M44.0367 43.6406H70.9629C70.993 43.6422 71.0231 43.6377 71.0513 43.6273C71.0795 43.6169 71.1054 43.6008 71.1272 43.5801C71.1491 43.5594 71.1665 43.5345 71.1783 43.5068C71.1902 43.4792 71.1964 43.4494 71.1964 43.4193C71.1964 43.3892 71.1902 43.3594 71.1783 43.3317C71.1665 43.3041 71.1491 43.2791 71.1272 43.2584C71.1054 43.2377 71.0795 43.2217 71.0513 43.2113C71.0231 43.2009 70.993 43.1963 70.9629 43.1979H44.0367C44.0066 43.1963 43.9765 43.2009 43.9483 43.2113C43.92 43.2217 43.8942 43.2377 43.8724 43.2584C43.8505 43.2791 43.8331 43.3041 43.8212 43.3317C43.8094 43.3594 43.8032 43.3892 43.8032 43.4193C43.8032 43.4494 43.8094 43.4792 43.8212 43.5068C43.8331 43.5345 43.8505 43.5594 43.8724 43.5801C43.8942 43.6008 43.92 43.6169 43.9483 43.6273C43.9765 43.6377 44.0066 43.6422 44.0367 43.6406Z" fill="#C99A40"/>
<path d="M44.0366 46.1302H70.9629C70.9942 46.1343 71.0259 46.1317 71.0561 46.1225C71.0863 46.1133 71.1142 46.0978 71.1379 46.077C71.1616 46.0562 71.1806 46.0306 71.1936 46.0019C71.2066 45.9731 71.2134 45.942 71.2134 45.9104C71.2134 45.8789 71.2066 45.8477 71.1936 45.819C71.1806 45.7902 71.1616 45.7646 71.1379 45.7438C71.1142 45.723 71.0863 45.7075 71.0561 45.6983C71.0259 45.6892 70.9942 45.6866 70.9629 45.6907H44.0366C44.0053 45.6866 43.9736 45.6892 43.9434 45.6983C43.9132 45.7075 43.8853 45.723 43.8616 45.7438C43.8379 45.7646 43.8189 45.7902 43.8059 45.819C43.7929 45.8477 43.7861 45.8789 43.7861 45.9104C43.7861 45.942 43.7929 45.9731 43.8059 46.0019C43.8189 46.0306 43.8379 46.0562 43.8616 46.077C43.8853 46.0978 43.9132 46.1133 43.9434 46.1225C43.9736 46.1317 44.0053 46.1343 44.0366 46.1302Z" fill="#C99A40"/>
<path d="M44.0366 48.6197H70.9629C70.9942 48.6239 71.0259 48.6212 71.0561 48.6121C71.0863 48.6029 71.1142 48.5874 71.1379 48.5666C71.1616 48.5458 71.1806 48.5202 71.1936 48.4914C71.2066 48.4627 71.2134 48.4315 71.2134 48.4C71.2134 48.3684 71.2066 48.3373 71.1936 48.3085C71.1806 48.2798 71.1616 48.2542 71.1379 48.2334C71.1142 48.2126 71.0863 48.1971 71.0561 48.1879C71.0259 48.1787 70.9942 48.1761 70.9629 48.1802H44.0366C44.0053 48.1761 43.9736 48.1787 43.9434 48.1879C43.9132 48.1971 43.8853 48.2126 43.8616 48.2334C43.8379 48.2542 43.8189 48.2798 43.8059 48.3085C43.7929 48.3373 43.7861 48.3684 43.7861 48.4C43.7861 48.4315 43.7929 48.4627 43.8059 48.4914C43.8189 48.5202 43.8379 48.5458 43.8616 48.5666C43.8853 48.5874 43.9132 48.6029 43.9434 48.6121C43.9736 48.6212 44.0053 48.6239 44.0366 48.6197Z" fill="#C99A40"/>
<path d="M17.1099 51.734H70.963C70.9943 51.7381 71.0261 51.7355 71.0563 51.7263C71.0864 51.7172 71.1143 51.7017 71.138 51.6809C71.1617 51.6601 71.1807 51.6344 71.1938 51.6057C71.2068 51.577 71.2135 51.5458 71.2135 51.5142C71.2135 51.4827 71.2068 51.4515 71.1938 51.4228C71.1807 51.3941 71.1617 51.3684 71.138 51.3476C71.1143 51.3268 71.0864 51.3113 71.0563 51.3022C71.0261 51.293 70.9943 51.2904 70.963 51.2945H17.1099C17.0786 51.2904 17.0468 51.293 17.0166 51.3022C16.9864 51.3113 16.9586 51.3268 16.9348 51.3476C16.9111 51.3684 16.8921 51.3941 16.8791 51.4228C16.8661 51.4515 16.8594 51.4827 16.8594 51.5142C16.8594 51.5458 16.8661 51.577 16.8791 51.6057C16.8921 51.6344 16.9111 51.6601 16.9348 51.6809C16.9586 51.7017 16.9864 51.7172 17.0166 51.7263C17.0468 51.7355 17.0786 51.7381 17.1099 51.734Z" fill="#C99A40"/>
<path d="M17.1099 54.2236H70.963C70.9943 54.2277 71.0261 54.2251 71.0563 54.2159C71.0864 54.2068 71.1143 54.1913 71.138 54.1705C71.1617 54.1497 71.1807 54.1241 71.1938 54.0953C71.2068 54.0666 71.2135 54.0354 71.2135 54.0039C71.2135 53.9723 71.2068 53.9411 71.1938 53.9124C71.1807 53.8837 71.1617 53.8581 71.138 53.8373C71.1143 53.8165 71.0864 53.801 71.0563 53.7918C71.0261 53.7826 70.9943 53.78 70.963 53.7841H17.1099C17.0786 53.78 17.0468 53.7826 17.0166 53.7918C16.9864 53.801 16.9586 53.8165 16.9348 53.8373C16.9111 53.8581 16.8921 53.8837 16.8791 53.9124C16.8661 53.9411 16.8594 53.9723 16.8594 54.0039C16.8594 54.0354 16.8661 54.0666 16.8791 54.0953C16.8921 54.1241 16.9111 54.1497 16.9348 54.1705C16.9586 54.1913 16.9864 54.2068 17.0166 54.2159C17.0468 54.2251 17.0786 54.2277 17.1099 54.2236Z" fill="#C99A40"/>
<path d="M17.1099 56.7132H70.963C70.9943 56.7173 71.0261 56.7147 71.0563 56.7055C71.0864 56.6963 71.1143 56.6808 71.138 56.66C71.1617 56.6392 71.1807 56.6136 71.1938 56.5849C71.2068 56.5562 71.2135 56.525 71.2135 56.4934C71.2135 56.4619 71.2068 56.4307 71.1938 56.402C71.1807 56.3733 71.1617 56.3476 71.138 56.3268C71.1143 56.306 71.0864 56.2905 71.0563 56.2814C71.0261 56.2722 70.9943 56.2696 70.963 56.2737H17.1099C17.0786 56.2696 17.0468 56.2722 17.0166 56.2814C16.9864 56.2905 16.9586 56.306 16.9348 56.3268C16.9111 56.3476 16.8921 56.3733 16.8791 56.402C16.8661 56.4307 16.8594 56.4619 16.8594 56.4934C16.8594 56.525 16.8661 56.5562 16.8791 56.5849C16.8921 56.6136 16.9111 56.6392 16.9348 56.66C16.9586 56.6808 16.9864 56.6963 17.0166 56.7055C17.0468 56.7147 17.0786 56.7173 17.1099 56.7132Z" fill="#C99A40"/>
<path d="M17.1099 59.2027H70.9631C70.9931 59.2043 71.0232 59.1998 71.0514 59.1894C71.0797 59.179 71.1055 59.163 71.1274 59.1422C71.1492 59.1215 71.1666 59.0966 71.1785 59.0689C71.1904 59.0413 71.1965 59.0115 71.1965 58.9814C71.1965 58.9513 71.1904 58.9215 71.1785 58.8939C71.1666 58.8662 71.1492 58.8413 71.1274 58.8206C71.1055 58.7999 71.0797 58.7838 71.0514 58.7734C71.0232 58.763 70.9931 58.7585 70.9631 58.7601H17.1099C17.0798 58.7585 17.0498 58.763 17.0215 58.7734C16.9933 58.7838 16.9675 58.7999 16.9456 58.8206C16.9238 58.8413 16.9064 58.8662 16.8945 58.8939C16.8826 58.9215 16.8765 58.9513 16.8765 58.9814C16.8765 59.0115 16.8826 59.0413 16.8945 59.0689C16.9064 59.0966 16.9238 59.1215 16.9456 59.1422C16.9675 59.163 16.9933 59.179 17.0215 59.1894C17.0498 59.1998 17.0798 59.2043 17.1099 59.2027Z" fill="#C99A40"/>
<path d="M17.1099 61.6923H70.9631C70.9931 61.6939 71.0232 61.6894 71.0514 61.679C71.0797 61.6686 71.1055 61.6525 71.1274 61.6318C71.1492 61.6111 71.1666 61.5862 71.1785 61.5585C71.1904 61.5309 71.1965 61.5011 71.1965 61.471C71.1965 61.4409 71.1904 61.4111 71.1785 61.3834C71.1666 61.3558 71.1492 61.3308 71.1274 61.3101C71.1055 61.2894 71.0797 61.2734 71.0514 61.263C71.0232 61.2526 70.9931 61.248 70.9631 61.2496H17.1099C17.0798 61.248 17.0498 61.2526 17.0215 61.263C16.9933 61.2734 16.9675 61.2894 16.9456 61.3101C16.9238 61.3308 16.9064 61.3558 16.8945 61.3834C16.8826 61.4111 16.8765 61.4409 16.8765 61.471C16.8765 61.5011 16.8826 61.5309 16.8945 61.5585C16.9064 61.5862 16.9238 61.6111 16.9456 61.6318C16.9675 61.6525 16.9933 61.6686 17.0215 61.679C17.0498 61.6894 17.0798 61.6939 17.1099 61.6923Z" fill="#C99A40"/>
<path d="M17.1099 64.1819H70.9631C70.9931 64.1835 71.0232 64.1789 71.0514 64.1685C71.0797 64.1581 71.1055 64.1421 71.1274 64.1214C71.1492 64.1007 71.1666 64.0757 71.1785 64.0481C71.1904 64.0204 71.1965 63.9906 71.1965 63.9605C71.1965 63.9304 71.1904 63.9007 71.1785 63.873C71.1666 63.8453 71.1492 63.8204 71.1274 63.7997C71.1055 63.779 71.0797 63.7629 71.0514 63.7525C71.0232 63.7421 70.9931 63.7376 70.9631 63.7392H17.1099C17.0798 63.7376 17.0498 63.7421 17.0215 63.7525C16.9933 63.7629 16.9675 63.779 16.9456 63.7997C16.9238 63.8204 16.9064 63.8453 16.8945 63.873C16.8826 63.9007 16.8765 63.9304 16.8765 63.9605C16.8765 63.9906 16.8826 64.0204 16.8945 64.0481C16.9064 64.0757 16.9238 64.1007 16.9456 64.1214C16.9675 64.1421 16.9933 64.1581 17.0215 64.1685C17.0498 64.1789 17.0798 64.1835 17.1099 64.1819Z" fill="#C99A40"/>
<path d="M17.1099 66.6696H70.963C70.9943 66.6737 71.0261 66.671 71.0563 66.6619C71.0864 66.6527 71.1143 66.6372 71.138 66.6164C71.1617 66.5956 71.1807 66.57 71.1938 66.5412C71.2068 66.5125 71.2135 66.4813 71.2135 66.4498C71.2135 66.4183 71.2068 66.3871 71.1938 66.3583C71.1807 66.3296 71.1617 66.304 71.138 66.2832C71.1143 66.2624 71.0864 66.2469 71.0563 66.2377C71.0261 66.2285 70.9943 66.2259 70.963 66.23H17.1099C17.0786 66.2259 17.0468 66.2285 17.0166 66.2377C16.9864 66.2469 16.9586 66.2624 16.9348 66.2832C16.9111 66.304 16.8921 66.3296 16.8791 66.3583C16.8661 66.3871 16.8594 66.4183 16.8594 66.4498C16.8594 66.4813 16.8661 66.5125 16.8791 66.5412C16.8921 66.57 16.9111 66.5956 16.9348 66.6164C16.9586 66.6372 16.9864 66.6527 17.0166 66.6619C17.0468 66.671 17.0786 66.6737 17.1099 66.6696Z" fill="#C99A40"/>
<path d="M17.1099 69.1604H70.9631C70.9931 69.162 71.0232 69.1574 71.0514 69.147C71.0797 69.1366 71.1055 69.1206 71.1274 69.0999C71.1492 69.0792 71.1666 69.0542 71.1785 69.0266C71.1904 68.9989 71.1965 68.9692 71.1965 68.9391C71.1965 68.909 71.1904 68.8792 71.1785 68.8515C71.1666 68.8239 71.1492 68.7989 71.1274 68.7782C71.1055 68.7575 71.0797 68.7415 71.0514 68.7311C71.0232 68.7207 70.9931 68.7161 70.9631 68.7177H17.1099C17.0798 68.7161 17.0498 68.7207 17.0215 68.7311C16.9933 68.7415 16.9675 68.7575 16.9456 68.7782C16.9238 68.7989 16.9064 68.8239 16.8945 68.8515C16.8826 68.8792 16.8765 68.909 16.8765 68.9391C16.8765 68.9692 16.8826 68.9989 16.8945 69.0266C16.9064 69.0542 16.9238 69.0792 16.9456 69.0999C16.9675 69.1206 16.9933 69.1366 17.0215 69.147C17.0498 69.1574 17.0798 69.162 17.1099 69.1604Z" fill="#C99A40"/>
<path d="M17.1099 71.6506H70.963C70.9943 71.6547 71.0261 71.6521 71.0563 71.6429C71.0864 71.6337 71.1143 71.6182 71.138 71.5974C71.1617 71.5766 71.1807 71.551 71.1938 71.5223C71.2068 71.4935 71.2135 71.4624 71.2135 71.4308C71.2135 71.3993 71.2068 71.3681 71.1938 71.3394C71.1807 71.3106 71.1617 71.285 71.138 71.2642C71.1143 71.2434 71.0864 71.2279 71.0563 71.2187C71.0261 71.2096 70.9943 71.2069 70.963 71.211H17.1099C17.0786 71.2069 17.0468 71.2096 17.0166 71.2187C16.9864 71.2279 16.9586 71.2434 16.9348 71.2642C16.9111 71.285 16.8921 71.3106 16.8791 71.3394C16.8661 71.3681 16.8594 71.3993 16.8594 71.4308C16.8594 71.4624 16.8661 71.4935 16.8791 71.5223C16.8921 71.551 16.9111 71.5766 16.9348 71.5974C16.9586 71.6182 16.9864 71.6337 17.0166 71.6429C17.0468 71.6521 17.0786 71.6547 17.1099 71.6506Z" fill="#C99A40"/>
<path d="M17.1099 74.1414H70.963C70.9943 74.1455 71.0261 74.1429 71.0563 74.1337C71.0864 74.1246 71.1143 74.1091 71.138 74.0883C71.1617 74.0675 71.1807 74.0418 71.1938 74.0131C71.2068 73.9844 71.2135 73.9532 71.2135 73.9217C71.2135 73.8901 71.2068 73.8589 71.1938 73.8302C71.1807 73.8015 71.1617 73.7759 71.138 73.7551C71.1143 73.7342 71.0864 73.7187 71.0563 73.7096C71.0261 73.7004 70.9943 73.6978 70.963 73.7019H17.1099C17.0786 73.6978 17.0468 73.7004 17.0166 73.7096C16.9864 73.7187 16.9586 73.7342 16.9348 73.7551C16.9111 73.7759 16.8921 73.8015 16.8791 73.8302C16.8661 73.8589 16.8594 73.8901 16.8594 73.9217C16.8594 73.9532 16.8661 73.9844 16.8791 74.0131C16.8921 74.0418 16.9111 74.0675 16.9348 74.0883C16.9586 74.1091 16.9864 74.1246 17.0166 74.1337C17.0468 74.1429 17.0786 74.1455 17.1099 74.1414Z" fill="#C99A40"/>
<path d="M43.6631 87.3019H70.9629C70.9942 87.306 71.026 87.3034 71.0562 87.2943C71.0864 87.2851 71.1142 87.2696 71.1379 87.2488C71.1617 87.228 71.1807 87.2024 71.1937 87.1736C71.2067 87.1449 71.2134 87.1137 71.2134 87.0822C71.2134 87.0506 71.2067 87.0195 71.1937 86.9907C71.1807 86.962 71.1617 86.9364 71.1379 86.9156C71.1142 86.8948 71.0864 86.8793 71.0562 86.8701C71.026 86.8609 70.9942 86.8583 70.9629 86.8624H43.6631C43.6318 86.8583 43.6 86.8609 43.5698 86.8701C43.5396 86.8793 43.5118 86.8948 43.4881 86.9156C43.4644 86.9364 43.4454 86.962 43.4323 86.9907C43.4193 87.0195 43.4126 87.0506 43.4126 87.0822C43.4126 87.1137 43.4193 87.1449 43.4323 87.1736C43.4454 87.2024 43.4644 87.228 43.4881 87.2488C43.5118 87.2696 43.5396 87.2851 43.5698 87.2943C43.6 87.3034 43.6318 87.306 43.6631 87.3019Z" fill="#C99A40"/>
<path d="M43.6631 89.7908H70.9629C70.9942 89.7949 71.026 89.7923 71.0562 89.7832C71.0864 89.774 71.1142 89.7585 71.1379 89.7377C71.1617 89.7169 71.1807 89.6913 71.1937 89.6625C71.2067 89.6338 71.2134 89.6026 71.2134 89.5711C71.2134 89.5395 71.2067 89.5083 71.1937 89.4796C71.1807 89.4509 71.1617 89.4253 71.1379 89.4045C71.1142 89.3837 71.0864 89.3682 71.0562 89.359C71.026 89.3498 70.9942 89.3472 70.9629 89.3513H43.6631C43.6318 89.3472 43.6 89.3498 43.5698 89.359C43.5396 89.3682 43.5118 89.3837 43.4881 89.4045C43.4644 89.4253 43.4454 89.4509 43.4323 89.4796C43.4193 89.5083 43.4126 89.5395 43.4126 89.5711C43.4126 89.6026 43.4193 89.6338 43.4323 89.6625C43.4454 89.6913 43.4644 89.7169 43.4881 89.7377C43.5118 89.7585 43.5396 89.774 43.5698 89.7832C43.6 89.7923 43.6318 89.7949 43.6631 89.7908Z" fill="#C99A40"/>
<path d="M43.6631 92.281H70.9629C71.0217 92.281 71.0781 92.2576 71.1196 92.2161C71.1612 92.1745 71.1846 92.1181 71.1846 92.0594C71.1846 92.0006 71.1612 91.9442 71.1196 91.9026C71.0781 91.8611 71.0217 91.8377 70.9629 91.8377H43.6631C43.6339 91.8377 43.6051 91.8434 43.5782 91.8546C43.5513 91.8657 43.5269 91.882 43.5063 91.9026C43.4857 91.9232 43.4694 91.9476 43.4583 91.9745C43.4471 92.0014 43.4414 92.0302 43.4414 92.0594C43.4414 92.0885 43.4471 92.1173 43.4583 92.1442C43.4694 92.1711 43.4857 92.1955 43.5063 92.2161C43.5269 92.2367 43.5513 92.253 43.5782 92.2641C43.6051 92.2753 43.6339 92.281 43.6631 92.281Z" fill="#C99A40"/>
</g>
<g clip-path="url(#clip1_640_158)" filter="url(#filter1_d_640_158)">
<path d="M97.9794 6L89 14.98V106.071H158.327V6H97.9794Z" fill="#FEE7BA"/>
<path d="M89 14.98H97.9449V6L89 14.98Z" fill="#FFDE9E"/>
<path d="M119.892 25.035H97.0596V47.8674H119.892V25.035Z" fill="#C99A40"/>
<path d="M124.037 25.4569H150.963C150.993 25.4585 151.023 25.454 151.051 25.4436C151.08 25.4332 151.105 25.4171 151.127 25.3964C151.149 25.3757 151.166 25.3507 151.178 25.3231C151.19 25.2954 151.196 25.2657 151.196 25.2356C151.196 25.2055 151.19 25.1757 151.178 25.148C151.166 25.1204 151.149 25.0954 151.127 25.0747C151.105 25.054 151.08 25.038 151.051 25.0276C151.023 25.0172 150.993 25.0126 150.963 25.0142H124.037C124.007 25.0126 123.977 25.0172 123.948 25.0276C123.92 25.038 123.894 25.054 123.872 25.0747C123.851 25.0954 123.833 25.1204 123.821 25.148C123.809 25.1757 123.803 25.2055 123.803 25.2356C123.803 25.2657 123.809 25.2954 123.821 25.3231C123.833 25.3507 123.851 25.3757 123.872 25.3964C123.894 25.4171 123.92 25.4332 123.948 25.4436C123.977 25.454 124.007 25.4585 124.037 25.4569Z" fill="#C99A40"/>
<path d="M124.037 27.9458H150.963C150.993 27.9474 151.023 27.9429 151.051 27.9325C151.08 27.9221 151.105 27.9061 151.127 27.8854C151.149 27.8646 151.166 27.8397 151.178 27.812C151.19 27.7844 151.196 27.7546 151.196 27.7245C151.196 27.6944 151.19 27.6646 151.178 27.637C151.166 27.6093 151.149 27.5844 151.127 27.5637C151.105 27.543 151.08 27.5269 151.051 27.5165C151.023 27.5061 150.993 27.5016 150.963 27.5032H124.037C124.007 27.5016 123.977 27.5061 123.948 27.5165C123.92 27.5269 123.894 27.543 123.872 27.5637C123.851 27.5844 123.833 27.6093 123.821 27.637C123.809 27.6646 123.803 27.6944 123.803 27.7245C123.803 27.7546 123.809 27.7844 123.821 27.812C123.833 27.8397 123.851 27.8646 123.872 27.8854C123.894 27.9061 123.92 27.9221 123.948 27.9325C123.977 27.9429 124.007 27.9474 124.037 27.9458Z" fill="#C99A40"/>
<path d="M124.037 30.4367H150.963C150.994 30.4408 151.026 30.4382 151.056 30.429C151.086 30.4199 151.114 30.4044 151.138 30.3836C151.162 30.3628 151.181 30.3371 151.194 30.3084C151.207 30.2797 151.213 30.2485 151.213 30.2169C151.213 30.1854 151.207 30.1542 151.194 30.1255C151.181 30.0968 151.162 30.0711 151.138 30.0503C151.114 30.0295 151.086 30.014 151.056 30.0049C151.026 29.9957 150.994 29.9931 150.963 29.9972H124.037C124.005 29.9931 123.974 29.9957 123.943 30.0049C123.913 30.014 123.885 30.0295 123.862 30.0503C123.838 30.0711 123.819 30.0968 123.806 30.1255C123.793 30.1542 123.786 30.1854 123.786 30.2169C123.786 30.2485 123.793 30.2797 123.806 30.3084C123.819 30.3371 123.838 30.3628 123.862 30.3836C123.885 30.4044 123.913 30.4199 123.943 30.429C123.974 30.4382 124.005 30.4408 124.037 30.4367Z" fill="#C99A40"/>
<path d="M124.037 32.925H150.963C150.994 32.9291 151.026 32.9265 151.056 32.9173C151.086 32.9081 151.114 32.8926 151.138 32.8718C151.162 32.851 151.181 32.8254 151.194 32.7967C151.207 32.7679 151.213 32.7368 151.213 32.7052C151.213 32.6737 151.207 32.6425 151.194 32.6138C151.181 32.585 151.162 32.5594 151.138 32.5386C151.114 32.5178 151.086 32.5023 151.056 32.4931C151.026 32.484 150.994 32.4814 150.963 32.4855H124.037C124.005 32.4814 123.974 32.484 123.943 32.4931C123.913 32.5023 123.885 32.5178 123.862 32.5386C123.838 32.5594 123.819 32.585 123.806 32.6138C123.793 32.6425 123.786 32.6737 123.786 32.7052C123.786 32.7368 123.793 32.7679 123.806 32.7967C123.819 32.8254 123.838 32.851 123.862 32.8718C123.885 32.8926 123.913 32.9081 123.943 32.9173C123.974 32.9265 124.005 32.9291 124.037 32.925Z" fill="#C99A40"/>
<path d="M124.037 35.4145H150.963C150.994 35.4187 151.026 35.416 151.056 35.4069C151.086 35.3977 151.114 35.3822 151.138 35.3614C151.162 35.3406 151.181 35.315 151.194 35.2862C151.207 35.2575 151.213 35.2263 151.213 35.1948C151.213 35.1632 151.207 35.1321 151.194 35.1033C151.181 35.0746 151.162 35.049 151.138 35.0282C151.114 35.0074 151.086 34.9919 151.056 34.9827C151.026 34.9735 150.994 34.9709 150.963 34.975H124.037C124.005 34.9709 123.974 34.9735 123.943 34.9827C123.913 34.9919 123.885 35.0074 123.862 35.0282C123.838 35.049 123.819 35.0746 123.806 35.1033C123.793 35.1321 123.786 35.1632 123.786 35.1948C123.786 35.2263 123.793 35.2575 123.806 35.2862C123.819 35.315 123.838 35.3406 123.862 35.3614C123.885 35.3822 123.913 35.3977 123.943 35.4069C123.974 35.416 124.005 35.4187 124.037 35.4145Z" fill="#C99A40"/>
<path d="M124.037 37.9042H150.963C150.994 37.9083 151.026 37.9057 151.056 37.8965C151.086 37.8873 151.114 37.8718 151.138 37.851C151.162 37.8302 151.181 37.8046 151.194 37.7759C151.207 37.7471 151.213 37.716 151.213 37.6844C151.213 37.6529 151.207 37.6217 151.194 37.593C151.181 37.5642 151.162 37.5386 151.138 37.5178C151.114 37.497 151.086 37.4815 151.056 37.4723C151.026 37.4632 150.994 37.4605 150.963 37.4647H124.037C124.005 37.4605 123.974 37.4632 123.943 37.4723C123.913 37.4815 123.885 37.497 123.862 37.5178C123.838 37.5386 123.819 37.5642 123.806 37.593C123.793 37.6217 123.786 37.6529 123.786 37.6844C123.786 37.716 123.793 37.7471 123.806 37.7759C123.819 37.8046 123.838 37.8302 123.862 37.851C123.885 37.8718 123.913 37.8873 123.943 37.8965C123.974 37.9057 124.005 37.9083 124.037 37.9042Z" fill="#C99A40"/>
<path d="M124.037 40.3937H150.963C150.993 40.3953 151.023 40.3908 151.051 40.3804C151.08 40.37 151.105 40.3539 151.127 40.3332C151.149 40.3125 151.166 40.2876 151.178 40.2599C151.19 40.2323 151.196 40.2025 151.196 40.1724C151.196 40.1423 151.19 40.1125 151.178 40.0848C151.166 40.0572 151.149 40.0323 151.127 40.0115C151.105 39.9908 151.08 39.9748 151.051 39.9644C151.023 39.954 150.993 39.9495 150.963 39.9511H124.037C124.007 39.9495 123.977 39.954 123.948 39.9644C123.92 39.9748 123.894 39.9908 123.872 40.0115C123.851 40.0323 123.833 40.0572 123.821 40.0848C123.809 40.1125 123.803 40.1423 123.803 40.1724C123.803 40.2025 123.809 40.2323 123.821 40.2599C123.833 40.2876 123.851 40.3125 123.872 40.3332C123.894 40.3539 123.92 40.37 123.948 40.3804C123.977 40.3908 124.007 40.3953 124.037 40.3937Z" fill="#C99A40"/>
<path d="M124.037 42.8833H150.963C150.993 42.8849 151.023 42.8803 151.051 42.8699C151.08 42.8595 151.105 42.8435 151.127 42.8228C151.149 42.8021 151.166 42.7771 151.178 42.7495C151.19 42.7218 151.196 42.6921 151.196 42.662C151.196 42.6319 151.19 42.6021 151.178 42.5744C151.166 42.5468 151.149 42.5218 151.127 42.5011C151.105 42.4804 151.08 42.4644 151.051 42.454C151.023 42.4436 150.993 42.439 150.963 42.4406H124.037C124.007 42.439 123.977 42.4436 123.948 42.454C123.92 42.4644 123.894 42.4804 123.872 42.5011C123.851 42.5218 123.833 42.5468 123.821 42.5744C123.809 42.6021 123.803 42.6319 123.803 42.662C123.803 42.6921 123.809 42.7218 123.821 42.7495C123.833 42.7771 123.851 42.8021 123.872 42.8228C123.894 42.8435 123.92 42.8595 123.948 42.8699C123.977 42.8803 124.007 42.8849 124.037 42.8833Z" fill="#C99A40"/>
<path d="M124.037 45.3729H150.963C150.994 45.377 151.026 45.3743 151.056 45.3652C151.086 45.356 151.114 45.3405 151.138 45.3197C151.162 45.2989 151.181 45.2733 151.194 45.2446C151.207 45.2158 151.213 45.1846 151.213 45.1531C151.213 45.1216 151.207 45.0904 151.194 45.0617C151.181 45.0329 151.162 45.0073 151.138 44.9865C151.114 44.9657 151.086 44.9502 151.056 44.941C151.026 44.9319 150.994 44.9292 150.963 44.9333H124.037C124.005 44.9292 123.974 44.9319 123.943 44.941C123.913 44.9502 123.885 44.9657 123.862 44.9865C123.838 45.0073 123.819 45.0329 123.806 45.0617C123.793 45.0904 123.786 45.1216 123.786 45.1531C123.786 45.1846 123.793 45.2158 123.806 45.2446C123.819 45.2733 123.838 45.2989 123.862 45.3197C123.885 45.3405 123.913 45.356 123.943 45.3652C123.974 45.3743 124.005 45.377 124.037 45.3729Z" fill="#C99A40"/>
<path d="M124.037 47.8624H150.963C150.994 47.8665 151.026 47.8639 151.056 47.8547C151.086 47.8456 151.114 47.8301 151.138 47.8093C151.162 47.7885 151.181 47.7628 151.194 47.7341C151.207 47.7054 151.213 47.6742 151.213 47.6427C151.213 47.6111 151.207 47.5799 151.194 47.5512C151.181 47.5225 151.162 47.4969 151.138 47.4761C151.114 47.4553 151.086 47.4398 151.056 47.4306C151.026 47.4214 150.994 47.4188 150.963 47.4229H124.037C124.005 47.4188 123.974 47.4214 123.943 47.4306C123.913 47.4398 123.885 47.4553 123.862 47.4761C123.838 47.4969 123.819 47.5225 123.806 47.5512C123.793 47.5799 123.786 47.6111 123.786 47.6427C123.786 47.6742 123.793 47.7054 123.806 47.7341C123.819 47.7628 123.838 47.7885 123.862 47.8093C123.885 47.8301 123.913 47.8456 123.943 47.8547C123.974 47.8639 124.005 47.8665 124.037 47.8624Z" fill="#C99A40"/>
<path d="M97.1099 50.9767H150.963C150.994 50.9808 151.026 50.9782 151.056 50.9691C151.086 50.9599 151.114 50.9444 151.138 50.9236C151.162 50.9028 151.181 50.8772 151.194 50.8484C151.207 50.8197 151.213 50.7885 151.213 50.757C151.213 50.7254 151.207 50.6943 151.194 50.6655C151.181 50.6368 151.162 50.6112 151.138 50.5904C151.114 50.5696 151.086 50.5541 151.056 50.5449C151.026 50.5357 150.994 50.5331 150.963 50.5372H97.1099C97.0786 50.5331 97.0468 50.5357 97.0166 50.5449C96.9864 50.5541 96.9586 50.5696 96.9348 50.5904C96.9111 50.6112 96.8921 50.6368 96.8791 50.6655C96.8661 50.6943 96.8594 50.7254 96.8594 50.757C96.8594 50.7885 96.8661 50.8197 96.8791 50.8484C96.8921 50.8772 96.9111 50.9028 96.9348 50.9236C96.9586 50.9444 96.9864 50.9599 97.0166 50.9691C97.0468 50.9782 97.0786 50.9808 97.1099 50.9767Z" fill="#C99A40"/>
<path d="M97.1099 53.4663H150.963C150.994 53.4704 151.026 53.4678 151.056 53.4586C151.086 53.4495 151.114 53.434 151.138 53.4132C151.162 53.3924 151.181 53.3667 151.194 53.338C151.207 53.3093 151.213 53.2781 151.213 53.2465C151.213 53.215 151.207 53.1838 151.194 53.1551C151.181 53.1264 151.162 53.1007 151.138 53.0799C151.114 53.0591 151.086 53.0436 151.056 53.0345C151.026 53.0253 150.994 53.0227 150.963 53.0268H97.1099C97.0786 53.0227 97.0468 53.0253 97.0166 53.0345C96.9864 53.0436 96.9586 53.0591 96.9348 53.0799C96.9111 53.1007 96.8921 53.1264 96.8791 53.1551C96.8661 53.1838 96.8594 53.215 96.8594 53.2465C96.8594 53.2781 96.8661 53.3093 96.8791 53.338C96.8921 53.3667 96.9111 53.3924 96.9348 53.4132C96.9586 53.434 96.9864 53.4495 97.0166 53.4586C97.0468 53.4678 97.0786 53.4704 97.1099 53.4663Z" fill="#C99A40"/>
<path d="M97.1099 55.9559H150.963C150.994 55.96 151.026 55.9574 151.056 55.9482C151.086 55.939 151.114 55.9235 151.138 55.9027C151.162 55.8819 151.181 55.8563 151.194 55.8276C151.207 55.7988 151.213 55.7677 151.213 55.7361C151.213 55.7046 151.207 55.6734 151.194 55.6447C151.181 55.6159 151.162 55.5903 151.138 55.5695C151.114 55.5487 151.086 55.5332 151.056 55.524C151.026 55.5149 150.994 55.5122 150.963 55.5163H97.1099C97.0786 55.5122 97.0468 55.5149 97.0166 55.524C96.9864 55.5332 96.9586 55.5487 96.9348 55.5695C96.9111 55.5903 96.8921 55.6159 96.8791 55.6447C96.8661 55.6734 96.8594 55.7046 96.8594 55.7361C96.8594 55.7677 96.8661 55.7988 96.8791 55.8276C96.8921 55.8563 96.9111 55.8819 96.9348 55.9027C96.9586 55.9235 96.9864 55.939 97.0166 55.9482C97.0468 55.9574 97.0786 55.96 97.1099 55.9559Z" fill="#C99A40"/>
<path d="M97.1099 58.4455H150.963C150.993 58.4471 151.023 58.4425 151.051 58.4321C151.08 58.4217 151.106 58.4057 151.127 58.385C151.149 58.3643 151.167 58.3393 151.178 58.3117C151.19 58.284 151.197 58.2542 151.197 58.2241C151.197 58.194 151.19 58.1643 151.178 58.1366C151.167 58.109 151.149 58.084 151.127 58.0633C151.106 58.0426 151.08 58.0265 151.051 58.0161C151.023 58.0057 150.993 58.0012 150.963 58.0028H97.1099C97.0798 58.0012 97.0498 58.0057 97.0215 58.0161C96.9933 58.0265 96.9675 58.0426 96.9456 58.0633C96.9238 58.084 96.9064 58.109 96.8945 58.1366C96.8826 58.1643 96.8765 58.194 96.8765 58.2241C96.8765 58.2542 96.8826 58.284 96.8945 58.3117C96.9064 58.3393 96.9238 58.3643 96.9456 58.385C96.9675 58.4057 96.9933 58.4217 97.0215 58.4321C97.0498 58.4425 97.0798 58.4471 97.1099 58.4455Z" fill="#C99A40"/>
<path d="M97.1099 60.935H150.963C150.993 60.9366 151.023 60.932 151.051 60.9216C151.08 60.9112 151.106 60.8952 151.127 60.8745C151.149 60.8538 151.167 60.8288 151.178 60.8012C151.19 60.7735 151.197 60.7437 151.197 60.7136C151.197 60.6835 151.19 60.6538 151.178 60.6261C151.167 60.5985 151.149 60.5735 151.127 60.5528C151.106 60.5321 151.08 60.5161 151.051 60.5057C151.023 60.4953 150.993 60.4907 150.963 60.4923H97.1099C97.0798 60.4907 97.0498 60.4953 97.0215 60.5057C96.9933 60.5161 96.9675 60.5321 96.9456 60.5528C96.9238 60.5735 96.9064 60.5985 96.8945 60.6261C96.8826 60.6538 96.8765 60.6835 96.8765 60.7136C96.8765 60.7437 96.8826 60.7735 96.8945 60.8012C96.9064 60.8288 96.9238 60.8538 96.9456 60.8745C96.9675 60.8952 96.9933 60.9112 97.0215 60.9216C97.0498 60.932 97.0798 60.9366 97.1099 60.935Z" fill="#C99A40"/>
<path d="M97.1099 63.4245H150.963C150.993 63.4261 151.023 63.4216 151.051 63.4112C151.08 63.4008 151.106 63.3848 151.127 63.3641C151.149 63.3433 151.167 63.3184 151.178 63.2908C151.19 63.2631 151.197 63.2333 151.197 63.2032C151.197 63.1731 151.19 63.1433 151.178 63.1157C151.167 63.088 151.149 63.0631 151.127 63.0424C151.106 63.0217 151.08 63.0056 151.051 62.9952C151.023 62.9848 150.993 62.9803 150.963 62.9819H97.1099C97.0798 62.9803 97.0498 62.9848 97.0215 62.9952C96.9933 63.0056 96.9675 63.0217 96.9456 63.0424C96.9238 63.0631 96.9064 63.088 96.8945 63.1157C96.8826 63.1433 96.8765 63.1731 96.8765 63.2032C96.8765 63.2333 96.8826 63.2631 96.8945 63.2908C96.9064 63.3184 96.9238 63.3433 96.9456 63.3641C96.9675 63.3848 96.9933 63.4008 97.0215 63.4112C97.0498 63.4216 97.0798 63.4261 97.1099 63.4245Z" fill="#C99A40"/>
<path d="M97.1099 65.9122H150.963C150.994 65.9163 151.026 65.9137 151.056 65.9045C151.086 65.8954 151.114 65.8799 151.138 65.8591C151.162 65.8383 151.181 65.8127 151.194 65.7839C151.207 65.7552 151.213 65.724 151.213 65.6925C151.213 65.6609 151.207 65.6297 151.194 65.601C151.181 65.5723 151.162 65.5467 151.138 65.5259C151.114 65.5051 151.086 65.4896 151.056 65.4804C151.026 65.4712 150.994 65.4686 150.963 65.4727H97.1099C97.0786 65.4686 97.0468 65.4712 97.0166 65.4804C96.9864 65.4896 96.9586 65.5051 96.9348 65.5259C96.9111 65.5467 96.8921 65.5723 96.8791 65.601C96.8661 65.6297 96.8594 65.6609 96.8594 65.6925C96.8594 65.724 96.8661 65.7552 96.8791 65.7839C96.8921 65.8127 96.9111 65.8383 96.9348 65.8591C96.9586 65.8799 96.9864 65.8954 97.0166 65.9045C97.0468 65.9137 97.0786 65.9163 97.1099 65.9122Z" fill="#C99A40"/>
<path d="M97.1099 68.4031H150.963C150.993 68.4047 151.023 68.4001 151.051 68.3897C151.08 68.3793 151.106 68.3633 151.127 68.3426C151.149 68.3219 151.167 68.2969 151.178 68.2693C151.19 68.2416 151.197 68.2118 151.197 68.1817C151.197 68.1516 151.19 68.1218 151.178 68.0942C151.167 68.0665 151.149 68.0416 151.127 68.0209C151.106 68.0002 151.08 67.9841 151.051 67.9737C151.023 67.9633 150.993 67.9588 150.963 67.9604H97.1099C97.0798 67.9588 97.0498 67.9633 97.0215 67.9737C96.9933 67.9841 96.9675 68.0002 96.9456 68.0209C96.9238 68.0416 96.9064 68.0665 96.8945 68.0942C96.8826 68.1218 96.8765 68.1516 96.8765 68.1817C96.8765 68.2118 96.8826 68.2416 96.8945 68.2693C96.9064 68.2969 96.9238 68.3219 96.9456 68.3426C96.9675 68.3633 96.9933 68.3793 97.0215 68.3897C97.0498 68.4001 97.0798 68.4047 97.1099 68.4031Z" fill="#C99A40"/>
<path d="M97.1099 70.8932H150.963C150.994 70.8973 151.026 70.8947 151.056 70.8856C151.086 70.8764 151.114 70.8609 151.138 70.8401C151.162 70.8193 151.181 70.7937 151.194 70.7649C151.207 70.7362 151.213 70.705 151.213 70.6735C151.213 70.6419 151.207 70.6108 151.194 70.582C151.181 70.5533 151.162 70.5277 151.138 70.5069C151.114 70.4861 151.086 70.4706 151.056 70.4614C151.026 70.4522 150.994 70.4496 150.963 70.4537H97.1099C97.0786 70.4496 97.0468 70.4522 97.0166 70.4614C96.9864 70.4706 96.9586 70.4861 96.9348 70.5069C96.9111 70.5277 96.8921 70.5533 96.8791 70.582C96.8661 70.6108 96.8594 70.6419 96.8594 70.6735C96.8594 70.705 96.8661 70.7362 96.8791 70.7649C96.8921 70.7937 96.9111 70.8193 96.9348 70.8401C96.9586 70.8609 96.9864 70.8764 97.0166 70.8856C97.0468 70.8947 97.0786 70.8973 97.1099 70.8932Z" fill="#C99A40"/>
<path d="M97.1099 73.3841H150.963C150.994 73.3882 151.026 73.3856 151.056 73.3764C151.086 73.3672 151.114 73.3517 151.138 73.3309C151.162 73.3101 151.181 73.2845 151.194 73.2558C151.207 73.2271 151.213 73.1959 151.213 73.1643C151.213 73.1328 151.207 73.1016 151.194 73.0729C151.181 73.0441 151.162 73.0185 151.138 72.9977C151.114 72.9769 151.086 72.9614 151.056 72.9523C151.026 72.9431 150.994 72.9405 150.963 72.9446H97.1099C97.0786 72.9405 97.0468 72.9431 97.0166 72.9523C96.9864 72.9614 96.9586 72.9769 96.9348 72.9977C96.9111 73.0185 96.8921 73.0441 96.8791 73.0729C96.8661 73.1016 96.8594 73.1328 96.8594 73.1643C96.8594 73.1959 96.8661 73.2271 96.8791 73.2558C96.8921 73.2845 96.9111 73.3101 96.9348 73.3309C96.9586 73.3517 96.9864 73.3672 97.0166 73.3764C97.0468 73.3856 97.0786 73.3882 97.1099 73.3841Z" fill="#C99A40"/>
<path d="M123.663 86.5446H150.963C150.994 86.5487 151.026 86.5461 151.056 86.5369C151.086 86.5278 151.114 86.5123 151.138 86.4915C151.162 86.4707 151.181 86.445 151.194 86.4163C151.207 86.3876 151.213 86.3564 151.213 86.3249C151.213 86.2933 151.207 86.2621 151.194 86.2334C151.181 86.2047 151.162 86.1791 151.138 86.1582C151.114 86.1374 151.086 86.1219 151.056 86.1128C151.026 86.1036 150.994 86.101 150.963 86.1051H123.663C123.632 86.101 123.6 86.1036 123.57 86.1128C123.54 86.1219 123.512 86.1374 123.488 86.1582C123.464 86.1791 123.445 86.2047 123.432 86.2334C123.419 86.2621 123.413 86.2933 123.413 86.3249C123.413 86.3564 123.419 86.3876 123.432 86.4163C123.445 86.445 123.464 86.4707 123.488 86.4915C123.512 86.5123 123.54 86.5278 123.57 86.5369C123.6 86.5461 123.632 86.5487 123.663 86.5446Z" fill="#C99A40"/>
<path d="M123.663 89.0335H150.963C150.994 89.0376 151.026 89.035 151.056 89.0258C151.086 89.0167 151.114 89.0012 151.138 88.9804C151.162 88.9596 151.181 88.9339 151.194 88.9052C151.207 88.8765 151.213 88.8453 151.213 88.8137C151.213 88.7822 151.207 88.751 151.194 88.7223C151.181 88.6936 151.162 88.6679 151.138 88.6471C151.114 88.6263 151.086 88.6108 151.056 88.6017C151.026 88.5925 150.994 88.5899 150.963 88.594H123.663C123.632 88.5899 123.6 88.5925 123.57 88.6017C123.54 88.6108 123.512 88.6263 123.488 88.6471C123.464 88.6679 123.445 88.6936 123.432 88.7223C123.419 88.751 123.413 88.7822 123.413 88.8137C123.413 88.8453 123.419 88.8765 123.432 88.9052C123.445 88.9339 123.464 88.9596 123.488 88.9804C123.512 89.0012 123.54 89.0167 123.57 89.0258C123.6 89.035 123.632 89.0376 123.663 89.0335Z" fill="#C99A40"/>
<path d="M123.663 91.5237H150.963C151.022 91.5237 151.078 91.5004 151.12 91.4588C151.161 91.4172 151.185 91.3609 151.185 91.3021C151.185 91.2433 151.161 91.1869 151.12 91.1454C151.078 91.1038 151.022 91.0804 150.963 91.0804H123.663C123.634 91.0804 123.605 91.0862 123.578 91.0973C123.551 91.1085 123.527 91.1248 123.506 91.1454C123.486 91.1659 123.469 91.1904 123.458 91.2173C123.447 91.2442 123.441 91.273 123.441 91.3021C123.441 91.3312 123.447 91.36 123.458 91.3869C123.469 91.4138 123.486 91.4382 123.506 91.4588C123.527 91.4794 123.551 91.4957 123.578 91.5069C123.605 91.518 123.634 91.5237 123.663 91.5237Z" fill="#C99A40"/>
</g>
<g clip-path="url(#clip2_640_158)" filter="url(#filter2_d_640_158)">
<path fill-rule="evenodd" clip-rule="evenodd" d="M44.4395 24.2686L53.3971 15.3103H113.598V115.139H44.4395V24.2686ZM44.4395 15.3103V24.2686L53.3626 15.3103H44.4395Z" fill="#FFDE9E"/>
<path d="M75.2566 34.2992H52.4795V57.0763H75.2566V34.2992Z" fill="#C99A40"/>
<path d="M79.3911 34.7201H106.252C106.282 34.7217 106.312 34.7172 106.34 34.7068C106.368 34.6964 106.394 34.6804 106.416 34.6598C106.438 34.6391 106.455 34.6142 106.467 34.5866C106.479 34.559 106.485 34.5293 106.485 34.4993C106.485 34.4693 106.479 34.4396 106.467 34.412C106.455 34.3844 106.438 34.3595 106.416 34.3389C106.394 34.3182 106.368 34.3022 106.34 34.2918C106.312 34.2814 106.282 34.2769 106.252 34.2785H79.3911C79.3611 34.2769 79.3311 34.2814 79.3029 34.2918C79.2747 34.3022 79.249 34.3182 79.2272 34.3389C79.2054 34.3595 79.188 34.3844 79.1762 34.412C79.1643 34.4396 79.1582 34.4693 79.1582 34.4993C79.1582 34.5293 79.1643 34.559 79.1762 34.5866C79.188 34.6142 79.2054 34.6391 79.2272 34.6598C79.249 34.6804 79.2747 34.6964 79.3029 34.7068C79.3311 34.7172 79.3611 34.7217 79.3911 34.7201Z" fill="#C99A40"/>
<path d="M79.3911 37.203H106.252C106.282 37.2046 106.312 37.2001 106.34 37.1897C106.368 37.1793 106.394 37.1633 106.416 37.1427C106.438 37.122 106.455 37.0971 106.467 37.0695C106.479 37.042 106.485 37.0122 106.485 36.9822C106.485 36.9522 106.479 36.9225 106.467 36.8949C106.455 36.8673 106.438 36.8424 106.416 36.8218C106.394 36.8011 106.368 36.7851 106.34 36.7747C106.312 36.7644 106.282 36.7598 106.252 36.7614H79.3911C79.3611 36.7598 79.3311 36.7644 79.3029 36.7747C79.2747 36.7851 79.249 36.8011 79.2272 36.8218C79.2054 36.8424 79.188 36.8673 79.1762 36.8949C79.1643 36.9225 79.1582 36.9522 79.1582 36.9822C79.1582 37.0122 79.1643 37.042 79.1762 37.0695C79.188 37.0971 79.2054 37.122 79.2272 37.1427C79.249 37.1633 79.2747 37.1793 79.3029 37.1897C79.3311 37.2001 79.3611 37.2046 79.3911 37.203Z" fill="#C99A40"/>
<path d="M79.3915 39.6878H106.253C106.284 39.6919 106.315 39.6893 106.346 39.6801C106.376 39.671 106.403 39.6555 106.427 39.6347C106.451 39.614 106.47 39.5884 106.483 39.5598C106.496 39.5311 106.502 39.5 106.502 39.4685C106.502 39.4371 106.496 39.406 106.483 39.3773C106.47 39.3487 106.451 39.3231 106.427 39.3023C106.403 39.2816 106.376 39.2661 106.346 39.257C106.315 39.2478 106.284 39.2452 106.253 39.2493H79.3915C79.3603 39.2452 79.3286 39.2478 79.2985 39.257C79.2684 39.2661 79.2405 39.2816 79.2169 39.3023C79.1932 39.3231 79.1743 39.3487 79.1613 39.3773C79.1483 39.406 79.1416 39.4371 79.1416 39.4685C79.1416 39.5 79.1483 39.5311 79.1613 39.5598C79.1743 39.5884 79.1932 39.614 79.2169 39.6347C79.2405 39.6555 79.2684 39.671 79.2985 39.6801C79.3286 39.6893 79.3603 39.6919 79.3915 39.6878Z" fill="#C99A40"/>
<path d="M79.3915 42.1701H106.253C106.284 42.1742 106.315 42.1716 106.346 42.1624C106.376 42.1533 106.403 42.1378 106.427 42.117C106.451 42.0963 106.47 42.0707 106.483 42.0421C106.496 42.0134 106.502 41.9823 106.502 41.9508C106.502 41.9194 106.496 41.8883 106.483 41.8596C106.47 41.831 106.451 41.8054 106.427 41.7846C106.403 41.7639 106.376 41.7484 106.346 41.7393C106.315 41.7301 106.284 41.7275 106.253 41.7316H79.3915C79.3603 41.7275 79.3286 41.7301 79.2985 41.7393C79.2684 41.7484 79.2405 41.7639 79.2169 41.7846C79.1932 41.8054 79.1743 41.831 79.1613 41.8596C79.1483 41.8883 79.1416 41.9194 79.1416 41.9508C79.1416 41.9823 79.1483 42.0134 79.1613 42.0421C79.1743 42.0707 79.1932 42.0963 79.2169 42.117C79.2405 42.1378 79.2684 42.1533 79.2985 42.1624C79.3286 42.1716 79.3603 42.1742 79.3915 42.1701Z" fill="#C99A40"/>
<path d="M79.3915 44.6536H106.253C106.284 44.6577 106.315 44.6551 106.346 44.6459C106.376 44.6368 106.403 44.6213 106.427 44.6006C106.451 44.5798 106.47 44.5543 106.483 44.5256C106.496 44.4969 106.502 44.4658 106.502 44.4344C106.502 44.4029 106.496 44.3718 106.483 44.3431C106.47 44.3145 106.451 44.2889 106.427 44.2682C106.403 44.2474 106.376 44.2319 106.346 44.2228C106.315 44.2137 106.284 44.211 106.253 44.2151H79.3915C79.3603 44.211 79.3286 44.2137 79.2985 44.2228C79.2684 44.2319 79.2405 44.2474 79.2169 44.2682C79.1932 44.2889 79.1743 44.3145 79.1613 44.3431C79.1483 44.3718 79.1416 44.4029 79.1416 44.4344C79.1416 44.4658 79.1483 44.4969 79.1613 44.5256C79.1743 44.5543 79.1932 44.5798 79.2169 44.6006C79.2405 44.6213 79.2684 44.6368 79.2985 44.6459C79.3286 44.6551 79.3603 44.6577 79.3915 44.6536Z" fill="#C99A40"/>
<path d="M79.3915 47.1372H106.253C106.284 47.1413 106.315 47.1387 106.346 47.1295C106.376 47.1204 106.403 47.1049 106.427 47.0842C106.451 47.0634 106.47 47.0378 106.483 47.0092C106.496 46.9805 106.502 46.9494 106.502 46.9179C106.502 46.8865 106.496 46.8554 106.483 46.8267C106.47 46.7981 106.451 46.7725 106.427 46.7517C106.403 46.731 106.376 46.7155 106.346 46.7064C106.315 46.6972 106.284 46.6946 106.253 46.6987H79.3915C79.3603 46.6946 79.3286 46.6972 79.2985 46.7064C79.2684 46.7155 79.2405 46.731 79.2169 46.7517C79.1932 46.7725 79.1743 46.7981 79.1613 46.8267C79.1483 46.8554 79.1416 46.8865 79.1416 46.9179C79.1416 46.9494 79.1483 46.9805 79.1613 47.0092C79.1743 47.0378 79.1932 47.0634 79.2169 47.0842C79.2405 47.1049 79.2684 47.1204 79.2985 47.1295C79.3286 47.1387 79.3603 47.1413 79.3915 47.1372Z" fill="#C99A40"/>
<path d="M79.3911 49.6207H106.252C106.282 49.6223 106.312 49.6177 106.34 49.6074C106.368 49.597 106.394 49.581 106.416 49.5603C106.438 49.5397 106.455 49.5148 106.467 49.4872C106.479 49.4596 106.485 49.4299 106.485 49.3999C106.485 49.3698 106.479 49.3401 106.467 49.3126C106.455 49.285 106.438 49.2601 106.416 49.2394C106.394 49.2188 106.368 49.2028 106.34 49.1924C106.312 49.182 106.282 49.1775 106.252 49.1791H79.3911C79.3611 49.1775 79.3311 49.182 79.3029 49.1924C79.2747 49.2028 79.249 49.2188 79.2272 49.2394C79.2054 49.2601 79.188 49.285 79.1762 49.3126C79.1643 49.3401 79.1582 49.3698 79.1582 49.3999C79.1582 49.4299 79.1643 49.4596 79.1762 49.4872C79.188 49.5148 79.2054 49.5397 79.2272 49.5603C79.249 49.581 79.2747 49.597 79.3029 49.6074C79.3311 49.6177 79.3611 49.6223 79.3911 49.6207Z" fill="#C99A40"/>
<path d="M79.3911 52.1042H106.252C106.282 52.1058 106.312 52.1013 106.34 52.0909C106.368 52.0805 106.394 52.0645 106.416 52.0438C106.438 52.0232 106.455 51.9983 106.467 51.9707C106.479 51.9431 106.485 51.9134 106.485 51.8834C106.485 51.8534 106.479 51.8237 106.467 51.7961C106.455 51.7685 106.438 51.7436 106.416 51.7229C106.394 51.7023 106.368 51.6863 106.34 51.6759C106.312 51.6655 106.282 51.661 106.252 51.6626H79.3911C79.3611 51.661 79.3311 51.6655 79.3029 51.6759C79.2747 51.6863 79.249 51.7023 79.2272 51.7229C79.2054 51.7436 79.188 51.7685 79.1762 51.7961C79.1643 51.8237 79.1582 51.8534 79.1582 51.8834C79.1582 51.9134 79.1643 51.9431 79.1762 51.9707C79.188 51.9983 79.2054 52.0232 79.2272 52.0438C79.249 52.0645 79.2747 52.0805 79.3029 52.0909C79.3311 52.1013 79.3611 52.1058 79.3911 52.1042Z" fill="#C99A40"/>
<path d="M79.3915 54.5878H106.253C106.284 54.5919 106.315 54.5893 106.346 54.5801C106.376 54.571 106.403 54.5555 106.427 54.5348C106.451 54.514 106.47 54.4885 106.483 54.4598C106.496 54.4311 106.502 54.4 106.502 54.3686C106.502 54.3371 106.496 54.306 106.483 54.2773C106.47 54.2487 106.451 54.2231 106.427 54.2024C106.403 54.1816 106.376 54.1661 106.346 54.157C106.315 54.1479 106.284 54.1452 106.253 54.1493H79.3915C79.3603 54.1452 79.3286 54.1479 79.2985 54.157C79.2684 54.1661 79.2405 54.1816 79.2169 54.2024C79.1932 54.2231 79.1743 54.2487 79.1613 54.2773C79.1483 54.306 79.1416 54.3371 79.1416 54.3686C79.1416 54.4 79.1483 54.4311 79.1613 54.4598C79.1743 54.4885 79.1932 54.514 79.2169 54.5348C79.2405 54.5555 79.2684 54.571 79.2985 54.5801C79.3286 54.5893 79.3603 54.5919 79.3915 54.5878Z" fill="#C99A40"/>
<path d="M79.3915 57.0713H106.253C106.284 57.0754 106.315 57.0728 106.346 57.0637C106.376 57.0545 106.403 57.039 106.427 57.0183C106.451 56.9975 106.47 56.972 106.483 56.9433C106.496 56.9147 106.502 56.8836 106.502 56.8521C106.502 56.8206 106.496 56.7895 106.483 56.7609C106.47 56.7322 106.451 56.7066 106.427 56.6859C106.403 56.6651 106.376 56.6497 106.346 56.6405C106.315 56.6314 106.284 56.6288 106.253 56.6329H79.3915C79.3603 56.6288 79.3286 56.6314 79.2985 56.6405C79.2684 56.6497 79.2405 56.6651 79.2169 56.6859C79.1932 56.7066 79.1743 56.7322 79.1613 56.7609C79.1483 56.7895 79.1416 56.8206 79.1416 56.8521C79.1416 56.8836 79.1483 56.9147 79.1613 56.9433C79.1743 56.972 79.1932 56.9975 79.2169 57.0183C79.2405 57.039 79.2684 57.0545 79.2985 57.0637C79.3286 57.0728 79.3603 57.0754 79.3915 57.0713Z" fill="#C99A40"/>
<path d="M52.5297 60.1781H106.252C106.284 60.1822 106.315 60.1795 106.345 60.1704C106.375 60.1613 106.403 60.1458 106.427 60.125C106.451 60.1043 106.47 60.0787 106.483 60.0501C106.496 60.0214 106.502 59.9903 106.502 59.9588C106.502 59.9274 106.496 59.8963 106.483 59.8676C106.47 59.8389 106.451 59.8134 106.427 59.7926C106.403 59.7719 106.375 59.7564 106.345 59.7473C106.315 59.7381 106.284 59.7355 106.252 59.7396H52.5297C52.4985 59.7355 52.4667 59.7381 52.4366 59.7473C52.4065 59.7564 52.3787 59.7719 52.3551 59.7926C52.3314 59.8134 52.3125 59.8389 52.2995 59.8676C52.2865 59.8963 52.2798 59.9274 52.2798 59.9588C52.2798 59.9903 52.2865 60.0214 52.2995 60.0501C52.3125 60.0787 52.3314 60.1043 52.3551 60.125C52.3787 60.1458 52.4065 60.1613 52.4366 60.1704C52.4667 60.1795 52.4985 60.1822 52.5297 60.1781Z" fill="#C99A40"/>
<path d="M52.5297 62.6616H106.252C106.284 62.6657 106.315 62.6631 106.345 62.6539C106.375 62.6448 106.403 62.6293 106.427 62.6086C106.451 62.5878 106.47 62.5623 106.483 62.5336C106.496 62.5049 106.502 62.4738 106.502 62.4424C106.502 62.4109 106.496 62.3798 106.483 62.3511C106.47 62.3225 106.451 62.2969 106.427 62.2762C106.403 62.2554 106.375 62.2399 106.345 62.2308C106.315 62.2216 106.284 62.219 106.252 62.2231H52.5297C52.4985 62.219 52.4667 62.2216 52.4366 62.2308C52.4065 62.2399 52.3787 62.2554 52.3551 62.2762C52.3314 62.2969 52.3125 62.3225 52.2995 62.3511C52.2865 62.3798 52.2798 62.4109 52.2798 62.4424C52.2798 62.4738 52.2865 62.5049 52.2995 62.5336C52.3125 62.5623 52.3314 62.5878 52.3551 62.6086C52.3787 62.6293 52.4065 62.6448 52.4366 62.6539C52.4667 62.6631 52.4985 62.6657 52.5297 62.6616Z" fill="#C99A40"/>
<path d="M52.5297 65.1452H106.252C106.284 65.1493 106.315 65.1467 106.345 65.1375C106.375 65.1284 106.403 65.1129 106.427 65.0921C106.451 65.0714 106.47 65.0458 106.483 65.0172C106.496 64.9885 106.502 64.9574 106.502 64.9259C106.502 64.8945 106.496 64.8634 106.483 64.8347C106.47 64.8061 106.451 64.7805 106.427 64.7597C106.403 64.739 106.375 64.7235 106.345 64.7144C106.315 64.7052 106.284 64.7026 106.252 64.7067H52.5297C52.4985 64.7026 52.4667 64.7052 52.4366 64.7144C52.4065 64.7235 52.3787 64.739 52.3551 64.7597C52.3314 64.7805 52.3125 64.8061 52.2995 64.8347C52.2865 64.8634 52.2798 64.8945 52.2798 64.9259C52.2798 64.9574 52.2865 64.9885 52.2995 65.0172C52.3125 65.0458 52.3314 65.0714 52.3551 65.0921C52.3787 65.1129 52.4065 65.1284 52.4366 65.1375C52.4667 65.1467 52.4985 65.1493 52.5297 65.1452Z" fill="#C99A40"/>
<path d="M52.5297 67.6287H106.252C106.282 67.6303 106.312 67.6257 106.341 67.6154C106.369 67.605 106.395 67.589 106.416 67.5683C106.438 67.5477 106.455 67.5228 106.467 67.4952C106.479 67.4676 106.485 67.4379 106.485 67.4079C106.485 67.3778 106.479 67.3481 106.467 67.3205C106.455 67.293 106.438 67.2681 106.416 67.2474C106.395 67.2268 106.369 67.2108 106.341 67.2004C106.312 67.19 106.282 67.1855 106.252 67.1871H52.5297C52.4998 67.1855 52.4698 67.19 52.4416 67.2004C52.4134 67.2108 52.3876 67.2268 52.3659 67.2474C52.3441 67.2681 52.3267 67.293 52.3149 67.3205C52.303 67.3481 52.2969 67.3778 52.2969 67.4079C52.2969 67.4379 52.303 67.4676 52.3149 67.4952C52.3267 67.5228 52.3441 67.5477 52.3659 67.5683C52.3876 67.589 52.4134 67.605 52.4416 67.6154C52.4698 67.6257 52.4998 67.6303 52.5297 67.6287Z" fill="#C99A40"/>
<path d="M52.5297 70.1122H106.252C106.282 70.1138 106.312 70.1093 106.341 70.0989C106.369 70.0885 106.395 70.0725 106.416 70.0518C106.438 70.0312 106.455 70.0063 106.467 69.9787C106.479 69.9511 106.485 69.9214 106.485 69.8914C106.485 69.8614 106.479 69.8317 106.467 69.8041C106.455 69.7765 106.438 69.7516 106.416 69.7309C106.395 69.7103 106.369 69.6943 106.341 69.6839C106.312 69.6735 106.282 69.669 106.252 69.6706H52.5297C52.4998 69.669 52.4698 69.6735 52.4416 69.6839C52.4134 69.6943 52.3876 69.7103 52.3659 69.7309C52.3441 69.7516 52.3267 69.7765 52.3149 69.8041C52.303 69.8317 52.2969 69.8614 52.2969 69.8914C52.2969 69.9214 52.303 69.9511 52.3149 69.9787C52.3267 70.0063 52.3441 70.0312 52.3659 70.0518C52.3876 70.0725 52.4134 70.0885 52.4416 70.0989C52.4698 70.1093 52.4998 70.1138 52.5297 70.1122Z" fill="#C99A40"/>
<path d="M52.5297 72.5957H106.252C106.282 72.5973 106.312 72.5928 106.341 72.5824C106.369 72.572 106.395 72.556 106.416 72.5354C106.438 72.5147 106.455 72.4898 106.467 72.4622C106.479 72.4347 106.485 72.4049 106.485 72.3749C106.485 72.3449 106.479 72.3152 106.467 72.2876C106.455 72.26 106.438 72.2351 106.416 72.2145C106.395 72.1938 106.369 72.1778 106.341 72.1674C106.312 72.1571 106.282 72.1525 106.252 72.1541H52.5297C52.4998 72.1525 52.4698 72.1571 52.4416 72.1674C52.4134 72.1778 52.3876 72.1938 52.3659 72.2145C52.3441 72.2351 52.3267 72.26 52.3149 72.2876C52.303 72.3152 52.2969 72.3449 52.2969 72.3749C52.2969 72.4049 52.303 72.4347 52.3149 72.4622C52.3267 72.4898 52.3441 72.5147 52.3659 72.5354C52.3876 72.556 52.4134 72.572 52.4416 72.5824C52.4698 72.5928 52.4998 72.5973 52.5297 72.5957Z" fill="#C99A40"/>
<path d="M52.5297 75.0774H106.252C106.284 75.0815 106.315 75.0789 106.345 75.0698C106.375 75.0606 106.403 75.0451 106.427 75.0244C106.451 75.0036 106.47 74.9781 106.483 74.9494C106.496 74.9208 106.502 74.8897 106.502 74.8582C106.502 74.8267 106.496 74.7956 106.483 74.767C106.47 74.7383 106.451 74.7127 106.427 74.692C106.403 74.6712 106.375 74.6558 106.345 74.6466C106.315 74.6375 106.284 74.6349 106.252 74.639H52.5297C52.4985 74.6349 52.4667 74.6375 52.4366 74.6466C52.4065 74.6558 52.3787 74.6712 52.3551 74.692C52.3314 74.7127 52.3125 74.7383 52.2995 74.767C52.2865 74.7956 52.2798 74.8267 52.2798 74.8582C52.2798 74.8897 52.2865 74.9208 52.2995 74.9494C52.3125 74.9781 52.3314 75.0036 52.3551 75.0244C52.3787 75.0451 52.4065 75.0606 52.4366 75.0698C52.4667 75.0789 52.4985 75.0815 52.5297 75.0774Z" fill="#C99A40"/>
<path d="M52.5297 77.5622H106.252C106.282 77.5638 106.312 77.5593 106.341 77.5489C106.369 77.5385 106.395 77.5225 106.416 77.5019C106.438 77.4812 106.455 77.4563 106.467 77.4287C106.479 77.4011 106.485 77.3714 106.485 77.3414C106.485 77.3114 106.479 77.2817 106.467 77.2541C106.455 77.2265 106.438 77.2016 106.416 77.181C106.395 77.1603 106.369 77.1443 106.341 77.1339C106.312 77.1235 106.282 77.119 106.252 77.1206H52.5297C52.4998 77.119 52.4698 77.1235 52.4416 77.1339C52.4134 77.1443 52.3876 77.1603 52.3659 77.181C52.3441 77.2016 52.3267 77.2265 52.3149 77.2541C52.303 77.2817 52.2969 77.3114 52.2969 77.3414C52.2969 77.3714 52.303 77.4011 52.3149 77.4287C52.3267 77.4563 52.3441 77.4812 52.3659 77.5019C52.3876 77.5225 52.4134 77.5385 52.4416 77.5489C52.4698 77.5593 52.4998 77.5638 52.5297 77.5622Z" fill="#C99A40"/>
<path d="M52.5297 80.0464H106.252C106.284 80.0504 106.315 80.0478 106.345 80.0387C106.375 80.0295 106.403 80.0141 106.427 79.9933C106.451 79.9726 106.47 79.947 106.483 79.9184C106.496 79.8897 106.502 79.8586 106.502 79.8271C106.502 79.7957 106.496 79.7646 106.483 79.7359C106.47 79.7072 106.451 79.6817 106.427 79.6609C106.403 79.6402 106.375 79.6247 106.345 79.6156C106.315 79.6064 106.284 79.6038 106.252 79.6079H52.5297C52.4985 79.6038 52.4667 79.6064 52.4366 79.6156C52.4065 79.6247 52.3787 79.6402 52.3551 79.6609C52.3314 79.6817 52.3125 79.7072 52.2995 79.7359C52.2865 79.7646 52.2798 79.7957 52.2798 79.8271C52.2798 79.8586 52.2865 79.8897 52.2995 79.9184C52.3125 79.947 52.3314 79.9726 52.3551 79.9933C52.3787 80.0141 52.4065 80.0295 52.4366 80.0387C52.4667 80.0478 52.4985 80.0504 52.5297 80.0464Z" fill="#C99A40"/>
<path d="M52.5297 82.5312H106.252C106.284 82.5352 106.315 82.5326 106.345 82.5235C106.375 82.5144 106.403 82.4989 106.427 82.4781C106.451 82.4574 106.47 82.4318 106.483 82.4032C106.496 82.3745 106.502 82.3434 106.502 82.3119C106.502 82.2805 106.496 82.2494 106.483 82.2207C106.47 82.192 106.451 82.1665 106.427 82.1457C106.403 82.125 106.375 82.1095 106.345 82.1004C106.315 82.0912 106.284 82.0886 106.252 82.0927H52.5297C52.4985 82.0886 52.4667 82.0912 52.4366 82.1004C52.4065 82.1095 52.3787 82.125 52.3551 82.1457C52.3314 82.1665 52.3125 82.192 52.2995 82.2207C52.2865 82.2494 52.2798 82.2805 52.2798 82.3119C52.2798 82.3434 52.2865 82.3745 52.2995 82.4032C52.3125 82.4318 52.3314 82.4574 52.3551 82.4781C52.3787 82.4989 52.4065 82.5144 52.4366 82.5235C52.4667 82.5326 52.4985 82.5352 52.5297 82.5312Z" fill="#C99A40"/>
<path d="M79.0184 95.6598H106.252C106.283 95.6638 106.315 95.6612 106.345 95.6521C106.375 95.643 106.403 95.6275 106.427 95.6067C106.45 95.586 106.469 95.5604 106.482 95.5318C106.495 95.5031 106.502 95.472 106.502 95.4405C106.502 95.4091 106.495 95.378 106.482 95.3493C106.469 95.3206 106.45 95.2951 106.427 95.2743C106.403 95.2536 106.375 95.2381 106.345 95.229C106.315 95.2198 106.283 95.2172 106.252 95.2213H79.0184C78.9872 95.2172 78.9555 95.2198 78.9254 95.229C78.8953 95.2381 78.8675 95.2536 78.8438 95.2743C78.8202 95.2951 78.8012 95.3206 78.7883 95.3493C78.7753 95.378 78.7686 95.4091 78.7686 95.4405C78.7686 95.472 78.7753 95.5031 78.7883 95.5318C78.8012 95.5604 78.8202 95.586 78.8438 95.6067C78.8675 95.6275 78.8953 95.643 78.9254 95.6521C78.9555 95.6612 78.9872 95.6638 79.0184 95.6598Z" fill="#C99A40"/>
<path d="M79.0184 98.1427H106.252C106.283 98.1468 106.315 98.1441 106.345 98.135C106.375 98.1259 106.403 98.1104 106.427 98.0896C106.45 98.0689 106.469 98.0433 106.482 98.0147C106.495 97.986 106.502 97.9549 106.502 97.9234C106.502 97.892 106.495 97.8609 106.482 97.8322C106.469 97.8035 106.45 97.778 106.427 97.7572C106.403 97.7365 106.375 97.721 106.345 97.7119C106.315 97.7027 106.283 97.7001 106.252 97.7042H79.0184C78.9872 97.7001 78.9555 97.7027 78.9254 97.7119C78.8953 97.721 78.8675 97.7365 78.8438 97.7572C78.8202 97.778 78.8012 97.8035 78.7883 97.8322C78.7753 97.8609 78.7686 97.892 78.7686 97.9234C78.7686 97.9549 78.7753 97.986 78.7883 98.0147C78.8012 98.0433 78.8202 98.0689 78.8438 98.0896C78.8675 98.1104 78.8953 98.1259 78.9254 98.135C78.9555 98.1441 78.9872 98.1468 79.0184 98.1427Z" fill="#C99A40"/>
<path d="M79.0185 100.627H106.252C106.311 100.627 106.367 100.603 106.409 100.562C106.45 100.521 106.473 100.464 106.473 100.406C106.473 100.347 106.45 100.291 106.409 100.249C106.367 100.208 106.311 100.185 106.252 100.185H79.0185C78.9894 100.185 78.9607 100.19 78.9339 100.201C78.907 100.213 78.8827 100.229 78.8621 100.249C78.8416 100.27 78.8253 100.294 78.8142 100.321C78.8031 100.348 78.7974 100.377 78.7974 100.406C78.7974 100.435 78.8031 100.463 78.8142 100.49C78.8253 100.517 78.8416 100.541 78.8621 100.562C78.8827 100.583 78.907 100.599 78.9339 100.61C78.9607 100.621 78.9894 100.627 79.0185 100.627Z" fill="#C99A40"/>
</g>
<path d="M34 108.499C34.0014 109.836 34.3188 111.154 34.9263 112.346C35.5338 113.537 36.4143 114.568 37.4959 115.355L37.4971 115.356C38.1934 115.866 38.9637 116.267 39.7812 116.545L39.8431 116.568C40.3035 116.718 40.776 116.828 41.2554 116.897C41.6666 116.963 42.0823 116.997 42.4988 117H42.5C42.925 117 43.3379 116.959 43.7471 116.898L43.9681 116.864C44.3761 116.792 44.7744 116.695 45.1593 116.569L45.2103 116.549C48.5714 115.413 51 112.238 51 108.499C51 103.813 47.1871 100 42.5 100C37.8129 100 34 103.813 34 108.499ZM42.5 102.429C45.8466 102.429 48.5714 105.151 48.5714 108.499H46.1429C46.1416 107.533 45.7573 106.607 45.0744 105.925C44.3915 105.242 43.4656 104.858 42.5 104.857V102.429ZM37.0612 117.965V124.286L42.5 122.464L47.9388 124.286L47.94 117.965C46.2873 118.923 44.4109 119.428 42.5006 119.428C40.5903 119.428 38.7139 118.923 37.0612 117.965Z" fill="#261229"/>
<path d="M42.5 102.429C45.8466 102.429 48.5714 105.151 48.5714 108.499H46.1429C46.1416 107.533 45.7573 106.607 45.0744 105.925C44.3915 105.242 43.4656 104.858 42.5 104.857V102.429Z" fill="#D5A448"/>
<defs>
<filter id="filter0_d_640_158" x="0.669508" y="1.4561" width="85.9876" height="116.732" filterUnits="userSpaceOnUse" color-interpolation-filters="sRGB">
<feFlood flood-opacity="0" result="BackgroundImageFix"/>
<feColorMatrix in="SourceAlpha" type="matrix" values="0 0 0 0 0 0 0 0 0 0 0 0 0 0 0 0 0 0 127 0" result="hardAlpha"/>
<feOffset dy="3.02927"/>
<feGaussianBlur stdDeviation="4.16525"/>
<feComposite in2="hardAlpha" operator="out"/>
<feColorMatrix type="matrix" values="0 0 0 0 0 0 0 0 0 0 0 0 0 0 0 0 0 0 0.08 0"/>
<feBlend mode="normal" in2="BackgroundImageFix" result="effect1_dropShadow_640_158"/>
<feBlend mode="normal" in="SourceGraphic" in2="effect1_dropShadow_640_158" result="shape"/>
</filter>
<filter id="filter1_d_640_158" x="80.6695" y="0.698778" width="85.9876" height="116.732" filterUnits="userSpaceOnUse" color-interpolation-filters="sRGB">
<feFlood flood-opacity="0" result="BackgroundImageFix"/>
<feColorMatrix in="SourceAlpha" type="matrix" values="0 0 0 0 0 0 0 0 0 0 0 0 0 0 0 0 0 0 127 0" result="hardAlpha"/>
<feOffset dy="3.02927"/>
<feGaussianBlur stdDeviation="4.16525"/>
<feComposite in2="hardAlpha" operator="out"/>
<feColorMatrix type="matrix" values="0 0 0 0 0 0 0 0 0 0 0 0 0 0 0 0 0 0 0.08 0"/>
<feBlend mode="normal" in2="BackgroundImageFix" result="effect1_dropShadow_640_158"/>
<feBlend mode="normal" in="SourceGraphic" in2="effect1_dropShadow_640_158" result="shape"/>
</filter>
<filter id="filter2_d_640_158" x="30.4395" y="1.3103" width="97.1587" height="127.829" filterUnits="userSpaceOnUse" color-interpolation-filters="sRGB">
<feFlood flood-opacity="0" result="BackgroundImageFix"/>
<feColorMatrix in="SourceAlpha" type="matrix" values="0 0 0 0 0 0 0 0 0 0 0 0 0 0 0 0 0 0 127 0" result="hardAlpha"/>
<feOffset/>
<feGaussianBlur stdDeviation="7"/>
<feComposite in2="hardAlpha" operator="out"/>
<feColorMatrix type="matrix" values="0 0 0 0 0 0 0 0 0 0 0 0 0 0 0 0 0 0 0.19 0"/>
<feBlend mode="normal" in2="BackgroundImageFix" result="effect1_dropShadow_640_158"/>
<feBlend mode="normal" in="SourceGraphic" in2="effect1_dropShadow_640_158" result="shape"/>
</filter>
<linearGradient id="paint0_linear_640_158" x1="81.4659" y1="40" x2="81.4659" y2="125" gradientUnits="userSpaceOnUse">
<stop stop-color="#FFDD9A"/>
<stop offset="1" stop-color="#F5AA19"/>
</linearGradient>
<clipPath id="clip0_640_158">
<rect width="69.3268" height="100.071" fill="white" transform="translate(9 6.75732)"/>
</clipPath>
<clipPath id="clip1_640_158">
<rect width="69.3268" height="100.071" fill="white" transform="translate(89 6)"/>
</clipPath>
<clipPath id="clip2_640_158">
<rect width="69.1588" height="99.8288" fill="white" transform="translate(44.4395 15.3103)"/>
</clipPath>
</defs>
</svg>
