<svg width="105" height="118" viewBox="0 0 105 118" fill="none" xmlns="http://www.w3.org/2000/svg">
<path d="M102.329 37.446C102.329 63.5136 122.719 113.993 48.3326 113.993C0 108.706 0 92.211 0 66.1434C10.9503 41.1165 20.3881 57.081 48.3326 57.081C76.2771 57.081 102.329 11.3783 102.329 37.446Z" fill="url(#paint0_linear_640_158)" fill-opacity="0.51"/>
<g clip-path="url(#clip0_640_158)" filter="url(#filter0_d_640_158)">
<path d="M25.8893 6L16.9316 14.9583V105.829H86.0905V6H25.8893Z" fill="#FEE7BA"/>
<path d="M16.9316 14.9583H25.8548V6L16.9316 14.9583Z" fill="#FFDE9E"/>
<path d="M47.7488 24.9889H24.9717V47.766H47.7488V24.9889Z" fill="#C99A40"/>
<path d="M51.8833 25.4098H78.7443C78.7743 25.4114 78.8043 25.4069 78.8324 25.3965C78.8606 25.3861 78.8864 25.3701 78.9082 25.3495C78.93 25.3288 78.9473 25.3039 78.9592 25.2763C78.971 25.2487 78.9772 25.219 78.9772 25.189C78.9772 25.159 78.971 25.1293 78.9592 25.1017C78.9473 25.0741 78.93 25.0492 78.9082 25.0285C78.8864 25.0079 78.8606 24.9919 78.8324 24.9815C78.8043 24.9711 78.7743 24.9666 78.7443 24.9682H51.8833C51.8533 24.9666 51.8233 24.9711 51.7951 24.9815C51.7669 24.9919 51.7412 25.0079 51.7194 25.0285C51.6976 25.0492 51.6802 25.0741 51.6684 25.1017C51.6565 25.1293 51.6504 25.159 51.6504 25.189C51.6504 25.219 51.6565 25.2487 51.6684 25.2763C51.6802 25.3039 51.6976 25.3288 51.7194 25.3495C51.7412 25.3701 51.7669 25.3861 51.7951 25.3965C51.8233 25.4069 51.8533 25.4114 51.8833 25.4098Z" fill="#C99A40"/>
<path d="M51.8833 27.8927H78.7443C78.7743 27.8943 78.8043 27.8898 78.8324 27.8794C78.8606 27.869 78.8864 27.853 78.9082 27.8324C78.93 27.8117 78.9473 27.7868 78.9592 27.7592C78.971 27.7317 78.9772 27.7019 78.9772 27.6719C78.9772 27.6419 78.971 27.6122 78.9592 27.5846C78.9473 27.557 78.93 27.5321 78.9082 27.5115C78.8864 27.4908 78.8606 27.4748 78.8324 27.4644C78.8043 27.454 78.7743 27.4495 78.7443 27.4511H51.8833C51.8533 27.4495 51.8233 27.454 51.7951 27.4644C51.7669 27.4748 51.7412 27.4908 51.7194 27.5115C51.6976 27.5321 51.6802 27.557 51.6684 27.5846C51.6565 27.6122 51.6504 27.6419 51.6504 27.6719C51.6504 27.7019 51.6565 27.7317 51.6684 27.7592C51.6802 27.7868 51.6976 27.8117 51.7194 27.8324C51.7412 27.853 51.7669 27.869 51.7951 27.8794C51.8233 27.8898 51.8533 27.8943 51.8833 27.8927Z" fill="#C99A40"/>
<path d="M51.8832 30.3775H78.7442C78.7754 30.3816 78.8071 30.379 78.8372 30.3698C78.8673 30.3607 78.8951 30.3452 78.9188 30.3244C78.9424 30.3037 78.9614 30.2781 78.9744 30.2495C78.9874 30.2208 78.9941 30.1897 78.9941 30.1582C78.9941 30.1268 78.9874 30.0957 78.9744 30.067C78.9614 30.0383 78.9424 30.0128 78.9188 29.992C78.8951 29.9713 78.8673 29.9558 78.8372 29.9467C78.8071 29.9375 78.7754 29.9349 78.7442 29.939H51.8832C51.852 29.9349 51.8203 29.9375 51.7902 29.9467C51.7601 29.9558 51.7322 29.9713 51.7086 29.992C51.6849 30.0128 51.666 30.0383 51.653 30.067C51.64 30.0957 51.6333 30.1268 51.6333 30.1582C51.6333 30.1897 51.64 30.2208 51.653 30.2495C51.666 30.2781 51.6849 30.3037 51.7086 30.3244C51.7322 30.3452 51.7601 30.3607 51.7902 30.3698C51.8203 30.379 51.852 30.3816 51.8832 30.3775Z" fill="#C99A40"/>
<path d="M51.8832 32.8598H78.7442C78.7754 32.8639 78.8071 32.8613 78.8372 32.8521C78.8673 32.843 78.8951 32.8275 78.9188 32.8067C78.9424 32.786 78.9614 32.7604 78.9744 32.7318C78.9874 32.7031 78.9941 32.672 78.9941 32.6405C78.9941 32.6091 78.9874 32.578 78.9744 32.5493C78.9614 32.5206 78.9424 32.4951 78.9188 32.4743C78.8951 32.4536 78.8673 32.4381 78.8372 32.429C78.8071 32.4198 78.7754 32.4172 78.7442 32.4213H51.8832C51.852 32.4172 51.8203 32.4198 51.7902 32.429C51.7601 32.4381 51.7322 32.4536 51.7086 32.4743C51.6849 32.4951 51.666 32.5206 51.653 32.5493C51.64 32.578 51.6333 32.6091 51.6333 32.6405C51.6333 32.672 51.64 32.7031 51.653 32.7318C51.666 32.7604 51.6849 32.786 51.7086 32.8067C51.7322 32.8275 51.7601 32.843 51.7902 32.8521C51.8203 32.8613 51.852 32.8639 51.8832 32.8598Z" fill="#C99A40"/>
<path d="M51.8832 35.3433H78.7442C78.7754 35.3474 78.8071 35.3448 78.8372 35.3356C78.8673 35.3265 78.8951 35.311 78.9188 35.2903C78.9424 35.2695 78.9614 35.244 78.9744 35.2153C78.9874 35.1866 78.9941 35.1555 78.9941 35.1241C78.9941 35.0926 78.9874 35.0615 78.9744 35.0328C78.9614 35.0042 78.9424 34.9786 78.9188 34.9579C78.8951 34.9371 78.8673 34.9216 78.8372 34.9125C78.8071 34.9034 78.7754 34.9007 78.7442 34.9048H51.8832C51.852 34.9007 51.8203 34.9034 51.7902 34.9125C51.7601 34.9216 51.7322 34.9371 51.7086 34.9579C51.6849 34.9786 51.666 35.0042 51.653 35.0328C51.64 35.0615 51.6333 35.0926 51.6333 35.1241C51.6333 35.1555 51.64 35.1866 51.653 35.2153C51.666 35.244 51.6849 35.2695 51.7086 35.2903C51.7322 35.311 51.7601 35.3265 51.7902 35.3356C51.8203 35.3448 51.852 35.3474 51.8832 35.3433Z" fill="#C99A40"/>
<path d="M51.8832 37.8269H78.7442C78.7754 37.831 78.8071 37.8284 78.8372 37.8192C78.8673 37.8101 78.8951 37.7946 78.9188 37.7738C78.9424 37.7531 78.9614 37.7275 78.9744 37.6989C78.9874 37.6702 78.9941 37.6391 78.9941 37.6076C78.9941 37.5762 78.9874 37.5451 78.9744 37.5164C78.9614 37.4878 78.9424 37.4622 78.9188 37.4414C78.8951 37.4207 78.8673 37.4052 78.8372 37.3961C78.8071 37.3869 78.7754 37.3843 78.7442 37.3884H51.8832C51.852 37.3843 51.8203 37.3869 51.7902 37.3961C51.7601 37.4052 51.7322 37.4207 51.7086 37.4414C51.6849 37.4622 51.666 37.4878 51.653 37.5164C51.64 37.5451 51.6333 37.5762 51.6333 37.6076C51.6333 37.6391 51.64 37.6702 51.653 37.6989C51.666 37.7275 51.6849 37.7531 51.7086 37.7738C51.7322 37.7946 51.7601 37.8101 51.7902 37.8192C51.8203 37.8284 51.852 37.831 51.8832 37.8269Z" fill="#C99A40"/>
<path d="M51.8833 40.3104H78.7443C78.7743 40.312 78.8043 40.3074 78.8324 40.2971C78.8606 40.2867 78.8864 40.2707 78.9082 40.25C78.93 40.2294 78.9473 40.2045 78.9592 40.1769C78.971 40.1493 78.9772 40.1196 78.9772 40.0896C78.9772 40.0595 78.971 40.0298 78.9592 40.0022C78.9473 39.9747 78.93 39.9498 78.9082 39.9291C78.8864 39.9085 78.8606 39.8925 78.8324 39.8821C78.8043 39.8717 78.7743 39.8672 78.7443 39.8688H51.8833C51.8533 39.8672 51.8233 39.8717 51.7951 39.8821C51.7669 39.8925 51.7412 39.9085 51.7194 39.9291C51.6976 39.9498 51.6802 39.9747 51.6684 40.0022C51.6565 40.0298 51.6504 40.0595 51.6504 40.0896C51.6504 40.1196 51.6565 40.1493 51.6684 40.1769C51.6802 40.2045 51.6976 40.2294 51.7194 40.25C51.7412 40.2707 51.7669 40.2867 51.7951 40.2971C51.8233 40.3074 51.8533 40.312 51.8833 40.3104Z" fill="#C99A40"/>
<path d="M51.8833 42.7939H78.7443C78.7743 42.7955 78.8043 42.791 78.8324 42.7806C78.8606 42.7702 78.8864 42.7542 78.9082 42.7335C78.93 42.7129 78.9473 42.688 78.9592 42.6604C78.971 42.6328 78.9772 42.6031 78.9772 42.5731C78.9772 42.5431 78.971 42.5134 78.9592 42.4858C78.9473 42.4582 78.93 42.4333 78.9082 42.4126C78.8864 42.392 78.8606 42.376 78.8324 42.3656C78.8043 42.3552 78.7743 42.3507 78.7443 42.3523H51.8833C51.8533 42.3507 51.8233 42.3552 51.7951 42.3656C51.7669 42.376 51.7412 42.392 51.7194 42.4126C51.6976 42.4333 51.6802 42.4582 51.6684 42.4858C51.6565 42.5134 51.6504 42.5431 51.6504 42.5731C51.6504 42.6031 51.6565 42.6328 51.6684 42.6604C51.6802 42.688 51.6976 42.7129 51.7194 42.7335C51.7412 42.7542 51.7669 42.7702 51.7951 42.7806C51.8233 42.791 51.8533 42.7955 51.8833 42.7939Z" fill="#C99A40"/>
<path d="M51.8832 45.2775H78.7442C78.7754 45.2816 78.8071 45.279 78.8372 45.2698C78.8673 45.2607 78.8951 45.2452 78.9188 45.2245C78.9424 45.2037 78.9614 45.1782 78.9744 45.1495C78.9874 45.1208 78.9941 45.0897 78.9941 45.0583C78.9941 45.0268 78.9874 44.9957 78.9744 44.967C78.9614 44.9384 78.9424 44.9128 78.9188 44.8921C78.8951 44.8713 78.8673 44.8558 78.8372 44.8467C78.8071 44.8376 78.7754 44.8349 78.7442 44.839H51.8832C51.852 44.8349 51.8203 44.8376 51.7902 44.8467C51.7601 44.8558 51.7322 44.8713 51.7086 44.8921C51.6849 44.9128 51.666 44.9384 51.653 44.967C51.64 44.9957 51.6333 45.0268 51.6333 45.0583C51.6333 45.0897 51.64 45.1208 51.653 45.1495C51.666 45.1782 51.6849 45.2037 51.7086 45.2245C51.7322 45.2452 51.7601 45.2607 51.7902 45.2698C51.8203 45.279 51.852 45.2816 51.8832 45.2775Z" fill="#C99A40"/>
<path d="M51.8832 47.761H78.7442C78.7754 47.765 78.8071 47.7624 78.8372 47.7533C78.8673 47.7441 78.8951 47.7287 78.9188 47.7079C78.9424 47.6872 78.9614 47.6616 78.9744 47.633C78.9874 47.6043 78.9941 47.5732 78.9941 47.5417C78.9941 47.5103 78.9874 47.4792 78.9744 47.4505C78.9614 47.4218 78.9424 47.3963 78.9188 47.3755C78.8951 47.3548 78.8673 47.3393 78.8372 47.3302C78.8071 47.321 78.7754 47.3184 78.7442 47.3225H51.8832C51.852 47.3184 51.8203 47.321 51.7902 47.3302C51.7601 47.3393 51.7322 47.3548 51.7086 47.3755C51.6849 47.3963 51.666 47.4218 51.653 47.4505C51.64 47.4792 51.6333 47.5103 51.6333 47.5417C51.6333 47.5732 51.64 47.6043 51.653 47.633C51.666 47.6616 51.6849 47.6872 51.7086 47.7079C51.7322 47.7287 51.7601 47.7441 51.7902 47.7533C51.8203 47.7624 51.852 47.765 51.8832 47.761Z" fill="#C99A40"/>
<path d="M25.0218 50.8678H78.7445C78.7757 50.8719 78.8074 50.8692 78.8376 50.8601C78.8677 50.851 78.8955 50.8355 78.9191 50.8147C78.9428 50.794 78.9617 50.7684 78.9747 50.7398C78.9877 50.7111 78.9944 50.68 78.9944 50.6485C78.9944 50.6171 78.9877 50.586 78.9747 50.5573C78.9617 50.5286 78.9428 50.5031 78.9191 50.4823C78.8955 50.4616 78.8677 50.4461 78.8376 50.437C78.8074 50.4278 78.7757 50.4252 78.7445 50.4293H25.0218C24.9906 50.4252 24.9589 50.4278 24.9288 50.437C24.8987 50.4461 24.8709 50.4616 24.8473 50.4823C24.8236 50.5031 24.8047 50.5286 24.7917 50.5573C24.7787 50.586 24.772 50.6171 24.772 50.6485C24.772 50.68 24.7787 50.7111 24.7917 50.7398C24.8047 50.7684 24.8236 50.794 24.8473 50.8147C24.8709 50.8355 24.8987 50.851 24.9288 50.8601C24.9589 50.8692 24.9906 50.8719 25.0218 50.8678Z" fill="#C99A40"/>
<path d="M25.0218 53.3513H78.7445C78.7757 53.3554 78.8074 53.3528 78.8376 53.3436C78.8677 53.3345 78.8955 53.319 78.9191 53.2983C78.9428 53.2775 78.9617 53.2519 78.9747 53.2233C78.9877 53.1946 78.9944 53.1635 78.9944 53.1321C78.9944 53.1006 78.9877 53.0695 78.9747 53.0408C78.9617 53.0122 78.9428 52.9866 78.9191 52.9659C78.8955 52.9451 78.8677 52.9296 78.8376 52.9205C78.8074 52.9113 78.7757 52.9087 78.7445 52.9128H25.0218C24.9906 52.9087 24.9589 52.9113 24.9288 52.9205C24.8987 52.9296 24.8709 52.9451 24.8473 52.9659C24.8236 52.9866 24.8047 53.0122 24.7917 53.0408C24.7787 53.0695 24.772 53.1006 24.772 53.1321C24.772 53.1635 24.7787 53.1946 24.7917 53.2233C24.8047 53.2519 24.8236 53.2775 24.8473 53.2983C24.8709 53.319 24.8987 53.3345 24.9288 53.3436C24.9589 53.3528 24.9906 53.3554 25.0218 53.3513Z" fill="#C99A40"/>
<path d="M25.0218 55.8348H78.7445C78.7757 55.8389 78.8074 55.8363 78.8376 55.8271C78.8677 55.818 78.8955 55.8025 78.9191 55.7818C78.9428 55.761 78.9617 55.7355 78.9747 55.7068C78.9877 55.6781 78.9944 55.647 78.9944 55.6156C78.9944 55.5841 78.9877 55.553 78.9747 55.5243C78.9617 55.4957 78.9428 55.4701 78.9191 55.4494C78.8955 55.4286 78.8677 55.4132 78.8376 55.404C78.8074 55.3949 78.7757 55.3923 78.7445 55.3963H25.0218C24.9906 55.3923 24.9589 55.3949 24.9288 55.404C24.8987 55.4132 24.8709 55.4286 24.8473 55.4494C24.8236 55.4701 24.8047 55.4957 24.7917 55.5243C24.7787 55.553 24.772 55.5841 24.772 55.6156C24.772 55.647 24.7787 55.6781 24.7917 55.7068C24.8047 55.7355 24.8236 55.761 24.8473 55.7818C24.8709 55.8025 24.8987 55.818 24.9288 55.8271C24.9589 55.8363 24.9906 55.8389 25.0218 55.8348Z" fill="#C99A40"/>
<path d="M25.0219 58.3184H78.7446C78.7746 58.32 78.8046 58.3154 78.8328 58.3051C78.861 58.2947 78.8867 58.2787 78.9085 58.258C78.9303 58.2374 78.9477 58.2125 78.9595 58.1849C78.9714 58.1573 78.9775 58.1276 78.9775 58.0976C78.9775 58.0675 78.9714 58.0378 78.9595 58.0102C78.9477 57.9827 78.9303 57.9578 78.9085 57.9371C78.8867 57.9165 78.861 57.9005 78.8328 57.8901C78.8046 57.8797 78.7746 57.8752 78.7446 57.8768H25.0219C24.992 57.8752 24.962 57.8797 24.9338 57.8901C24.9056 57.9005 24.8798 57.9165 24.858 57.9371C24.8363 57.9578 24.8189 57.9827 24.807 58.0102C24.7952 58.0378 24.7891 58.0675 24.7891 58.0976C24.7891 58.1276 24.7952 58.1573 24.807 58.1849C24.8189 58.2125 24.8363 58.2374 24.858 58.258C24.8798 58.2787 24.9056 58.2947 24.9338 58.3051C24.962 58.3154 24.992 58.32 25.0219 58.3184Z" fill="#C99A40"/>
<path d="M25.0219 60.8019H78.7446C78.7746 60.8035 78.8046 60.799 78.8328 60.7886C78.861 60.7782 78.8867 60.7622 78.9085 60.7415C78.9303 60.7209 78.9477 60.696 78.9595 60.6684C78.9714 60.6408 78.9775 60.6111 78.9775 60.5811C78.9775 60.5511 78.9714 60.5214 78.9595 60.4938C78.9477 60.4662 78.9303 60.4413 78.9085 60.4206C78.8867 60.4 78.861 60.384 78.8328 60.3736C78.8046 60.3632 78.7746 60.3587 78.7446 60.3603H25.0219C24.992 60.3587 24.962 60.3632 24.9338 60.3736C24.9056 60.384 24.8798 60.4 24.858 60.4206C24.8363 60.4413 24.8189 60.4662 24.807 60.4938C24.7952 60.5214 24.7891 60.5511 24.7891 60.5811C24.7891 60.6111 24.7952 60.6408 24.807 60.6684C24.8189 60.696 24.8363 60.7209 24.858 60.7415C24.8798 60.7622 24.9056 60.7782 24.9338 60.7886C24.962 60.799 24.992 60.8035 25.0219 60.8019Z" fill="#C99A40"/>
<path d="M25.0219 63.2854H78.7446C78.7746 63.287 78.8046 63.2825 78.8328 63.2721C78.861 63.2617 78.8867 63.2457 78.9085 63.2251C78.9303 63.2044 78.9477 63.1795 78.9595 63.1519C78.9714 63.1244 78.9775 63.0946 78.9775 63.0646C78.9775 63.0346 78.9714 63.0049 78.9595 62.9773C78.9477 62.9497 78.9303 62.9248 78.9085 62.9042C78.8867 62.8835 78.861 62.8675 78.8328 62.8571C78.8046 62.8467 78.7746 62.8422 78.7446 62.8438H25.0219C24.992 62.8422 24.962 62.8467 24.9338 62.8571C24.9056 62.8675 24.8798 62.8835 24.858 62.9042C24.8363 62.9248 24.8189 62.9497 24.807 62.9773C24.7952 63.0049 24.7891 63.0346 24.7891 63.0646C24.7891 63.0946 24.7952 63.1244 24.807 63.1519C24.8189 63.1795 24.8363 63.2044 24.858 63.2251C24.8798 63.2457 24.9056 63.2617 24.9338 63.2721C24.962 63.2825 24.992 63.287 25.0219 63.2854Z" fill="#C99A40"/>
<path d="M25.0218 65.7671H78.7445C78.7757 65.7712 78.8074 65.7686 78.8376 65.7595C78.8677 65.7503 78.8955 65.7348 78.9191 65.7141C78.9428 65.6933 78.9617 65.6678 78.9747 65.6391C78.9877 65.6105 78.9944 65.5794 78.9944 65.5479C78.9944 65.5164 78.9877 65.4853 78.9747 65.4567C78.9617 65.428 78.9428 65.4024 78.9191 65.3817C78.8955 65.3609 78.8677 65.3455 78.8376 65.3363C78.8074 65.3272 78.7757 65.3246 78.7445 65.3287H25.0218C24.9906 65.3246 24.9589 65.3272 24.9288 65.3363C24.8987 65.3455 24.8709 65.3609 24.8473 65.3817C24.8236 65.4024 24.8047 65.428 24.7917 65.4567C24.7787 65.4853 24.772 65.5164 24.772 65.5479C24.772 65.5794 24.7787 65.6105 24.7917 65.6391C24.8047 65.6678 24.8236 65.6933 24.8473 65.7141C24.8709 65.7348 24.8987 65.7503 24.9288 65.7595C24.9589 65.7686 24.9906 65.7712 25.0218 65.7671Z" fill="#C99A40"/>
<path d="M25.0219 68.2519H78.7446C78.7746 68.2535 78.8046 68.249 78.8328 68.2386C78.861 68.2282 78.8867 68.2122 78.9085 68.1916C78.9303 68.1709 78.9477 68.146 78.9595 68.1184C78.9714 68.0908 78.9775 68.0611 78.9775 68.0311C78.9775 68.0011 78.9714 67.9714 78.9595 67.9438C78.9477 67.9162 78.9303 67.8913 78.9085 67.8707C78.8867 67.85 78.861 67.834 78.8328 67.8236C78.8046 67.8132 78.7746 67.8087 78.7446 67.8103H25.0219C24.992 67.8087 24.962 67.8132 24.9338 67.8236C24.9056 67.834 24.8798 67.85 24.858 67.8707C24.8363 67.8913 24.8189 67.9162 24.807 67.9438C24.7952 67.9714 24.7891 68.0011 24.7891 68.0311C24.7891 68.0611 24.7952 68.0908 24.807 68.1184C24.8189 68.146 24.8363 68.1709 24.858 68.1916C24.8798 68.2122 24.9056 68.2282 24.9338 68.2386C24.962 68.249 24.992 68.2535 25.0219 68.2519Z" fill="#C99A40"/>
<path d="M25.0218 70.736H78.7445C78.7757 70.7401 78.8074 70.7375 78.8376 70.7284C78.8677 70.7192 78.8955 70.7038 78.9191 70.683C78.9428 70.6623 78.9617 70.6367 78.9747 70.6081C78.9877 70.5794 78.9944 70.5483 78.9944 70.5168C78.9944 70.4854 78.9877 70.4543 78.9747 70.4256C78.9617 70.3969 78.9428 70.3714 78.9191 70.3506C78.8955 70.3299 78.8677 70.3144 78.8376 70.3053C78.8074 70.2961 78.7757 70.2935 78.7445 70.2976H25.0218C24.9906 70.2935 24.9589 70.2961 24.9288 70.3053C24.8987 70.3144 24.8709 70.3299 24.8473 70.3506C24.8236 70.3714 24.8047 70.3969 24.7917 70.4256C24.7787 70.4543 24.772 70.4854 24.772 70.5168C24.772 70.5483 24.7787 70.5794 24.7917 70.6081C24.8047 70.6367 24.8236 70.6623 24.8473 70.683C24.8709 70.7038 24.8987 70.7192 24.9288 70.7284C24.9589 70.7375 24.9906 70.7401 25.0218 70.736Z" fill="#C99A40"/>
<path d="M25.0218 73.2209H78.7445C78.7757 73.2249 78.8074 73.2223 78.8376 73.2132C78.8677 73.204 78.8955 73.1886 78.9191 73.1678C78.9428 73.1471 78.9617 73.1215 78.9747 73.0929C78.9877 73.0642 78.9944 73.0331 78.9944 73.0016C78.9944 72.9702 78.9877 72.9391 78.9747 72.9104C78.9617 72.8817 78.9428 72.8562 78.9191 72.8354C78.8955 72.8147 78.8677 72.7992 78.8376 72.7901C78.8074 72.7809 78.7757 72.7783 78.7445 72.7824H25.0218C24.9906 72.7783 24.9589 72.7809 24.9288 72.7901C24.8987 72.7992 24.8709 72.8147 24.8473 72.8354C24.8236 72.8562 24.8047 72.8817 24.7917 72.9104C24.7787 72.9391 24.772 72.9702 24.772 73.0016C24.772 73.0331 24.7787 73.0642 24.7917 73.0929C24.8047 73.1215 24.8236 73.1471 24.8473 73.1678C24.8709 73.1886 24.8987 73.204 24.9288 73.2132C24.9589 73.2223 24.9906 73.2249 25.0218 73.2209Z" fill="#C99A40"/>
<path d="M51.5106 86.3495H78.7443C78.7755 86.3535 78.8072 86.3509 78.8373 86.3418C78.8675 86.3326 78.8953 86.3172 78.9189 86.2964C78.9426 86.2757 78.9615 86.2501 78.9745 86.2215C78.9875 86.1928 78.9942 86.1617 78.9942 86.1302C78.9942 86.0988 78.9875 86.0677 78.9745 86.039C78.9615 86.0103 78.9426 85.9848 78.9189 85.964C78.8953 85.9433 78.8675 85.9278 78.8373 85.9187C78.8072 85.9095 78.7755 85.9069 78.7443 85.911H51.5106C51.4794 85.9069 51.4477 85.9095 51.4176 85.9187C51.3875 85.9278 51.3597 85.9433 51.336 85.964C51.3124 85.9848 51.2934 86.0103 51.2804 86.039C51.2675 86.0677 51.2607 86.0988 51.2607 86.1302C51.2607 86.1617 51.2675 86.1928 51.2804 86.2215C51.2934 86.2501 51.3124 86.2757 51.336 86.2964C51.3597 86.3172 51.3875 86.3326 51.4176 86.3418C51.4477 86.3509 51.4794 86.3535 51.5106 86.3495Z" fill="#C99A40"/>
<path d="M51.5106 88.8324H78.7443C78.7755 88.8365 78.8072 88.8338 78.8373 88.8247C78.8675 88.8156 78.8953 88.8001 78.9189 88.7793C78.9426 88.7586 78.9615 88.733 78.9745 88.7044C78.9875 88.6757 78.9942 88.6446 78.9942 88.6131C78.9942 88.5817 78.9875 88.5506 78.9745 88.5219C78.9615 88.4932 78.9426 88.4677 78.9189 88.4469C78.8953 88.4262 78.8675 88.4107 78.8373 88.4016C78.8072 88.3924 78.7755 88.3898 78.7443 88.3939H51.5106C51.4794 88.3898 51.4477 88.3924 51.4176 88.4016C51.3875 88.4107 51.3597 88.4262 51.336 88.4469C51.3124 88.4677 51.2934 88.4932 51.2804 88.5219C51.2675 88.5506 51.2607 88.5817 51.2607 88.6131C51.2607 88.6446 51.2675 88.6757 51.2804 88.7044C51.2934 88.733 51.3124 88.7586 51.336 88.7793C51.3597 88.8001 51.3875 88.8156 51.4176 88.8247C51.4477 88.8338 51.4794 88.8365 51.5106 88.8324Z" fill="#C99A40"/>
<path d="M51.5107 91.3165H78.7444C78.803 91.3165 78.8593 91.2932 78.9007 91.2517C78.9422 91.2103 78.9655 91.154 78.9655 91.0954C78.9655 91.0367 78.9422 90.9805 78.9007 90.939C78.8593 90.8976 78.803 90.8743 78.7444 90.8743H51.5107C51.4816 90.8743 51.4529 90.88 51.426 90.8911C51.3992 90.9022 51.3748 90.9185 51.3543 90.939C51.3338 90.9596 51.3175 90.9839 51.3064 91.0108C51.2953 91.0376 51.2896 91.0663 51.2896 91.0954C51.2896 91.1244 51.2953 91.1532 51.3064 91.18C51.3175 91.2068 51.3338 91.2312 51.3543 91.2517C51.3748 91.2723 51.3992 91.2885 51.426 91.2997C51.4529 91.3108 51.4816 91.3165 51.5107 91.3165Z" fill="#C99A40"/>
</g>
<defs>
<filter id="filter0_d_640_158" x="8.62133" y="0.689692" width="85.7793" height="116.449" filterUnits="userSpaceOnUse" color-interpolation-filters="sRGB">
<feFlood flood-opacity="0" result="BackgroundImageFix"/>
<feColorMatrix in="SourceAlpha" type="matrix" values="0 0 0 0 0 0 0 0 0 0 0 0 0 0 0 0 0 0 127 0" result="hardAlpha"/>
<feOffset dy="3"/>
<feGaussianBlur stdDeviation="4.15515"/>
<feComposite in2="hardAlpha" operator="out"/>
<feColorMatrix type="matrix" values="0 0 0 0 0 0 0 0 0 0 0 0 0 0 0 0 0 0 0.18 0"/>
<feBlend mode="normal" in2="BackgroundImageFix" result="effect1_dropShadow_640_158"/>
<feBlend mode="normal" in="SourceGraphic" in2="effect1_dropShadow_640_158" result="shape"/>
</filter>
<linearGradient id="paint0_linear_640_158" x1="52.4427" y1="29.411" x2="52.4427" y2="113.993" gradientUnits="userSpaceOnUse">
<stop stop-color="#FFDD9A"/>
<stop offset="1" stop-color="#FFB320" stop-opacity="0.79"/>
</linearGradient>
<clipPath id="clip0_640_158">
<rect width="69.1588" height="99.8288" fill="white" transform="translate(16.9316 6)"/>
</clipPath>
</defs>
</svg>
