<svg width="130" height="136" viewBox="0 0 130 136" fill="none" xmlns="http://www.w3.org/2000/svg">
<path d="M123.836 59.0747C123.836 85.2712 148.525 136 58.455 136C-0.0682831 130.688 -6.06828 117 3.93172 91.5C17.1908 66.3494 24.6185 78.8068 58.455 78.8068C92.2915 78.8068 123.836 32.8781 123.836 59.0747Z" fill="url(#paint0_linear_640_158)" fill-opacity="0.67"/>
<g clip-path="url(#clip0_640_158)" filter="url(#filter0_d_640_158)">
<path d="M19.8893 6L10.9316 14.9583V105.829H80.0905V6H19.8893Z" fill="#FEE7BA"/>
<path d="M10.9316 14.9583H19.8548V6L10.9316 14.9583Z" fill="#FFDE9E"/>
<path d="M41.7488 24.9889H18.9717V47.766H41.7488V24.9889Z" fill="#C99A40"/>
<path d="M45.8833 25.4098H72.7443C72.7743 25.4114 72.8043 25.4069 72.8324 25.3965C72.8606 25.3861 72.8864 25.3701 72.9082 25.3495C72.93 25.3288 72.9473 25.3039 72.9592 25.2763C72.971 25.2487 72.9772 25.219 72.9772 25.189C72.9772 25.159 72.971 25.1293 72.9592 25.1017C72.9473 25.0741 72.93 25.0492 72.9082 25.0285C72.8864 25.0079 72.8606 24.9919 72.8324 24.9815C72.8043 24.9711 72.7743 24.9666 72.7443 24.9682H45.8833C45.8533 24.9666 45.8233 24.9711 45.7951 24.9815C45.7669 24.9919 45.7412 25.0079 45.7194 25.0285C45.6976 25.0492 45.6802 25.0741 45.6684 25.1017C45.6565 25.1293 45.6504 25.159 45.6504 25.189C45.6504 25.219 45.6565 25.2487 45.6684 25.2763C45.6802 25.3039 45.6976 25.3288 45.7194 25.3495C45.7412 25.3701 45.7669 25.3861 45.7951 25.3965C45.8233 25.4069 45.8533 25.4114 45.8833 25.4098Z" fill="#C99A40"/>
<path d="M45.8833 27.8927H72.7443C72.7743 27.8943 72.8043 27.8898 72.8324 27.8794C72.8606 27.869 72.8864 27.853 72.9082 27.8324C72.93 27.8117 72.9473 27.7868 72.9592 27.7592C72.971 27.7317 72.9772 27.7019 72.9772 27.6719C72.9772 27.6419 72.971 27.6122 72.9592 27.5846C72.9473 27.557 72.93 27.5321 72.9082 27.5115C72.8864 27.4908 72.8606 27.4748 72.8324 27.4644C72.8043 27.454 72.7743 27.4495 72.7443 27.4511H45.8833C45.8533 27.4495 45.8233 27.454 45.7951 27.4644C45.7669 27.4748 45.7412 27.4908 45.7194 27.5115C45.6976 27.5321 45.6802 27.557 45.6684 27.5846C45.6565 27.6122 45.6504 27.6419 45.6504 27.6719C45.6504 27.7019 45.6565 27.7317 45.6684 27.7592C45.6802 27.7868 45.6976 27.8117 45.7194 27.8324C45.7412 27.853 45.7669 27.869 45.7951 27.8794C45.8233 27.8898 45.8533 27.8943 45.8833 27.8927Z" fill="#C99A40"/>
<path d="M45.8832 30.3775H72.7442C72.7754 30.3816 72.8071 30.379 72.8372 30.3698C72.8673 30.3607 72.8951 30.3452 72.9188 30.3244C72.9424 30.3037 72.9614 30.2781 72.9744 30.2495C72.9874 30.2208 72.9941 30.1897 72.9941 30.1582C72.9941 30.1268 72.9874 30.0957 72.9744 30.067C72.9614 30.0383 72.9424 30.0128 72.9188 29.992C72.8951 29.9713 72.8673 29.9558 72.8372 29.9467C72.8071 29.9375 72.7754 29.9349 72.7442 29.939H45.8832C45.852 29.9349 45.8203 29.9375 45.7902 29.9467C45.7601 29.9558 45.7322 29.9713 45.7086 29.992C45.6849 30.0128 45.666 30.0383 45.653 30.067C45.64 30.0957 45.6333 30.1268 45.6333 30.1582C45.6333 30.1897 45.64 30.2208 45.653 30.2495C45.666 30.2781 45.6849 30.3037 45.7086 30.3244C45.7322 30.3452 45.7601 30.3607 45.7902 30.3698C45.8203 30.379 45.852 30.3816 45.8832 30.3775Z" fill="#C99A40"/>
<path d="M45.8832 32.8598H72.7442C72.7754 32.8639 72.8071 32.8613 72.8372 32.8521C72.8673 32.843 72.8951 32.8275 72.9188 32.8067C72.9424 32.786 72.9614 32.7604 72.9744 32.7318C72.9874 32.7031 72.9941 32.672 72.9941 32.6405C72.9941 32.6091 72.9874 32.578 72.9744 32.5493C72.9614 32.5206 72.9424 32.4951 72.9188 32.4743C72.8951 32.4536 72.8673 32.4381 72.8372 32.429C72.8071 32.4198 72.7754 32.4172 72.7442 32.4213H45.8832C45.852 32.4172 45.8203 32.4198 45.7902 32.429C45.7601 32.4381 45.7322 32.4536 45.7086 32.4743C45.6849 32.4951 45.666 32.5206 45.653 32.5493C45.64 32.578 45.6333 32.6091 45.6333 32.6405C45.6333 32.672 45.64 32.7031 45.653 32.7318C45.666 32.7604 45.6849 32.786 45.7086 32.8067C45.7322 32.8275 45.7601 32.843 45.7902 32.8521C45.8203 32.8613 45.852 32.8639 45.8832 32.8598Z" fill="#C99A40"/>
<path d="M45.8832 35.3433H72.7442C72.7754 35.3474 72.8071 35.3448 72.8372 35.3356C72.8673 35.3265 72.8951 35.311 72.9188 35.2903C72.9424 35.2695 72.9614 35.244 72.9744 35.2153C72.9874 35.1866 72.9941 35.1555 72.9941 35.1241C72.9941 35.0926 72.9874 35.0615 72.9744 35.0328C72.9614 35.0042 72.9424 34.9786 72.9188 34.9579C72.8951 34.9371 72.8673 34.9216 72.8372 34.9125C72.8071 34.9034 72.7754 34.9007 72.7442 34.9048H45.8832C45.852 34.9007 45.8203 34.9034 45.7902 34.9125C45.7601 34.9216 45.7322 34.9371 45.7086 34.9579C45.6849 34.9786 45.666 35.0042 45.653 35.0328C45.64 35.0615 45.6333 35.0926 45.6333 35.1241C45.6333 35.1555 45.64 35.1866 45.653 35.2153C45.666 35.244 45.6849 35.2695 45.7086 35.2903C45.7322 35.311 45.7601 35.3265 45.7902 35.3356C45.8203 35.3448 45.852 35.3474 45.8832 35.3433Z" fill="#C99A40"/>
<path d="M45.8832 37.8269H72.7442C72.7754 37.831 72.8071 37.8284 72.8372 37.8192C72.8673 37.8101 72.8951 37.7946 72.9188 37.7738C72.9424 37.7531 72.9614 37.7275 72.9744 37.6989C72.9874 37.6702 72.9941 37.6391 72.9941 37.6076C72.9941 37.5762 72.9874 37.5451 72.9744 37.5164C72.9614 37.4878 72.9424 37.4622 72.9188 37.4414C72.8951 37.4207 72.8673 37.4052 72.8372 37.3961C72.8071 37.3869 72.7754 37.3843 72.7442 37.3884H45.8832C45.852 37.3843 45.8203 37.3869 45.7902 37.3961C45.7601 37.4052 45.7322 37.4207 45.7086 37.4414C45.6849 37.4622 45.666 37.4878 45.653 37.5164C45.64 37.5451 45.6333 37.5762 45.6333 37.6076C45.6333 37.6391 45.64 37.6702 45.653 37.6989C45.666 37.7275 45.6849 37.7531 45.7086 37.7738C45.7322 37.7946 45.7601 37.8101 45.7902 37.8192C45.8203 37.8284 45.852 37.831 45.8832 37.8269Z" fill="#C99A40"/>
<path d="M45.8833 40.3104H72.7443C72.7743 40.312 72.8043 40.3074 72.8324 40.2971C72.8606 40.2867 72.8864 40.2707 72.9082 40.25C72.93 40.2294 72.9473 40.2045 72.9592 40.1769C72.971 40.1493 72.9772 40.1196 72.9772 40.0896C72.9772 40.0595 72.971 40.0298 72.9592 40.0022C72.9473 39.9747 72.93 39.9498 72.9082 39.9291C72.8864 39.9085 72.8606 39.8925 72.8324 39.8821C72.8043 39.8717 72.7743 39.8672 72.7443 39.8688H45.8833C45.8533 39.8672 45.8233 39.8717 45.7951 39.8821C45.7669 39.8925 45.7412 39.9085 45.7194 39.9291C45.6976 39.9498 45.6802 39.9747 45.6684 40.0022C45.6565 40.0298 45.6504 40.0595 45.6504 40.0896C45.6504 40.1196 45.6565 40.1493 45.6684 40.1769C45.6802 40.2045 45.6976 40.2294 45.7194 40.25C45.7412 40.2707 45.7669 40.2867 45.7951 40.2971C45.8233 40.3074 45.8533 40.312 45.8833 40.3104Z" fill="#C99A40"/>
<path d="M45.8833 42.7939H72.7443C72.7743 42.7955 72.8043 42.791 72.8324 42.7806C72.8606 42.7702 72.8864 42.7542 72.9082 42.7335C72.93 42.7129 72.9473 42.688 72.9592 42.6604C72.971 42.6328 72.9772 42.6031 72.9772 42.5731C72.9772 42.5431 72.971 42.5134 72.9592 42.4858C72.9473 42.4582 72.93 42.4333 72.9082 42.4126C72.8864 42.392 72.8606 42.376 72.8324 42.3656C72.8043 42.3552 72.7743 42.3507 72.7443 42.3523H45.8833C45.8533 42.3507 45.8233 42.3552 45.7951 42.3656C45.7669 42.376 45.7412 42.392 45.7194 42.4126C45.6976 42.4333 45.6802 42.4582 45.6684 42.4858C45.6565 42.5134 45.6504 42.5431 45.6504 42.5731C45.6504 42.6031 45.6565 42.6328 45.6684 42.6604C45.6802 42.688 45.6976 42.7129 45.7194 42.7335C45.7412 42.7542 45.7669 42.7702 45.7951 42.7806C45.8233 42.791 45.8533 42.7955 45.8833 42.7939Z" fill="#C99A40"/>
<path d="M45.8832 45.2775H72.7442C72.7754 45.2816 72.8071 45.279 72.8372 45.2698C72.8673 45.2607 72.8951 45.2452 72.9188 45.2245C72.9424 45.2037 72.9614 45.1782 72.9744 45.1495C72.9874 45.1208 72.9941 45.0897 72.9941 45.0583C72.9941 45.0268 72.9874 44.9957 72.9744 44.967C72.9614 44.9384 72.9424 44.9128 72.9188 44.8921C72.8951 44.8713 72.8673 44.8558 72.8372 44.8467C72.8071 44.8376 72.7754 44.8349 72.7442 44.839H45.8832C45.852 44.8349 45.8203 44.8376 45.7902 44.8467C45.7601 44.8558 45.7322 44.8713 45.7086 44.8921C45.6849 44.9128 45.666 44.9384 45.653 44.967C45.64 44.9957 45.6333 45.0268 45.6333 45.0583C45.6333 45.0897 45.64 45.1208 45.653 45.1495C45.666 45.1782 45.6849 45.2037 45.7086 45.2245C45.7322 45.2452 45.7601 45.2607 45.7902 45.2698C45.8203 45.279 45.852 45.2816 45.8832 45.2775Z" fill="#C99A40"/>
<path d="M45.8832 47.761H72.7442C72.7754 47.765 72.8071 47.7624 72.8372 47.7533C72.8673 47.7441 72.8951 47.7287 72.9188 47.7079C72.9424 47.6872 72.9614 47.6616 72.9744 47.633C72.9874 47.6043 72.9941 47.5732 72.9941 47.5417C72.9941 47.5103 72.9874 47.4792 72.9744 47.4505C72.9614 47.4218 72.9424 47.3963 72.9188 47.3755C72.8951 47.3548 72.8673 47.3393 72.8372 47.3302C72.8071 47.321 72.7754 47.3184 72.7442 47.3225H45.8832C45.852 47.3184 45.8203 47.321 45.7902 47.3302C45.7601 47.3393 45.7322 47.3548 45.7086 47.3755C45.6849 47.3963 45.666 47.4218 45.653 47.4505C45.64 47.4792 45.6333 47.5103 45.6333 47.5417C45.6333 47.5732 45.64 47.6043 45.653 47.633C45.666 47.6616 45.6849 47.6872 45.7086 47.7079C45.7322 47.7287 45.7601 47.7441 45.7902 47.7533C45.8203 47.7624 45.852 47.765 45.8832 47.761Z" fill="#C99A40"/>
<path d="M19.0218 50.8678H72.7445C72.7757 50.8719 72.8074 50.8692 72.8376 50.8601C72.8677 50.851 72.8955 50.8355 72.9191 50.8147C72.9428 50.794 72.9617 50.7684 72.9747 50.7398C72.9877 50.7111 72.9944 50.68 72.9944 50.6485C72.9944 50.6171 72.9877 50.586 72.9747 50.5573C72.9617 50.5286 72.9428 50.5031 72.9191 50.4823C72.8955 50.4616 72.8677 50.4461 72.8376 50.437C72.8074 50.4278 72.7757 50.4252 72.7445 50.4293H19.0218C18.9906 50.4252 18.9589 50.4278 18.9288 50.437C18.8987 50.4461 18.8709 50.4616 18.8473 50.4823C18.8236 50.5031 18.8047 50.5286 18.7917 50.5573C18.7787 50.586 18.772 50.6171 18.772 50.6485C18.772 50.68 18.7787 50.7111 18.7917 50.7398C18.8047 50.7684 18.8236 50.794 18.8473 50.8147C18.8709 50.8355 18.8987 50.851 18.9288 50.8601C18.9589 50.8692 18.9906 50.8719 19.0218 50.8678Z" fill="#C99A40"/>
<path d="M19.0218 53.3513H72.7445C72.7757 53.3554 72.8074 53.3528 72.8376 53.3436C72.8677 53.3345 72.8955 53.319 72.9191 53.2983C72.9428 53.2775 72.9617 53.2519 72.9747 53.2233C72.9877 53.1946 72.9944 53.1635 72.9944 53.1321C72.9944 53.1006 72.9877 53.0695 72.9747 53.0408C72.9617 53.0122 72.9428 52.9866 72.9191 52.9659C72.8955 52.9451 72.8677 52.9296 72.8376 52.9205C72.8074 52.9113 72.7757 52.9087 72.7445 52.9128H19.0218C18.9906 52.9087 18.9589 52.9113 18.9288 52.9205C18.8987 52.9296 18.8709 52.9451 18.8473 52.9659C18.8236 52.9866 18.8047 53.0122 18.7917 53.0408C18.7787 53.0695 18.772 53.1006 18.772 53.1321C18.772 53.1635 18.7787 53.1946 18.7917 53.2233C18.8047 53.2519 18.8236 53.2775 18.8473 53.2983C18.8709 53.319 18.8987 53.3345 18.9288 53.3436C18.9589 53.3528 18.9906 53.3554 19.0218 53.3513Z" fill="#C99A40"/>
<path d="M19.0218 55.8348H72.7445C72.7757 55.8389 72.8074 55.8363 72.8376 55.8271C72.8677 55.818 72.8955 55.8025 72.9191 55.7818C72.9428 55.761 72.9617 55.7355 72.9747 55.7068C72.9877 55.6781 72.9944 55.647 72.9944 55.6156C72.9944 55.5841 72.9877 55.553 72.9747 55.5243C72.9617 55.4957 72.9428 55.4701 72.9191 55.4494C72.8955 55.4286 72.8677 55.4132 72.8376 55.404C72.8074 55.3949 72.7757 55.3923 72.7445 55.3963H19.0218C18.9906 55.3923 18.9589 55.3949 18.9288 55.404C18.8987 55.4132 18.8709 55.4286 18.8473 55.4494C18.8236 55.4701 18.8047 55.4957 18.7917 55.5243C18.7787 55.553 18.772 55.5841 18.772 55.6156C18.772 55.647 18.7787 55.6781 18.7917 55.7068C18.8047 55.7355 18.8236 55.761 18.8473 55.7818C18.8709 55.8025 18.8987 55.818 18.9288 55.8271C18.9589 55.8363 18.9906 55.8389 19.0218 55.8348Z" fill="#C99A40"/>
<path d="M19.0219 58.3184H72.7446C72.7746 58.32 72.8046 58.3154 72.8328 58.3051C72.861 58.2947 72.8867 58.2787 72.9085 58.258C72.9303 58.2374 72.9477 58.2125 72.9595 58.1849C72.9714 58.1573 72.9775 58.1276 72.9775 58.0976C72.9775 58.0675 72.9714 58.0378 72.9595 58.0102C72.9477 57.9827 72.9303 57.9578 72.9085 57.9371C72.8867 57.9165 72.861 57.9005 72.8328 57.8901C72.8046 57.8797 72.7746 57.8752 72.7446 57.8768H19.0219C18.992 57.8752 18.962 57.8797 18.9338 57.8901C18.9056 57.9005 18.8798 57.9165 18.858 57.9371C18.8363 57.9578 18.8189 57.9827 18.807 58.0102C18.7952 58.0378 18.7891 58.0675 18.7891 58.0976C18.7891 58.1276 18.7952 58.1573 18.807 58.1849C18.8189 58.2125 18.8363 58.2374 18.858 58.258C18.8798 58.2787 18.9056 58.2947 18.9338 58.3051C18.962 58.3154 18.992 58.32 19.0219 58.3184Z" fill="#C99A40"/>
<path d="M19.0219 60.8019H72.7446C72.7746 60.8035 72.8046 60.799 72.8328 60.7886C72.861 60.7782 72.8867 60.7622 72.9085 60.7415C72.9303 60.7209 72.9477 60.696 72.9595 60.6684C72.9714 60.6408 72.9775 60.6111 72.9775 60.5811C72.9775 60.5511 72.9714 60.5214 72.9595 60.4938C72.9477 60.4662 72.9303 60.4413 72.9085 60.4206C72.8867 60.4 72.861 60.384 72.8328 60.3736C72.8046 60.3632 72.7746 60.3587 72.7446 60.3603H19.0219C18.992 60.3587 18.962 60.3632 18.9338 60.3736C18.9056 60.384 18.8798 60.4 18.858 60.4206C18.8363 60.4413 18.8189 60.4662 18.807 60.4938C18.7952 60.5214 18.7891 60.5511 18.7891 60.5811C18.7891 60.6111 18.7952 60.6408 18.807 60.6684C18.8189 60.696 18.8363 60.7209 18.858 60.7415C18.8798 60.7622 18.9056 60.7782 18.9338 60.7886C18.962 60.799 18.992 60.8035 19.0219 60.8019Z" fill="#C99A40"/>
<path d="M19.0219 63.2854H72.7446C72.7746 63.287 72.8046 63.2825 72.8328 63.2721C72.861 63.2617 72.8867 63.2457 72.9085 63.2251C72.9303 63.2044 72.9477 63.1795 72.9595 63.1519C72.9714 63.1244 72.9775 63.0946 72.9775 63.0646C72.9775 63.0346 72.9714 63.0049 72.9595 62.9773C72.9477 62.9497 72.9303 62.9248 72.9085 62.9042C72.8867 62.8835 72.861 62.8675 72.8328 62.8571C72.8046 62.8467 72.7746 62.8422 72.7446 62.8438H19.0219C18.992 62.8422 18.962 62.8467 18.9338 62.8571C18.9056 62.8675 18.8798 62.8835 18.858 62.9042C18.8363 62.9248 18.8189 62.9497 18.807 62.9773C18.7952 63.0049 18.7891 63.0346 18.7891 63.0646C18.7891 63.0946 18.7952 63.1244 18.807 63.1519C18.8189 63.1795 18.8363 63.2044 18.858 63.2251C18.8798 63.2457 18.9056 63.2617 18.9338 63.2721C18.962 63.2825 18.992 63.287 19.0219 63.2854Z" fill="#C99A40"/>
<path d="M19.0218 65.7671H72.7445C72.7757 65.7712 72.8074 65.7686 72.8376 65.7595C72.8677 65.7503 72.8955 65.7348 72.9191 65.7141C72.9428 65.6933 72.9617 65.6678 72.9747 65.6391C72.9877 65.6105 72.9944 65.5794 72.9944 65.5479C72.9944 65.5164 72.9877 65.4853 72.9747 65.4567C72.9617 65.428 72.9428 65.4024 72.9191 65.3817C72.8955 65.3609 72.8677 65.3455 72.8376 65.3363C72.8074 65.3272 72.7757 65.3246 72.7445 65.3287H19.0218C18.9906 65.3246 18.9589 65.3272 18.9288 65.3363C18.8987 65.3455 18.8709 65.3609 18.8473 65.3817C18.8236 65.4024 18.8047 65.428 18.7917 65.4567C18.7787 65.4853 18.772 65.5164 18.772 65.5479C18.772 65.5794 18.7787 65.6105 18.7917 65.6391C18.8047 65.6678 18.8236 65.6933 18.8473 65.7141C18.8709 65.7348 18.8987 65.7503 18.9288 65.7595C18.9589 65.7686 18.9906 65.7712 19.0218 65.7671Z" fill="#C99A40"/>
<path d="M19.0219 68.2519H72.7446C72.7746 68.2535 72.8046 68.249 72.8328 68.2386C72.861 68.2282 72.8867 68.2122 72.9085 68.1916C72.9303 68.1709 72.9477 68.146 72.9595 68.1184C72.9714 68.0908 72.9775 68.0611 72.9775 68.0311C72.9775 68.0011 72.9714 67.9714 72.9595 67.9438C72.9477 67.9162 72.9303 67.8913 72.9085 67.8707C72.8867 67.85 72.861 67.834 72.8328 67.8236C72.8046 67.8132 72.7746 67.8087 72.7446 67.8103H19.0219C18.992 67.8087 18.962 67.8132 18.9338 67.8236C18.9056 67.834 18.8798 67.85 18.858 67.8707C18.8363 67.8913 18.8189 67.9162 18.807 67.9438C18.7952 67.9714 18.7891 68.0011 18.7891 68.0311C18.7891 68.0611 18.7952 68.0908 18.807 68.1184C18.8189 68.146 18.8363 68.1709 18.858 68.1916C18.8798 68.2122 18.9056 68.2282 18.9338 68.2386C18.962 68.249 18.992 68.2535 19.0219 68.2519Z" fill="#C99A40"/>
<path d="M19.0218 70.736H72.7445C72.7757 70.7401 72.8074 70.7375 72.8376 70.7284C72.8677 70.7192 72.8955 70.7038 72.9191 70.683C72.9428 70.6623 72.9617 70.6367 72.9747 70.6081C72.9877 70.5794 72.9944 70.5483 72.9944 70.5168C72.9944 70.4854 72.9877 70.4543 72.9747 70.4256C72.9617 70.3969 72.9428 70.3714 72.9191 70.3506C72.8955 70.3299 72.8677 70.3144 72.8376 70.3053C72.8074 70.2961 72.7757 70.2935 72.7445 70.2976H19.0218C18.9906 70.2935 18.9589 70.2961 18.9288 70.3053C18.8987 70.3144 18.8709 70.3299 18.8473 70.3506C18.8236 70.3714 18.8047 70.3969 18.7917 70.4256C18.7787 70.4543 18.772 70.4854 18.772 70.5168C18.772 70.5483 18.7787 70.5794 18.7917 70.6081C18.8047 70.6367 18.8236 70.6623 18.8473 70.683C18.8709 70.7038 18.8987 70.7192 18.9288 70.7284C18.9589 70.7375 18.9906 70.7401 19.0218 70.736Z" fill="#C99A40"/>
<path d="M19.0218 73.2209H72.7445C72.7757 73.2249 72.8074 73.2223 72.8376 73.2132C72.8677 73.204 72.8955 73.1886 72.9191 73.1678C72.9428 73.1471 72.9617 73.1215 72.9747 73.0929C72.9877 73.0642 72.9944 73.0331 72.9944 73.0016C72.9944 72.9702 72.9877 72.9391 72.9747 72.9104C72.9617 72.8817 72.9428 72.8562 72.9191 72.8354C72.8955 72.8147 72.8677 72.7992 72.8376 72.7901C72.8074 72.7809 72.7757 72.7783 72.7445 72.7824H19.0218C18.9906 72.7783 18.9589 72.7809 18.9288 72.7901C18.8987 72.7992 18.8709 72.8147 18.8473 72.8354C18.8236 72.8562 18.8047 72.8817 18.7917 72.9104C18.7787 72.9391 18.772 72.9702 18.772 73.0016C18.772 73.0331 18.7787 73.0642 18.7917 73.0929C18.8047 73.1215 18.8236 73.1471 18.8473 73.1678C18.8709 73.1886 18.8987 73.204 18.9288 73.2132C18.9589 73.2223 18.9906 73.2249 19.0218 73.2209Z" fill="#C99A40"/>
<path d="M45.5106 86.3495H72.7443C72.7755 86.3535 72.8072 86.3509 72.8373 86.3418C72.8675 86.3326 72.8953 86.3172 72.9189 86.2964C72.9426 86.2757 72.9615 86.2501 72.9745 86.2215C72.9875 86.1928 72.9942 86.1617 72.9942 86.1302C72.9942 86.0988 72.9875 86.0677 72.9745 86.039C72.9615 86.0103 72.9426 85.9848 72.9189 85.964C72.8953 85.9433 72.8675 85.9278 72.8373 85.9187C72.8072 85.9095 72.7755 85.9069 72.7443 85.911H45.5106C45.4794 85.9069 45.4477 85.9095 45.4176 85.9187C45.3875 85.9278 45.3597 85.9433 45.336 85.964C45.3124 85.9848 45.2934 86.0103 45.2804 86.039C45.2675 86.0677 45.2607 86.0988 45.2607 86.1302C45.2607 86.1617 45.2675 86.1928 45.2804 86.2215C45.2934 86.2501 45.3124 86.2757 45.336 86.2964C45.3597 86.3172 45.3875 86.3326 45.4176 86.3418C45.4477 86.3509 45.4794 86.3535 45.5106 86.3495Z" fill="#C99A40"/>
<path d="M45.5106 88.8324H72.7443C72.7755 88.8365 72.8072 88.8338 72.8373 88.8247C72.8675 88.8156 72.8953 88.8001 72.9189 88.7793C72.9426 88.7586 72.9615 88.733 72.9745 88.7044C72.9875 88.6757 72.9942 88.6446 72.9942 88.6131C72.9942 88.5817 72.9875 88.5506 72.9745 88.5219C72.9615 88.4932 72.9426 88.4677 72.9189 88.4469C72.8953 88.4262 72.8675 88.4107 72.8373 88.4016C72.8072 88.3924 72.7755 88.3898 72.7443 88.3939H45.5106C45.4794 88.3898 45.4477 88.3924 45.4176 88.4016C45.3875 88.4107 45.3597 88.4262 45.336 88.4469C45.3124 88.4677 45.2934 88.4932 45.2804 88.5219C45.2675 88.5506 45.2607 88.5817 45.2607 88.6131C45.2607 88.6446 45.2675 88.6757 45.2804 88.7044C45.2934 88.733 45.3124 88.7586 45.336 88.7793C45.3597 88.8001 45.3875 88.8156 45.4176 88.8247C45.4477 88.8338 45.4794 88.8365 45.5106 88.8324Z" fill="#C99A40"/>
<path d="M45.5107 91.3165H72.7444C72.803 91.3165 72.8593 91.2932 72.9007 91.2517C72.9422 91.2103 72.9655 91.154 72.9655 91.0954C72.9655 91.0367 72.9422 90.9805 72.9007 90.939C72.8593 90.8976 72.803 90.8743 72.7444 90.8743H45.5107C45.4816 90.8743 45.4529 90.88 45.426 90.8911C45.3992 90.9022 45.3748 90.9185 45.3543 90.939C45.3338 90.9596 45.3175 90.9839 45.3064 91.0108C45.2953 91.0376 45.2896 91.0663 45.2896 91.0954C45.2896 91.1244 45.2953 91.1532 45.3064 91.18C45.3175 91.2068 45.3338 91.2312 45.3543 91.2517C45.3748 91.2723 45.3992 91.2885 45.426 91.2997C45.4529 91.3108 45.4816 91.3165 45.5107 91.3165Z" fill="#C99A40"/>
</g>
<g clip-path="url(#clip1_640_158)" filter="url(#filter1_d_640_158)">
<path fill-rule="evenodd" clip-rule="evenodd" d="M46.4395 23.2686L55.3971 14.3103H115.598V114.139H46.4395V23.2686ZM46.4395 14.3103V23.2686L55.3626 14.3103H46.4395Z" fill="#FFDE9E"/>
<path d="M77.2566 33.2992H54.4795V56.0763H77.2566V33.2992Z" fill="#C99A40"/>
<path d="M81.3911 33.7201H108.252C108.282 33.7217 108.312 33.7172 108.34 33.7068C108.368 33.6964 108.394 33.6804 108.416 33.6598C108.438 33.6391 108.455 33.6142 108.467 33.5866C108.479 33.559 108.485 33.5293 108.485 33.4993C108.485 33.4693 108.479 33.4396 108.467 33.412C108.455 33.3844 108.438 33.3595 108.416 33.3389C108.394 33.3182 108.368 33.3022 108.34 33.2918C108.312 33.2814 108.282 33.2769 108.252 33.2785H81.3911C81.3611 33.2769 81.3311 33.2814 81.3029 33.2918C81.2747 33.3022 81.249 33.3182 81.2272 33.3389C81.2054 33.3595 81.188 33.3844 81.1762 33.412C81.1643 33.4396 81.1582 33.4693 81.1582 33.4993C81.1582 33.5293 81.1643 33.559 81.1762 33.5866C81.188 33.6142 81.2054 33.6391 81.2272 33.6598C81.249 33.6804 81.2747 33.6964 81.3029 33.7068C81.3311 33.7172 81.3611 33.7217 81.3911 33.7201Z" fill="#C99A40"/>
<path d="M81.3911 36.203H108.252C108.282 36.2046 108.312 36.2001 108.34 36.1897C108.368 36.1793 108.394 36.1633 108.416 36.1427C108.438 36.122 108.455 36.0971 108.467 36.0695C108.479 36.042 108.485 36.0122 108.485 35.9822C108.485 35.9522 108.479 35.9225 108.467 35.8949C108.455 35.8673 108.438 35.8424 108.416 35.8218C108.394 35.8011 108.368 35.7851 108.34 35.7747C108.312 35.7644 108.282 35.7598 108.252 35.7614H81.3911C81.3611 35.7598 81.3311 35.7644 81.3029 35.7747C81.2747 35.7851 81.249 35.8011 81.2272 35.8218C81.2054 35.8424 81.188 35.8673 81.1762 35.8949C81.1643 35.9225 81.1582 35.9522 81.1582 35.9822C81.1582 36.0122 81.1643 36.042 81.1762 36.0695C81.188 36.0971 81.2054 36.122 81.2272 36.1427C81.249 36.1633 81.2747 36.1793 81.3029 36.1897C81.3311 36.2001 81.3611 36.2046 81.3911 36.203Z" fill="#C99A40"/>
<path d="M81.3915 38.6878H108.253C108.284 38.6919 108.315 38.6893 108.346 38.6801C108.376 38.671 108.403 38.6555 108.427 38.6347C108.451 38.614 108.47 38.5884 108.483 38.5598C108.496 38.5311 108.502 38.5 108.502 38.4685C108.502 38.4371 108.496 38.406 108.483 38.3773C108.47 38.3487 108.451 38.3231 108.427 38.3023C108.403 38.2816 108.376 38.2661 108.346 38.257C108.315 38.2478 108.284 38.2452 108.253 38.2493H81.3915C81.3603 38.2452 81.3286 38.2478 81.2985 38.257C81.2684 38.2661 81.2405 38.2816 81.2169 38.3023C81.1932 38.3231 81.1743 38.3487 81.1613 38.3773C81.1483 38.406 81.1416 38.4371 81.1416 38.4685C81.1416 38.5 81.1483 38.5311 81.1613 38.5598C81.1743 38.5884 81.1932 38.614 81.2169 38.6347C81.2405 38.6555 81.2684 38.671 81.2985 38.6801C81.3286 38.6893 81.3603 38.6919 81.3915 38.6878Z" fill="#C99A40"/>
<path d="M81.3915 41.1701H108.253C108.284 41.1742 108.315 41.1716 108.346 41.1624C108.376 41.1533 108.403 41.1378 108.427 41.117C108.451 41.0963 108.47 41.0707 108.483 41.0421C108.496 41.0134 108.502 40.9823 108.502 40.9508C108.502 40.9194 108.496 40.8883 108.483 40.8596C108.47 40.831 108.451 40.8054 108.427 40.7846C108.403 40.7639 108.376 40.7484 108.346 40.7393C108.315 40.7301 108.284 40.7275 108.253 40.7316H81.3915C81.3603 40.7275 81.3286 40.7301 81.2985 40.7393C81.2684 40.7484 81.2405 40.7639 81.2169 40.7846C81.1932 40.8054 81.1743 40.831 81.1613 40.8596C81.1483 40.8883 81.1416 40.9194 81.1416 40.9508C81.1416 40.9823 81.1483 41.0134 81.1613 41.0421C81.1743 41.0707 81.1932 41.0963 81.2169 41.117C81.2405 41.1378 81.2684 41.1533 81.2985 41.1624C81.3286 41.1716 81.3603 41.1742 81.3915 41.1701Z" fill="#C99A40"/>
<path d="M81.3915 43.6536H108.253C108.284 43.6577 108.315 43.6551 108.346 43.6459C108.376 43.6368 108.403 43.6213 108.427 43.6006C108.451 43.5798 108.47 43.5543 108.483 43.5256C108.496 43.4969 108.502 43.4658 108.502 43.4344C108.502 43.4029 108.496 43.3718 108.483 43.3431C108.47 43.3145 108.451 43.2889 108.427 43.2682C108.403 43.2474 108.376 43.2319 108.346 43.2228C108.315 43.2137 108.284 43.211 108.253 43.2151H81.3915C81.3603 43.211 81.3286 43.2137 81.2985 43.2228C81.2684 43.2319 81.2405 43.2474 81.2169 43.2682C81.1932 43.2889 81.1743 43.3145 81.1613 43.3431C81.1483 43.3718 81.1416 43.4029 81.1416 43.4344C81.1416 43.4658 81.1483 43.4969 81.1613 43.5256C81.1743 43.5543 81.1932 43.5798 81.2169 43.6006C81.2405 43.6213 81.2684 43.6368 81.2985 43.6459C81.3286 43.6551 81.3603 43.6577 81.3915 43.6536Z" fill="#C99A40"/>
<path d="M81.3915 46.1372H108.253C108.284 46.1413 108.315 46.1387 108.346 46.1295C108.376 46.1204 108.403 46.1049 108.427 46.0842C108.451 46.0634 108.47 46.0378 108.483 46.0092C108.496 45.9805 108.502 45.9494 108.502 45.9179C108.502 45.8865 108.496 45.8554 108.483 45.8267C108.47 45.7981 108.451 45.7725 108.427 45.7517C108.403 45.731 108.376 45.7155 108.346 45.7064C108.315 45.6972 108.284 45.6946 108.253 45.6987H81.3915C81.3603 45.6946 81.3286 45.6972 81.2985 45.7064C81.2684 45.7155 81.2405 45.731 81.2169 45.7517C81.1932 45.7725 81.1743 45.7981 81.1613 45.8267C81.1483 45.8554 81.1416 45.8865 81.1416 45.9179C81.1416 45.9494 81.1483 45.9805 81.1613 46.0092C81.1743 46.0378 81.1932 46.0634 81.2169 46.0842C81.2405 46.1049 81.2684 46.1204 81.2985 46.1295C81.3286 46.1387 81.3603 46.1413 81.3915 46.1372Z" fill="#C99A40"/>
<path d="M81.3911 48.6207H108.252C108.282 48.6223 108.312 48.6177 108.34 48.6074C108.368 48.597 108.394 48.581 108.416 48.5603C108.438 48.5397 108.455 48.5148 108.467 48.4872C108.479 48.4596 108.485 48.4299 108.485 48.3999C108.485 48.3698 108.479 48.3401 108.467 48.3126C108.455 48.285 108.438 48.2601 108.416 48.2394C108.394 48.2188 108.368 48.2028 108.34 48.1924C108.312 48.182 108.282 48.1775 108.252 48.1791H81.3911C81.3611 48.1775 81.3311 48.182 81.3029 48.1924C81.2747 48.2028 81.249 48.2188 81.2272 48.2394C81.2054 48.2601 81.188 48.285 81.1762 48.3126C81.1643 48.3401 81.1582 48.3698 81.1582 48.3999C81.1582 48.4299 81.1643 48.4596 81.1762 48.4872C81.188 48.5148 81.2054 48.5397 81.2272 48.5603C81.249 48.581 81.2747 48.597 81.3029 48.6074C81.3311 48.6177 81.3611 48.6223 81.3911 48.6207Z" fill="#C99A40"/>
<path d="M81.3911 51.1042H108.252C108.282 51.1058 108.312 51.1013 108.34 51.0909C108.368 51.0805 108.394 51.0645 108.416 51.0438C108.438 51.0232 108.455 50.9983 108.467 50.9707C108.479 50.9431 108.485 50.9134 108.485 50.8834C108.485 50.8534 108.479 50.8237 108.467 50.7961C108.455 50.7685 108.438 50.7436 108.416 50.7229C108.394 50.7023 108.368 50.6863 108.34 50.6759C108.312 50.6655 108.282 50.661 108.252 50.6626H81.3911C81.3611 50.661 81.3311 50.6655 81.3029 50.6759C81.2747 50.6863 81.249 50.7023 81.2272 50.7229C81.2054 50.7436 81.188 50.7685 81.1762 50.7961C81.1643 50.8237 81.1582 50.8534 81.1582 50.8834C81.1582 50.9134 81.1643 50.9431 81.1762 50.9707C81.188 50.9983 81.2054 51.0232 81.2272 51.0438C81.249 51.0645 81.2747 51.0805 81.3029 51.0909C81.3311 51.1013 81.3611 51.1058 81.3911 51.1042Z" fill="#C99A40"/>
<path d="M81.3915 53.5878H108.253C108.284 53.5919 108.315 53.5893 108.346 53.5801C108.376 53.571 108.403 53.5555 108.427 53.5348C108.451 53.514 108.47 53.4885 108.483 53.4598C108.496 53.4311 108.502 53.4 108.502 53.3686C108.502 53.3371 108.496 53.306 108.483 53.2773C108.47 53.2487 108.451 53.2231 108.427 53.2024C108.403 53.1816 108.376 53.1661 108.346 53.157C108.315 53.1479 108.284 53.1452 108.253 53.1493H81.3915C81.3603 53.1452 81.3286 53.1479 81.2985 53.157C81.2684 53.1661 81.2405 53.1816 81.2169 53.2024C81.1932 53.2231 81.1743 53.2487 81.1613 53.2773C81.1483 53.306 81.1416 53.3371 81.1416 53.3686C81.1416 53.4 81.1483 53.4311 81.1613 53.4598C81.1743 53.4885 81.1932 53.514 81.2169 53.5348C81.2405 53.5555 81.2684 53.571 81.2985 53.5801C81.3286 53.5893 81.3603 53.5919 81.3915 53.5878Z" fill="#C99A40"/>
<path d="M81.3915 56.0713H108.253C108.284 56.0754 108.315 56.0728 108.346 56.0637C108.376 56.0545 108.403 56.039 108.427 56.0183C108.451 55.9975 108.47 55.972 108.483 55.9433C108.496 55.9147 108.502 55.8836 108.502 55.8521C108.502 55.8206 108.496 55.7895 108.483 55.7609C108.47 55.7322 108.451 55.7066 108.427 55.6859C108.403 55.6651 108.376 55.6497 108.346 55.6405C108.315 55.6314 108.284 55.6288 108.253 55.6329H81.3915C81.3603 55.6288 81.3286 55.6314 81.2985 55.6405C81.2684 55.6497 81.2405 55.6651 81.2169 55.6859C81.1932 55.7066 81.1743 55.7322 81.1613 55.7609C81.1483 55.7895 81.1416 55.8206 81.1416 55.8521C81.1416 55.8836 81.1483 55.9147 81.1613 55.9433C81.1743 55.972 81.1932 55.9975 81.2169 56.0183C81.2405 56.039 81.2684 56.0545 81.2985 56.0637C81.3286 56.0728 81.3603 56.0754 81.3915 56.0713Z" fill="#C99A40"/>
<path d="M54.5297 59.1781H108.252C108.284 59.1822 108.315 59.1795 108.345 59.1704C108.375 59.1613 108.403 59.1458 108.427 59.125C108.451 59.1043 108.47 59.0787 108.483 59.0501C108.496 59.0214 108.502 58.9903 108.502 58.9588C108.502 58.9274 108.496 58.8963 108.483 58.8676C108.47 58.8389 108.451 58.8134 108.427 58.7926C108.403 58.7719 108.375 58.7564 108.345 58.7473C108.315 58.7381 108.284 58.7355 108.252 58.7396H54.5297C54.4985 58.7355 54.4667 58.7381 54.4366 58.7473C54.4065 58.7564 54.3787 58.7719 54.3551 58.7926C54.3314 58.8134 54.3125 58.8389 54.2995 58.8676C54.2865 58.8963 54.2798 58.9274 54.2798 58.9588C54.2798 58.9903 54.2865 59.0214 54.2995 59.0501C54.3125 59.0787 54.3314 59.1043 54.3551 59.125C54.3787 59.1458 54.4065 59.1613 54.4366 59.1704C54.4667 59.1795 54.4985 59.1822 54.5297 59.1781Z" fill="#C99A40"/>
<path d="M54.5297 61.6616H108.252C108.284 61.6657 108.315 61.6631 108.345 61.6539C108.375 61.6448 108.403 61.6293 108.427 61.6086C108.451 61.5878 108.47 61.5623 108.483 61.5336C108.496 61.5049 108.502 61.4738 108.502 61.4424C108.502 61.4109 108.496 61.3798 108.483 61.3511C108.47 61.3225 108.451 61.2969 108.427 61.2762C108.403 61.2554 108.375 61.2399 108.345 61.2308C108.315 61.2216 108.284 61.219 108.252 61.2231H54.5297C54.4985 61.219 54.4667 61.2216 54.4366 61.2308C54.4065 61.2399 54.3787 61.2554 54.3551 61.2762C54.3314 61.2969 54.3125 61.3225 54.2995 61.3511C54.2865 61.3798 54.2798 61.4109 54.2798 61.4424C54.2798 61.4738 54.2865 61.5049 54.2995 61.5336C54.3125 61.5623 54.3314 61.5878 54.3551 61.6086C54.3787 61.6293 54.4065 61.6448 54.4366 61.6539C54.4667 61.6631 54.4985 61.6657 54.5297 61.6616Z" fill="#C99A40"/>
<path d="M54.5297 64.1452H108.252C108.284 64.1493 108.315 64.1467 108.345 64.1375C108.375 64.1284 108.403 64.1129 108.427 64.0921C108.451 64.0714 108.47 64.0458 108.483 64.0172C108.496 63.9885 108.502 63.9574 108.502 63.9259C108.502 63.8945 108.496 63.8634 108.483 63.8347C108.47 63.8061 108.451 63.7805 108.427 63.7597C108.403 63.739 108.375 63.7235 108.345 63.7144C108.315 63.7052 108.284 63.7026 108.252 63.7067H54.5297C54.4985 63.7026 54.4667 63.7052 54.4366 63.7144C54.4065 63.7235 54.3787 63.739 54.3551 63.7597C54.3314 63.7805 54.3125 63.8061 54.2995 63.8347C54.2865 63.8634 54.2798 63.8945 54.2798 63.9259C54.2798 63.9574 54.2865 63.9885 54.2995 64.0172C54.3125 64.0458 54.3314 64.0714 54.3551 64.0921C54.3787 64.1129 54.4065 64.1284 54.4366 64.1375C54.4667 64.1467 54.4985 64.1493 54.5297 64.1452Z" fill="#C99A40"/>
<path d="M54.5297 66.6287H108.252C108.282 66.6303 108.312 66.6257 108.341 66.6154C108.369 66.605 108.395 66.589 108.416 66.5683C108.438 66.5477 108.455 66.5228 108.467 66.4952C108.479 66.4676 108.485 66.4379 108.485 66.4079C108.485 66.3778 108.479 66.3481 108.467 66.3205C108.455 66.293 108.438 66.2681 108.416 66.2474C108.395 66.2268 108.369 66.2108 108.341 66.2004C108.312 66.19 108.282 66.1855 108.252 66.1871H54.5297C54.4998 66.1855 54.4698 66.19 54.4416 66.2004C54.4134 66.2108 54.3876 66.2268 54.3659 66.2474C54.3441 66.2681 54.3267 66.293 54.3149 66.3205C54.303 66.3481 54.2969 66.3778 54.2969 66.4079C54.2969 66.4379 54.303 66.4676 54.3149 66.4952C54.3267 66.5228 54.3441 66.5477 54.3659 66.5683C54.3876 66.589 54.4134 66.605 54.4416 66.6154C54.4698 66.6257 54.4998 66.6303 54.5297 66.6287Z" fill="#C99A40"/>
<path d="M54.5297 69.1122H108.252C108.282 69.1138 108.312 69.1093 108.341 69.0989C108.369 69.0885 108.395 69.0725 108.416 69.0518C108.438 69.0312 108.455 69.0063 108.467 68.9787C108.479 68.9511 108.485 68.9214 108.485 68.8914C108.485 68.8614 108.479 68.8317 108.467 68.8041C108.455 68.7765 108.438 68.7516 108.416 68.7309C108.395 68.7103 108.369 68.6943 108.341 68.6839C108.312 68.6735 108.282 68.669 108.252 68.6706H54.5297C54.4998 68.669 54.4698 68.6735 54.4416 68.6839C54.4134 68.6943 54.3876 68.7103 54.3659 68.7309C54.3441 68.7516 54.3267 68.7765 54.3149 68.8041C54.303 68.8317 54.2969 68.8614 54.2969 68.8914C54.2969 68.9214 54.303 68.9511 54.3149 68.9787C54.3267 69.0063 54.3441 69.0312 54.3659 69.0518C54.3876 69.0725 54.4134 69.0885 54.4416 69.0989C54.4698 69.1093 54.4998 69.1138 54.5297 69.1122Z" fill="#C99A40"/>
<path d="M54.5297 71.5957H108.252C108.282 71.5973 108.312 71.5928 108.341 71.5824C108.369 71.572 108.395 71.556 108.416 71.5354C108.438 71.5147 108.455 71.4898 108.467 71.4622C108.479 71.4347 108.485 71.4049 108.485 71.3749C108.485 71.3449 108.479 71.3152 108.467 71.2876C108.455 71.26 108.438 71.2351 108.416 71.2145C108.395 71.1938 108.369 71.1778 108.341 71.1674C108.312 71.1571 108.282 71.1525 108.252 71.1541H54.5297C54.4998 71.1525 54.4698 71.1571 54.4416 71.1674C54.4134 71.1778 54.3876 71.1938 54.3659 71.2145C54.3441 71.2351 54.3267 71.26 54.3149 71.2876C54.303 71.3152 54.2969 71.3449 54.2969 71.3749C54.2969 71.4049 54.303 71.4347 54.3149 71.4622C54.3267 71.4898 54.3441 71.5147 54.3659 71.5354C54.3876 71.556 54.4134 71.572 54.4416 71.5824C54.4698 71.5928 54.4998 71.5973 54.5297 71.5957Z" fill="#C99A40"/>
<path d="M54.5297 74.0774H108.252C108.284 74.0815 108.315 74.0789 108.345 74.0698C108.375 74.0606 108.403 74.0451 108.427 74.0244C108.451 74.0036 108.47 73.9781 108.483 73.9494C108.496 73.9208 108.502 73.8897 108.502 73.8582C108.502 73.8267 108.496 73.7956 108.483 73.767C108.47 73.7383 108.451 73.7127 108.427 73.692C108.403 73.6712 108.375 73.6558 108.345 73.6466C108.315 73.6375 108.284 73.6349 108.252 73.639H54.5297C54.4985 73.6349 54.4667 73.6375 54.4366 73.6466C54.4065 73.6558 54.3787 73.6712 54.3551 73.692C54.3314 73.7127 54.3125 73.7383 54.2995 73.767C54.2865 73.7956 54.2798 73.8267 54.2798 73.8582C54.2798 73.8897 54.2865 73.9208 54.2995 73.9494C54.3125 73.9781 54.3314 74.0036 54.3551 74.0244C54.3787 74.0451 54.4065 74.0606 54.4366 74.0698C54.4667 74.0789 54.4985 74.0815 54.5297 74.0774Z" fill="#C99A40"/>
<path d="M54.5297 76.5622H108.252C108.282 76.5638 108.312 76.5593 108.341 76.5489C108.369 76.5385 108.395 76.5225 108.416 76.5019C108.438 76.4812 108.455 76.4563 108.467 76.4287C108.479 76.4011 108.485 76.3714 108.485 76.3414C108.485 76.3114 108.479 76.2817 108.467 76.2541C108.455 76.2265 108.438 76.2016 108.416 76.181C108.395 76.1603 108.369 76.1443 108.341 76.1339C108.312 76.1235 108.282 76.119 108.252 76.1206H54.5297C54.4998 76.119 54.4698 76.1235 54.4416 76.1339C54.4134 76.1443 54.3876 76.1603 54.3659 76.181C54.3441 76.2016 54.3267 76.2265 54.3149 76.2541C54.303 76.2817 54.2969 76.3114 54.2969 76.3414C54.2969 76.3714 54.303 76.4011 54.3149 76.4287C54.3267 76.4563 54.3441 76.4812 54.3659 76.5019C54.3876 76.5225 54.4134 76.5385 54.4416 76.5489C54.4698 76.5593 54.4998 76.5638 54.5297 76.5622Z" fill="#C99A40"/>
<path d="M54.5297 79.0464H108.252C108.284 79.0504 108.315 79.0478 108.345 79.0387C108.375 79.0295 108.403 79.0141 108.427 78.9933C108.451 78.9726 108.47 78.947 108.483 78.9184C108.496 78.8897 108.502 78.8586 108.502 78.8271C108.502 78.7957 108.496 78.7646 108.483 78.7359C108.47 78.7072 108.451 78.6817 108.427 78.6609C108.403 78.6402 108.375 78.6247 108.345 78.6156C108.315 78.6064 108.284 78.6038 108.252 78.6079H54.5297C54.4985 78.6038 54.4667 78.6064 54.4366 78.6156C54.4065 78.6247 54.3787 78.6402 54.3551 78.6609C54.3314 78.6817 54.3125 78.7072 54.2995 78.7359C54.2865 78.7646 54.2798 78.7957 54.2798 78.8271C54.2798 78.8586 54.2865 78.8897 54.2995 78.9184C54.3125 78.947 54.3314 78.9726 54.3551 78.9933C54.3787 79.0141 54.4065 79.0295 54.4366 79.0387C54.4667 79.0478 54.4985 79.0504 54.5297 79.0464Z" fill="#C99A40"/>
<path d="M54.5297 81.5312H108.252C108.284 81.5352 108.315 81.5326 108.345 81.5235C108.375 81.5144 108.403 81.4989 108.427 81.4781C108.451 81.4574 108.47 81.4318 108.483 81.4032C108.496 81.3745 108.502 81.3434 108.502 81.3119C108.502 81.2805 108.496 81.2494 108.483 81.2207C108.47 81.192 108.451 81.1665 108.427 81.1457C108.403 81.125 108.375 81.1095 108.345 81.1004C108.315 81.0912 108.284 81.0886 108.252 81.0927H54.5297C54.4985 81.0886 54.4667 81.0912 54.4366 81.1004C54.4065 81.1095 54.3787 81.125 54.3551 81.1457C54.3314 81.1665 54.3125 81.192 54.2995 81.2207C54.2865 81.2494 54.2798 81.2805 54.2798 81.3119C54.2798 81.3434 54.2865 81.3745 54.2995 81.4032C54.3125 81.4318 54.3314 81.4574 54.3551 81.4781C54.3787 81.4989 54.4065 81.5144 54.4366 81.5235C54.4667 81.5326 54.4985 81.5352 54.5297 81.5312Z" fill="#C99A40"/>
<path d="M81.0184 94.6598H108.252C108.283 94.6638 108.315 94.6612 108.345 94.6521C108.375 94.643 108.403 94.6275 108.427 94.6067C108.45 94.586 108.469 94.5604 108.482 94.5318C108.495 94.5031 108.502 94.472 108.502 94.4405C108.502 94.4091 108.495 94.378 108.482 94.3493C108.469 94.3206 108.45 94.2951 108.427 94.2743C108.403 94.2536 108.375 94.2381 108.345 94.229C108.315 94.2198 108.283 94.2172 108.252 94.2213H81.0184C80.9872 94.2172 80.9555 94.2198 80.9254 94.229C80.8953 94.2381 80.8675 94.2536 80.8438 94.2743C80.8202 94.2951 80.8012 94.3206 80.7883 94.3493C80.7753 94.378 80.7686 94.4091 80.7686 94.4405C80.7686 94.472 80.7753 94.5031 80.7883 94.5318C80.8012 94.5604 80.8202 94.586 80.8438 94.6067C80.8675 94.6275 80.8953 94.643 80.9254 94.6521C80.9555 94.6612 80.9872 94.6638 81.0184 94.6598Z" fill="#C99A40"/>
<path d="M81.0184 97.1427H108.252C108.283 97.1468 108.315 97.1441 108.345 97.135C108.375 97.1259 108.403 97.1104 108.427 97.0896C108.45 97.0689 108.469 97.0433 108.482 97.0147C108.495 96.986 108.502 96.9549 108.502 96.9234C108.502 96.892 108.495 96.8609 108.482 96.8322C108.469 96.8035 108.45 96.778 108.427 96.7572C108.403 96.7365 108.375 96.721 108.345 96.7119C108.315 96.7027 108.283 96.7001 108.252 96.7042H81.0184C80.9872 96.7001 80.9555 96.7027 80.9254 96.7119C80.8953 96.721 80.8675 96.7365 80.8438 96.7572C80.8202 96.778 80.8012 96.8035 80.7883 96.8322C80.7753 96.8609 80.7686 96.892 80.7686 96.9234C80.7686 96.9549 80.7753 96.986 80.7883 97.0147C80.8012 97.0433 80.8202 97.0689 80.8438 97.0896C80.8675 97.1104 80.8953 97.1259 80.9254 97.135C80.9555 97.1441 80.9872 97.1468 81.0184 97.1427Z" fill="#C99A40"/>
<path d="M81.0185 99.6268H108.252C108.311 99.6268 108.367 99.6035 108.409 99.562C108.45 99.5206 108.473 99.4643 108.473 99.4057C108.473 99.347 108.45 99.2908 108.409 99.2493C108.367 99.2079 108.311 99.1846 108.252 99.1846H81.0185C80.9894 99.1846 80.9607 99.1903 80.9339 99.2014C80.907 99.2125 80.8827 99.2288 80.8621 99.2493C80.8416 99.2699 80.8253 99.2942 80.8142 99.3211C80.8031 99.3479 80.7974 99.3766 80.7974 99.4057C80.7974 99.4347 80.8031 99.4635 80.8142 99.4903C80.8253 99.5171 80.8416 99.5415 80.8621 99.562C80.8827 99.5826 80.907 99.5988 80.9339 99.61C80.9607 99.6211 80.9894 99.6268 81.0185 99.6268Z" fill="#C99A40"/>
</g>
<defs>
<filter id="filter0_d_640_158" x="2.62133" y="0.689692" width="85.7793" height="116.449" filterUnits="userSpaceOnUse" color-interpolation-filters="sRGB">
<feFlood flood-opacity="0" result="BackgroundImageFix"/>
<feColorMatrix in="SourceAlpha" type="matrix" values="0 0 0 0 0 0 0 0 0 0 0 0 0 0 0 0 0 0 127 0" result="hardAlpha"/>
<feOffset dy="3"/>
<feGaussianBlur stdDeviation="4.15515"/>
<feComposite in2="hardAlpha" operator="out"/>
<feColorMatrix type="matrix" values="0 0 0 0 0 0 0 0 0 0 0 0 0 0 0 0 0 0 0.18 0"/>
<feBlend mode="normal" in2="BackgroundImageFix" result="effect1_dropShadow_640_158"/>
<feBlend mode="normal" in="SourceGraphic" in2="effect1_dropShadow_640_158" result="shape"/>
</filter>
<filter id="filter1_d_640_158" x="32.4395" y="0.310303" width="97.1587" height="127.829" filterUnits="userSpaceOnUse" color-interpolation-filters="sRGB">
<feFlood flood-opacity="0" result="BackgroundImageFix"/>
<feColorMatrix in="SourceAlpha" type="matrix" values="0 0 0 0 0 0 0 0 0 0 0 0 0 0 0 0 0 0 127 0" result="hardAlpha"/>
<feOffset/>
<feGaussianBlur stdDeviation="7"/>
<feComposite in2="hardAlpha" operator="out"/>
<feColorMatrix type="matrix" values="0 0 0 0 0 0 0 0 0 0 0 0 0 0 0 0 0 0 0.19 0"/>
<feBlend mode="normal" in2="BackgroundImageFix" result="effect1_dropShadow_640_158"/>
<feBlend mode="normal" in="SourceGraphic" in2="effect1_dropShadow_640_158" result="shape"/>
</filter>
<linearGradient id="paint0_linear_640_158" x1="63.4659" y1="51" x2="63.4659" y2="136" gradientUnits="userSpaceOnUse">
<stop stop-color="#FFE6B7"/>
<stop offset="1" stop-color="#E8A31E" stop-opacity="0.87"/>
</linearGradient>
<clipPath id="clip0_640_158">
<rect width="69.1588" height="99.8288" fill="white" transform="translate(10.9316 6)"/>
</clipPath>
<clipPath id="clip1_640_158">
<rect width="69.1588" height="99.8288" fill="white" transform="translate(46.4395 14.3103)"/>
</clipPath>
</defs>
</svg>
