<svg id="Layer_1" data-name="Layer 1" xmlns="http://www.w3.org/2000/svg" viewBox="0 0 2000 578.31"><defs><style>.cls-1{fill:#261229;}.cls-2{fill:#763880;}</style></defs><path class="cls-1" d="M844.64,228.86,798.11,358.28q-6.42,18.18-28.61,18.18t-28.61-18.18L695.17,228.86a19.25,19.25,0,0,1-1.07-6.15,14.08,14.08,0,0,1,5.07-11.09,17,17,0,0,1,11.48-4.42q10.94,0,14.68,10.71L769.8,342.18l44.68-124.26q3.74-10.72,14.41-10.72a17.31,17.31,0,0,1,11.74,4.42,14.09,14.09,0,0,1,5.08,11.09A19.53,19.53,0,0,1,844.64,228.86Z"/><path class="cls-1" d="M901.32,218a15.23,15.23,0,0,1-4.72,11.27,16.47,16.47,0,0,1-22.92,0A15.23,15.23,0,0,1,869,218a15.67,15.67,0,0,1,4.72-11.4,16.13,16.13,0,0,1,22.92,0A15.67,15.67,0,0,1,901.32,218Zm0,142.35q0,7.77-4.86,11.92a16.87,16.87,0,0,1-11.32,4.16,15.56,15.56,0,0,1-11-4Q869,368.15,869,360.38V260.17c0-5.17,1.71-9.2,5.13-12.05a15.56,15.56,0,0,1,11-4,16.91,16.91,0,0,1,11.32,4.15q4.86,4.16,4.86,11.92Z"/><path class="cls-1" d="M1045.44,330.74q0,24.6-20.06,36.36-16,9.36-42.24,9.36-15.51,0-37.17-8-10.69-3.75-10.7-14.44a17.52,17.52,0,0,1,4.43-11.63,14,14,0,0,1,11.14-5.22,14.25,14.25,0,0,1,5.9,1.34q16.63,5.88,26.56,5.88a62.84,62.84,0,0,0,18-2.4q11.81-3.48,11.81-10.7,0-5.08-21.47-8.82-28.44-4.81-37.82-9.1-21.19-9.62-21.2-30.48,0-22.46,20.06-34.76,16.83-10.43,40.64-10.43,20.06,0,35.56,7,9.63,4.28,9.63,14.17a17.28,17.28,0,0,1-4.55,11.63,14,14,0,0,1-11,5.21,17,17,0,0,1-7.22-1.6q-9.36-4.28-22.46-4.28a152.2,152.2,0,0,0-16.31.53q-11.5,2.15-11.5,10.16,0,4.56,22.73,9.36,29.68,6.17,37.16,9.36Q1045.44,307.75,1045.44,330.74Z"/><path class="cls-1" d="M1195.18,376.46h-71.93q-22.2,0-36.23-13.61t-14-36V258.5q0-7.73,4.85-11.87a17.56,17.56,0,0,1,22.65,0q4.85,4.14,4.85,11.87v68.27q0,17.6,18,17.6h39.47V258.45q0-7.69,4.85-11.83a17,17,0,0,1,11.33-4.13,16.74,16.74,0,0,1,11.45,4.14q4.72,4.14,4.73,11.87Z"/><path class="cls-1" d="M1345.18,376.46h-71.93q-22.47,0-35.83-12.44t-13.37-35.16q0-24.87,17.33-38,15.19-11.76,39.45-11.76a44.63,44.63,0,0,1,16.26,3.47q10.14,4,15.73,10.16,0-21.92-26.58-21.92-9,0-14.63-5.35t-5.58-12q0-14.7,20.32-14.71,24.87,0,40.91,12,17.91,13.38,17.92,37.17Zm-32.36-32.09V331.8q0-10.16-11.38-15.77a43.65,43.65,0,0,0-20.4-4.82q-24.64,0-24.64,17.65,0,15.78,21.2,15.51Z"/><path class="cls-1" d="M1408.81,360.39q0,7.77-4.85,11.92a16.91,16.91,0,0,1-11.32,4.15,15.58,15.58,0,0,1-11.06-4q-5.13-4.29-5.12-12.05V225.14a15.31,15.31,0,0,1,5.12-12,15.58,15.58,0,0,1,11.06-4,16.55,16.55,0,0,1,11.32,4.29q4.86,4.29,4.85,11.78Z"/><path class="cls-1" d="M1472.72,218A15.2,15.2,0,0,1,1468,229.3a16.47,16.47,0,0,1-22.92,0,15.22,15.22,0,0,1-4.71-11.27,16.2,16.2,0,0,1,16.17-16.18A16.22,16.22,0,0,1,1472.72,218Zm0,142.35q0,7.77-4.85,11.92a16.89,16.89,0,0,1-11.33,4.16,15.57,15.57,0,0,1-11-4q-5.13-4.29-5.12-12.06V260.17c0-5.17,1.7-9.2,5.12-12.05a15.57,15.57,0,0,1,11-4,16.93,16.93,0,0,1,11.33,4.15q4.85,4.16,4.85,11.92Z"/><path class="cls-1" d="M1628.34,243.56,1557,344.37h54.27q7.76,0,11.9,4.81a17.46,17.46,0,0,1,0,22.6q-4.14,4.68-11.9,4.68H1491.44l75.93-100.81h-50.53q-7.5,0-11.77-4.81a17.06,17.06,0,0,1,0-22.6c2.85-3.11,6.77-4.68,11.77-4.68Z"/><path class="cls-1" d="M1783.15,329.67h-93.31q8.55,14.7,30.21,14.7,8.28,0,13,4.95A16.38,16.38,0,0,1,1737.7,361a14.92,14.92,0,0,1-4.55,11q-4.55,4.54-13.1,4.55-30.22,0-48.66-18.58t-18.45-49.07q0-32.08,17.91-51.2t50-19.12q30.75,0,47.6,23,14.7,20.59,14.7,51.61Zm-34-32.09q-5.35-27-28.35-27-30.21,0-35,27Z"/><path class="cls-1" d="M1886.63,241.42Q1900,244.9,1900,258.27a16.18,16.18,0,0,1-3.73,10.83q-3.72,4.41-10.38,4.41a18.17,18.17,0,0,1-3.73-.53,18.06,18.06,0,0,0-3.72-.54q-11.18,0-23.69,10.08t-12.51,20.56v57.25q0,7.8-4.85,12a17.48,17.48,0,0,1-22.65,0q-4.85-4.14-4.85-11.92V259.64q0-7.5,4.81-11.79a16.37,16.37,0,0,1,11.23-4.29q13.36,0,15.78,12.84,5.07-7,14.84-11.5a47.3,47.3,0,0,1,20.19-4.54A46.31,46.31,0,0,1,1886.63,241.42Z"/><polygon class="cls-2" points="439.87 211.75 100 211.75 218.62 478.31 381.23 478.31 439.87 211.75"/><polygon class="cls-1" points="218.62 478.31 349.17 140.64 618.4 140.64 511.84 478.31 218.62 478.31"/><polygon class="cls-1" points="631.64 100 618.39 140.64 508.77 140.64 527.1 100 631.64 100"/></svg>