<?xml version="1.0" encoding="utf-8"?>
<!-- Generator: Adobe Illustrator 24.3.0, SVG Export Plug-In . SVG Version: 6.00 Build 0)  -->
<svg version="1.1" id="Layer_1" xmlns="http://www.w3.org/2000/svg" xmlns:xlink="http://www.w3.org/1999/xlink" x="0px" y="0px"
	 viewBox="0 0 2000 2000" style="enable-background:new 0 0 2000 2000;" xml:space="preserve">
<style type="text/css">
	.st0{display:none;}
	.st1{display:inline;fill:#261229;}
	.st2{display:inline;}
	.st3{fill:none;stroke:#000000;stroke-width:3;stroke-miterlimit:10;}
	.st4{fill:#261229;}
	.st5{fill:#763880;}
</style>
<g>
	<g>
		<path class="st4" d="M877.7,1016.6l24.5-61.2h23.2l-38.6,96.1h-18.1l-38.6-96.1h23.2L877.7,1016.6z"/>
		<path class="st4" d="M936.5,968.1c-2.3-2.3-3.5-5.2-3.5-8.6c0-3.4,1.2-6.3,3.5-8.6c2.3-2.3,5.2-3.5,8.6-3.5c3.4,0,6.3,1.2,8.6,3.5
			c2.3,2.3,3.5,5.2,3.5,8.6c0,3.4-1.2,6.3-3.5,8.6c-2.3,2.3-5.2,3.5-8.6,3.5C941.7,971.6,938.8,970.5,936.5,968.1z M955.4,1051.5
			h-20.6v-73.9h20.6V1051.5z"/>
		<path class="st4" d="M1030.6,1028.4c0,7.3-2.7,13.1-8,17.5c-5.4,4.4-12.2,6.6-20.4,6.6c-5.5,0-11.2-1-17.2-3
			c-6-2-11.3-4.9-16.1-8.7l9.1-12.9c7.7,6,15.9,8.9,24.6,8.9c2.7,0,4.8-0.5,6.3-1.6c1.6-1.1,2.3-2.4,2.3-4.2c0-1.7-1.1-3.3-3.2-4.8
			c-2.2-1.5-5.3-2.8-9.3-4.1c-4.1-1.3-7.2-2.4-9.3-3.3c-2.2-0.9-4.6-2.2-7.4-4c-5.6-3.5-8.4-8.6-8.4-15.5s2.7-12.4,8.2-16.7
			c5.5-4.3,12.6-6.5,21.3-6.5c8.7,0,17.4,2.9,26.1,8.8l-7.7,13.7c-6.4-4.4-12.8-6.6-19.2-6.6c-6.4,0-9.6,1.7-9.6,5.2
			c0,1.9,1,3.4,3,4.5c2,1.1,5.4,2.4,10,3.8c4.7,1.5,8,2.6,10,3.4c2,0.8,4.3,2,7.1,3.6C1028,1016,1030.6,1021.2,1030.6,1028.4z"/>
		<path class="st4" d="M1094,1017.4v-39.9h20.8v73.9H1094v-9.8c-5.1,7.2-11.8,10.9-19.9,10.9c-8.1,0-14.9-2.5-20.4-7.6
			c-5.5-5.1-8.2-12.6-8.2-22.6v-44.8h20.8v40.3c0,11.4,4.2,17,12.5,17c4.1,0,7.7-1.5,10.7-4.5
			C1092.5,1027.4,1094,1023.1,1094,1017.4z"/>
		<path class="st4" d="M1197.1,1051.5h-19.4v-8.9c-5.3,6.7-11.9,10-19.7,10c-7.8,0-14.4-2.3-19.7-6.8c-5.3-4.5-8-10.6-8-18.1
			c0-7.6,2.7-13.2,8.2-17c5.5-3.8,13-5.6,22.5-5.6h15.4v-0.4c0-7.9-4.2-11.8-12.5-11.8c-3.6,0-7.4,0.7-11.3,2.1
			c-4,1.4-7.4,3.2-10.1,5.3l-9.2-13.3c9.7-7.1,20.8-10.6,33.3-10.6c9,0,16.3,2.2,22,6.7c5.7,4.5,8.5,11.6,8.5,21.3V1051.5z
			 M1176.4,1023.3v-3.6h-12.9c-8.2,0-12.4,2.6-12.4,7.7c0,2.7,1,4.7,3,6.1c2,1.4,4.8,2.1,8.5,2.1c3.7,0,6.9-1.1,9.7-3.4
			C1175,1030.1,1176.4,1027.1,1176.4,1023.3z"/>
		<path class="st4" d="M1236.6,1051.5h-20.6v-102h20.6V1051.5z"/>
		<path class="st4" d="M1257.8,968.1c-2.3-2.3-3.5-5.2-3.5-8.6c0-3.4,1.2-6.3,3.5-8.6c2.3-2.3,5.2-3.5,8.6-3.5
			c3.4,0,6.3,1.2,8.6,3.5c2.3,2.3,3.5,5.2,3.5,8.6c0,3.4-1.2,6.3-3.5,8.6c-2.3,2.3-5.2,3.5-8.6,3.5
			C1263,971.6,1260.1,970.5,1257.8,968.1z M1276.7,1051.5h-20.6v-73.9h20.6V1051.5z"/>
		<path class="st4" d="M1294.8,994.6v-17h59.6v16.1l-35.9,40.7h37.9v17.2h-64.3v-17l34.9-39.9H1294.8z"/>
		<path class="st4" d="M1436.2,1040.7c-8.3,7.9-18.1,11.8-29.3,11.8c-11.2,0-20.5-3.5-27.8-10.4c-7.3-6.9-11-16.2-11-27.8
			c0-11.6,3.7-20.9,11.2-27.8c7.5-6.9,16.3-10.3,26.5-10.3c10.2,0,18.8,3.1,25.9,9.2c7.1,6.1,10.7,14.6,10.7,25.3v11h-53.9
			c0.6,4,2.7,7.3,6.3,9.9c3.6,2.6,7.6,3.8,12.1,3.8c7.2,0,13.2-2.4,17.9-7.3L1436.2,1040.7z M1416.4,996.9
			c-2.8-2.4-6.3-3.6-10.4-3.6c-4.1,0-7.8,1.2-11.2,3.7c-3.4,2.5-5.4,5.8-5.9,10h32.4C1420.9,1002.7,1419.3,999.3,1416.4,996.9z"/>
		<path class="st4" d="M1496,995.7c-6.1,0-10.7,2.2-13.7,6.5c-3,4.4-4.5,10.1-4.5,17.2v32h-20.6v-73.9h20.6v9.8c2.7-3,6-5.6,10-7.7
			c4-2.1,8-3.2,12.2-3.3l0.1,19.4H1496z"/>
	</g>
	<g>
		<polygon class="st5" points="688.8,957 500,957 565.9,1105.1 656.2,1105.1 		"/>
		<polygon class="st4" points="565.9,1105.1 638.4,917.5 788,917.5 728.8,1105.1 		"/>
		<polygon class="st4" points="795.4,894.9 788,917.5 727.1,917.5 737.3,894.9 		"/>
	</g>
</g>
</svg>
