<svg width="137" height="101" viewBox="0 0 137 101" fill="none" xmlns="http://www.w3.org/2000/svg">
<path d="M60.5962 10.5385V68.5C60.5962 76.8849 57.2653 84.9264 51.3362 90.8555C45.4072 96.7845 37.3657 100.115 28.9808 100.115C27.5833 100.115 26.243 99.5602 25.2549 98.5721C24.2667 97.5839 23.7115 96.2436 23.7115 94.8462C23.7115 93.4487 24.2667 92.1084 25.2549 91.1202C26.243 90.1321 27.5833 89.5769 28.9808 89.5769C34.5654 89.5596 39.9163 87.3334 43.8652 83.3844C47.8141 79.4355 50.0403 74.0846 50.0577 68.5V63.2308H10.5385C7.74349 63.2308 5.06299 62.1205 3.08664 60.1441C1.1103 58.1678 0 55.4873 0 52.6923V10.5385C0 7.74349 1.1103 5.06299 3.08664 3.08664C5.06299 1.1103 7.74349 0 10.5385 0H50.0577C52.8527 0 55.5332 1.1103 57.5095 3.08664C59.4859 5.06299 60.5962 7.74349 60.5962 10.5385ZM126.462 0H86.9423C84.1473 0 81.4668 1.1103 79.4905 3.08664C77.5141 5.06299 76.4038 7.74349 76.4038 10.5385V52.6923C76.4038 55.4873 77.5141 58.1678 79.4905 60.1441C81.4668 62.1205 84.1473 63.2308 86.9423 63.2308H126.462V68.5C126.444 74.0846 124.218 79.4355 120.269 83.3844C116.32 87.3334 110.969 89.5596 105.385 89.5769C103.987 89.5769 102.647 90.1321 101.659 91.1202C100.671 92.1084 100.115 93.4487 100.115 94.8462C100.115 96.2436 100.671 97.5839 101.659 98.5721C102.647 99.5602 103.987 100.115 105.385 100.115C113.77 100.115 121.811 96.7845 127.74 90.8555C133.669 84.9264 137 76.8849 137 68.5V10.5385C137 7.74349 135.89 5.06299 133.913 3.08664C131.937 1.1103 129.257 0 126.462 0Z" fill="#886013"/>
</svg>
