<svg id="b62f34ec-a2d3-4eec-ac0a-4a59efa770aa" data-name="Layer 1" xmlns="http://www.w3.org/2000/svg" width="865.76" height="682.89" viewBox="0 0 865.76 682.89"><polygon points="283.81 619.67 283.81 638.67 301.95 641.98 311.56 615.65 283.81 619.67" fill="#f9b499"/><polygon points="373.24 624.51 374.62 643.45 392.95 645.44 397.83 616.72 373.24 624.51" fill="#f9b499"/><path d="M98.68,28.59l42.85,146.17A1.7,1.7,0,0,0,143,176l77.9,6.83a1.72,1.72,0,0,0,1.81-2.14L184.09,33.3A1.72,1.72,0,0,0,182.55,32L100.43,26.4A1.71,1.71,0,0,0,98.68,28.59Z" fill="#ccc"/><path d="M666.38,625.28,424.87,625c-18.09-30.69-12.36-93.32-12.36-93.32,8.24-83.36,97.42-129.88,97.42-129.88,11.15-7.28,13.57-19.88,13.57-19.88V356.7a24,24,0,0,0-2.27-10.12,27.26,27.26,0,0,0-11.36-12.18c-153.51-87.32-84.06-223.11-84.06-223.11l241.71,22.94s13.91,30.89,13.17,73.45a178.6,178.6,0,0,1-5.76,42.38s-1.28,8.66-8.45,22.21c-.13.26-.28.52-.42.79-10.67,19.8-33.73,49.64-83,78.2l-.09.06a27.55,27.55,0,0,0-4.19,3.47c-.06.08-.14.15-.21.23a32.65,32.65,0,0,0-4.83,6.27.05.05,0,0,1,0,0,31.73,31.73,0,0,0-4.24,18.41s.75,27,12.58,32.77c1.95,1,3.89,1.9,5.73,3,13.4,8.24,57.66,37.21,74.86,70.16C662.68,485.71,702.05,550.62,666.38,625.28Z" fill="#ccc"/><path d="M431.06,114.38v-.2A4.14,4.14,0,0,1,435.2,110H662a4.14,4.14,0,0,1,4.14,4.14v.2H677a5.92,5.92,0,0,1,5.92,5.92v9a3.19,3.19,0,0,1-3.2,3.19h-1.15" fill="#bcbec0"/><path d="M431.06,114.38v-.2A4.14,4.14,0,0,1,435.2,110H662a4.14,4.14,0,0,1,4.14,4.14v.2H677a5.92,5.92,0,0,1,5.92,5.92v9a3.19,3.19,0,0,1-3.2,3.19h-1.15" opacity="0.2"/><path d="M414.29,129.17v-9.53a5.26,5.26,0,0,1,5.26-5.26H660.18a3,3,0,0,1,3,3V119h11.27a5.26,5.26,0,0,1,5.26,5.26v4.93a5.25,5.25,0,0,1-5.26,5.26H419.55A5.26,5.26,0,0,1,414.29,129.17Z" fill="#bcbec0"/><path d="M341.18,312.85l5.22,106.62,18.5,204s21.82,4.74,35.11,0c0,0,3.79-6.17,0-16.61,0,0-3.56-12,0-22.29a53.24,53.24,0,0,0-1.07-39.85s-6.76-18.5-.71-34.51c0,0,10.95-32.74,5.12-53.73,0,0-.85-18.5,3.42-26,0,0,48-72.58,48-93.93,0,0,4.63-30.36-.89-33.32Z" fill="#261229"/><path d="M279.35,624.18l32.07,1.38s5.33-.44,7.82-11.47c0,0,7.12-13.17,12.1-16.73,0,0,23.23-22.19,27.45-41.34L346.4,419.47,277.22,621.06A2.35,2.35,0,0,0,279.35,624.18Z" fill="#261229"/><path d="M279.35,624.18l32.07,1.38s5.33-.44,7.82-11.47c0,0,7.12-13.17,12.1-16.73,0,0,23.23-22.19,27.45-41.34L346.4,419.47,277.22,621.06A2.35,2.35,0,0,0,279.35,624.18Z" opacity="0.2"/><path d="M410,184s-2.63,89.17,97.13,150.22c.82.5,1.66,1,2.5,1.46,3.19,1.83,14.42,8.94,13.68,18.33,0,0,5.2-13.17-15.9-24.89,0,0-46-39.74-63.62-65.37C443.82,263.77,423.46,243.73,410,184Z" opacity="0.2"/><path d="M680.69,207.68a178.6,178.6,0,0,1-5.76,42.38s-1.28,8.66-8.45,22.21c-.13.26-.28.52-.42.79-13.45,24.13-38.17,51.82-83,78.2l-.09.06a20.6,20.6,0,0,0-4.19,3.47c-.06.08-.14.15-.21.23a47.45,47.45,0,0,0-4.83,6.27.05.05,0,0,1,0,0c-1.49,2.29-2.38,4-2.38,4s1.9-12.06,10.55-17.93c0,0,42.55-27.11,62.48-52,1.08-1.34,2.15-2.68,3.26-4,6.2-7.25,31.29-40.35,32.45-86.91C680.11,204.54,680.39,205.64,680.69,207.68Z" opacity="0.2"/><path d="M452.72,267.18s29.1,50,58.4,68.06a34.51,34.51,0,0,1,16.46,25.57c0,.42.09.84.12,1.28,0,0-1.71,29.7,20.34,39.48a5.35,5.35,0,0,1,1.62,4.5L548,527.68s-23.63,54.24-117,49.11c0,0,1.15,33.41,12.27,42.88h211s12.78-19.61,11-35.37c0,0-54.11-19-73.43-31.81,0,0-36.67-25.27-41.07-25.5l.46-122.31s.46-7.18,4.17-9.73c0,0,3.47-4.4,3-8.11,0,0,2.09-9.87,5.1-12.69,0,0,.69,4.81-.23,6.9,0,0,3.7-3.94,2.31-11.12,0,0,1.39-17.84,9.5-24.79,0,0,50.73-38.22,65.33-68.8,0,0-6.74-5.85-24.1-2.19a66.14,66.14,0,0,0-10.73,3.29c-10.58,4.19-50.86,18-77.1-3.05-.37-.3-.73-.6-1.08-.91C525.23,271.58,503.74,254.81,452.72,267.18Z" fill="#fff"/><path d="M457.14,274.5s38.08-12.46,62.64,4.84c0,0,28,22.09,64.26,4.56,0,0-31.84,7.71-53.69-8,0,0-9.42-9.2-26.72-11.76,0,0-22.18-4.71-50.91,3.18Z" opacity="0.45"/><path d="M608.21,276.4s22.13-1,24.49,1.19c0,0-18.13,34.69-48.74,60.56,0,0,46.75-37.38,56.51-61.81C640.47,276.34,630.09,268.28,608.21,276.4Z" opacity="0.45"/><path d="M411.75,546.55S402.52,471.09,501.08,407C501.08,407,418.12,460.17,411.75,546.55Z" opacity="0.2"/><path d="M431.57,625.18s-32.87-52,4.16-121c0,0-27,67.33,12.07,121Z" opacity="0.45"/><path d="M581.89,411.89s97,55,99.24,147.21c0,0,.64-39.9-18.66-74.25C662.47,484.85,649,452.75,581.89,411.89Z" opacity="0.2"/><polygon points="437.01 90.81 440.57 110.64 411.39 124.52 408.77 109.22 434.44 86.44 437.01 90.81" fill="#f9b499"/><path d="M447.88,123.4s36.09,4.32,35.62,50.81c0,0-11.26,130-29.59,129,0,0-90.42,7.35-111.88,12.45-17.45,4.15-8.91-39-8.91-39s-16.61-7.59-21.82-12.81c0,0,10-20.87,14.7-21.82l11.39,6.17s-1.88-107.61,67.37-121.4Z" fill="#ffffff"/><g opacity="0.05"><path d="M373.79,283.3c-16.09,0-27.23-3.75-27.38-3.8l.81-2.36c.22.08,22.62,7.59,49.68.9,35.79-8.84,63.56-38.49,80.32-85.74l2.34.83c-9.5,26.81-22.4,48-38.33,63.1a97,97,0,0,1-43.85,24.26A99.18,99.18,0,0,1,373.79,283.3Z"/></g><g opacity="0.05"><path d="M355.6,255.42a45.87,45.87,0,0,1-5.09-.27l.32-2.48c.14,0,14.45,1.75,22.39-4.48l1.54,2C369.09,254.6,360.87,255.42,355.6,255.42Z"/></g><g opacity="0.05"><path d="M423.4,204.21,421.2,203c.87-1.63,21.37-39.94,39.78-43.33l.45,2.45C444.2,165.33,423.61,203.82,423.4,204.21Z"/></g><g opacity="0.05"><path d="M462.35,154.53c-2.69-13.91-10.71-18.85-10.8-18.89l1.27-2.15c.37.22,9.06,5.48,12,20.56Z"/></g><g opacity="0.05"><rect x="406.53" y="231.61" width="2.49" height="10.45" transform="translate(-61.94 278.5) rotate(-35.22)"/></g><g opacity="0.05"><path d="M406,247.27h-2.49c0-6.24-1.31-9.34-1.32-9.37l2.27-1C404.53,237,406,240.44,406,247.27Z"/></g><path d="M241.09,149.09l8.06,79.68h1.43s-1.19,8,7.59,8.62c7.9.57,106.19,6.78,125.68,8a8.47,8.47,0,0,0,5.93-1.94l7.84-6.51a.72.72,0,0,0-.37-1.27l-34.92-4.3-4.8-77.08a4,4,0,0,0-3.79-3.76l-108.45-5.86A4,4,0,0,0,241.09,149.09Z" fill="#261229"/><circle cx="299.2" cy="190.7" r="6.76" opacity="0.45"/><path d="M309.49,254.88c-4.21-.62-17.14-4.56-28.15-29.2a4.17,4.17,0,0,1-.4-1.73c0-.88.33-1.76,2-.66l8.84,13.07s-8.41-13.63-10.67-20.85a1.6,1.6,0,0,1,2.68-1.58c2.78,2.91,7.28,8.71,12,19.27,0,0-13.35-27-8.66-26.37,0,0,7.45,5.68,15.83,23.87,0,0-11.79-22.63-7.19-24a1.56,1.56,0,0,1,1.86,1c1.42,3.85,7.43,19.17,16.45,28,0,0,1.09-9.31.5-13.85a1.67,1.67,0,0,1,2.75-1.49c1.24,1.19,2.4,4,2.54,10.34,0,0-.39,13.05,1.22,16.09L315.37,256l-1.7-.34C312.29,255.32,310.89,255.08,309.49,254.88Z" fill="#f9b499"/><path d="M55.47,109.94l85.21,7,22.76,83.58a1.45,1.45,0,0,1-1.53,1.82l-84.2-7.46a1.45,1.45,0,0,1-1.26-1.06L54,111.76A1.44,1.44,0,0,1,55.47,109.94Z" fill="#bcbec0"/><path d="M79.19,67.37a161.22,161.22,0,0,0-27,39.17l86.19,6.27Z" fill="#bcbec0"/><path d="M233,98.6l7.26,9.69,24.2-40.69a4.26,4.26,0,0,1,6.37-1.12h0a4.26,4.26,0,0,1,1,5.48L244,118.72a3.35,3.35,0,0,1-5.5.38l-12.25-15.21a4.31,4.31,0,0,1-.24-5.08h0A4.31,4.31,0,0,1,233,98.6Z" fill="#bcbec0"/><path d="M304.86,638.5l-22.37-5.88-3.29,22.43s-16.52-4.24-20.82,3.17L299.24,669Z" fill="#261229"/><rect x="257.07" y="663.51" width="42.25" height="4.79" transform="translate(378.07 1380.64) rotate(-165.28)" fill="#261229"/><path d="M395.59,636.07l-23.11-1,1.59,22.62s-17-.61-19.66,7.55L396.62,667Z" fill="#261229"/><rect x="354.29" y="666.15" width="42.25" height="4.79" transform="translate(723.12 1351.92) rotate(-177.65)" fill="#261229"/><path d="M424.67,134.56l1.4-4.52-9.26-9.68,23.76-11s1.64-.72,3.79,3.52l5.6,9S433.82,133.7,424.67,134.56Z" fill="#ffffff"/><path d="M424.67,134.56l1.4-4.52-9.26-9.68,23.76-11s1.64-.72,3.79,3.52l5.6,9S433.82,133.7,424.67,134.56Z" opacity="0.1"/><path d="M410.79,132.63a18,18,0,0,0,13.88,1.93l1.4-4.52-9.26-9.68L411.65,129Z" fill="#ffffff"/><path d="M410.79,132.63a18,18,0,0,0,13.88,1.93l1.4-4.52-9.26-9.68L411.65,129Z" fill="#fff" opacity="0.2"/><path d="M416.81,120.36l-6.65-3.06a54,54,0,0,0-5.4,9.52l6,5.81.86-3.66Z" fill="#ffffff"/><path d="M416.81,120.36l-6.65-3.06a54,54,0,0,0-5.4,9.52l6,5.81.86-3.66Z" opacity="0.1"/><path d="M431.06,644.71v.2a4.14,4.14,0,0,0,4.14,4.14H662a4.15,4.15,0,0,0,4.14-4.14v-.2H677a5.92,5.92,0,0,0,5.92-5.92v-9a3.19,3.19,0,0,0-3.2-3.19h-1.15" fill="#bcbec0"/><path d="M431.06,644.71v.2a4.14,4.14,0,0,0,4.14,4.14H662a4.15,4.15,0,0,0,4.14-4.14v-.2H677a5.92,5.92,0,0,0,5.92-5.92v-9a3.19,3.19,0,0,0-3.2-3.19h-1.15" opacity="0.2"/><path d="M414.29,629.91v9.54a5.27,5.27,0,0,0,5.26,5.26H660.18a3,3,0,0,0,3-3v-1.64h11.27a5.26,5.26,0,0,0,5.26-5.26v-4.94a5.26,5.26,0,0,0-5.26-5.26H419.55A5.27,5.27,0,0,0,414.29,629.91Z" fill="#bcbec0"/><path d="M409.94,116l-.81-4.75s6.39,2.21,18.72-8.29C427.85,103,424.27,113.86,409.94,116Z" fill="#f7a48b"/><ellipse cx="408.77" cy="75.25" rx="28.24" ry="37.64" fill="#f9b499"/><path d="M380.54,59.06s-6.66-13.17,0-22.06c0,0,27-27.69,48.23-12.94a41.53,41.53,0,0,0,9.3,4.72c5.68,2.11,14.06,7.26,15.62,19.45a30.51,30.51,0,0,1-2.29,15.66c-3.79,9-12.1,27.59-16.61,28.33,0,0-1.38-6.71,1.22-16.36A10.43,10.43,0,0,0,433,65.22a11.25,11.25,0,0,0-1.44-1,11.49,11.49,0,0,1-5.61-7.88,84.46,84.46,0,0,1-1-12.55,15.68,15.68,0,0,1-11.42,11.43,16.39,16.39,0,0,1-7,.31,16.71,16.71,0,0,0-7.94.48,10.36,10.36,0,0,1-10.46,0S384.91,54.79,380.54,59.06Z" fill="#261229"/><ellipse cx="435.81" cy="68.59" rx="4.76" ry="7.42" fill="#f9b499"/></svg>